# Blender 4.4.1
# www.blender.org
mtllib 3DClear.mtl
o 平面
v 2.174855 0.558495 -0.348630
v 2.131687 0.873063 -0.351097
v -0.090805 0.715645 -0.478110
v 0.076846 0.578643 -0.468529
v -2.356528 0.341547 -0.607593
v 0.560821 0.407404 -0.440870
v 0.421807 0.494189 -0.448814
v 1.572624 1.572669 0.050837
v 1.572624 0.890669 0.050837
v 1.670624 0.890669 0.050837
v 1.670624 1.186669 0.050837
v 1.711624 1.186669 0.050837
v 1.723970 1.186273 0.050837
v 1.736143 1.184836 0.050837
v 1.748343 1.181982 0.050837
v 1.760772 1.177336 0.050837
v 1.773632 1.170523 0.050837
v 1.787124 1.161169 0.050837
v 1.801449 1.148898 0.050837
v 1.816809 1.133336 0.050837
v 1.833405 1.114107 0.050837
v 1.851439 1.090836 0.050837
v 1.871111 1.063148 0.050837
v 1.892624 1.030669 0.050837
v 1.982624 0.890669 0.050837
v 2.099624 0.890669 0.050837
v 2.088475 0.906082 0.050837
v 2.078429 0.919974 0.050837
v 2.069343 0.932575 0.050837
v 2.061069 0.944113 0.050837
v 2.053461 0.954818 0.050837
v 2.046375 0.964919 0.050837
v 2.039663 0.974645 0.050837
v 2.033180 0.984225 0.050837
v 2.026781 0.993888 0.050837
v 2.020319 1.003863 0.050837
v 2.013649 1.014381 0.050837
v 2.006624 1.025669 0.050837
v 1.993893 1.046461 0.050837
v 1.981615 1.066336 0.050837
v 1.969655 1.085294 0.050837
v 1.957884 1.103336 0.050837
v 1.946167 1.120461 0.050837
v 1.934374 1.136669 0.050837
v 1.922373 1.151961 0.050837
v 1.910031 1.166336 0.050837
v 1.897218 1.179794 0.050837
v 1.883800 1.192335 0.050837
v 1.869646 1.203961 0.050837
v 1.854624 1.214669 0.050837
v 1.872202 1.222538 0.050837
v 1.888416 1.231623 0.050837
v 1.903234 1.241888 0.050837
v 1.916624 1.253299 0.050837
v 1.928557 1.265821 0.050837
v 1.938999 1.279419 0.050837
v 1.947921 1.294059 0.050837
v 1.955291 1.309706 0.050837
v 1.961077 1.326325 0.050837
v 1.965249 1.343882 0.050837
v 1.967775 1.362342 0.050837
v 1.968624 1.381669 0.050837
v 1.966852 1.410215 0.050837
v 1.961615 1.436789 0.050837
v 1.953030 1.461294 0.050837
v 1.941217 1.483632 0.050837
v 1.926292 1.503706 0.050837
v 1.908374 1.521419 0.050837
v 1.887581 1.536674 0.050837
v 1.864032 1.549373 0.050837
v 1.837843 1.559419 0.050837
v 1.809133 1.566715 0.050837
v 1.778021 1.571164 0.050837
v 1.744624 1.572669 0.050837
v 1.670624 1.488669 0.050837
v 1.733624 1.488669 0.050837
v 1.756198 1.487865 0.050837
v 1.776467 1.485484 0.050837
v 1.794499 1.481575 0.050837
v 1.810365 1.476188 0.050837
v 1.824133 1.469369 0.050837
v 1.835873 1.461169 0.050837
v 1.845656 1.451635 0.050837
v 1.853549 1.440817 0.050837
v 1.859624 1.428763 0.050837
v 1.863948 1.415521 0.050837
v 1.866591 1.401140 0.050837
v 1.867624 1.385669 0.050837
v 1.867203 1.371511 0.050837
v 1.865337 1.357655 0.050837
v 1.861874 1.344278 0.050837
v 1.856661 1.331558 0.050837
v 1.849545 1.319671 0.050837
v 1.840374 1.308794 0.050837
v 1.828994 1.299105 0.050837
v 1.815253 1.290780 0.050837
v 1.798998 1.283997 0.050837
v 1.780077 1.278933 0.050837
v 1.758336 1.275764 0.050837
v 1.733624 1.274669 0.050837
v 1.670624 1.274669 0.050837
v 0.912624 1.576669 0.050837
v 0.843624 1.576669 0.050837
v 0.550624 0.890669 0.050837
v 0.650624 0.890669 0.050837
v 0.736624 1.091669 0.050837
v 1.026624 1.091669 0.050837
v 1.117624 0.890669 0.050837
v 1.217624 0.890669 0.050837
v 0.876624 1.426669 0.050837
v 0.986624 1.179669 0.050837
v 0.774624 1.179669 0.050837
v 0.234624 1.572669 0.050837
v -0.152377 1.572669 0.050837
v -0.152377 0.890669 0.050837
v 0.243624 0.890669 0.050837
v 0.243624 0.978669 0.050837
v -0.054377 0.978669 0.050837
v -0.054377 1.190669 0.050837
v 0.224624 1.190669 0.050837
v 0.224624 1.278669 0.050837
v -0.054377 1.278669 0.050837
v -0.054377 1.484669 0.050837
v 0.234623 1.484669 0.050837
v -0.823377 1.572669 0.050837
v -0.921377 1.572669 0.050837
v -0.921377 0.890669 0.050837
v -0.515377 0.890669 0.050837
v -0.515377 0.978669 0.050837
v -0.823377 0.978669 0.050837
v -1.325377 1.525669 0.050837
v -1.348181 1.534963 0.050837
v -1.370141 1.543359 0.050837
v -1.391330 1.550872 0.050837
v -1.411821 1.557521 0.050837
v -1.431688 1.563322 0.050837
v -1.451002 1.568294 0.050837
v -1.469837 1.572453 0.050837
v -1.488266 1.575817 0.050837
v -1.506361 1.578403 0.050837
v -1.524196 1.580229 0.050837
v -1.541844 1.581312 0.050837
v -1.559377 1.581669 0.050837
v -1.612321 1.578558 0.050837
v -1.662428 1.569447 0.050837
v -1.709361 1.554669 0.050837
v -1.752784 1.534558 0.050837
v -1.792360 1.509447 0.050837
v -1.827752 1.479669 0.050837
v -1.858623 1.445558 0.050837
v -1.884636 1.407447 0.050837
v -1.905455 1.365669 0.050837
v -1.920743 1.320558 0.050837
v -1.930162 1.272447 0.050837
v -1.933377 1.221669 0.050837
v -1.931025 1.184939 0.050837
v -1.923895 1.146831 0.050837
v -1.911877 1.108216 0.050837
v -1.894858 1.069965 0.050837
v -1.872729 1.032951 0.050837
v -1.845377 0.998044 0.050837
v -1.812692 0.966116 0.050837
v -1.774562 0.938039 0.050837
v -1.730877 0.914685 0.050837
v -1.681525 0.896924 0.050837
v -1.626395 0.885628 0.050837
v -1.565377 0.881669 0.050837
v -1.539319 0.882181 0.050837
v -1.514581 0.883683 0.050837
v -1.491064 0.886122 0.050837
v -1.468673 0.889447 0.050837
v -1.447310 0.893605 0.050837
v -1.426877 0.898544 0.050837
v -1.407277 0.904212 0.050837
v -1.388414 0.910558 0.050837
v -1.370189 0.917528 0.050837
v -1.352506 0.925072 0.050837
v -1.335268 0.933136 0.050837
v -1.318377 0.941669 0.050837
v -1.318377 1.048669 0.050837
v -1.337765 1.036650 0.050837
v -1.357395 1.025604 0.050837
v -1.377221 1.015544 0.050837
v -1.397192 1.006484 0.050837
v -1.417260 0.998437 0.050837
v -1.437377 0.991419 0.050837
v -1.457494 0.985442 0.050837
v -1.477562 0.980521 0.050837
v -1.497533 0.976669 0.050837
v -1.517358 0.973900 0.050837
v -1.536989 0.972229 0.050837
v -1.556377 0.971669 0.050837
v -1.596259 0.973843 0.050837
v -1.633766 0.980229 0.050837
v -1.668689 0.990622 0.050837
v -1.700821 1.004817 0.050837
v -1.729953 1.022609 0.050837
v -1.755877 1.043794 0.050837
v -1.778384 1.068166 0.050837
v -1.797266 1.095521 0.050837
v -1.812314 1.125653 0.050837
v -1.823321 1.158359 0.050837
v -1.830078 1.193432 0.050837
v -1.832377 1.230669 0.050837
v -1.830004 1.267315 0.050837
v -1.823062 1.302086 0.050837
v -1.811814 1.334731 0.050837
v -1.796525 1.365002 0.050837
v -1.777458 1.392648 0.050837
v -1.754877 1.417419 0.050837
v -1.729046 1.439065 0.050837
v -1.700229 1.457335 0.050837
v -1.668689 1.471981 0.050837
v -1.634692 1.482752 0.050837
v -1.598500 1.489398 0.050837
v -1.560377 1.491669 0.050837
v -1.540762 1.491208 0.050837
v -1.521372 1.489812 0.050837
v -1.502142 1.487466 0.050837
v -1.483006 1.484151 0.050837
v -1.463898 1.479849 0.050837
v -1.444752 1.474544 0.050837
v -1.425501 1.468218 0.050837
v -1.406081 1.460854 0.050837
v -1.386424 1.452435 0.050837
v -1.366465 1.442942 0.050837
v -1.346138 1.432359 0.050837
v -1.325377 1.420669 0.050837
v 1.780624 2.572669 0.050837
v 1.393624 2.572669 0.050837
v 1.393624 1.890669 0.050837
v 1.789624 1.890669 0.050837
v 1.789624 1.978669 0.050837
v 1.491624 1.978669 0.050837
v 1.491624 2.190669 0.050837
v 1.770624 2.190669 0.050837
v 1.770624 2.278669 0.050837
v 1.491624 2.278669 0.050837
v 1.491624 2.484669 0.050837
v 1.780624 2.484669 0.050837
v 0.968624 2.572669 0.050837
v 0.877624 2.572669 0.050837
v 0.650623 2.292669 0.050837
v 0.424624 2.572669 0.050837
v 0.332623 2.572669 0.050837
v 0.332623 1.890669 0.050837
v 0.430623 1.890669 0.050837
v 0.430623 2.421669 0.050837
v 0.432624 2.421669 0.050837
v 0.642624 2.157669 0.050837
v 0.658623 2.157669 0.050837
v 0.868624 2.421669 0.050837
v 0.870624 2.421669 0.050837
v 0.870624 1.890669 0.050837
v 0.968624 1.890669 0.050837
v -0.323377 2.576669 0.050837
v -0.392377 2.576669 0.050837
v -0.685377 1.890669 0.050837
v -0.585377 1.890669 0.050837
v -0.499377 2.091669 0.050837
v -0.209377 2.091669 0.050837
v -0.118377 1.890669 0.050837
v -0.018377 1.890669 0.050837
v -0.359377 2.426669 0.050837
v -0.249377 2.179669 0.050837
v -0.461377 2.179669 0.050837
v -1.030377 2.226669 0.050837
v -1.259377 2.226669 0.050837
v -1.259377 2.138669 0.050837
v -1.128377 2.138669 0.050837
v -1.128377 1.998669 0.050837
v -1.140150 1.994987 0.050837
v -1.151979 1.991461 0.050837
v -1.163877 1.988122 0.050837
v -1.175858 1.985002 0.050837
v -1.187937 1.982133 0.050837
v -1.200127 1.979544 0.050837
v -1.212442 1.977268 0.050837
v -1.224895 1.975336 0.050837
v -1.237502 1.973778 0.050837
v -1.250275 1.972627 0.050837
v -1.263229 1.971914 0.050837
v -1.276377 1.971669 0.050837
v -1.315839 1.973862 0.050837
v -1.353071 1.980299 0.050837
v -1.387846 1.990763 0.050837
v -1.419932 2.005039 0.050837
v -1.449103 2.022913 0.050837
v -1.475127 2.044169 0.050837
v -1.497776 2.068591 0.050837
v -1.516821 2.095965 0.050837
v -1.532033 2.126075 0.050837
v -1.543182 2.158706 0.050837
v -1.550040 2.193642 0.050837
v -1.552377 2.230669 0.050837
v -1.550028 2.266895 0.050837
v -1.543173 2.301391 0.050837
v -1.532095 2.333888 0.050837
v -1.517081 2.364114 0.050837
v -1.498413 2.391798 0.050837
v -1.476377 2.416669 0.050837
v -1.451257 2.438457 0.050837
v -1.423340 2.456891 0.050837
v -1.392908 2.471700 0.050837
v -1.360247 2.482613 0.050837
v -1.325642 2.489360 0.050837
v -1.289377 2.491669 0.050837
v -1.268858 2.491191 0.050837
v -1.248312 2.489762 0.050837
v -1.227752 2.487388 0.050837
v -1.207191 2.484076 0.050837
v -1.186645 2.479835 0.050837
v -1.166127 2.474669 0.050837
v -1.145650 2.468587 0.050837
v -1.125228 2.461595 0.050837
v -1.104877 2.453700 0.050837
v -1.084608 2.444910 0.050837
v -1.064437 2.435230 0.050837
v -1.044377 2.424669 0.050837
v -1.044377 2.523669 0.050837
v -1.070108 2.534264 0.050837
v -1.093974 2.543591 0.050837
v -1.116236 2.551716 0.050837
v -1.137155 2.558706 0.050837
v -1.156990 2.564627 0.050837
v -1.176002 2.569544 0.050837
v -1.194451 2.573524 0.050837
v -1.212599 2.576632 0.050837
v -1.230705 2.578935 0.050837
v -1.249030 2.580498 0.050837
v -1.267833 2.581387 0.050837
v -1.287377 2.581669 0.050837
v -1.338273 2.578542 0.050837
v -1.386710 2.569405 0.050837
v -1.432314 2.554622 0.050837
v -1.474710 2.534558 0.050837
v -1.513523 2.509577 0.050837
v -1.548377 2.480044 0.050837
v -1.578898 2.446324 0.050837
v -1.604710 2.408780 0.050837
v -1.625439 2.367778 0.050837
v -1.640710 2.323683 0.050837
v -1.650148 2.276858 0.050837
v -1.653377 2.227669 0.050837
v -1.650226 2.178847 0.050837
v -1.641002 2.132595 0.050837
v -1.626049 2.089231 0.050837
v -1.605710 2.049076 0.050837
v -1.580330 2.012449 0.050837
v -1.550252 1.979669 0.050837
v -1.515820 1.951056 0.050837
v -1.477377 1.926928 0.050837
v -1.435267 1.907606 0.050837
v -1.389835 1.893410 0.050837
v -1.341424 1.884657 0.050837
v -1.290377 1.881669 0.050837
v -1.267042 1.882007 0.050837
v -1.244451 1.883039 0.050837
v -1.222471 1.884794 0.050837
v -1.200969 1.887299 0.050837
v -1.179816 1.890581 0.050837
v -1.158877 1.894669 0.050837
v -1.138021 1.899590 0.050837
v -1.117118 1.905373 0.050837
v -1.096033 1.912044 0.050837
v -1.074636 1.919632 0.050837
v -1.052795 1.928164 0.050837
v -1.030377 1.937669 0.050837
vn -0.0571 -0.0000 0.9984
vn -0.0000 -0.0000 1.0000
vn -0.0000 -0.0001 1.0000
vn 0.0007 -0.0019 1.0000
vn 0.0002 -0.0003 1.0000
vn -0.0000 0.0001 1.0000
vt 0.334398 0.365071
vt 0.387375 0.236029
vt 0.426122 0.274235
vt 0.917740 0.667895
vt 0.900310 0.561234
vt 0.917740 0.546275
vt 0.887162 0.546385
vt 0.881277 0.546723
vt 0.875813 0.547570
vt 0.870784 0.548910
vt 0.866206 0.550727
vt 0.862098 0.553003
vt 0.858480 0.555722
vt 0.855372 0.558866
vt 0.888754 0.561266
vt 0.852725 0.562363
vt 0.900297 0.599420
vt 0.884815 0.561465
vt 0.881293 0.561926
vt 0.878156 0.562648
vt 0.850617 0.566246
vt 0.875397 0.563621
vt 0.873006 0.564840
vt 0.870969 0.566298
vt 0.849059 0.570507
vt 0.869267 0.567984
vt 0.867892 0.569894
vt 0.866831 0.572021
vt 0.848070 0.575142
vt 0.866071 0.574355
vt 0.865603 0.576892
vt 0.847679 0.580148
vt 0.865413 0.579623
vt 0.865477 0.582128
vt 0.847765 0.583557
vt 0.865794 0.584583
vt 0.848151 0.586827
vt 0.866393 0.586958
vt 0.867302 0.589221
vt 0.848835 0.589951
vt 0.868549 0.591339
vt 0.849811 0.592919
vt 0.870162 0.593280
vt 0.851076 0.595723
vt 0.872170 0.595011
vt 0.874599 0.596504
vt 0.852625 0.598354
vt 0.877477 0.597722
vt 0.880832 0.598637
vt 0.854452 0.600802
vt 0.884694 0.599213
vt 0.889086 0.599421
vt 0.900264 0.615106
vt 0.856563 0.603040
vt 0.858935 0.605081
vt 0.861562 0.606920
vt 0.864438 0.608550
vt 0.867558 0.609965
vt 0.864877 0.611857
vt 0.862349 0.613912
vt 0.892971 0.615070
vt 0.890774 0.615130
vt 0.859951 0.616132
vt 0.900262 0.667897
vt 0.888608 0.615375
vt 0.886435 0.615872
vt 0.884220 0.616688
vt 0.857660 0.618514
vt 0.881927 0.617888
vt 0.879519 0.619540
vt 0.855453 0.621061
vt 0.876960 0.621711
vt 0.853305 0.623770
vt 0.874214 0.624465
vt 0.851193 0.626643
vt 0.871245 0.627872
vt 0.849094 0.629679
vt 0.868017 0.631995
vt 0.846984 0.632878
vt 0.864494 0.636903
vt 0.844840 0.636240
vt 0.842639 0.639765
vt 0.860639 0.642662
vt 0.840356 0.643452
vt 0.844508 0.667487
vt 0.839097 0.645454
vt 0.837901 0.647319
vt 0.836743 0.649088
vt 0.835597 0.650801
vt 0.834435 0.652500
vt 0.833233 0.654224
vt 0.831963 0.656014
vt 0.830601 0.657912
vt 0.829119 0.659957
vt 0.827492 0.662191
vt 0.825693 0.664653
vt 0.823696 0.667385
vt 0.599366 0.069429
vt 0.663654 0.191257
vt 0.651401 0.191257
vt 0.657261 0.164618
vt 0.717820 0.069429
vt 0.639147 0.120753
vt 0.676796 0.120753
vt 0.632398 0.105125
vt 0.683900 0.105125
vt 0.617125 0.069429
vt 0.700061 0.069429
vt 0.069429 0.809453
vt 0.086833 0.914943
vt 0.069429 0.930571
vt 0.138157 0.930571
vt 0.138157 0.914943
vt 0.086833 0.878359
vt 0.086833 0.862731
vt 0.136381 0.878359
vt 0.136381 0.862731
vt 0.086833 0.825081
vt 0.139756 0.825081
vt 0.139756 0.809453
vt 0.895798 0.927873
vt 0.878394 0.806756
vt 0.895798 0.806756
vt 0.878394 0.912245
vt 0.823696 0.912245
vt 0.823696 0.927873
vt 0.376706 0.670169
vt 0.389225 0.670489
vt 0.386113 0.670595
vt 0.392356 0.670255
vt 0.395518 0.669888
vt 0.367787 0.668670
vt 0.398725 0.669386
vt 0.401989 0.668745
vt 0.405323 0.667961
vt 0.359419 0.666159
vt 0.408740 0.667032
vt 0.412254 0.665955
vt 0.415876 0.664725
vt 0.351662 0.662692
vt 0.419620 0.663341
vt 0.423499 0.661798
vt 0.427525 0.660093
vt 0.344575 0.658328
vt 0.392641 0.654195
vt 0.396050 0.653732
vt 0.399440 0.653098
vt 0.402822 0.652289
vt 0.406209 0.651301
vt 0.409611 0.650132
vt 0.413042 0.648778
vt 0.416512 0.647236
vt 0.420033 0.645503
vt 0.423617 0.643576
vt 0.427275 0.641451
vt 0.338214 0.653133
vt 0.385716 0.654568
vt 0.389198 0.654435
vt 0.378942 0.654262
vt 0.372499 0.653176
vt 0.366435 0.651353
vt 0.332644 0.647157
vt 0.360797 0.648835
vt 0.355633 0.645666
vt 0.327926 0.640459
vt 0.350990 0.641890
vt 0.346916 0.637551
vt 0.324120 0.633096
vt 0.343459 0.632693
vt 0.321288 0.625126
vt 0.340665 0.627358
vt 0.338583 0.621592
vt 0.319490 0.616609
vt 0.337259 0.615436
vt 0.318787 0.607602
vt 0.336742 0.608936
vt 0.337053 0.602319
vt 0.319108 0.601075
vt 0.338161 0.596074
vt 0.320275 0.594290
vt 0.340030 0.590239
vt 0.322308 0.587403
vt 0.342623 0.584849
vt 0.325229 0.580567
vt 0.345904 0.579943
vt 0.329062 0.573937
vt 0.349837 0.575558
vt 0.424052 0.573197
vt 0.427246 0.556283
vt 0.427525 0.575280
vt 0.354384 0.571729
vt 0.420538 0.571287
vt 0.333827 0.567668
vt 0.416992 0.569553
vt 0.359510 0.568494
vt 0.413422 0.567997
vt 0.409838 0.566620
vt 0.365178 0.565889
vt 0.406248 0.565427
vt 0.339547 0.561915
vt 0.402661 0.564418
vt 0.371351 0.563953
vt 0.399085 0.563597
vt 0.395529 0.562965
vt 0.377993 0.562721
vt 0.392002 0.562525
vt 0.388512 0.562280
vt 0.385069 0.562231
vt 0.346243 0.556830
vt 0.424225 0.554812
vt 0.353938 0.552569
vt 0.421143 0.553425
vt 0.417984 0.552132
vt 0.414730 0.550942
vt 0.362654 0.549287
vt 0.411364 0.549865
vt 0.407870 0.548910
vt 0.404229 0.548086
vt 0.372412 0.547138
vt 0.400425 0.547404
vt 0.396441 0.546872
vt 0.392260 0.546500
vt 0.383236 0.546275
vt 0.387863 0.546298
vt 0.927005 0.190547
vt 0.909601 0.085057
vt 0.927005 0.069429
vt 0.858277 0.069429
vt 0.858277 0.085057
vt 0.909601 0.121641
vt 0.909601 0.137269
vt 0.860053 0.121641
vt 0.860053 0.137269
vt 0.909601 0.174919
vt 0.856678 0.174919
vt 0.856678 0.190547
vt 0.679332 0.928080
vt 0.662994 0.806962
vt 0.679332 0.806962
vt 0.661928 0.833778
vt 0.661573 0.833778
vt 0.622858 0.856688
vt 0.566384 0.806962
vt 0.582545 0.806962
vt 0.584143 0.833778
vt 0.583788 0.833778
vt 0.566384 0.928080
vt 0.661928 0.928080
vt 0.624279 0.880663
vt 0.621437 0.880663
vt 0.583788 0.928080
vt 0.566384 0.546275
vt 0.630672 0.668104
vt 0.618418 0.668104
vt 0.624279 0.641465
vt 0.684838 0.546275
vt 0.606164 0.597600
vt 0.643814 0.597600
vt 0.599416 0.581971
vt 0.650917 0.581971
vt 0.584143 0.546275
vt 0.667078 0.546275
vt 0.128245 0.670457
vt 0.140763 0.670384
vt 0.137299 0.670595
vt 0.144091 0.670073
vt 0.147329 0.669645
vt 0.150522 0.669088
vt 0.119578 0.669233
vt 0.153716 0.668388
vt 0.156956 0.667531
vt 0.160288 0.666503
vt 0.111367 0.666984
vt 0.163758 0.665290
vt 0.167411 0.663879
vt 0.103682 0.663773
vt 0.171294 0.662255
vt 0.175451 0.660405
vt 0.096593 0.659659
vt 0.179928 0.658315
vt 0.143475 0.653971
vt 0.147103 0.653382
vt 0.150723 0.652626
vt 0.154333 0.651705
vt 0.157930 0.650621
vt 0.161512 0.649374
vt 0.165078 0.647966
vt 0.168623 0.646399
vt 0.172146 0.644674
vt 0.175645 0.642792
vt 0.179117 0.640754
vt 0.090163 0.654712
vt 0.136202 0.654610
vt 0.139838 0.654353
vt 0.129750 0.654503
vt 0.123555 0.653596
vt 0.117671 0.651933
vt 0.084468 0.648986
vt 0.112149 0.649560
vt 0.107043 0.646524
vt 0.079575 0.642542
vt 0.102405 0.642869
vt 0.098288 0.638641
vt 0.075556 0.635442
vt 0.094746 0.633887
vt 0.072478 0.627748
vt 0.091830 0.628651
vt 0.089593 0.622979
vt 0.070413 0.619521
vt 0.088089 0.616917
vt 0.069429 0.610823
vt 0.087370 0.610511
vt 0.087475 0.603924
vt 0.069580 0.602137
vt 0.138573 0.591744
vt 0.179928 0.605439
vt 0.139308 0.607353
vt 0.161810 0.590649
vt 0.177513 0.554177
vt 0.088399 0.597670
vt 0.070830 0.593856
vt 0.090104 0.591788
vt 0.160640 0.565816
vt 0.073120 0.586039
vt 0.092551 0.586320
vt 0.095700 0.581306
vt 0.076392 0.578746
vt 0.099514 0.576784
vt 0.080588 0.572037
vt 0.103952 0.572797
vt 0.108977 0.569382
vt 0.085649 0.565971
vt 0.114549 0.566582
vt 0.158521 0.565261
vt 0.156393 0.564734
vt 0.154255 0.564242
vt 0.120630 0.564435
vt 0.152103 0.563788
vt 0.149937 0.563380
vt 0.147753 0.563023
vt 0.127181 0.562982
vt 0.091517 0.560608
vt 0.145549 0.562722
vt 0.143324 0.562483
vt 0.141075 0.562313
vt 0.134162 0.562263
vt 0.138800 0.562215
vt 0.136496 0.562197
vt 0.098135 0.556007
vt 0.173457 0.552678
vt 0.169512 0.551347
vt 0.105443 0.552228
vt 0.165653 0.550180
vt 0.161857 0.549173
vt 0.113383 0.549330
vt 0.158101 0.548322
vt 0.154360 0.547623
vt 0.150612 0.547073
vt 0.121897 0.547373
vt 0.146832 0.546668
vt 0.142998 0.546403
vt 0.139084 0.546275
vt 0.130926 0.546416
vt 0.135068 0.546281
vt 0.447423 0.407417
vt 0.334398 0.205603
vt 0.410413 0.069429
vt 0.460508 0.296150
s 0
usemtl マテリアル
f 2/1/1 4/2/1 7/3/1
f 9/4/2 75/5/2 8/6/2
f 75/5/2 74/7/2 8/6/2
f 75/5/2 73/8/2 74/7/2
f 75/5/2 72/9/2 73/8/2
f 75/5/2 71/10/2 72/9/2
f 75/5/2 70/11/2 71/10/2
f 75/5/2 69/12/2 70/11/2
f 75/5/2 68/13/2 69/12/2
f 75/5/2 67/14/2 68/13/2
f 75/5/2 76/15/2 67/14/2
f 76/15/2 66/16/2 67/14/2
f 9/4/2 101/17/2 75/5/2
f 77/18/2 66/16/2 76/15/2
f 78/19/2 66/16/2 77/18/2
f 79/20/2 66/16/2 78/19/2
f 79/20/2 65/21/2 66/16/2
f 80/22/2 65/21/2 79/20/2
f 81/23/2 65/21/2 80/22/2
f 82/24/2 65/21/2 81/23/2
f 82/24/2 64/25/2 65/21/2
f 83/26/2 64/25/2 82/24/2
f 84/27/2 64/25/2 83/26/2
f 85/28/2 64/25/2 84/27/2
f 85/28/2 63/29/2 64/25/2
f 86/30/2 63/29/2 85/28/2
f 87/31/2 63/29/2 86/30/2
f 87/31/2 62/32/2 63/29/2
f 88/33/2 62/32/2 87/31/2
f 89/34/2 62/32/2 88/33/2
f 89/34/2 61/35/2 62/32/2
f 90/36/2 61/35/2 89/34/2
f 90/36/2 60/37/2 61/35/2
f 91/38/2 60/37/2 90/36/2
f 92/39/2 60/37/2 91/38/2
f 92/39/2 59/40/2 60/37/2
f 93/41/2 59/40/2 92/39/2
f 93/41/2 58/42/2 59/40/2
f 94/43/2 58/42/2 93/41/2
f 94/43/2 57/44/2 58/42/2
f 95/45/2 57/44/2 94/43/2
f 96/46/2 57/44/2 95/45/2
f 96/46/2 56/47/2 57/44/2
f 97/48/2 56/47/2 96/46/2
f 98/49/2 56/47/2 97/48/2
f 98/49/2 55/50/2 56/47/2
f 99/51/2 55/50/2 98/49/2
f 100/52/2 55/50/2 99/51/2
f 9/4/2 11/53/2 101/17/2
f 11/53/2 100/52/2 101/17/2
f 11/53/2 55/50/2 100/52/2
f 11/53/2 54/54/2 55/50/2
f 11/53/2 53/55/2 54/54/2
f 11/53/2 52/56/2 53/55/2
f 11/53/2 51/57/2 52/56/2
f 11/53/2 50/58/2 51/57/2
f 11/53/2 49/59/2 50/58/2
f 11/53/2 48/60/2 49/59/2
f 11/53/2 12/61/2 48/60/2
f 12/61/2 13/62/2 48/60/2
f 13/62/2 47/63/2 48/60/2
f 9/4/2 10/64/2 11/53/2
f 14/65/2 47/63/2 13/62/2
f 15/66/2 47/63/2 14/65/2
f 16/67/2 47/63/2 15/66/2
f 16/67/2 46/68/2 47/63/2
f 17/69/2 46/68/2 16/67/2
f 18/70/2 46/68/2 17/69/2
f 18/70/2 45/71/2 46/68/2
f 19/72/2 45/71/2 18/70/2
f 19/72/2 44/73/2 45/71/2
f 20/74/2 44/73/2 19/72/2
f 20/74/2 43/75/2 44/73/2
f 21/76/2 43/75/2 20/74/2
f 21/76/2 42/77/2 43/75/2
f 22/78/2 42/77/2 21/76/2
f 22/78/2 41/79/2 42/77/2
f 23/80/2 41/79/2 22/78/2
f 23/80/2 40/81/2 41/79/2
f 23/80/2 39/82/2 40/81/2
f 24/83/2 39/82/2 23/80/2
f 24/83/2 38/84/2 39/82/2
f 25/85/2 38/84/2 24/83/2
f 25/85/2 37/86/2 38/84/2
f 25/85/2 36/87/2 37/86/2
f 25/85/2 35/88/2 36/87/2
f 25/85/2 34/89/2 35/88/2
f 25/85/2 33/90/2 34/89/2
f 25/85/2 32/91/2 33/90/2
f 25/85/2 31/92/2 32/91/2
f 25/85/2 30/93/2 31/92/2
f 25/85/2 29/94/2 30/93/2
f 25/85/2 28/95/2 29/94/2
f 25/85/2 27/96/2 28/95/2
f 25/85/2 26/97/2 27/96/2
f 104/98/2 102/99/2 103/100/2
f 104/98/2 110/101/2 102/99/2
f 110/101/2 109/102/2 102/99/2
f 104/98/2 112/103/2 110/101/2
f 111/104/2 109/102/2 110/101/2
f 104/98/2 106/105/2 112/103/2
f 106/105/2 111/104/2 112/103/2
f 106/105/2 107/106/2 111/104/2
f 107/106/2 109/102/2 111/104/2
f 104/98/2 105/107/2 106/105/2
f 108/108/2 109/102/2 107/106/2
f 115/109/2 123/110/2 114/111/2
f 123/110/2 113/112/2 114/111/2
f 123/110/2 124/113/2 113/112/2
f 115/109/2 122/114/2 123/110/2
f 115/109/2 119/115/2 122/114/2
f 119/115/2 121/116/2 122/114/2
f 119/115/2 120/117/2 121/116/2
f 115/109/2 118/118/2 119/115/2
f 115/109/2 117/119/2 118/118/2
f 115/109/2 116/120/2 117/119/2
f 127/121/2 125/122/2 126/123/2
f 127/121/2 130/124/2 125/122/2
f 127/121/2 129/125/2 130/124/2
f 127/121/2 128/126/2 129/125/2
f 144/127/2 142/128/2 143/129/2
f 144/127/2 141/130/2 142/128/2
f 144/127/2 140/131/2 141/130/2
f 145/132/2 140/131/2 144/127/2
f 145/132/2 139/133/2 140/131/2
f 145/132/2 138/134/2 139/133/2
f 145/132/2 137/135/2 138/134/2
f 146/136/2 137/135/2 145/132/2
f 146/136/2 136/137/2 137/135/2
f 146/136/2 135/138/2 136/137/2
f 146/136/2 134/139/2 135/138/2
f 147/140/2 134/139/2 146/136/2
f 147/140/2 133/141/2 134/139/2
f 147/140/2 132/142/2 133/141/2
f 147/140/2 131/143/2 132/142/2
f 148/144/2 131/143/2 147/140/2
f 148/144/2 218/145/2 131/143/2
f 218/145/2 219/146/2 131/143/2
f 219/146/2 220/147/2 131/143/2
f 220/147/2 221/148/2 131/143/2
f 221/148/2 222/149/2 131/143/2
f 222/149/2 223/150/2 131/143/2
f 223/150/2 224/151/2 131/143/2
f 224/151/2 225/152/2 131/143/2
f 225/152/2 226/153/2 131/143/2
f 226/153/2 227/154/2 131/143/2
f 227/154/2 228/155/2 131/143/2
f 149/156/2 216/157/2 148/144/2
f 216/157/3 217/158/3 148/144/3
f 217/158/4 218/145/4 148/144/4
f 149/156/3 215/159/3 216/157/3
f 149/156/2 214/160/2 215/159/2
f 149/156/2 213/161/2 214/160/2
f 150/162/2 213/161/2 149/156/2
f 150/162/2 212/163/2 213/161/2
f 150/162/2 211/164/2 212/163/2
f 151/165/2 211/164/2 150/162/2
f 151/165/2 210/166/2 211/164/2
f 151/165/2 209/167/2 210/166/2
f 152/168/2 209/167/2 151/165/2
f 152/168/2 208/169/2 209/167/2
f 153/170/2 208/169/2 152/168/2
f 153/170/2 207/171/2 208/169/2
f 153/170/2 206/172/2 207/171/2
f 154/173/2 206/172/2 153/170/2
f 154/173/2 205/174/2 206/172/2
f 155/175/2 205/174/2 154/173/2
f 155/175/2 204/176/2 205/174/2
f 155/175/2 203/177/2 204/176/2
f 156/178/2 203/177/2 155/175/2
f 156/178/2 202/179/2 203/177/2
f 157/180/2 202/179/2 156/178/2
f 157/180/2 201/181/2 202/179/2
f 158/182/2 201/181/2 157/180/2
f 158/182/2 200/183/2 201/181/2
f 159/184/2 200/183/2 158/182/2
f 159/184/2 199/185/2 200/183/2
f 160/186/2 199/185/2 159/184/2
f 160/186/2 198/187/2 199/185/2
f 181/188/2 179/189/2 180/190/2
f 160/186/2 197/191/2 198/187/2
f 182/192/2 179/189/2 181/188/2
f 161/193/2 197/191/2 160/186/2
f 183/194/2 179/189/2 182/192/2
f 161/193/2 196/195/2 197/191/2
f 184/196/2 179/189/2 183/194/2
f 185/197/2 179/189/2 184/196/2
f 161/193/2 195/198/2 196/195/2
f 186/199/2 179/189/2 185/197/2
f 162/200/2 195/198/2 161/193/2
f 187/201/2 179/189/2 186/199/2
f 162/200/2 194/202/2 195/198/2
f 188/203/2 179/189/2 187/201/2
f 189/204/2 179/189/2 188/203/2
f 162/200/2 193/205/2 194/202/2
f 190/206/2 179/189/2 189/204/2
f 191/207/2 179/189/2 190/206/2
f 162/200/2 192/208/2 193/205/2
f 192/208/2 179/189/2 191/207/2
f 162/200/2 179/189/2 192/208/2
f 163/209/2 179/189/2 162/200/2
f 163/209/2 178/210/2 179/189/2
f 164/211/2 178/210/2 163/209/2
f 164/211/2 177/212/2 178/210/2
f 164/211/2 176/213/2 177/212/2
f 164/211/2 175/214/2 176/213/2
f 165/215/2 175/214/2 164/211/2
f 165/215/2 174/216/2 175/214/2
f 165/215/2 173/217/2 174/216/2
f 165/215/2 172/218/2 173/217/2
f 166/219/2 172/218/2 165/215/2
f 166/219/2 171/220/2 172/218/2
f 166/219/2 170/221/2 171/220/2
f 166/219/2 169/222/2 170/221/2
f 167/223/2 169/222/2 166/219/2
f 167/223/2 168/224/2 169/222/2
f 231/225/2 239/226/2 230/227/2
f 239/226/2 229/228/2 230/227/2
f 239/226/2 240/229/2 229/228/2
f 231/225/2 238/230/2 239/226/2
f 231/225/2 235/231/2 238/230/2
f 235/231/2 237/232/2 238/230/2
f 235/231/2 236/233/2 237/232/2
f 231/225/2 234/234/2 235/231/2
f 231/225/2 233/235/2 234/234/2
f 231/225/2 232/236/2 233/235/2
f 246/237/2 244/238/2 245/239/2
f 246/237/2 248/240/2 244/238/2
f 248/240/2 249/241/2 244/238/2
f 249/241/2 243/242/2 244/238/2
f 243/242/2 241/243/2 242/244/2
f 243/242/2 252/245/2 241/243/2
f 252/245/2 253/246/2 241/243/2
f 253/246/2 255/247/2 241/243/2
f 246/237/2 247/248/2 248/240/2
f 250/249/2 243/242/2 249/241/2
f 243/242/2 251/250/2 252/245/2
f 254/251/2 255/247/2 253/246/2
f 250/249/2 251/250/2 243/242/2
f 258/252/2 256/253/2 257/254/2
f 258/252/2 264/255/2 256/253/2
f 264/255/2 263/256/2 256/253/2
f 258/252/2 266/257/2 264/255/2
f 265/258/2 263/256/2 264/255/2
f 258/252/2 260/259/2 266/257/2
f 260/259/2 265/258/2 266/257/2
f 260/259/2 261/260/2 265/258/2
f 261/260/2 263/256/2 265/258/2
f 258/252/2 259/261/2 260/259/2
f 262/262/2 263/256/2 261/260/2
f 333/263/2 331/264/2 332/265/2
f 333/263/2 330/266/2 331/264/2
f 333/263/2 329/267/2 330/266/2
f 333/263/2 328/268/2 329/267/2
f 334/269/2 328/268/2 333/263/2
f 334/269/2 327/270/2 328/268/2
f 334/269/2 326/271/2 327/270/2
f 334/269/2 325/272/2 326/271/2
f 335/273/2 325/272/2 334/269/2
f 335/273/2 324/274/2 325/272/2
f 335/273/2 323/275/2 324/274/2
f 336/276/2 323/275/2 335/273/2
f 336/276/2 322/277/2 323/275/2
f 336/276/2 321/278/2 322/277/2
f 337/279/2 321/278/2 336/276/2
f 337/279/2 320/280/2 321/278/2
f 337/279/2 309/281/2 320/280/2
f 309/281/2 310/282/2 320/280/2
f 310/282/2 311/283/2 320/280/2
f 311/283/2 312/284/2 320/280/2
f 312/284/2 313/285/2 320/280/2
f 313/285/2 314/286/2 320/280/2
f 314/286/2 315/287/2 320/280/2
f 315/287/2 316/288/2 320/280/2
f 316/288/2 317/289/2 320/280/2
f 317/289/2 318/290/2 320/280/2
f 318/290/2 319/291/2 320/280/2
f 338/292/2 307/293/2 337/279/2
f 307/293/3 308/294/3 337/279/3
f 308/294/5 309/281/5 337/279/5
f 338/292/6 306/295/6 307/293/6
f 338/292/2 305/296/2 306/295/2
f 338/292/2 304/297/2 305/296/2
f 339/298/2 304/297/2 338/292/2
f 339/298/2 303/299/2 304/297/2
f 339/298/2 302/300/2 303/299/2
f 340/301/2 302/300/2 339/298/2
f 340/301/2 301/302/2 302/300/2
f 340/301/2 300/303/2 301/302/2
f 341/304/2 300/303/2 340/301/2
f 341/304/2 299/305/2 300/303/2
f 342/306/2 299/305/2 341/304/2
f 342/306/2 298/307/2 299/305/2
f 342/306/2 297/308/2 298/307/2
f 343/309/2 297/308/2 342/306/2
f 343/309/2 296/310/2 297/308/2
f 344/311/2 296/310/2 343/309/2
f 344/311/2 295/312/2 296/310/2
f 344/311/2 294/313/2 295/312/2
f 345/314/2 294/313/2 344/311/2
f 269/315/2 267/316/2 268/317/2
f 269/315/2 270/318/2 267/316/2
f 270/318/2 368/319/2 267/316/2
f 345/314/2 293/320/2 294/313/2
f 346/321/2 293/320/2 345/314/2
f 346/321/2 292/322/2 293/320/2
f 271/323/2 368/319/2 270/318/2
f 347/324/2 292/322/2 346/321/2
f 347/324/2 291/325/2 292/322/2
f 347/324/2 290/326/2 291/325/2
f 348/327/2 290/326/2 347/324/2
f 348/327/2 289/328/2 290/326/2
f 349/329/2 289/328/2 348/327/2
f 349/329/2 288/330/2 289/328/2
f 349/329/2 287/331/2 288/330/2
f 350/332/2 287/331/2 349/329/2
f 350/332/2 286/333/2 287/331/2
f 272/334/2 368/319/2 271/323/2
f 273/335/2 368/319/2 272/334/2
f 274/336/2 368/319/2 273/335/2
f 350/332/2 285/337/2 286/333/2
f 275/338/2 368/319/2 274/336/2
f 276/339/2 368/319/2 275/338/2
f 277/340/2 368/319/2 276/339/2
f 350/332/2 284/341/2 285/337/2
f 351/342/2 284/341/2 350/332/2
f 278/343/2 368/319/2 277/340/2
f 279/344/2 368/319/2 278/343/2
f 280/345/2 368/319/2 279/344/2
f 351/342/2 283/346/2 284/341/2
f 281/347/2 368/319/2 280/345/2
f 282/348/2 368/319/2 281/347/2
f 283/346/2 368/319/2 282/348/2
f 351/342/2 368/319/2 283/346/2
f 352/349/2 368/319/2 351/342/2
f 352/349/2 367/350/2 368/319/2
f 352/349/2 366/351/2 367/350/2
f 353/352/2 366/351/2 352/349/2
f 353/352/2 365/353/2 366/351/2
f 353/352/2 364/354/2 365/353/2
f 354/355/2 364/354/2 353/352/2
f 354/355/2 363/356/2 364/354/2
f 354/355/2 362/357/2 363/356/2
f 354/355/2 361/358/2 362/357/2
f 355/359/2 361/358/2 354/355/2
f 355/359/2 360/360/2 361/358/2
f 355/359/2 359/361/2 360/360/2
f 355/359/2 358/362/2 359/361/2
f 356/363/2 358/362/2 355/359/2
f 356/363/6 357/364/6 358/362/6
f 1/365/1 2/1/1 7/3/1
f 2/1/1 3/366/1 4/2/1
f 4/2/1 5/367/1 7/3/1
f 5/367/1 6/368/1 7/3/1
