# Blender 4.4.1
# www.blender.org
mtllib 3DEnter.mtl
o テキスト
v 2.666391 0.540989 -0.033084
v 2.499391 0.378293 -0.023134
v 2.499391 0.368312 -0.022524
v 2.577391 0.368312 -0.022524
v 2.577391 0.131754 -0.008057
v 2.578412 0.112001 -0.006849
v 2.581470 0.093256 -0.005703
v 2.586563 0.075656 -0.004627
v 2.593688 0.059334 -0.003629
v 2.602840 0.044426 -0.002717
v 2.614017 0.031067 -0.001900
v 2.627214 0.019393 -0.001186
v 2.642429 0.009538 -0.000583
v 2.659657 0.001638 -0.000100
v 2.678896 -0.004173 0.000255
v 2.700142 -0.007758 0.000474
v 2.723391 -0.008983 0.000549
v 2.731016 -0.008718 0.000533
v 2.739308 -0.007943 0.000486
v 2.748141 -0.006691 0.000409
v 2.757391 -0.004991 0.000305
v 2.766933 -0.002875 0.000176
v 2.776641 -0.000374 0.000023
v 2.786391 0.002480 -0.000152
v 2.796058 0.005656 -0.000346
v 2.805516 0.009124 -0.000558
v 2.814641 0.012851 -0.000786
v 2.823307 0.016807 -0.001028
v 2.831391 0.020961 -0.001282
v 2.831391 0.103806 -0.006348
v 2.822452 0.098545 -0.006026
v 2.813632 0.093742 -0.005733
v 2.804922 0.089395 -0.005467
v 2.796317 0.085507 -0.005229
v 2.787808 0.082076 -0.005019
v 2.779391 0.079102 -0.004837
v 2.771056 0.076586 -0.004684
v 2.762798 0.074527 -0.004558
v 2.754610 0.072926 -0.004460
v 2.746483 0.071783 -0.004390
v 2.738413 0.071096 -0.004348
v 2.730391 0.070868 -0.004334
v 2.723670 0.071193 -0.004354
v 2.716622 0.072222 -0.004417
v 2.709422 0.074034 -0.004527
v 2.702243 0.076709 -0.004691
v 2.695258 0.080326 -0.004912
v 2.688641 0.084966 -0.005196
v 2.682565 0.090708 -0.005547
v 2.677205 0.097632 -0.005971
v 2.672734 0.105818 -0.006471
v 2.669325 0.115345 -0.007054
v 2.667153 0.126292 -0.007723
v 2.666391 0.138741 -0.008485
v 2.666391 0.368312 -0.022524
v 2.808391 0.368312 -0.022524
v 2.808391 0.448163 -0.027407
v 2.666391 0.448163 -0.027407
v 2.172391 0.448163 -0.027407
v 2.172391 0.000000 0.000000
v 2.261391 0.000000 0.000000
v 2.261391 0.234562 -0.014345
v 2.262371 0.253417 -0.015498
v 2.265229 0.271451 -0.016601
v 2.269845 0.288508 -0.017644
v 2.276095 0.304431 -0.018617
v 2.283859 0.319065 -0.019512
v 2.293016 0.332254 -0.020319
v 2.303443 0.343842 -0.021028
v 2.315021 0.353673 -0.021629
v 2.327625 0.361590 -0.022113
v 2.341136 0.367439 -0.022471
v 2.355432 0.371062 -0.022692
v 2.370391 0.372304 -0.022768
v 2.375920 0.371936 -0.022746
v 2.381956 0.370853 -0.022679
v 2.388422 0.369092 -0.022572
v 2.395243 0.366685 -0.022425
v 2.402341 0.363669 -0.022240
v 2.409641 0.360077 -0.022020
v 2.417066 0.355945 -0.021768
v 2.424540 0.351307 -0.021484
v 2.431985 0.346197 -0.021172
v 2.439327 0.340651 -0.020832
v 2.446487 0.334702 -0.020469
v 2.453391 0.328387 -0.020082
v 2.500391 0.405243 -0.024783
v 2.491200 0.413603 -0.025294
v 2.482118 0.421218 -0.025759
v 2.473125 0.428091 -0.026180
v 2.464206 0.434226 -0.026555
v 2.455342 0.439626 -0.026885
v 2.446516 0.444295 -0.027171
v 2.437711 0.448236 -0.027412
v 2.428910 0.451453 -0.027608
v 2.420094 0.453949 -0.027761
v 2.411248 0.455727 -0.027870
v 2.402352 0.456792 -0.027935
v 2.393391 0.457146 -0.027957
v 2.382870 0.456452 -0.027914
v 2.372303 0.454341 -0.027785
v 2.361688 0.450767 -0.027567
v 2.351020 0.445686 -0.027256
v 2.340298 0.439052 -0.026850
v 2.329516 0.430820 -0.026347
v 2.318672 0.420946 -0.025743
v 2.307761 0.409383 -0.025036
v 2.296782 0.396088 -0.024223
v 2.285729 0.381015 -0.023301
v 2.274600 0.364119 -0.022268
v 2.263391 0.345355 -0.021120
v 2.261391 0.345355 -0.021120
v 2.261391 0.448163 -0.027407
v 2.087391 0.079851 -0.004883
v 2.082437 0.076234 -0.004662
v 2.077590 0.072878 -0.004457
v 2.072875 0.069791 -0.004268
v 2.068317 0.066986 -0.004097
v 2.063939 0.064472 -0.003943
v 2.059766 0.062259 -0.003807
v 2.055822 0.060358 -0.003691
v 2.052132 0.058779 -0.003595
v 2.048719 0.057533 -0.003518
v 2.045609 0.056630 -0.003463
v 2.042825 0.056081 -0.003430
v 2.040391 0.055896 -0.003418
v 2.037746 0.056023 -0.003426
v 2.035313 0.056418 -0.003450
v 2.033094 0.057096 -0.003492
v 2.031095 0.058077 -0.003552
v 2.029318 0.059376 -0.003631
v 2.027766 0.061011 -0.003731
v 2.026444 0.063000 -0.003853
v 2.025354 0.065359 -0.003997
v 2.024501 0.068107 -0.004165
v 2.023887 0.071260 -0.004358
v 2.023516 0.074836 -0.004577
v 2.023391 0.078853 -0.004822
v 2.023391 0.309422 -0.018923
v 2.021922 0.333716 -0.020408
v 2.017637 0.355715 -0.021754
v 2.010719 0.375455 -0.022961
v 2.001354 0.392970 -0.024032
v 1.989725 0.408294 -0.024969
v 1.976016 0.421463 -0.025774
v 1.960411 0.432510 -0.026450
v 1.943095 0.441472 -0.026998
v 1.924251 0.448381 -0.027421
v 1.904063 0.453274 -0.027720
v 1.882715 0.456184 -0.027898
v 1.860391 0.457146 -0.027957
v 1.844473 0.456730 -0.027931
v 1.829215 0.455478 -0.027855
v 1.814610 0.453387 -0.027727
v 1.800650 0.450455 -0.027547
v 1.787330 0.446677 -0.027316
v 1.774641 0.442049 -0.027033
v 1.762578 0.436569 -0.026698
v 1.751132 0.430233 -0.026311
v 1.740297 0.423038 -0.025871
v 1.730067 0.414979 -0.025378
v 1.720434 0.406054 -0.024832
v 1.711391 0.396260 -0.024233
v 1.711391 0.299441 -0.018312
v 1.722282 0.311587 -0.019055
v 1.733438 0.322587 -0.019728
v 1.744829 0.332457 -0.020331
v 1.756428 0.341214 -0.020867
v 1.768209 0.348877 -0.021335
v 1.780141 0.355461 -0.021738
v 1.792199 0.360985 -0.022076
v 1.804354 0.365465 -0.022350
v 1.816579 0.368920 -0.022561
v 1.828845 0.371366 -0.022711
v 1.841125 0.372821 -0.022800
v 1.853391 0.373303 -0.022829
v 1.866329 0.372819 -0.022800
v 1.878141 0.371343 -0.022709
v 1.888829 0.368842 -0.022556
v 1.898391 0.365281 -0.022339
v 1.906829 0.360624 -0.022054
v 1.914141 0.354837 -0.021700
v 1.920329 0.347886 -0.021275
v 1.925391 0.339736 -0.020776
v 1.929329 0.330352 -0.020203
v 1.932141 0.319699 -0.019551
v 1.933829 0.307743 -0.018820
v 1.934391 0.294450 -0.018007
v 1.934391 0.270495 -0.016542
v 1.855391 0.242547 -0.014833
v 1.837255 0.236003 -0.014433
v 1.819057 0.229206 -0.014017
v 1.801110 0.221945 -0.013573
v 1.783724 0.214008 -0.013088
v 1.767214 0.205183 -0.012548
v 1.751891 0.195260 -0.011941
v 1.738068 0.184027 -0.011254
v 1.726058 0.171273 -0.010474
v 1.716172 0.156785 -0.009588
v 1.708724 0.140354 -0.008583
v 1.704027 0.121766 -0.007447
v 1.702391 0.100812 -0.006165
v 1.703295 0.086490 -0.005289
v 1.705956 0.072577 -0.004438
v 1.710298 0.059233 -0.003622
v 1.716243 0.046617 -0.002851
v 1.723717 0.034887 -0.002134
v 1.732642 0.024205 -0.001480
v 1.742941 0.014728 -0.000901
v 1.754540 0.006617 -0.000405
v 1.767361 0.000031 -0.000002
v 1.781327 -0.004871 0.000298
v 1.796363 -0.007928 0.000485
v 1.812391 -0.008983 0.000549
v 1.822640 -0.008671 0.000530
v 1.832882 -0.007731 0.000473
v 1.843110 -0.006160 0.000377
v 1.853317 -0.003956 0.000242
v 1.863497 -0.001113 0.000068
v 1.873641 0.002371 -0.000145
v 1.883745 0.006499 -0.000397
v 1.893799 0.011275 -0.000690
v 1.903798 0.016703 -0.001021
v 1.913734 0.022786 -0.001393
v 1.923601 0.029528 -0.001806
v 1.933391 0.036931 -0.002259
v 1.935665 0.029318 -0.001793
v 1.938498 0.022440 -0.001372
v 1.941907 0.016282 -0.000996
v 1.945910 0.010832 -0.000662
v 1.950524 0.006074 -0.000371
v 1.955766 0.001996 -0.000122
v 1.961655 -0.001416 0.000087
v 1.968206 -0.004177 0.000255
v 1.975438 -0.006301 0.000385
v 1.983368 -0.007800 0.000477
v 1.992013 -0.008690 0.000531
v 2.001391 -0.008983 0.000549
v 2.008182 -0.008811 0.000539
v 2.014637 -0.008267 0.000506
v 2.020875 -0.007314 0.000447
v 2.027021 -0.005915 0.000362
v 2.033194 -0.004030 0.000246
v 2.039516 -0.001622 0.000099
v 2.046110 0.001348 -0.000082
v 2.053095 0.004917 -0.000301
v 2.060595 0.009124 -0.000558
v 2.068729 0.014006 -0.000857
v 2.077621 0.019603 -0.001199
v 2.087391 0.025952 -0.001587
v 1.934391 0.090830 -0.005555
v 1.928349 0.085281 -0.005215
v 1.922225 0.080123 -0.004900
v 1.916016 0.075375 -0.004610
v 1.909724 0.071052 -0.004345
v 1.903349 0.067174 -0.004108
v 1.896891 0.063756 -0.003899
v 1.890349 0.060816 -0.003719
v 1.883724 0.058372 -0.003570
v 1.877016 0.056441 -0.003452
v 1.870224 0.055041 -0.003366
v 1.863349 0.054188 -0.003314
v 1.856391 0.053899 -0.003296
v 1.847359 0.054431 -0.003329
v 1.838803 0.055993 -0.003424
v 1.830782 0.058531 -0.003579
v 1.823354 0.061995 -0.003791
v 1.816579 0.066333 -0.004057
v 1.810516 0.071491 -0.004372
v 1.805224 0.077420 -0.004735
v 1.800762 0.084065 -0.005141
v 1.797188 0.091376 -0.005588
v 1.794563 0.099301 -0.006073
v 1.792944 0.107786 -0.006592
v 1.792391 0.116782 -0.007142
v 1.793734 0.129461 -0.007917
v 1.797632 0.141111 -0.008630
v 1.803892 0.151826 -0.009285
v 1.812317 0.161698 -0.009889
v 1.822715 0.170822 -0.010447
v 1.834891 0.179290 -0.010964
v 1.848650 0.187197 -0.011448
v 1.863799 0.194636 -0.011903
v 1.880141 0.201701 -0.012335
v 1.897484 0.208486 -0.012750
v 1.915632 0.215083 -0.013153
v 1.934391 0.221586 -0.013551
v 1.510391 0.540989 -0.033084
v 1.343391 0.378293 -0.023134
v 1.343391 0.368312 -0.022524
v 1.421391 0.368312 -0.022524
v 1.421391 0.131754 -0.008057
v 1.422411 0.112001 -0.006849
v 1.425470 0.093256 -0.005703
v 1.430563 0.075656 -0.004627
v 1.437687 0.059334 -0.003629
v 1.446840 0.044426 -0.002717
v 1.458016 0.031067 -0.001900
v 1.471214 0.019393 -0.001186
v 1.486429 0.009538 -0.000583
v 1.503657 0.001638 -0.000100
v 1.522896 -0.004173 0.000255
v 1.544142 -0.007758 0.000474
v 1.567391 -0.008983 0.000549
v 1.575016 -0.008718 0.000533
v 1.583308 -0.007943 0.000486
v 1.592141 -0.006691 0.000409
v 1.601391 -0.004991 0.000305
v 1.610933 -0.002875 0.000176
v 1.620641 -0.000374 0.000023
v 1.630391 0.002480 -0.000152
v 1.640058 0.005656 -0.000346
v 1.649516 0.009124 -0.000558
v 1.658640 0.012851 -0.000786
v 1.667307 0.016807 -0.001028
v 1.675391 0.020961 -0.001282
v 1.675391 0.103806 -0.006348
v 1.666452 0.098545 -0.006026
v 1.657631 0.093742 -0.005733
v 1.648922 0.089395 -0.005467
v 1.640316 0.085507 -0.005229
v 1.631808 0.082076 -0.005019
v 1.623391 0.079102 -0.004837
v 1.615056 0.076586 -0.004684
v 1.606798 0.074527 -0.004558
v 1.598609 0.072926 -0.004460
v 1.590483 0.071783 -0.004390
v 1.582413 0.071096 -0.004348
v 1.574391 0.070868 -0.004334
v 1.567670 0.071193 -0.004354
v 1.560622 0.072222 -0.004417
v 1.553422 0.074034 -0.004527
v 1.546243 0.076709 -0.004691
v 1.539258 0.080326 -0.004912
v 1.532640 0.084966 -0.005196
v 1.526565 0.090708 -0.005547
v 1.521205 0.097632 -0.005971
v 1.516734 0.105818 -0.006471
v 1.513325 0.115345 -0.007054
v 1.511153 0.126292 -0.007723
v 1.510391 0.138741 -0.008485
v 1.510391 0.368312 -0.022524
v 1.652391 0.368312 -0.022524
v 1.652391 0.448163 -0.027407
v 1.510391 0.448163 -0.027407
v 1.284391 0.641801 -0.039249
v 1.272310 0.649453 -0.039717
v 1.260076 0.656440 -0.040144
v 1.247704 0.662762 -0.040531
v 1.235206 0.668418 -0.040877
v 1.222597 0.673409 -0.041182
v 1.209891 0.677734 -0.041447
v 1.197102 0.681394 -0.041670
v 1.184243 0.684388 -0.041854
v 1.171329 0.686717 -0.041996
v 1.158372 0.688381 -0.042098
v 1.145389 0.689379 -0.042159
v 1.132391 0.689712 -0.042179
v 1.102059 0.688253 -0.042090
v 1.073655 0.683949 -0.041827
v 1.047313 0.676907 -0.041396
v 1.023169 0.667235 -0.040805
v 1.001358 0.655040 -0.040059
v 0.982016 0.640429 -0.039165
v 0.965278 0.623509 -0.038131
v 0.951280 0.604389 -0.036961
v 0.940157 0.583176 -0.035664
v 0.932044 0.559977 -0.034245
v 0.927077 0.534899 -0.032712
v 0.925391 0.508051 -0.031070
v 0.931195 0.464773 -0.028423
v 0.947243 0.427581 -0.026149
v 0.971485 0.395449 -0.024184
v 1.001872 0.367351 -0.022465
v 1.036357 0.342261 -0.020931
v 1.072891 0.319154 -0.019518
v 1.109424 0.297003 -0.018163
v 1.143909 0.274783 -0.016804
v 1.174297 0.251468 -0.015378
v 1.198539 0.226031 -0.013823
v 1.214586 0.197448 -0.012075
v 1.220391 0.164692 -0.010072
v 1.219658 0.155036 -0.009481
v 1.217447 0.145164 -0.008877
v 1.213735 0.135279 -0.008273
v 1.208502 0.125580 -0.007680
v 1.201728 0.116270 -0.007110
v 1.193391 0.107549 -0.006577
v 1.183471 0.099618 -0.006092
v 1.171947 0.092679 -0.005668
v 1.158798 0.086931 -0.005316
v 1.144002 0.082577 -0.005050
v 1.127541 0.079817 -0.004881
v 1.109391 0.078853 -0.004822
v 1.092730 0.079577 -0.004867
v 1.076266 0.081736 -0.004999
v 1.060032 0.085309 -0.005217
v 1.044058 0.090276 -0.005521
v 1.028375 0.096615 -0.005908
v 1.013016 0.104305 -0.006379
v 0.998011 0.113326 -0.006930
v 0.983391 0.123658 -0.007562
v 0.969188 0.135279 -0.008273
v 0.955433 0.148168 -0.009061
v 0.942157 0.162304 -0.009926
v 0.929391 0.177668 -0.010865
v 0.929391 0.053899 -0.003296
v 0.943710 0.043646 -0.002669
v 0.958192 0.034339 -0.002100
v 0.972875 0.025967 -0.001588
v 0.987798 0.018521 -0.001133
v 1.002999 0.011990 -0.000733
v 1.018516 0.006363 -0.000389
v 1.034387 0.001631 -0.000100
v 1.050650 -0.002218 0.000136
v 1.067344 -0.005193 0.000318
v 1.084507 -0.007306 0.000447
v 1.102176 -0.008566 0.000524
v 1.120391 -0.008983 0.000549
v 1.147257 -0.007390 0.000452
v 1.172734 -0.002722 0.000166
v 1.196641 0.004850 -0.000297
v 1.218798 0.015157 -0.000927
v 1.239025 0.028028 -0.001714
v 1.257141 0.043294 -0.002648
v 1.272964 0.060785 -0.003717
v 1.286316 0.080331 -0.004913
v 1.297016 0.101763 -0.006223
v 1.304882 0.124910 -0.007639
v 1.309733 0.149603 -0.009149
v 1.311391 0.175672 -0.010743
v 1.305586 0.225470 -0.013789
v 1.289539 0.267380 -0.016352
v 1.265297 0.302622 -0.018507
v 1.234909 0.332416 -0.020329
v 1.200424 0.357982 -0.021892
v 1.163891 0.380539 -0.023272
v 1.127357 0.401308 -0.024542
v 1.092872 0.421509 -0.025777
v 1.062485 0.442361 -0.027052
v 1.038243 0.465085 -0.028442
v 1.022195 0.490900 -0.030021
v 1.016391 0.521027 -0.031863
v 1.017313 0.532682 -0.032576
v 1.020016 0.543651 -0.033247
v 1.024407 0.553872 -0.033872
v 1.030391 0.563281 -0.034447
v 1.037876 0.571817 -0.034969
v 1.046766 0.579418 -0.035434
v 1.056969 0.586020 -0.035838
v 1.068391 0.591562 -0.036177
v 1.080938 0.595980 -0.036447
v 1.094516 0.599214 -0.036645
v 1.109032 0.601200 -0.036766
v 1.124391 0.601876 -0.036808
v 1.136095 0.601530 -0.036786
v 1.148187 0.600438 -0.036720
v 1.160641 0.598522 -0.036602
v 1.173428 0.595702 -0.036430
v 1.186521 0.591897 -0.036197
v 1.199891 0.587028 -0.035900
v 1.213511 0.581016 -0.035532
v 1.227354 0.573780 -0.035089
v 1.241391 0.565241 -0.034567
v 1.255595 0.555319 -0.033960
v 1.269938 0.543935 -0.033264
v 1.284391 0.531008 -0.032474
v 0.328391 0.457146 -0.027957
v 0.295578 0.455108 -0.027832
v 0.264307 0.449156 -0.027468
v 0.234828 0.439538 -0.026880
v 0.207391 0.426500 -0.026082
v 0.182245 0.410286 -0.025091
v 0.159641 0.391144 -0.023920
v 0.139828 0.369320 -0.022586
v 0.123057 0.345059 -0.021102
v 0.109578 0.318608 -0.019484
v 0.099641 0.290213 -0.017748
v 0.093495 0.260119 -0.015907
v 0.091391 0.228573 -0.013978
v 0.093419 0.194963 -0.011923
v 0.099363 0.163149 -0.009977
v 0.109016 0.133345 -0.008155
v 0.122169 0.105765 -0.006468
v 0.138613 0.080626 -0.004931
v 0.158141 0.058141 -0.003556
v 0.180544 0.038526 -0.002356
v 0.205613 0.021996 -0.001345
v 0.233141 0.008765 -0.000536
v 0.262919 -0.000952 0.000058
v 0.294738 -0.006940 0.000424
v 0.328391 -0.008983 0.000549
v 0.363422 -0.007016 0.000429
v 0.396391 -0.001229 0.000075
v 0.427110 0.008203 -0.000502
v 0.455391 0.021109 -0.001291
v 0.481047 0.037313 -0.002282
v 0.503891 0.056644 -0.003464
v 0.523735 0.078928 -0.004827
v 0.540391 0.103991 -0.006360
v 0.553672 0.131660 -0.008052
v 0.563391 0.161763 -0.009893
v 0.569360 0.194125 -0.011872
v 0.571391 0.228573 -0.013978
v 0.569302 0.260958 -0.015959
v 0.563183 0.291599 -0.017833
v 0.553250 0.320292 -0.019587
v 0.539724 0.346834 -0.021210
v 0.522823 0.371018 -0.022690
v 0.502766 0.392642 -0.024012
v 0.479771 0.411499 -0.025165
v 0.454058 0.427387 -0.026137
v 0.425844 0.440100 -0.026914
v 0.395350 0.449434 -0.027485
v 0.362792 0.455184 -0.027837
v 0.327391 0.377295 -0.023073
v 0.349097 0.376008 -0.022995
v 0.369627 0.372235 -0.022764
v 0.388844 0.366113 -0.022390
v 0.406613 0.357776 -0.021880
v 0.422799 0.347360 -0.021243
v 0.437266 0.334999 -0.020487
v 0.449879 0.320829 -0.019620
v 0.460502 0.304986 -0.018651
v 0.469000 0.287603 -0.017588
v 0.475238 0.268817 -0.016439
v 0.479080 0.248763 -0.015213
v 0.480391 0.227575 -0.013917
v 0.479176 0.204153 -0.012485
v 0.475585 0.182349 -0.011152
v 0.469703 0.162244 -0.009922
v 0.461613 0.143916 -0.008801
v 0.451398 0.127447 -0.007794
v 0.439141 0.112914 -0.006905
v 0.424926 0.100399 -0.006140
v 0.408835 0.089980 -0.005503
v 0.390954 0.081738 -0.004999
v 0.371363 0.075752 -0.004633
v 0.350148 0.072102 -0.004409
v 0.327391 0.070868 -0.004334
v 0.306472 0.072160 -0.004413
v 0.286789 0.075965 -0.004646
v 0.268453 0.082175 -0.005025
v 0.251576 0.090682 -0.005546
v 0.236268 0.101381 -0.006200
v 0.222641 0.114162 -0.006982
v 0.210805 0.128918 -0.007884
v 0.200872 0.145543 -0.008901
v 0.192953 0.163928 -0.010025
v 0.187159 0.183967 -0.011250
v 0.183601 0.205551 -0.012570
v 0.182391 0.228573 -0.013978
v 0.183640 0.249532 -0.015260
v 0.187298 0.269395 -0.016475
v 0.193235 0.288024 -0.017614
v 0.201317 0.305282 -0.018669
v 0.211413 0.321028 -0.019632
v 0.223391 0.335124 -0.020494
v 0.237119 0.347432 -0.021247
v 0.252465 0.357813 -0.021882
v 0.269297 0.366129 -0.022390
v 0.287483 0.372240 -0.022764
v 0.306892 0.376008 -0.022995
v -0.110609 0.540989 -0.033084
v -0.277609 0.378293 -0.023134
v -0.277609 0.368312 -0.022524
v -0.199609 0.368312 -0.022524
v -0.199609 0.131754 -0.008057
v -0.198589 0.112001 -0.006849
v -0.195530 0.093256 -0.005703
v -0.190437 0.075656 -0.004627
v -0.183313 0.059334 -0.003629
v -0.174161 0.044426 -0.002717
v -0.162984 0.031067 -0.001900
v -0.149787 0.019393 -0.001186
v -0.134572 0.009538 -0.000583
v -0.117343 0.001638 -0.000100
v -0.098104 -0.004173 0.000255
v -0.076859 -0.007758 0.000474
v -0.053609 -0.008983 0.000549
v -0.045984 -0.008718 0.000533
v -0.037692 -0.007943 0.000486
v -0.028859 -0.006691 0.000409
v -0.019609 -0.004991 0.000305
v -0.010067 -0.002875 0.000176
v -0.000359 -0.000374 0.000023
v 0.009391 0.002480 -0.000152
v 0.019058 0.005656 -0.000346
v 0.028516 0.009124 -0.000558
v 0.037641 0.012851 -0.000786
v 0.046308 0.016807 -0.001028
v 0.054391 0.020961 -0.001282
v 0.054391 0.103806 -0.006348
v 0.045452 0.098545 -0.006026
v 0.036632 0.093742 -0.005733
v 0.027922 0.089395 -0.005467
v 0.019317 0.085507 -0.005229
v 0.010809 0.082076 -0.005019
v 0.002391 0.079102 -0.004837
v -0.005943 0.076586 -0.004684
v -0.014201 0.074527 -0.004558
v -0.022390 0.072926 -0.004460
v -0.030516 0.071783 -0.004390
v -0.038587 0.071096 -0.004348
v -0.046609 0.070868 -0.004334
v -0.053330 0.071193 -0.004354
v -0.060378 0.072222 -0.004417
v -0.067578 0.074034 -0.004527
v -0.074757 0.076709 -0.004691
v -0.081742 0.080326 -0.004912
v -0.088359 0.084966 -0.005196
v -0.094434 0.090708 -0.005547
v -0.099794 0.097632 -0.005971
v -0.104265 0.105818 -0.006471
v -0.107674 0.115345 -0.007054
v -0.109846 0.126292 -0.007723
v -0.110609 0.138741 -0.008485
v -0.110609 0.368312 -0.022524
v 0.031391 0.368312 -0.022524
v 0.031391 0.448163 -0.027407
v -0.110609 0.448163 -0.027407
v -0.882609 0.448163 -0.027407
v -0.882609 0.000000 0.000000
v -0.793609 0.000000 0.000000
v -0.793609 0.234562 -0.014345
v -0.792630 0.253417 -0.015498
v -0.789771 0.271451 -0.016601
v -0.785156 0.288508 -0.017644
v -0.778906 0.304431 -0.018617
v -0.771141 0.319065 -0.019512
v -0.761984 0.332254 -0.020319
v -0.751556 0.343842 -0.021028
v -0.739980 0.353673 -0.021629
v -0.727375 0.361590 -0.022113
v -0.713864 0.367439 -0.022471
v -0.699568 0.371062 -0.022692
v -0.684609 0.372304 -0.022768
v -0.679080 0.371936 -0.022746
v -0.673045 0.370853 -0.022679
v -0.666578 0.369092 -0.022572
v -0.659758 0.366685 -0.022425
v -0.652659 0.363669 -0.022240
v -0.645360 0.360077 -0.022020
v -0.637935 0.355945 -0.021768
v -0.630461 0.351307 -0.021484
v -0.623016 0.346197 -0.021172
v -0.615674 0.340651 -0.020832
v -0.608513 0.334702 -0.020469
v -0.601609 0.328387 -0.020082
v -0.554609 0.405243 -0.024783
v -0.563800 0.413603 -0.025294
v -0.572882 0.421218 -0.025759
v -0.581875 0.428091 -0.026180
v -0.590794 0.434226 -0.026555
v -0.599658 0.439626 -0.026885
v -0.608484 0.444295 -0.027171
v -0.617289 0.448236 -0.027412
v -0.626091 0.451453 -0.027608
v -0.634906 0.453949 -0.027761
v -0.643753 0.455727 -0.027870
v -0.652648 0.456792 -0.027935
v -0.661609 0.457146 -0.027957
v -0.672131 0.456452 -0.027914
v -0.682697 0.454341 -0.027785
v -0.693312 0.450767 -0.027567
v -0.703980 0.445686 -0.027256
v -0.714703 0.439052 -0.026850
v -0.725484 0.430820 -0.026347
v -0.736329 0.420946 -0.025743
v -0.747239 0.409383 -0.025036
v -0.758219 0.396088 -0.024223
v -0.769271 0.381015 -0.023301
v -0.780400 0.364119 -0.022268
v -0.791609 0.345355 -0.021120
v -0.793609 0.345355 -0.021120
v -0.793609 0.448163 -0.027407
v -0.992610 0.129758 -0.007935
v -1.005591 0.121568 -0.007434
v -1.018545 0.113982 -0.006971
v -1.031484 0.107019 -0.006545
v -1.044424 0.100701 -0.006158
v -1.057378 0.095048 -0.005813
v -1.070359 0.090082 -0.005509
v -1.083382 0.085822 -0.005248
v -1.096461 0.082291 -0.005032
v -1.109609 0.079508 -0.004862
v -1.122841 0.077494 -0.004739
v -1.136170 0.076271 -0.004664
v -1.149609 0.075858 -0.004639
v -1.170379 0.076813 -0.004697
v -1.189684 0.079671 -0.004872
v -1.207516 0.084420 -0.005163
v -1.223869 0.091052 -0.005568
v -1.238736 0.099555 -0.006088
v -1.252110 0.109920 -0.006722
v -1.263983 0.122135 -0.007469
v -1.274350 0.136190 -0.008329
v -1.283203 0.152075 -0.009300
v -1.290535 0.169780 -0.010383
v -1.296340 0.189294 -0.011576
v -1.300609 0.210607 -0.012880
v -0.984609 0.210607 -0.012880
v -0.986174 0.250264 -0.015305
v -0.990790 0.286400 -0.017515
v -0.998344 0.319029 -0.019510
v -1.008721 0.348164 -0.021292
v -1.021806 0.373820 -0.022861
v -1.037484 0.396010 -0.024218
v -1.055642 0.414748 -0.025364
v -1.076165 0.430048 -0.026299
v -1.098937 0.441924 -0.027026
v -1.123845 0.450390 -0.027543
v -1.150774 0.455459 -0.027853
v -1.179609 0.457146 -0.027957
v -1.209790 0.455261 -0.027841
v -1.238221 0.449715 -0.027502
v -1.264735 0.440677 -0.026949
v -1.289165 0.428311 -0.026193
v -1.311346 0.412784 -0.025244
v -1.331110 0.394263 -0.024111
v -1.348290 0.372914 -0.022805
v -1.362721 0.348904 -0.021337
v -1.374234 0.322398 -0.019716
v -1.382665 0.293563 -0.017953
v -1.387846 0.262565 -0.016057
v -1.389609 0.229571 -0.014039
v -1.387994 0.198877 -0.012162
v -1.383183 0.168925 -0.010331
v -1.375234 0.140082 -0.008567
v -1.364202 0.112715 -0.006893
v -1.350142 0.087192 -0.005332
v -1.333109 0.063881 -0.003907
v -1.313160 0.043147 -0.002639
v -1.290350 0.025360 -0.001551
v -1.264734 0.010886 -0.000666
v -1.236369 0.000092 -0.000006
v -1.205308 -0.006653 0.000407
v -1.171609 -0.008983 0.000549
v -1.153153 -0.008629 0.000528
v -1.135711 -0.007560 0.000462
v -1.119172 -0.005770 0.000353
v -1.103424 -0.003253 0.000199
v -1.088357 -0.000001 0.000000
v -1.073860 0.003993 -0.000244
v -1.059820 0.008735 -0.000534
v -1.046128 0.014233 -0.000870
v -1.032672 0.020493 -0.001253
v -1.019341 0.027523 -0.001683
v -1.006024 0.035329 -0.002161
v -0.992610 0.043918 -0.002686
v -1.298609 0.269497 -0.016481
v -1.295007 0.286564 -0.017525
v -1.290202 0.302310 -0.018488
v -1.284203 0.316705 -0.019368
v -1.277017 0.329717 -0.020164
v -1.268650 0.341316 -0.020873
v -1.259109 0.351468 -0.021494
v -1.248402 0.360145 -0.022025
v -1.236535 0.367314 -0.022463
v -1.223516 0.372944 -0.022807
v -1.209350 0.377004 -0.023056
v -1.194046 0.379463 -0.023206
v -1.177609 0.380290 -0.023256
v -1.162366 0.379406 -0.023202
v -1.148165 0.376796 -0.023043
v -1.135047 0.372523 -0.022782
v -1.123054 0.366648 -0.022422
v -1.112228 0.359235 -0.021969
v -1.102610 0.350345 -0.021425
v -1.094241 0.340042 -0.020795
v -1.087165 0.328386 -0.020082
v -1.081422 0.315442 -0.019291
v -1.077054 0.301270 -0.018424
v -1.074103 0.285935 -0.017486
v -1.072609 0.269497 -0.016481
v -1.596609 0.540989 -0.033084
v -1.763609 0.378293 -0.023134
v -1.763609 0.368312 -0.022524
v -1.685609 0.368312 -0.022524
v -1.685609 0.131754 -0.008057
v -1.684589 0.112001 -0.006849
v -1.681531 0.093256 -0.005703
v -1.676437 0.075656 -0.004627
v -1.669313 0.059334 -0.003629
v -1.660161 0.044426 -0.002717
v -1.648984 0.031067 -0.001900
v -1.635787 0.019393 -0.001186
v -1.620572 0.009538 -0.000583
v -1.603344 0.001638 -0.000100
v -1.584105 -0.004173 0.000255
v -1.562859 -0.007758 0.000474
v -1.539609 -0.008983 0.000549
v -1.531984 -0.008718 0.000533
v -1.523693 -0.007943 0.000486
v -1.514859 -0.006691 0.000409
v -1.505609 -0.004991 0.000305
v -1.496068 -0.002875 0.000176
v -1.486359 -0.000374 0.000023
v -1.476609 0.002480 -0.000152
v -1.466943 0.005656 -0.000346
v -1.457484 0.009124 -0.000558
v -1.448359 0.012851 -0.000786
v -1.439693 0.016807 -0.001028
v -1.431609 0.020961 -0.001282
v -1.431609 0.103806 -0.006348
v -1.440548 0.098545 -0.006026
v -1.449369 0.093742 -0.005733
v -1.458078 0.089395 -0.005467
v -1.466684 0.085507 -0.005229
v -1.475192 0.082076 -0.005019
v -1.483610 0.079102 -0.004837
v -1.491944 0.076586 -0.004684
v -1.500202 0.074527 -0.004558
v -1.508391 0.072926 -0.004460
v -1.516517 0.071783 -0.004390
v -1.524588 0.071096 -0.004348
v -1.532609 0.070868 -0.004334
v -1.539330 0.071193 -0.004354
v -1.546378 0.072222 -0.004417
v -1.553578 0.074034 -0.004527
v -1.560758 0.076709 -0.004691
v -1.567742 0.080326 -0.004912
v -1.574359 0.084966 -0.005196
v -1.580435 0.090708 -0.005547
v -1.585795 0.097632 -0.005971
v -1.590266 0.105818 -0.006471
v -1.593674 0.115345 -0.007054
v -1.595847 0.126292 -0.007723
v -1.596609 0.138741 -0.008485
v -1.596609 0.368312 -0.022524
v -1.454609 0.368312 -0.022524
v -1.454609 0.448163 -0.027407
v -1.596609 0.448163 -0.027407
v -2.113609 0.448163 -0.027407
v -2.202610 0.448163 -0.027407
v -2.202610 0.000000 0.000000
v -2.113609 0.000000 0.000000
v -2.113609 0.321400 -0.019655
v -2.103328 0.332531 -0.020336
v -2.093438 0.342494 -0.020945
v -2.083875 0.351328 -0.021485
v -2.074572 0.359070 -0.021959
v -2.065464 0.365758 -0.022368
v -2.056484 0.371431 -0.022715
v -2.047567 0.376127 -0.023002
v -2.038646 0.379883 -0.023232
v -2.029656 0.382738 -0.023406
v -2.020531 0.384730 -0.023528
v -2.011204 0.385898 -0.023599
v -2.001609 0.386278 -0.023623
v -1.988534 0.385396 -0.023569
v -1.976341 0.382794 -0.023410
v -1.965078 0.378543 -0.023150
v -1.954795 0.372711 -0.022793
v -1.945539 0.365368 -0.022344
v -1.937359 0.356584 -0.021807
v -1.930305 0.346427 -0.021186
v -1.924424 0.334967 -0.020485
v -1.919766 0.322273 -0.019709
v -1.916378 0.308415 -0.018861
v -1.914310 0.293461 -0.017947
v -1.913609 0.277482 -0.016969
v -1.913609 0.000000 0.000000
v -1.824609 0.000000 0.000000
v -1.824609 0.276483 -0.016908
v -1.825997 0.305829 -0.018703
v -1.830040 0.332495 -0.020334
v -1.836563 0.356506 -0.021802
v -1.845387 0.377887 -0.023110
v -1.856337 0.396661 -0.024258
v -1.869234 0.412854 -0.025248
v -1.883903 0.426489 -0.026082
v -1.900165 0.437590 -0.026761
v -1.917844 0.446182 -0.027286
v -1.936762 0.452289 -0.027660
v -1.956743 0.455936 -0.027883
v -1.977609 0.457146 -0.027957
v -1.990100 0.456630 -0.027925
v -2.002535 0.455099 -0.027831
v -2.014859 0.452576 -0.027677
v -2.027017 0.449087 -0.027464
v -2.038952 0.444655 -0.027193
v -2.050610 0.439304 -0.026866
v -2.061934 0.433060 -0.026484
v -2.072869 0.425945 -0.026049
v -2.083359 0.417985 -0.025562
v -2.093350 0.409203 -0.025025
v -2.102785 0.399624 -0.024439
v -2.111609 0.389273 -0.023806
v -2.113609 0.389273 -0.023806
v -2.301610 0.680728 -0.041630
v -2.688609 0.680728 -0.041630
v -2.688609 0.000000 0.000000
v -2.292609 0.000000 0.000000
v -2.292609 0.087836 -0.005372
v -2.590609 0.087836 -0.005372
v -2.590609 0.299441 -0.018312
v -2.311609 0.299441 -0.018312
v -2.311609 0.387277 -0.023684
v -2.590609 0.387277 -0.023684
v -2.590609 0.592892 -0.036258
v -2.301610 0.592892 -0.036258
vn -0.0000 0.0610 0.9981
vt 0.573675 0.648397
vt 0.532893 0.634171
vt 0.531534 0.612030
vt 0.499085 0.636246
vt 0.500254 0.655292
vt 0.573821 0.650778
vt 0.555266 0.652160
vt 0.559085 0.708566
vt 0.534084 0.653594
vt 0.537791 0.708334
vt 0.537810 0.711315
vt 0.559161 0.713292
vt 0.537470 0.713960
vt 0.536813 0.716287
vt 0.558736 0.717811
vt 0.535881 0.718310
vt 0.501297 0.720433
vt 0.500422 0.739077
vt 0.499085 0.719323
vt 0.503474 0.721437
vt 0.534717 0.720048
vt 0.505617 0.722333
vt 0.557808 0.722090
vt 0.533364 0.721515
vt 0.507728 0.723121
vt 0.509808 0.723802
vt 0.531864 0.722728
vt 0.511860 0.724376
vt 0.530260 0.723703
vt 0.513884 0.724841
vt 0.528594 0.724457
vt 0.515882 0.725199
vt 0.556376 0.726097
vt 0.517857 0.725449
vt 0.526910 0.725005
vt 0.519810 0.725591
vt 0.525249 0.725364
vt 0.521742 0.725624
vt 0.523655 0.725549
vt 0.554439 0.729799
vt 0.551994 0.733164
vt 0.549042 0.736161
vt 0.502414 0.739937
vt 0.545580 0.738756
vt 0.504540 0.740741
vt 0.506772 0.741482
vt 0.541607 0.740917
vt 0.509079 0.742157
vt 0.511431 0.742759
vt 0.513797 0.743282
vt 0.537122 0.742612
vt 0.516148 0.743722
vt 0.518453 0.744072
vt 0.532123 0.743810
vt 0.520682 0.744329
vt 0.522805 0.744485
vt 0.526610 0.744477
vt 0.524791 0.744536
vt 0.754368 0.172598
vt 0.759025 0.172680
vt 0.756883 0.172764
vt 0.761150 0.172425
vt 0.751843 0.172093
vt 0.763265 0.171999
vt 0.749306 0.171237
vt 0.765372 0.171401
vt 0.767475 0.170631
vt 0.746757 0.170020
vt 0.769579 0.169687
vt 0.704066 0.063306
vt 0.725336 0.170613
vt 0.704066 0.170613
vt 0.725336 0.145997
vt 0.744194 0.168432
vt 0.771689 0.168569
vt 0.773807 0.167276
vt 0.741617 0.166461
vt 0.775939 0.165807
vt 0.739026 0.164097
vt 0.778088 0.164162
vt 0.780258 0.162338
vt 0.736418 0.161328
vt 0.782455 0.160337
vt 0.733794 0.158145
vt 0.755695 0.151681
vt 0.757325 0.151105
vt 0.759022 0.150382
vt 0.760767 0.149522
vt 0.762541 0.148533
vt 0.764327 0.147422
vt 0.766106 0.146199
vt 0.767861 0.144871
vt 0.769572 0.143447
vt 0.771222 0.141934
vt 0.731153 0.154536
vt 0.752708 0.152362
vt 0.754150 0.152103
vt 0.728493 0.150490
vt 0.747811 0.152152
vt 0.751386 0.152450
vt 0.744394 0.151285
vt 0.741165 0.149885
vt 0.725814 0.145997
vt 0.738153 0.147989
vt 0.735386 0.145635
vt 0.727356 0.132386
vt 0.728850 0.136199
vt 0.730706 0.139703
vt 0.732894 0.142861
vt 0.726253 0.128302
vt 0.725570 0.123984
vt 0.725336 0.119469
vt 0.725336 0.063306
vt 0.758472 0.353007
vt 0.749334 0.353147
vt 0.754668 0.352911
vt 0.762119 0.353303
vt 0.744233 0.353848
vt 0.765609 0.353800
vt 0.768946 0.354498
vt 0.739410 0.355025
vt 0.772130 0.355400
vt 0.734908 0.356684
vt 0.775163 0.356504
vt 0.778048 0.357813
vt 0.730773 0.358833
vt 0.780784 0.359327
vt 0.727046 0.361482
vt 0.783375 0.361048
vt 0.785822 0.362974
vt 0.723773 0.364638
vt 0.788126 0.365109
vt 0.720998 0.368310
vt 0.790289 0.367452
vt 0.790313 0.390632
vt 0.787707 0.387726
vt 0.785039 0.385095
vt 0.782314 0.382735
vt 0.779540 0.380641
vt 0.776723 0.378810
vt 0.773870 0.377236
vt 0.770987 0.375917
vt 0.768082 0.374847
vt 0.765159 0.374023
vt 0.762228 0.373440
vt 0.759289 0.373123
vt 0.756358 0.373008
vt 0.718761 0.372504
vt 0.753266 0.373125
vt 0.717109 0.377230
vt 0.750445 0.373492
vt 0.747891 0.374090
vt 0.745606 0.374943
vt 0.743590 0.376057
vt 0.741842 0.377443
vt 0.716085 0.382497
vt 0.740363 0.379107
vt 0.739153 0.381058
vt 0.738212 0.383305
vt 0.715733 0.388314
vt 0.737540 0.385855
vt 0.737136 0.388717
vt 0.715729 0.443516
vt 0.737002 0.391900
vt 0.737001 0.397635
vt 0.755879 0.404328
vt 0.737000 0.409345
vt 0.760213 0.405895
vt 0.764562 0.407523
vt 0.768851 0.409262
vt 0.773005 0.411162
vt 0.741483 0.410903
vt 0.736997 0.440651
vt 0.745820 0.412482
vt 0.776951 0.413275
vt 0.749964 0.414107
vt 0.780612 0.415651
vt 0.753869 0.415799
vt 0.783915 0.418341
vt 0.757489 0.417580
vt 0.760777 0.419473
vt 0.786785 0.421394
vt 0.763687 0.421501
vt 0.789147 0.424863
vt 0.766171 0.423686
vt 0.768185 0.426049
vt 0.790927 0.428797
vt 0.769681 0.428615
vt 0.770612 0.431404
vt 0.792049 0.433247
vt 0.770932 0.434440
vt 0.792440 0.438264
vt 0.770800 0.436593
vt 0.770413 0.438625
vt 0.792224 0.441693
vt 0.769786 0.440522
vt 0.768932 0.442273
vt 0.738441 0.441979
vt 0.791588 0.445024
vt 0.739905 0.443215
vt 0.767865 0.443864
vt 0.741388 0.444352
vt 0.701617 0.444148
vt 0.700433 0.456187
vt 0.700433 0.443282
vt 0.715699 0.444478
vt 0.766601 0.445283
vt 0.702775 0.444952
vt 0.742892 0.445387
vt 0.715610 0.445334
vt 0.703902 0.445691
vt 0.790550 0.448219
vt 0.765152 0.446518
vt 0.715463 0.446089
vt 0.744415 0.446315
vt 0.704992 0.446362
vt 0.715259 0.446747
vt 0.745959 0.447134
vt 0.706038 0.446964
vt 0.763532 0.447557
vt 0.714999 0.447311
vt 0.707035 0.447494
vt 0.747522 0.447838
vt 0.714683 0.447787
vt 0.707978 0.447949
vt 0.761757 0.448386
vt 0.714312 0.448179
vt 0.749105 0.448423
vt 0.708859 0.448327
vt 0.713887 0.448490
vt 0.789129 0.451239
vt 0.709675 0.448626
vt 0.759840 0.448994
vt 0.750708 0.448886
vt 0.713409 0.448724
vt 0.710418 0.448842
vt 0.712879 0.448887
vt 0.711084 0.448973
vt 0.752331 0.449222
vt 0.712297 0.448981
vt 0.711665 0.449018
vt 0.757796 0.449368
vt 0.753974 0.449426
vt 0.755637 0.449495
vt 0.737236 0.453558
vt 0.787343 0.454047
vt 0.739575 0.455330
vt 0.736693 0.455380
vt 0.785210 0.456605
vt 0.741933 0.456944
vt 0.736016 0.457027
vt 0.702768 0.457707
vt 0.782749 0.458874
vt 0.744308 0.458401
vt 0.735201 0.458501
vt 0.704893 0.459047
vt 0.746697 0.459700
vt 0.734244 0.459806
vt 0.779977 0.460816
vt 0.706837 0.460216
vt 0.749100 0.460844
vt 0.733142 0.460945
vt 0.708629 0.461223
vt 0.776913 0.462393
vt 0.751515 0.461832
vt 0.731889 0.461922
vt 0.710299 0.462078
vt 0.753939 0.462666
vt 0.730482 0.462739
vt 0.711874 0.462788
vt 0.773576 0.463566
vt 0.756372 0.463347
vt 0.728916 0.463400
vt 0.713385 0.463365
vt 0.758811 0.463875
vt 0.714861 0.463816
vt 0.727188 0.463908
vt 0.769982 0.464298
vt 0.716329 0.464151
vt 0.761255 0.464251
vt 0.725293 0.464268
vt 0.717820 0.464379
vt 0.763703 0.464476
vt 0.723227 0.464481
vt 0.766152 0.464551
vt 0.719363 0.464510
vt 0.720986 0.464551
vt 0.137896 0.393555
vt 0.097114 0.379329
vt 0.095755 0.357187
vt 0.063306 0.381404
vt 0.064475 0.400450
vt 0.138042 0.395936
vt 0.119487 0.397318
vt 0.123307 0.453723
vt 0.098306 0.398752
vt 0.102012 0.453492
vt 0.102032 0.456472
vt 0.123383 0.458450
vt 0.101691 0.459118
vt 0.101034 0.461444
vt 0.122957 0.462969
vt 0.100102 0.463468
vt 0.065519 0.465591
vt 0.064644 0.484235
vt 0.063306 0.464481
vt 0.067696 0.466594
vt 0.098938 0.465205
vt 0.069838 0.467490
vt 0.122030 0.467248
vt 0.097585 0.466673
vt 0.071949 0.468279
vt 0.074030 0.468960
vt 0.096085 0.467886
vt 0.076081 0.469533
vt 0.094481 0.468861
vt 0.078105 0.469999
vt 0.092815 0.469614
vt 0.080104 0.470357
vt 0.120597 0.471254
vt 0.082079 0.470606
vt 0.091131 0.470162
vt 0.084031 0.470748
vt 0.089470 0.470521
vt 0.085963 0.470782
vt 0.087876 0.470707
vt 0.118660 0.474956
vt 0.116216 0.478322
vt 0.113263 0.481318
vt 0.066635 0.485095
vt 0.109801 0.483913
vt 0.068761 0.485898
vt 0.070993 0.486640
vt 0.105828 0.486075
vt 0.073300 0.487315
vt 0.075652 0.487916
vt 0.078019 0.488440
vt 0.101343 0.487770
vt 0.080370 0.488879
vt 0.082675 0.489230
vt 0.096344 0.488967
vt 0.084904 0.489486
vt 0.087026 0.489643
vt 0.090831 0.489634
vt 0.089012 0.489694
vt 0.105902 0.230287
vt 0.116259 0.230469
vt 0.113154 0.230575
vt 0.119360 0.230203
vt 0.122453 0.229779
vt 0.099105 0.229315
vt 0.125534 0.229195
vt 0.128601 0.228452
vt 0.092796 0.227682
vt 0.131650 0.227549
vt 0.134678 0.226488
vt 0.087006 0.225416
vt 0.137681 0.225267
vt 0.140656 0.223888
vt 0.081769 0.222540
vt 0.143600 0.222349
vt 0.146509 0.220651
vt 0.077117 0.219081
vt 0.149381 0.218795
vt 0.122769 0.207983
vt 0.125890 0.207046
vt 0.129075 0.205853
vt 0.132318 0.204385
vt 0.135611 0.202625
vt 0.138949 0.200552
vt 0.142323 0.198147
vt 0.145727 0.195392
vt 0.149155 0.192268
vt 0.073082 0.215066
vt 0.116744 0.209158
vt 0.119716 0.208673
vt 0.069696 0.210517
vt 0.111060 0.209552
vt 0.113857 0.209444
vt 0.066993 0.205462
vt 0.107388 0.209422
vt 0.103915 0.208977
vt 0.100664 0.208232
vt 0.097656 0.207200
vt 0.094915 0.205897
vt 0.092463 0.204338
vt 0.065006 0.199924
vt 0.090322 0.202537
vt 0.088515 0.200509
vt 0.087065 0.198269
vt 0.063766 0.193931
vt 0.085995 0.195831
vt 0.085326 0.193210
vt 0.063306 0.187506
vt 0.085081 0.190422
vt 0.086404 0.183196
vt 0.064603 0.177132
vt 0.090185 0.176982
vt 0.095930 0.171490
vt 0.068359 0.168194
vt 0.103149 0.166434
vt 0.074085 0.160450
vt 0.111347 0.161525
vt 0.120034 0.156476
vt 0.081288 0.153658
vt 0.128717 0.150998
vt 0.089476 0.147579
vt 0.136905 0.144805
vt 0.098158 0.141970
vt 0.144104 0.137608
vt 0.106842 0.136590
vt 0.149823 0.129119
vt 0.115036 0.131197
vt 0.122249 0.125551
vt 0.153570 0.119051
vt 0.127989 0.119410
vt 0.131764 0.112533
vt 0.154852 0.107116
vt 0.133082 0.104678
vt 0.063306 0.078763
vt 0.066585 0.104691
vt 0.063567 0.108396
vt 0.154401 0.100878
vt 0.132887 0.102368
vt 0.069728 0.101278
vt 0.132337 0.100009
vt 0.153190 0.094976
vt 0.072988 0.098164
vt 0.131430 0.097650
vt 0.076358 0.095351
vt 0.130159 0.095339
vt 0.128520 0.093124
vt 0.151261 0.089451
vt 0.079830 0.092847
vt 0.126510 0.091054
vt 0.083397 0.090656
vt 0.124122 0.089176
vt 0.087052 0.088782
vt 0.148659 0.084342
vt 0.121354 0.087538
vt 0.090786 0.087232
vt 0.118199 0.086190
vt 0.094593 0.086009
vt 0.114654 0.085178
vt 0.098465 0.085119
vt 0.110714 0.084552
vt 0.102395 0.084568
vt 0.145427 0.079690
vt 0.106375 0.084359
vt 0.141609 0.075535
vt 0.066707 0.076278
vt 0.070148 0.074019
vt 0.137248 0.071918
vt 0.073640 0.071984
vt 0.132387 0.068879
vt 0.077190 0.070170
vt 0.080809 0.068574
vt 0.127070 0.066458
vt 0.084505 0.067195
vt 0.088288 0.066028
vt 0.121341 0.064695
vt 0.092167 0.065072
vt 0.096150 0.064325
vt 0.115243 0.063631
vt 0.100247 0.063783
vt 0.104467 0.063445
vt 0.108819 0.063306
vt 0.262004 0.686203
vt 0.261042 0.702237
vt 0.261056 0.694002
vt 0.261959 0.710086
vt 0.263866 0.678826
vt 0.263762 0.717493
vt 0.266579 0.671928
vt 0.266405 0.724402
vt 0.270080 0.665566
vt 0.269841 0.730761
vt 0.274309 0.659794
vt 0.274026 0.736512
vt 0.279202 0.654671
vt 0.278913 0.741601
vt 0.284696 0.650251
vt 0.280156 0.694887
vt 0.280752 0.690014
vt 0.280159 0.700084
vt 0.281925 0.685437
vt 0.280773 0.705035
vt 0.283641 0.681184
vt 0.281966 0.709706
vt 0.284456 0.745974
vt 0.290731 0.646591
vt 0.285865 0.677285
vt 0.283710 0.714062
vt 0.288562 0.673770
vt 0.285972 0.718070
vt 0.291697 0.670668
vt 0.288724 0.721696
vt 0.290610 0.749574
vt 0.297242 0.643747
vt 0.295234 0.668009
vt 0.291933 0.724904
vt 0.299140 0.665822
vt 0.295571 0.727662
vt 0.297329 0.752347
vt 0.304169 0.641776
vt 0.303378 0.664136
vt 0.299607 0.729934
vt 0.304567 0.754238
vt 0.311448 0.640733
vt 0.307914 0.662982
vt 0.304010 0.731686
vt 0.312713 0.662388
vt 0.308749 0.732885
vt 0.312279 0.755192
vt 0.319018 0.640675
vt 0.317741 0.662385
vt 0.313795 0.733496
vt 0.327023 0.641631
vt 0.323226 0.662998
vt 0.320541 0.755192
vt 0.319411 0.733535
vt 0.328336 0.664150
vt 0.324673 0.732985
vt 0.334544 0.643497
vt 0.328360 0.754223
vt 0.333044 0.665815
vt 0.329561 0.731865
vt 0.337327 0.667962
vt 0.341533 0.646219
vt 0.334055 0.730192
vt 0.335692 0.752328
vt 0.341161 0.670566
vt 0.338135 0.727987
vt 0.347940 0.649745
vt 0.342492 0.749549
vt 0.344522 0.673597
vt 0.341781 0.725267
vt 0.347386 0.677028
vt 0.344972 0.722052
vt 0.353718 0.654022
vt 0.348717 0.745927
vt 0.349728 0.680831
vt 0.347688 0.718359
vt 0.351525 0.684977
vt 0.349909 0.714209
vt 0.352752 0.689439
vt 0.351615 0.709620
vt 0.358818 0.658997
vt 0.354322 0.741507
vt 0.353385 0.694188
vt 0.352785 0.704609
vt 0.353400 0.699197
vt 0.363192 0.664618
vt 0.359263 0.736328
vt 0.366791 0.670831
vt 0.363497 0.730435
vt 0.369567 0.677585
vt 0.366978 0.723870
vt 0.371472 0.684826
vt 0.369664 0.716673
vt 0.372456 0.692502
vt 0.371510 0.708889
vt 0.372472 0.700559
vt 0.577307 0.099674
vt 0.536525 0.085448
vt 0.535166 0.063306
vt 0.502717 0.087522
vt 0.503886 0.106569
vt 0.577453 0.102055
vt 0.558899 0.103436
vt 0.562718 0.159842
vt 0.537717 0.104871
vt 0.541423 0.159611
vt 0.541443 0.162591
vt 0.562794 0.164569
vt 0.541102 0.165237
vt 0.540445 0.167563
vt 0.562369 0.169088
vt 0.539513 0.169587
vt 0.504930 0.171710
vt 0.504055 0.190354
vt 0.502717 0.170600
vt 0.507107 0.172713
vt 0.538349 0.171324
vt 0.509250 0.173609
vt 0.561441 0.173367
vt 0.536996 0.172791
vt 0.511360 0.174398
vt 0.513441 0.175079
vt 0.535496 0.174004
vt 0.515492 0.175652
vt 0.533892 0.174980
vt 0.517516 0.176118
vt 0.532227 0.175733
vt 0.519515 0.176476
vt 0.560009 0.177373
vt 0.521490 0.176725
vt 0.530542 0.176281
vt 0.523442 0.176867
vt 0.528881 0.176640
vt 0.525374 0.176901
vt 0.527287 0.176826
vt 0.558071 0.181075
vt 0.555627 0.184441
vt 0.552674 0.187437
vt 0.506046 0.191214
vt 0.549212 0.190032
vt 0.508172 0.192017
vt 0.510404 0.192759
vt 0.545240 0.192194
vt 0.512711 0.193433
vt 0.515063 0.194035
vt 0.517430 0.194558
vt 0.540754 0.193889
vt 0.519781 0.194998
vt 0.522086 0.195349
vt 0.535756 0.195086
vt 0.524315 0.195605
vt 0.526437 0.195762
vt 0.530242 0.195753
vt 0.528423 0.195813
vt 0.750736 0.936528
vt 0.755392 0.936609
vt 0.753250 0.936694
vt 0.757518 0.936354
vt 0.748211 0.936022
vt 0.759632 0.935928
vt 0.745674 0.935166
vt 0.761739 0.935331
vt 0.763843 0.934560
vt 0.743124 0.933950
vt 0.765947 0.933617
vt 0.700433 0.827236
vt 0.721704 0.934543
vt 0.700433 0.934543
vt 0.721704 0.909927
vt 0.740562 0.932361
vt 0.768056 0.932499
vt 0.770175 0.931206
vt 0.737985 0.930390
vt 0.772306 0.929737
vt 0.735393 0.928026
vt 0.774455 0.928091
vt 0.776626 0.926268
vt 0.732786 0.925258
vt 0.778823 0.924266
vt 0.730162 0.922074
vt 0.752063 0.915610
vt 0.753693 0.915034
vt 0.755390 0.914312
vt 0.757134 0.913452
vt 0.758909 0.912462
vt 0.760695 0.911352
vt 0.762474 0.910128
vt 0.764229 0.908800
vt 0.765940 0.907376
vt 0.767590 0.905864
vt 0.727520 0.918465
vt 0.749075 0.916291
vt 0.750518 0.916032
vt 0.724861 0.914420
vt 0.744179 0.916082
vt 0.747754 0.916380
vt 0.740762 0.915214
vt 0.737533 0.913814
vt 0.722182 0.909927
vt 0.734521 0.911918
vt 0.731754 0.909564
vt 0.723724 0.896315
vt 0.725218 0.900128
vt 0.727073 0.903632
vt 0.729262 0.906790
vt 0.722621 0.892231
vt 0.721938 0.887913
vt 0.721704 0.883399
vt 0.721704 0.827236
vt 0.300662 0.354747
vt 0.292250 0.359508
vt 0.295986 0.356490
vt 0.289040 0.362720
vt 0.305265 0.353515
vt 0.286401 0.366190
vt 0.309830 0.352911
vt 0.284359 0.369931
vt 0.314333 0.352938
vt 0.282931 0.373940
vt 0.318738 0.353588
vt 0.282135 0.378208
vt 0.323009 0.354850
vt 0.281982 0.382723
vt 0.326492 0.356712
vt 0.302717 0.370057
vt 0.301972 0.370665
vt 0.300724 0.371467
vt 0.304609 0.369523
vt 0.299029 0.373019
vt 0.307232 0.368745
vt 0.297616 0.374713
vt 0.281464 0.387569
vt 0.309837 0.368320
vt 0.331237 0.358933
vt 0.296387 0.376529
vt 0.312430 0.368219
vt 0.295440 0.378477
vt 0.314989 0.368462
vt 0.294768 0.380551
vt 0.317506 0.369042
vt 0.294374 0.382740
vt 0.335717 0.361923
vt 0.281615 0.392918
vt 0.319987 0.369939
vt 0.294186 0.385033
vt 0.322407 0.371164
vt 0.294295 0.387423
vt 0.339851 0.365675
vt 0.282656 0.398799
vt 0.324772 0.372701
vt 0.294644 0.389907
vt 0.327055 0.374549
vt 0.295305 0.392455
vt 0.343516 0.370156
vt 0.329267 0.376695
vt 0.284744 0.405084
vt 0.296241 0.395079
vt 0.346889 0.375004
vt 0.287660 0.411545
vt 0.350663 0.378886
vt 0.334865 0.387000
vt 0.336304 0.392752
vt 0.354738 0.383705
vt 0.337768 0.398630
vt 0.339244 0.404659
vt 0.359021 0.389616
vt 0.340393 0.410808
vt 0.363084 0.396422
vt 0.341102 0.417073
vt 0.286471 0.494437
vt 0.306130 0.514062
vt 0.281464 0.496483
vt 0.341429 0.423411
vt 0.291299 0.492275
vt 0.295945 0.489990
vt 0.366781 0.404298
vt 0.341099 0.429851
vt 0.300405 0.487573
vt 0.304677 0.485015
vt 0.340192 0.436328
vt 0.308758 0.482309
vt 0.338612 0.442819
vt 0.312644 0.479446
vt 0.369845 0.413318
vt 0.316332 0.476418
vt 0.336199 0.449360
vt 0.319820 0.473217
vt 0.333023 0.455918
vt 0.323103 0.469834
vt 0.326179 0.466262
vt 0.329045 0.462492
vt 0.371877 0.423422
vt 0.311347 0.512261
vt 0.372472 0.433768
vt 0.316336 0.510314
vt 0.321120 0.508201
vt 0.371545 0.444276
vt 0.325721 0.505877
vt 0.330165 0.503326
vt 0.369001 0.454868
vt 0.334472 0.500498
vt 0.338670 0.497384
vt 0.364751 0.465476
vt 0.342774 0.493922
vt 0.346817 0.490115
vt 0.350828 0.485935
vt 0.358791 0.476206
vt 0.354802 0.481288
vt 0.573675 0.389278
vt 0.532892 0.375052
vt 0.531534 0.352911
vt 0.499085 0.377127
vt 0.500254 0.396173
vt 0.573821 0.391659
vt 0.555266 0.393041
vt 0.559085 0.449447
vt 0.534084 0.394475
vt 0.537791 0.449215
vt 0.537810 0.452196
vt 0.559162 0.454173
vt 0.537470 0.454841
vt 0.536812 0.457168
vt 0.558736 0.458692
vt 0.535880 0.459191
vt 0.501297 0.461315
vt 0.500422 0.479958
vt 0.499085 0.460204
vt 0.503474 0.462318
vt 0.534717 0.460929
vt 0.505617 0.463214
vt 0.557808 0.462971
vt 0.533363 0.462396
vt 0.507728 0.464002
vt 0.509808 0.464683
vt 0.531864 0.463609
vt 0.511860 0.465257
vt 0.530260 0.464584
vt 0.513884 0.465722
vt 0.528594 0.465338
vt 0.515883 0.466080
vt 0.556376 0.466978
vt 0.517857 0.466330
vt 0.526910 0.465886
vt 0.519810 0.466472
vt 0.525249 0.466245
vt 0.521742 0.466505
vt 0.523655 0.466430
vt 0.554439 0.470680
vt 0.551994 0.474045
vt 0.549042 0.477042
vt 0.502413 0.480818
vt 0.545580 0.479637
vt 0.504540 0.481622
vt 0.506772 0.482364
vt 0.541607 0.481798
vt 0.509079 0.483038
vt 0.511431 0.483640
vt 0.513797 0.484163
vt 0.537122 0.483494
vt 0.516148 0.484603
vt 0.518453 0.484954
vt 0.532124 0.484691
vt 0.520682 0.485210
vt 0.522805 0.485366
vt 0.526610 0.485358
vt 0.524791 0.485417
vt 0.751221 0.700500
vt 0.759192 0.700333
vt 0.754206 0.700623
vt 0.748249 0.700133
vt 0.763968 0.699460
vt 0.745303 0.699529
vt 0.742398 0.698694
vt 0.768489 0.697998
vt 0.739545 0.697632
vt 0.700433 0.591167
vt 0.721703 0.698472
vt 0.700433 0.698472
vt 0.721703 0.684372
vt 0.772714 0.695941
vt 0.736759 0.696351
vt 0.734053 0.694856
vt 0.776600 0.693283
vt 0.731440 0.693153
vt 0.780106 0.690018
vt 0.728933 0.691247
vt 0.726545 0.689144
vt 0.783188 0.686141
vt 0.724290 0.686851
vt 0.722181 0.684372
vt 0.748470 0.683655
vt 0.785805 0.681646
vt 0.721703 0.668121
vt 0.724160 0.670786
vt 0.726524 0.673172
vt 0.728809 0.675287
vt 0.731033 0.677140
vt 0.733209 0.678742
vt 0.735355 0.680100
vt 0.737487 0.681224
vt 0.739618 0.682124
vt 0.741767 0.682807
vt 0.743948 0.683284
vt 0.746177 0.683564
vt 0.751594 0.683437
vt 0.754509 0.682814
vt 0.757200 0.681797
vt 0.759658 0.680401
vt 0.787915 0.676527
vt 0.761871 0.678644
vt 0.763826 0.676541
vt 0.765512 0.674109
vt 0.789475 0.670778
vt 0.766918 0.671365
vt 0.768032 0.668326
vt 0.790443 0.664393
vt 0.768843 0.665008
vt 0.721703 0.591167
vt 0.769338 0.661428
vt 0.790776 0.657367
vt 0.769506 0.657602
vt 0.769519 0.591163
vt 0.790789 0.591168
vt 0.376105 0.226298
vt 0.352684 0.084338
vt 0.376105 0.063306
vt 0.283615 0.063306
vt 0.283615 0.084338
vt 0.352684 0.133570
vt 0.352684 0.154601
vt 0.286005 0.133570
vt 0.286005 0.154601
vt 0.352684 0.205267
vt 0.281464 0.205267
vt 0.281464 0.226298
s 0
usemtl マテリアル.004
f 2/1/1 58/2/1 1/3/1
f 2/1/1 57/4/1 58/2/1
f 2/1/1 56/5/1 57/4/1
f 3/6/1 56/5/1 2/1/1
f 4/7/1 56/5/1 3/6/1
f 5/8/1 55/9/1 4/7/1
f 55/9/1 56/5/1 4/7/1
f 5/8/1 54/10/1 55/9/1
f 5/8/1 53/11/1 54/10/1
f 6/12/1 53/11/1 5/8/1
f 6/12/1 52/13/1 53/11/1
f 6/12/1 51/14/1 52/13/1
f 7/15/1 51/14/1 6/12/1
f 7/15/1 50/16/1 51/14/1
f 31/17/1 29/18/1 30/19/1
f 32/20/1 29/18/1 31/17/1
f 7/15/1 49/21/1 50/16/1
f 33/22/1 29/18/1 32/20/1
f 8/23/1 49/21/1 7/15/1
f 8/23/1 48/24/1 49/21/1
f 34/25/1 29/18/1 33/22/1
f 35/26/1 29/18/1 34/25/1
f 8/23/1 47/27/1 48/24/1
f 36/28/1 29/18/1 35/26/1
f 8/23/1 46/29/1 47/27/1
f 37/30/1 29/18/1 36/28/1
f 8/23/1 45/31/1 46/29/1
f 38/32/1 29/18/1 37/30/1
f 9/33/1 45/31/1 8/23/1
f 39/34/1 29/18/1 38/32/1
f 9/33/1 44/35/1 45/31/1
f 40/36/1 29/18/1 39/34/1
f 9/33/1 43/37/1 44/35/1
f 41/38/1 29/18/1 40/36/1
f 9/33/1 42/39/1 43/37/1
f 42/39/1 29/18/1 41/38/1
f 9/33/1 29/18/1 42/39/1
f 10/40/1 29/18/1 9/33/1
f 11/41/1 29/18/1 10/40/1
f 12/42/1 29/18/1 11/41/1
f 12/42/1 28/43/1 29/18/1
f 13/44/1 28/43/1 12/42/1
f 13/44/1 27/45/1 28/43/1
f 13/44/1 26/46/1 27/45/1
f 14/47/1 26/46/1 13/44/1
f 14/47/1 25/48/1 26/46/1
f 14/47/1 24/49/1 25/48/1
f 14/47/1 23/50/1 24/49/1
f 15/51/1 23/50/1 14/47/1
f 15/51/1 22/52/1 23/50/1
f 15/51/1 21/53/1 22/52/1
f 16/54/1 21/53/1 15/51/1
f 16/54/1 20/55/1 21/53/1
f 16/54/1 19/56/1 20/55/1
f 17/57/1 19/56/1 16/54/1
f 17/57/1 18/58/1 19/56/1
f 100/59/1 98/60/1 99/61/1
f 100/59/1 97/62/1 98/60/1
f 101/63/1 97/62/1 100/59/1
f 101/63/1 96/64/1 97/62/1
f 102/65/1 96/64/1 101/63/1
f 102/65/1 95/66/1 96/64/1
f 102/65/1 94/67/1 95/66/1
f 103/68/1 94/67/1 102/65/1
f 103/68/1 93/69/1 94/67/1
f 60/70/1 113/71/1 59/72/1
f 60/70/1 112/73/1 113/71/1
f 104/74/1 93/69/1 103/68/1
f 104/74/1 92/75/1 93/69/1
f 104/74/1 91/76/1 92/75/1
f 105/77/1 91/76/1 104/74/1
f 105/77/1 90/78/1 91/76/1
f 106/79/1 90/78/1 105/77/1
f 106/79/1 89/80/1 90/78/1
f 106/79/1 88/81/1 89/80/1
f 107/82/1 88/81/1 106/79/1
f 107/82/1 87/83/1 88/81/1
f 108/84/1 87/83/1 107/82/1
f 108/84/1 77/85/1 87/83/1
f 77/85/1 78/86/1 87/83/1
f 78/86/1 79/87/1 87/83/1
f 79/87/1 80/88/1 87/83/1
f 80/88/1 81/89/1 87/83/1
f 81/89/1 82/90/1 87/83/1
f 82/90/1 83/91/1 87/83/1
f 83/91/1 84/92/1 87/83/1
f 84/92/1 85/93/1 87/83/1
f 85/93/1 86/94/1 87/83/1
f 109/95/1 75/96/1 108/84/1
f 75/96/1 76/97/1 108/84/1
f 76/97/1 77/85/1 108/84/1
f 110/98/1 73/99/1 109/95/1
f 73/99/1 74/100/1 109/95/1
f 74/100/1 75/96/1 109/95/1
f 110/98/1 72/101/1 73/99/1
f 110/98/1 71/102/1 72/101/1
f 111/103/1 71/102/1 110/98/1
f 111/103/1 70/104/1 71/102/1
f 111/103/1 69/105/1 70/104/1
f 60/70/1 111/103/1 112/73/1
f 60/70/1 65/106/1 111/103/1
f 65/106/1 66/107/1 111/103/1
f 66/107/1 67/108/1 111/103/1
f 67/108/1 68/109/1 111/103/1
f 68/109/1 69/105/1 111/103/1
f 60/70/1 64/110/1 65/106/1
f 60/70/1 63/111/1 64/110/1
f 60/70/1 62/112/1 63/111/1
f 60/70/1 61/113/1 62/112/1
f 152/114/1 150/115/1 151/116/1
f 153/117/1 150/115/1 152/114/1
f 153/117/1 149/118/1 150/115/1
f 154/119/1 149/118/1 153/117/1
f 155/120/1 149/118/1 154/119/1
f 155/120/1 148/121/1 149/118/1
f 156/122/1 148/121/1 155/120/1
f 156/122/1 147/123/1 148/121/1
f 157/124/1 147/123/1 156/122/1
f 158/125/1 147/123/1 157/124/1
f 158/125/1 146/126/1 147/123/1
f 159/127/1 146/126/1 158/125/1
f 159/127/1 145/128/1 146/126/1
f 160/129/1 145/128/1 159/127/1
f 161/130/1 145/128/1 160/129/1
f 161/130/1 144/131/1 145/128/1
f 162/132/1 144/131/1 161/130/1
f 162/132/1 143/133/1 144/131/1
f 163/134/1 143/133/1 162/132/1
f 164/135/1 165/136/1 163/134/1
f 165/136/1 166/137/1 163/134/1
f 166/137/1 167/138/1 163/134/1
f 167/138/1 168/139/1 163/134/1
f 168/139/1 169/140/1 163/134/1
f 169/140/1 170/141/1 163/134/1
f 170/141/1 171/142/1 163/134/1
f 171/142/1 172/143/1 163/134/1
f 172/143/1 173/144/1 163/134/1
f 173/144/1 174/145/1 163/134/1
f 174/145/1 143/133/1 163/134/1
f 174/145/1 175/146/1 143/133/1
f 175/146/1 176/147/1 143/133/1
f 176/147/1 142/148/1 143/133/1
f 176/147/1 177/149/1 142/148/1
f 177/149/1 141/150/1 142/148/1
f 178/151/1 141/150/1 177/149/1
f 179/152/1 141/150/1 178/151/1
f 180/153/1 141/150/1 179/152/1
f 181/154/1 141/150/1 180/153/1
f 182/155/1 141/150/1 181/154/1
f 182/155/1 140/156/1 141/150/1
f 183/157/1 140/156/1 182/155/1
f 184/158/1 140/156/1 183/157/1
f 185/159/1 140/156/1 184/158/1
f 185/159/1 139/160/1 140/156/1
f 186/161/1 139/160/1 185/159/1
f 187/162/1 139/160/1 186/161/1
f 187/162/1 138/163/1 139/160/1
f 188/164/1 138/163/1 187/162/1
f 189/165/1 138/163/1 188/164/1
f 190/166/1 287/167/1 189/165/1
f 287/167/1 138/163/1 189/165/1
f 191/168/1 287/167/1 190/166/1
f 192/169/1 287/167/1 191/168/1
f 193/170/1 287/167/1 192/169/1
f 194/171/1 287/167/1 193/170/1
f 194/171/1 286/172/1 287/167/1
f 251/173/1 138/163/1 287/167/1
f 194/171/1 285/174/1 286/172/1
f 195/175/1 285/174/1 194/171/1
f 195/175/1 284/176/1 285/174/1
f 196/177/1 284/176/1 195/175/1
f 196/177/1 283/178/1 284/176/1
f 197/179/1 283/178/1 196/177/1
f 197/179/1 282/180/1 283/178/1
f 197/179/1 281/181/1 282/180/1
f 198/182/1 281/181/1 197/179/1
f 198/182/1 280/183/1 281/181/1
f 199/184/1 280/183/1 198/182/1
f 199/184/1 279/185/1 280/183/1
f 199/184/1 278/186/1 279/185/1
f 200/187/1 278/186/1 199/184/1
f 200/187/1 277/188/1 278/186/1
f 200/187/1 276/189/1 277/188/1
f 201/190/1 276/189/1 200/187/1
f 201/190/1 275/191/1 276/189/1
f 202/192/1 275/191/1 201/190/1
f 202/192/1 274/193/1 275/191/1
f 202/192/1 273/194/1 274/193/1
f 203/195/1 273/194/1 202/192/1
f 203/195/1 272/196/1 273/194/1
f 203/195/1 271/197/1 272/196/1
f 252/198/1 138/163/1 251/173/1
f 204/199/1 271/197/1 203/195/1
f 253/200/1 138/163/1 252/198/1
f 204/199/1 270/201/1 271/197/1
f 254/202/1 138/163/1 253/200/1
f 115/203/1 250/204/1 114/205/1
f 254/202/1 137/206/1 138/163/1
f 204/199/1 269/207/1 270/201/1
f 116/208/1 250/204/1 115/203/1
f 255/209/1 137/206/1 254/202/1
f 255/209/1 136/210/1 137/206/1
f 117/211/1 250/204/1 116/208/1
f 205/212/1 269/207/1 204/199/1
f 205/212/1 268/213/1 269/207/1
f 255/209/1 135/214/1 136/210/1
f 256/215/1 135/214/1 255/209/1
f 118/216/1 250/204/1 117/211/1
f 256/215/1 134/217/1 135/214/1
f 257/218/1 134/217/1 256/215/1
f 119/219/1 250/204/1 118/216/1
f 205/212/1 267/220/1 268/213/1
f 257/218/1 133/221/1 134/217/1
f 120/222/1 250/204/1 119/219/1
f 258/223/1 133/221/1 257/218/1
f 258/223/1 132/224/1 133/221/1
f 121/225/1 250/204/1 120/222/1
f 205/212/1 266/226/1 267/220/1
f 258/223/1 131/227/1 132/224/1
f 259/228/1 131/227/1 258/223/1
f 122/229/1 250/204/1 121/225/1
f 259/228/1 130/230/1 131/227/1
f 206/231/1 266/226/1 205/212/1
f 123/232/1 250/204/1 122/229/1
f 206/231/1 265/233/1 266/226/1
f 260/234/1 130/230/1 259/228/1
f 260/234/1 129/235/1 130/230/1
f 124/236/1 250/204/1 123/232/1
f 260/234/1 128/237/1 129/235/1
f 125/238/1 250/204/1 124/236/1
f 261/239/1 128/237/1 260/234/1
f 261/239/1 127/240/1 128/237/1
f 126/241/1 250/204/1 125/238/1
f 261/239/1 126/241/1 127/240/1
f 206/231/1 264/242/1 265/233/1
f 261/239/1 250/204/1 126/241/1
f 262/243/1 250/204/1 261/239/1
f 206/231/1 263/244/1 264/242/1
f 263/244/1 250/204/1 262/243/1
f 206/231/1 226/245/1 263/244/1
f 226/245/1 250/204/1 263/244/1
f 207/246/1 226/245/1 206/231/1
f 207/246/1 225/247/1 226/245/1
f 227/248/1 250/204/1 226/245/1
f 208/249/1 225/247/1 207/246/1
f 208/249/1 224/250/1 225/247/1
f 228/251/1 250/204/1 227/248/1
f 228/251/1 249/252/1 250/204/1
f 209/253/1 224/250/1 208/249/1
f 209/253/1 223/254/1 224/250/1
f 229/255/1 249/252/1 228/251/1
f 229/255/1 248/256/1 249/252/1
f 209/253/1 222/257/1 223/254/1
f 230/258/1 248/256/1 229/255/1
f 210/259/1 222/257/1 209/253/1
f 230/258/1 247/260/1 248/256/1
f 210/259/1 221/261/1 222/257/1
f 231/262/1 247/260/1 230/258/1
f 231/262/1 246/263/1 247/260/1
f 211/264/1 221/261/1 210/259/1
f 211/264/1 220/265/1 221/261/1
f 232/266/1 246/263/1 231/262/1
f 232/266/1 245/267/1 246/263/1
f 211/264/1 219/268/1 220/265/1
f 233/269/1 245/267/1 232/266/1
f 233/269/1 244/270/1 245/267/1
f 212/271/1 219/268/1 211/264/1
f 212/271/1 218/272/1 219/268/1
f 234/273/1 244/270/1 233/269/1
f 234/273/1 243/274/1 244/270/1
f 212/271/1 217/275/1 218/272/1
f 234/273/1 242/276/1 243/274/1
f 235/277/1 242/276/1 234/273/1
f 213/278/1 217/275/1 212/271/1
f 235/277/1 241/279/1 242/276/1
f 213/278/1 216/280/1 217/275/1
f 236/281/1 241/279/1 235/277/1
f 236/281/1 240/282/1 241/279/1
f 213/278/1 215/283/1 216/280/1
f 237/284/1 240/282/1 236/281/1
f 214/285/1 215/283/1 213/278/1
f 237/284/1 239/286/1 240/282/1
f 238/287/1 239/286/1 237/284/1
f 289/288/1 345/289/1 288/290/1
f 289/288/1 344/291/1 345/289/1
f 289/288/1 343/292/1 344/291/1
f 290/293/1 343/292/1 289/288/1
f 291/294/1 343/292/1 290/293/1
f 292/295/1 342/296/1 291/294/1
f 342/296/1 343/292/1 291/294/1
f 292/295/1 341/297/1 342/296/1
f 292/295/1 340/298/1 341/297/1
f 293/299/1 340/298/1 292/295/1
f 293/299/1 339/300/1 340/298/1
f 293/299/1 338/301/1 339/300/1
f 294/302/1 338/301/1 293/299/1
f 294/302/1 337/303/1 338/301/1
f 318/304/1 316/305/1 317/306/1
f 319/307/1 316/305/1 318/304/1
f 294/302/1 336/308/1 337/303/1
f 320/309/1 316/305/1 319/307/1
f 295/310/1 336/308/1 294/302/1
f 295/310/1 335/311/1 336/308/1
f 321/312/1 316/305/1 320/309/1
f 322/313/1 316/305/1 321/312/1
f 295/310/1 334/314/1 335/311/1
f 323/315/1 316/305/1 322/313/1
f 295/310/1 333/316/1 334/314/1
f 324/317/1 316/305/1 323/315/1
f 295/310/1 332/318/1 333/316/1
f 325/319/1 316/305/1 324/317/1
f 296/320/1 332/318/1 295/310/1
f 326/321/1 316/305/1 325/319/1
f 296/320/1 331/322/1 332/318/1
f 327/323/1 316/305/1 326/321/1
f 296/320/1 330/324/1 331/322/1
f 328/325/1 316/305/1 327/323/1
f 296/320/1 329/326/1 330/324/1
f 329/326/1 316/305/1 328/325/1
f 296/320/1 316/305/1 329/326/1
f 297/327/1 316/305/1 296/320/1
f 298/328/1 316/305/1 297/327/1
f 299/329/1 316/305/1 298/328/1
f 299/329/1 315/330/1 316/305/1
f 300/331/1 315/330/1 299/329/1
f 300/331/1 314/332/1 315/330/1
f 300/331/1 313/333/1 314/332/1
f 301/334/1 313/333/1 300/331/1
f 301/334/1 312/335/1 313/333/1
f 301/334/1 311/336/1 312/335/1
f 301/334/1 310/337/1 311/336/1
f 302/338/1 310/337/1 301/334/1
f 302/338/1 309/339/1 310/337/1
f 302/338/1 308/340/1 309/339/1
f 303/341/1 308/340/1 302/338/1
f 303/341/1 307/342/1 308/340/1
f 303/341/1 306/343/1 307/342/1
f 304/344/1 306/343/1 303/341/1
f 304/344/1 305/345/1 306/343/1
f 359/346/1 357/347/1 358/348/1
f 359/346/1 356/349/1 357/347/1
f 359/346/1 355/350/1 356/349/1
f 360/351/1 355/350/1 359/346/1
f 360/351/1 354/352/1 355/350/1
f 360/351/1 353/353/1 354/352/1
f 361/354/1 353/353/1 360/351/1
f 361/354/1 352/355/1 353/353/1
f 361/354/1 351/356/1 352/355/1
f 362/357/1 351/356/1 361/354/1
f 362/357/1 350/358/1 351/356/1
f 362/357/1 349/359/1 350/358/1
f 363/360/1 349/359/1 362/357/1
f 363/360/1 348/361/1 349/359/1
f 363/360/1 347/362/1 348/361/1
f 364/363/1 347/362/1 363/360/1
f 364/363/1 346/364/1 347/362/1
f 364/363/1 459/365/1 346/364/1
f 459/365/1 460/366/1 346/364/1
f 460/366/1 461/367/1 346/364/1
f 461/367/1 462/368/1 346/364/1
f 462/368/1 463/369/1 346/364/1
f 463/369/1 464/370/1 346/364/1
f 464/370/1 465/371/1 346/364/1
f 465/371/1 466/372/1 346/364/1
f 466/372/1 467/373/1 346/364/1
f 365/374/1 457/375/1 364/363/1
f 457/375/1 458/376/1 364/363/1
f 458/376/1 459/365/1 364/363/1
f 366/377/1 455/378/1 365/374/1
f 455/378/1 456/379/1 365/374/1
f 456/379/1 457/375/1 365/374/1
f 367/380/1 454/381/1 366/377/1
f 454/381/1 455/378/1 366/377/1
f 367/380/1 453/382/1 454/381/1
f 367/380/1 452/383/1 453/382/1
f 367/380/1 451/384/1 452/383/1
f 367/380/1 450/385/1 451/384/1
f 367/380/1 449/386/1 450/385/1
f 368/387/1 449/386/1 367/380/1
f 368/387/1 448/388/1 449/386/1
f 368/387/1 447/389/1 448/388/1
f 368/387/1 446/390/1 447/389/1
f 369/391/1 446/390/1 368/387/1
f 369/391/1 445/392/1 446/390/1
f 369/391/1 444/393/1 445/392/1
f 370/394/1 444/393/1 369/391/1
f 370/394/1 443/395/1 444/393/1
f 370/394/1 442/396/1 443/395/1
f 371/397/1 442/396/1 370/394/1
f 371/397/1 441/398/1 442/396/1
f 371/397/1 440/399/1 441/398/1
f 372/400/1 440/399/1 371/397/1
f 372/400/1 439/401/1 440/399/1
f 373/402/1 439/401/1 372/400/1
f 373/402/1 438/403/1 439/401/1
f 373/402/1 437/404/1 438/403/1
f 374/405/1 437/404/1 373/402/1
f 374/405/1 436/406/1 437/404/1
f 375/407/1 436/406/1 374/405/1
f 375/407/1 435/408/1 436/406/1
f 376/409/1 435/408/1 375/407/1
f 376/409/1 434/410/1 435/408/1
f 377/411/1 434/410/1 376/409/1
f 377/411/1 433/412/1 434/410/1
f 378/413/1 433/412/1 377/411/1
f 379/414/1 433/412/1 378/413/1
f 379/414/1 432/415/1 433/412/1
f 380/416/1 432/415/1 379/414/1
f 381/417/1 432/415/1 380/416/1
f 381/417/1 431/418/1 432/415/1
f 382/419/1 431/418/1 381/417/1
f 407/420/1 405/421/1 406/422/1
f 382/419/1 430/423/1 431/418/1
f 383/424/1 430/423/1 382/419/1
f 407/420/1 404/425/1 405/421/1
f 384/426/1 430/423/1 383/424/1
f 384/426/1 429/427/1 430/423/1
f 407/420/1 403/428/1 404/425/1
f 385/429/1 429/427/1 384/426/1
f 407/420/1 402/430/1 403/428/1
f 386/431/1 429/427/1 385/429/1
f 387/432/1 429/427/1 386/431/1
f 387/432/1 428/433/1 429/427/1
f 407/420/1 401/434/1 402/430/1
f 388/435/1 428/433/1 387/432/1
f 407/420/1 400/436/1 401/434/1
f 389/437/1 428/433/1 388/435/1
f 407/420/1 399/438/1 400/436/1
f 389/437/1 427/439/1 428/433/1
f 390/440/1 427/439/1 389/437/1
f 407/420/1 398/441/1 399/438/1
f 391/442/1 427/439/1 390/440/1
f 407/420/1 397/443/1 398/441/1
f 392/444/1 427/439/1 391/442/1
f 407/420/1 396/445/1 397/443/1
f 393/446/1 427/439/1 392/444/1
f 407/420/1 395/447/1 396/445/1
f 393/446/1 426/448/1 427/439/1
f 394/449/1 426/448/1 393/446/1
f 407/420/1 394/449/1 395/447/1
f 407/420/1 426/448/1 394/449/1
f 407/420/1 425/450/1 426/448/1
f 408/451/1 425/450/1 407/420/1
f 409/452/1 425/450/1 408/451/1
f 409/452/1 424/453/1 425/450/1
f 410/454/1 424/453/1 409/452/1
f 410/454/1 423/455/1 424/453/1
f 411/456/1 423/455/1 410/454/1
f 412/457/1 423/455/1 411/456/1
f 412/457/1 422/458/1 423/455/1
f 413/459/1 422/458/1 412/457/1
f 414/460/1 422/458/1 413/459/1
f 414/460/1 421/461/1 422/458/1
f 415/462/1 421/461/1 414/460/1
f 416/463/1 421/461/1 415/462/1
f 416/463/1 420/464/1 421/461/1
f 417/465/1 420/464/1 416/463/1
f 418/466/1 420/464/1 417/465/1
f 418/466/1 419/467/1 420/464/1
f 469/468/1 515/469/1 468/470/1
f 469/468/1 514/471/1 515/469/1
f 470/472/1 514/471/1 469/468/1
f 470/472/1 513/473/1 514/471/1
f 471/474/1 513/473/1 470/472/1
f 471/474/1 512/475/1 513/473/1
f 472/476/1 512/475/1 471/474/1
f 472/476/1 511/477/1 512/475/1
f 473/478/1 511/477/1 472/476/1
f 473/478/1 510/479/1 511/477/1
f 474/480/1 510/479/1 473/478/1
f 474/480/1 509/481/1 510/479/1
f 475/482/1 516/483/1 474/480/1
f 516/483/1 509/481/1 474/480/1
f 475/482/1 563/484/1 516/483/1
f 517/485/1 509/481/1 516/483/1
f 475/482/1 562/486/1 563/484/1
f 518/487/1 509/481/1 517/485/1
f 475/482/1 561/488/1 562/486/1
f 519/489/1 509/481/1 518/487/1
f 519/489/1 508/490/1 509/481/1
f 476/491/1 561/488/1 475/482/1
f 476/491/1 560/492/1 561/488/1
f 520/493/1 508/490/1 519/489/1
f 476/491/1 559/494/1 560/492/1
f 521/495/1 508/490/1 520/493/1
f 476/491/1 558/496/1 559/494/1
f 522/497/1 508/490/1 521/495/1
f 522/497/1 507/498/1 508/490/1
f 477/499/1 558/496/1 476/491/1
f 477/499/1 557/500/1 558/496/1
f 523/501/1 507/498/1 522/497/1
f 477/499/1 556/502/1 557/500/1
f 524/503/1 507/498/1 523/501/1
f 524/503/1 506/504/1 507/498/1
f 478/505/1 556/502/1 477/499/1
f 478/505/1 555/506/1 556/502/1
f 525/507/1 506/504/1 524/503/1
f 525/507/1 505/508/1 506/504/1
f 479/509/1 555/506/1 478/505/1
f 479/509/1 554/510/1 555/506/1
f 526/511/1 505/508/1 525/507/1
f 479/509/1 553/512/1 554/510/1
f 527/513/1 505/508/1 526/511/1
f 527/513/1 504/514/1 505/508/1
f 480/515/1 553/512/1 479/509/1
f 480/515/1 552/516/1 553/512/1
f 528/517/1 504/514/1 527/513/1
f 481/518/1 552/516/1 480/515/1
f 481/518/1 551/519/1 552/516/1
f 528/517/1 503/520/1 504/514/1
f 529/521/1 503/520/1 528/517/1
f 481/518/1 550/522/1 551/519/1
f 530/523/1 503/520/1 529/521/1
f 482/524/1 550/522/1 481/518/1
f 530/523/1 502/525/1 503/520/1
f 482/524/1 549/526/1 550/522/1
f 531/527/1 502/525/1 530/523/1
f 482/524/1 548/528/1 549/526/1
f 483/529/1 548/528/1 482/524/1
f 532/530/1 502/525/1 531/527/1
f 532/530/1 501/531/1 502/525/1
f 483/529/1 547/532/1 548/528/1
f 533/533/1 501/531/1 532/530/1
f 484/534/1 547/532/1 483/529/1
f 533/533/1 500/535/1 501/531/1
f 484/534/1 546/536/1 547/532/1
f 534/537/1 500/535/1 533/533/1
f 484/534/1 545/538/1 546/536/1
f 535/539/1 500/535/1 534/537/1
f 485/540/1 545/538/1 484/534/1
f 535/539/1 499/541/1 500/535/1
f 485/540/1 544/542/1 545/538/1
f 536/543/1 499/541/1 535/539/1
f 485/540/1 543/544/1 544/542/1
f 537/545/1 499/541/1 536/543/1
f 485/540/1 542/546/1 543/544/1
f 538/547/1 499/541/1 537/545/1
f 486/548/1 542/546/1 485/540/1
f 538/547/1 498/549/1 499/541/1
f 486/548/1 541/550/1 542/546/1
f 539/551/1 498/549/1 538/547/1
f 486/548/1 540/552/1 541/550/1
f 540/552/1 498/549/1 539/551/1
f 486/548/1 498/549/1 540/552/1
f 487/553/1 498/549/1 486/548/1
f 487/553/1 497/554/1 498/549/1
f 488/555/1 497/554/1 487/553/1
f 488/555/1 496/556/1 497/554/1
f 489/557/1 496/556/1 488/555/1
f 489/557/1 495/558/1 496/556/1
f 490/559/1 495/558/1 489/557/1
f 490/559/1 494/560/1 495/558/1
f 491/561/1 494/560/1 490/559/1
f 491/561/1 493/562/1 494/560/1
f 492/563/1 493/562/1 491/561/1
f 565/564/1 621/565/1 564/566/1
f 565/564/1 620/567/1 621/565/1
f 565/564/1 619/568/1 620/567/1
f 566/569/1 619/568/1 565/564/1
f 567/570/1 619/568/1 566/569/1
f 568/571/1 618/572/1 567/570/1
f 618/572/1 619/568/1 567/570/1
f 568/571/1 617/573/1 618/572/1
f 568/571/1 616/574/1 617/573/1
f 569/575/1 616/574/1 568/571/1
f 569/575/1 615/576/1 616/574/1
f 569/575/1 614/577/1 615/576/1
f 570/578/1 614/577/1 569/575/1
f 570/578/1 613/579/1 614/577/1
f 594/580/1 592/581/1 593/582/1
f 595/583/1 592/581/1 594/580/1
f 570/578/1 612/584/1 613/579/1
f 596/585/1 592/581/1 595/583/1
f 571/586/1 612/584/1 570/578/1
f 571/586/1 611/587/1 612/584/1
f 597/588/1 592/581/1 596/585/1
f 598/589/1 592/581/1 597/588/1
f 571/586/1 610/590/1 611/587/1
f 599/591/1 592/581/1 598/589/1
f 571/586/1 609/592/1 610/590/1
f 600/593/1 592/581/1 599/591/1
f 571/586/1 608/594/1 609/592/1
f 601/595/1 592/581/1 600/593/1
f 572/596/1 608/594/1 571/586/1
f 602/597/1 592/581/1 601/595/1
f 572/596/1 607/598/1 608/594/1
f 603/599/1 592/581/1 602/597/1
f 572/596/1 606/600/1 607/598/1
f 604/601/1 592/581/1 603/599/1
f 572/596/1 605/602/1 606/600/1
f 605/602/1 592/581/1 604/601/1
f 572/596/1 592/581/1 605/602/1
f 573/603/1 592/581/1 572/596/1
f 574/604/1 592/581/1 573/603/1
f 575/605/1 592/581/1 574/604/1
f 575/605/1 591/606/1 592/581/1
f 576/607/1 591/606/1 575/605/1
f 576/607/1 590/608/1 591/606/1
f 576/607/1 589/609/1 590/608/1
f 577/610/1 589/609/1 576/607/1
f 577/610/1 588/611/1 589/609/1
f 577/610/1 587/612/1 588/611/1
f 577/610/1 586/613/1 587/612/1
f 578/614/1 586/613/1 577/610/1
f 578/614/1 585/615/1 586/613/1
f 578/614/1 584/616/1 585/615/1
f 579/617/1 584/616/1 578/614/1
f 579/617/1 583/618/1 584/616/1
f 579/617/1 582/619/1 583/618/1
f 580/620/1 582/619/1 579/617/1
f 580/620/1 581/621/1 582/619/1
f 663/622/1 661/623/1 662/624/1
f 663/622/1 660/625/1 661/623/1
f 664/626/1 660/625/1 663/622/1
f 664/626/1 659/627/1 660/625/1
f 665/628/1 659/627/1 664/626/1
f 665/628/1 658/629/1 659/627/1
f 665/628/1 657/630/1 658/629/1
f 666/631/1 657/630/1 665/628/1
f 666/631/1 656/632/1 657/630/1
f 623/633/1 676/634/1 622/635/1
f 623/633/1 675/636/1 676/634/1
f 667/637/1 656/632/1 666/631/1
f 667/637/1 655/638/1 656/632/1
f 667/637/1 654/639/1 655/638/1
f 668/640/1 654/639/1 667/637/1
f 668/640/1 653/641/1 654/639/1
f 669/642/1 653/641/1 668/640/1
f 669/642/1 652/643/1 653/641/1
f 669/642/1 651/644/1 652/643/1
f 670/645/1 651/644/1 669/642/1
f 670/645/1 650/646/1 651/644/1
f 671/647/1 650/646/1 670/645/1
f 671/647/1 640/648/1 650/646/1
f 640/648/1 641/649/1 650/646/1
f 641/649/1 642/650/1 650/646/1
f 642/650/1 643/651/1 650/646/1
f 643/651/1 644/652/1 650/646/1
f 644/652/1 645/653/1 650/646/1
f 645/653/1 646/654/1 650/646/1
f 646/654/1 647/655/1 650/646/1
f 647/655/1 648/656/1 650/646/1
f 648/656/1 649/657/1 650/646/1
f 672/658/1 638/659/1 671/647/1
f 638/659/1 639/660/1 671/647/1
f 639/660/1 640/648/1 671/647/1
f 673/661/1 636/662/1 672/658/1
f 636/662/1 637/663/1 672/658/1
f 637/663/1 638/659/1 672/658/1
f 673/661/1 635/664/1 636/662/1
f 673/661/1 634/665/1 635/664/1
f 674/666/1 634/665/1 673/661/1
f 674/666/1 633/667/1 634/665/1
f 674/666/1 632/668/1 633/667/1
f 623/633/1 674/666/1 675/636/1
f 623/633/1 628/669/1 674/666/1
f 628/669/1 629/670/1 674/666/1
f 629/670/1 630/671/1 674/666/1
f 630/671/1 631/672/1 674/666/1
f 631/672/1 632/668/1 674/666/1
f 623/633/1 627/673/1 628/669/1
f 623/633/1 626/674/1 627/673/1
f 623/633/1 625/675/1 626/674/1
f 623/633/1 624/676/1 625/675/1
f 715/677/1 713/678/1 714/679/1
f 715/677/1 712/680/1 713/678/1
f 716/681/1 712/680/1 715/677/1
f 716/681/1 711/682/1 712/680/1
f 717/683/1 711/682/1 716/681/1
f 717/683/1 710/684/1 711/682/1
f 718/685/1 710/684/1 717/683/1
f 718/685/1 709/686/1 710/684/1
f 719/687/1 709/686/1 718/685/1
f 719/687/1 708/688/1 709/686/1
f 720/689/1 708/688/1 719/687/1
f 720/689/1 707/690/1 708/688/1
f 721/691/1 763/692/1 720/689/1
f 763/692/1 707/690/1 720/689/1
f 721/691/1 762/693/1 763/692/1
f 764/694/1 707/690/1 763/692/1
f 721/691/1 761/695/1 762/693/1
f 765/696/1 707/690/1 764/694/1
f 721/691/1 760/697/1 761/695/1
f 766/698/1 707/690/1 765/696/1
f 766/698/1 706/699/1 707/690/1
f 721/691/1 759/700/1 760/697/1
f 722/701/1 759/700/1 721/691/1
f 767/702/1 706/699/1 766/698/1
f 722/701/1 758/703/1 759/700/1
f 768/704/1 706/699/1 767/702/1
f 722/701/1 757/705/1 758/703/1
f 769/706/1 706/699/1 768/704/1
f 722/701/1 756/707/1 757/705/1
f 770/708/1 706/699/1 769/706/1
f 723/709/1 756/707/1 722/701/1
f 770/708/1 705/710/1 706/699/1
f 723/709/1 755/711/1 756/707/1
f 771/712/1 705/710/1 770/708/1
f 723/709/1 754/713/1 755/711/1
f 772/714/1 705/710/1 771/712/1
f 724/715/1 754/713/1 723/709/1
f 772/714/1 704/716/1 705/710/1
f 724/715/1 753/717/1 754/713/1
f 773/718/1 704/716/1 772/714/1
f 724/715/1 752/719/1 753/717/1
f 774/720/1 704/716/1 773/718/1
f 725/721/1 752/719/1 724/715/1
f 725/721/1 751/722/1 752/719/1
f 774/720/1 703/723/1 704/716/1
f 775/724/1 703/723/1 774/720/1
f 725/721/1 775/724/1 751/722/1
f 725/721/1 703/723/1 775/724/1
f 726/725/1 703/723/1 725/721/1
f 726/725/1 702/726/1 703/723/1
f 727/727/1 701/728/1 726/725/1
f 701/728/1 702/726/1 726/725/1
f 727/727/1 700/729/1 701/728/1
f 728/730/1 700/729/1 727/727/1
f 728/730/1 699/731/1 700/729/1
f 728/730/1 698/732/1 699/731/1
f 729/733/1 698/732/1 728/730/1
f 729/733/1 697/734/1 698/732/1
f 730/735/1 697/734/1 729/733/1
f 730/735/1 696/736/1 697/734/1
f 678/737/1 750/738/1 677/739/1
f 730/735/1 695/740/1 696/736/1
f 679/741/1 750/738/1 678/737/1
f 680/742/1 750/738/1 679/741/1
f 731/743/1 695/740/1 730/735/1
f 731/743/1 694/744/1 695/740/1
f 681/745/1 750/738/1 680/742/1
f 682/746/1 750/738/1 681/745/1
f 731/743/1 693/747/1 694/744/1
f 683/748/1 750/738/1 682/746/1
f 731/743/1 692/749/1 693/747/1
f 684/750/1 750/738/1 683/748/1
f 732/751/1 692/749/1 731/743/1
f 685/752/1 750/738/1 684/750/1
f 732/751/1 691/753/1 692/749/1
f 686/754/1 750/738/1 685/752/1
f 732/751/1 690/755/1 691/753/1
f 687/756/1 750/738/1 686/754/1
f 688/757/1 750/738/1 687/756/1
f 732/751/1 689/758/1 690/755/1
f 689/758/1 750/738/1 688/757/1
f 732/751/1 750/738/1 689/758/1
f 733/759/1 750/738/1 732/751/1
f 733/759/1 749/760/1 750/738/1
f 734/761/1 749/760/1 733/759/1
f 734/761/1 748/762/1 749/760/1
f 734/761/1 747/763/1 748/762/1
f 735/764/1 747/763/1 734/761/1
f 735/764/1 746/765/1 747/763/1
f 735/764/1 745/766/1 746/765/1
f 736/767/1 745/766/1 735/764/1
f 736/767/1 744/768/1 745/766/1
f 736/767/1 743/769/1 744/768/1
f 737/770/1 743/769/1 736/767/1
f 737/770/1 742/771/1 743/769/1
f 737/770/1 741/772/1 742/771/1
f 737/770/1 740/773/1 741/772/1
f 738/774/1 740/773/1 737/770/1
f 738/774/1 739/775/1 740/773/1
f 777/776/1 833/777/1 776/778/1
f 777/776/1 832/779/1 833/777/1
f 777/776/1 831/780/1 832/779/1
f 778/781/1 831/780/1 777/776/1
f 779/782/1 831/780/1 778/781/1
f 780/783/1 830/784/1 779/782/1
f 830/784/1 831/780/1 779/782/1
f 780/783/1 829/785/1 830/784/1
f 780/783/1 828/786/1 829/785/1
f 781/787/1 828/786/1 780/783/1
f 781/787/1 827/788/1 828/786/1
f 781/787/1 826/789/1 827/788/1
f 782/790/1 826/789/1 781/787/1
f 782/790/1 825/791/1 826/789/1
f 806/792/1 804/793/1 805/794/1
f 807/795/1 804/793/1 806/792/1
f 782/790/1 824/796/1 825/791/1
f 808/797/1 804/793/1 807/795/1
f 783/798/1 824/796/1 782/790/1
f 783/798/1 823/799/1 824/796/1
f 809/800/1 804/793/1 808/797/1
f 810/801/1 804/793/1 809/800/1
f 783/798/1 822/802/1 823/799/1
f 811/803/1 804/793/1 810/801/1
f 783/798/1 821/804/1 822/802/1
f 812/805/1 804/793/1 811/803/1
f 783/798/1 820/806/1 821/804/1
f 813/807/1 804/793/1 812/805/1
f 784/808/1 820/806/1 783/798/1
f 814/809/1 804/793/1 813/807/1
f 784/808/1 819/810/1 820/806/1
f 815/811/1 804/793/1 814/809/1
f 784/808/1 818/812/1 819/810/1
f 816/813/1 804/793/1 815/811/1
f 784/808/1 817/814/1 818/812/1
f 817/814/1 804/793/1 816/813/1
f 784/808/1 804/793/1 817/814/1
f 785/815/1 804/793/1 784/808/1
f 786/816/1 804/793/1 785/815/1
f 787/817/1 804/793/1 786/816/1
f 787/817/1 803/818/1 804/793/1
f 788/819/1 803/818/1 787/817/1
f 788/819/1 802/820/1 803/818/1
f 788/819/1 801/821/1 802/820/1
f 789/822/1 801/821/1 788/819/1
f 789/822/1 800/823/1 801/821/1
f 789/822/1 799/824/1 800/823/1
f 789/822/1 798/825/1 799/824/1
f 790/826/1 798/825/1 789/822/1
f 790/826/1 797/827/1 798/825/1
f 790/826/1 796/828/1 797/827/1
f 791/829/1 796/828/1 790/826/1
f 791/829/1 795/830/1 796/828/1
f 791/829/1 794/831/1 795/830/1
f 792/832/1 794/831/1 791/829/1
f 792/832/1 793/833/1 794/831/1
f 878/834/1 876/835/1 877/836/1
f 879/837/1 876/835/1 878/834/1
f 879/837/1 875/838/1 876/835/1
f 880/839/1 875/838/1 879/837/1
f 881/840/1 875/838/1 880/839/1
f 881/840/1 874/841/1 875/838/1
f 882/842/1 874/841/1 881/840/1
f 836/843/1 834/844/1 835/845/1
f 836/843/1 890/846/1 834/844/1
f 882/842/1 873/847/1 874/841/1
f 883/848/1 873/847/1 882/842/1
f 884/849/1 873/847/1 883/848/1
f 884/849/1 872/850/1 873/847/1
f 885/851/1 872/850/1 884/849/1
f 885/851/1 871/852/1 872/850/1
f 886/853/1 871/852/1 885/851/1
f 887/854/1 871/852/1 886/853/1
f 887/854/1 870/855/1 871/852/1
f 888/856/1 870/855/1 887/854/1
f 889/857/1 870/855/1 888/856/1
f 889/857/1 850/858/1 870/855/1
f 850/858/1 869/859/1 870/855/1
f 836/843/1 889/857/1 890/846/1
f 836/843/1 838/860/1 889/857/1
f 838/860/1 839/861/1 889/857/1
f 839/861/1 840/862/1 889/857/1
f 840/862/1 841/863/1 889/857/1
f 841/863/1 842/864/1 889/857/1
f 842/864/1 843/865/1 889/857/1
f 843/865/1 844/866/1 889/857/1
f 844/866/1 845/867/1 889/857/1
f 845/867/1 846/868/1 889/857/1
f 846/868/1 847/869/1 889/857/1
f 847/869/1 848/870/1 889/857/1
f 848/870/1 849/871/1 889/857/1
f 849/871/1 850/858/1 889/857/1
f 851/872/1 869/859/1 850/858/1
f 852/873/1 869/859/1 851/872/1
f 853/874/1 869/859/1 852/873/1
f 854/875/1 869/859/1 853/874/1
f 854/875/1 868/876/1 869/859/1
f 855/877/1 868/876/1 854/875/1
f 856/878/1 868/876/1 855/877/1
f 857/879/1 868/876/1 856/878/1
f 857/879/1 867/880/1 868/876/1
f 858/881/1 867/880/1 857/879/1
f 859/882/1 867/880/1 858/881/1
f 859/882/1 866/883/1 867/880/1
f 860/884/1 866/883/1 859/882/1
f 836/843/1 837/885/1 838/860/1
f 861/886/1 866/883/1 860/884/1
f 861/886/1 865/887/1 866/883/1
f 862/888/1 865/887/1 861/886/1
f 863/889/1 865/887/1 862/888/1
f 863/889/1 864/890/1 865/887/1
f 893/891/1 901/892/1 892/893/1
f 901/892/1 891/894/1 892/893/1
f 901/892/1 902/895/1 891/894/1
f 893/891/1 900/896/1 901/892/1
f 893/891/1 897/897/1 900/896/1
f 897/897/1 899/898/1 900/896/1
f 897/897/1 898/899/1 899/898/1
f 893/891/1 896/900/1 897/897/1
f 893/891/1 895/901/1 896/900/1
f 893/891/1 894/902/1 895/901/1
