# Blender 4.4.1
# www.blender.org
mtllib 3DGameover.mtl
o 平面.001
v -0.049009 1.623869 -0.123677
v -0.190706 1.646112 -0.123579
v -0.216301 1.308836 -0.125073
v -0.155537 1.251163 -0.125328
v -0.384331 0.867785 -0.127027
v -0.249306 1.250578 -0.125331
v -0.330020 1.341490 -0.124928
v 1.054113 1.606284 -0.123755
v 1.054113 0.924291 -0.126777
v 1.152113 0.924291 -0.126777
v 1.152113 1.220288 -0.125465
v 1.193113 1.220288 -0.125465
v 1.205459 1.219892 -0.125467
v 1.217632 1.218455 -0.125473
v 1.229832 1.215600 -0.125486
v 1.242262 1.210955 -0.125507
v 1.255122 1.204142 -0.125537
v 1.268613 1.194788 -0.125578
v 1.282939 1.182517 -0.125633
v 1.298298 1.166955 -0.125702
v 1.314894 1.147726 -0.125787
v 1.332928 1.124455 -0.125890
v 1.352600 1.096768 -0.126013
v 1.374113 1.064290 -0.126156
v 1.464113 0.924291 -0.126777
v 1.581113 0.924291 -0.126777
v 1.569964 0.939704 -0.126708
v 1.559919 0.953596 -0.126647
v 1.550832 0.966197 -0.126591
v 1.542558 0.977735 -0.126540
v 1.534950 0.988439 -0.126493
v 1.527863 0.998540 -0.126448
v 1.521152 1.008266 -0.126405
v 1.514669 1.017846 -0.126362
v 1.508270 1.027508 -0.126319
v 1.501808 1.037484 -0.126275
v 1.495137 1.048002 -0.126229
v 1.488113 1.059289 -0.126179
v 1.475383 1.080081 -0.126086
v 1.463104 1.099956 -0.125998
v 1.451144 1.118914 -0.125914
v 1.439373 1.136955 -0.125834
v 1.427656 1.154080 -0.125759
v 1.415863 1.170288 -0.125687
v 1.403862 1.185580 -0.125619
v 1.391520 1.199955 -0.125555
v 1.378707 1.213413 -0.125496
v 1.365289 1.225955 -0.125440
v 1.351135 1.237579 -0.125389
v 1.336113 1.248288 -0.125341
v 1.353691 1.256157 -0.125306
v 1.369905 1.265241 -0.125266
v 1.384723 1.275506 -0.125221
v 1.398113 1.286917 -0.125170
v 1.410046 1.299439 -0.125115
v 1.420488 1.313037 -0.125054
v 1.429410 1.327677 -0.124989
v 1.436780 1.343324 -0.124920
v 1.442567 1.359943 -0.124846
v 1.446738 1.377500 -0.124769
v 1.449264 1.395959 -0.124687
v 1.450113 1.415286 -0.124601
v 1.448341 1.443832 -0.124475
v 1.443104 1.470406 -0.124357
v 1.434520 1.494910 -0.124248
v 1.422706 1.517248 -0.124149
v 1.407781 1.537322 -0.124061
v 1.389863 1.555035 -0.123982
v 1.369071 1.570289 -0.123914
v 1.345521 1.582988 -0.123858
v 1.319332 1.593034 -0.123814
v 1.290623 1.600331 -0.123781
v 1.259511 1.604779 -0.123762
v 1.226113 1.606284 -0.123755
v 1.152113 1.522285 -0.124127
v 1.215113 1.522285 -0.124127
v 1.237687 1.521481 -0.124131
v 1.257956 1.519100 -0.124141
v 1.275988 1.515191 -0.124159
v 1.291854 1.509804 -0.124182
v 1.305622 1.502985 -0.124213
v 1.317363 1.494785 -0.124249
v 1.327145 1.485252 -0.124291
v 1.335039 1.474433 -0.124339
v 1.341113 1.462379 -0.124393
v 1.345437 1.449137 -0.124451
v 1.348081 1.434757 -0.124515
v 1.349113 1.419286 -0.124584
v 1.348692 1.405128 -0.124646
v 1.346826 1.391272 -0.124708
v 1.343363 1.377896 -0.124767
v 1.338150 1.365175 -0.124823
v 1.331034 1.353289 -0.124876
v 1.321863 1.342412 -0.124924
v 1.310483 1.332723 -0.124967
v 1.296742 1.324398 -0.125004
v 1.280488 1.317615 -0.125034
v 1.261567 1.312551 -0.125056
v 1.239826 1.309382 -0.125070
v 1.215113 1.308287 -0.125075
v 1.152113 1.308287 -0.125075
v 0.661113 1.606284 -0.123755
v 0.274113 1.606284 -0.123755
v 0.274113 0.924291 -0.126777
v 0.670113 0.924291 -0.126777
v 0.670113 1.012290 -0.126387
v 0.372113 1.012290 -0.126387
v 0.372113 1.224288 -0.125448
v 0.651113 1.224288 -0.125448
v 0.651113 1.312287 -0.125058
v 0.372113 1.312287 -0.125058
v 0.372113 1.518285 -0.124145
v 0.661113 1.518285 -0.124145
v -1.690887 1.265288 -0.125266
v -1.687984 1.219538 -0.125469
v -1.679410 1.175126 -0.125665
v -1.665371 1.132554 -0.125854
v -1.646072 1.092326 -0.126032
v -1.621717 1.054945 -0.126198
v -1.592512 1.020915 -0.126349
v -1.558661 0.990739 -0.126482
v -1.520368 0.964920 -0.126597
v -1.477840 0.943963 -0.126690
v -1.431280 0.928370 -0.126759
v -1.380895 0.918645 -0.126802
v -1.326887 0.915291 -0.126817
v -1.271100 0.918664 -0.126802
v -1.219345 0.928439 -0.126758
v -1.171777 0.944103 -0.126689
v -1.128554 0.965142 -0.126596
v -1.089829 0.991043 -0.126481
v -1.055762 1.021290 -0.126347
v -1.026507 1.055371 -0.126196
v -1.002220 1.092771 -0.126030
v -0.983059 1.132976 -0.125852
v -0.969179 1.175474 -0.125664
v -0.960736 1.219749 -0.125468
v -0.957887 1.265288 -0.125266
v -0.960811 1.312087 -0.125059
v -0.969447 1.357185 -0.124859
v -0.983590 1.400130 -0.124668
v -1.003035 1.440471 -0.124490
v -1.027577 1.477757 -0.124324
v -1.057012 1.511535 -0.124175
v -1.091134 1.541355 -0.124043
v -1.129739 1.566766 -0.123930
v -1.172621 1.587316 -0.123839
v -1.219577 1.602553 -0.123772
v -1.270400 1.612026 -0.123730
v -1.324887 1.615284 -0.123715
v -1.378514 1.612007 -0.123730
v -1.428734 1.602483 -0.123772
v -1.475309 1.587175 -0.123840
v -1.517998 1.566544 -0.123931
v -1.556562 1.541052 -0.124044
v -1.590762 1.511160 -0.124176
v -1.620357 1.477331 -0.124326
v -1.645109 1.440027 -0.124492
v -1.664778 1.399708 -0.124670
v -1.679123 1.356838 -0.124860
v -1.687906 1.311877 -0.125059
v -1.589887 1.265287 -0.125266
v -1.587576 1.301913 -0.125104
v -1.580813 1.336629 -0.124950
v -1.569856 1.369193 -0.124805
v -1.554961 1.399360 -0.124672
v -1.536386 1.426889 -0.124550
v -1.514387 1.451535 -0.124441
v -1.489221 1.473058 -0.124345
v -1.461146 1.491211 -0.124265
v -1.430418 1.505754 -0.124200
v -1.397294 1.516443 -0.124153
v -1.362032 1.523034 -0.124124
v -1.324887 1.525285 -0.124114
v -1.287512 1.523034 -0.124124
v -1.252058 1.516442 -0.124153
v -1.218778 1.505754 -0.124200
v -1.187924 1.491211 -0.124265
v -1.159751 1.473058 -0.124345
v -1.134512 1.451536 -0.124441
v -1.112460 1.426889 -0.124550
v -1.093850 1.399360 -0.124672
v -1.078934 1.369193 -0.124805
v -1.067966 1.336629 -0.124950
v -1.061199 1.301913 -0.125104
v -1.058887 1.265288 -0.125266
v -1.061199 1.228872 -0.125427
v -1.067966 1.194293 -0.125580
v -1.078934 1.161804 -0.125724
v -1.093850 1.131659 -0.125858
v -1.112460 1.104111 -0.125980
v -1.134512 1.079414 -0.126089
v -1.159751 1.057821 -0.126185
v -1.187924 1.039586 -0.126266
v -1.218777 1.024962 -0.126331
v -1.252058 1.014202 -0.126378
v -1.287512 1.007560 -0.126408
v -1.324887 1.005290 -0.126418
v -1.362031 1.007560 -0.126408
v -1.397294 1.014202 -0.126378
v -1.430418 1.024962 -0.126331
v -1.461146 1.039586 -0.126266
v -1.489221 1.057821 -0.126185
v -1.514387 1.079414 -0.126089
v -1.536386 1.104111 -0.125980
v -1.554961 1.131659 -0.125858
v -1.569856 1.161804 -0.125724
v -1.580813 1.194293 -0.125580
v -1.587575 1.228872 -0.125427
v 1.748113 2.606275 -0.119324
v 1.361113 2.606274 -0.119324
v 1.361113 1.924281 -0.122346
v 1.757113 1.924281 -0.122346
v 1.757113 2.012280 -0.121956
v 1.459113 2.012280 -0.121956
v 1.459113 2.224278 -0.121017
v 1.738113 2.224278 -0.121017
v 1.738113 2.312277 -0.120627
v 1.459113 2.312277 -0.120627
v 1.459113 2.518275 -0.119714
v 1.748113 2.518275 -0.119714
v 0.936113 2.606274 -0.119324
v 0.845113 2.606274 -0.119324
v 0.618113 2.326277 -0.120565
v 0.392113 2.606274 -0.119324
v 0.300113 2.606274 -0.119324
v 0.300113 1.924281 -0.122346
v 0.398113 1.924281 -0.122346
v 0.398113 2.455276 -0.119993
v 0.400113 2.455276 -0.119993
v 0.610113 2.191278 -0.121163
v 0.626113 2.191278 -0.121163
v 0.836113 2.455276 -0.119993
v 0.838113 2.455276 -0.119993
v 0.838113 1.924281 -0.122346
v 0.936113 1.924281 -0.122346
v -0.355887 2.610274 -0.119307
v -0.424887 2.610274 -0.119307
v -0.717887 1.924281 -0.122346
v -0.617887 1.924281 -0.122346
v -0.531887 2.125279 -0.121455
v -0.241887 2.125279 -0.121455
v -0.150887 1.924281 -0.122346
v -0.050887 1.924281 -0.122346
v -0.391887 2.460276 -0.119971
v -0.281887 2.213278 -0.121066
v -0.493887 2.213278 -0.121066
v -1.062887 2.260278 -0.120857
v -1.291887 2.260278 -0.120857
v -1.291887 2.172279 -0.121247
v -1.160887 2.172279 -0.121247
v -1.160887 2.032280 -0.121868
v -1.172660 2.028598 -0.121884
v -1.184489 2.025072 -0.121899
v -1.196387 2.021733 -0.121914
v -1.208368 2.018614 -0.121928
v -1.220447 2.015744 -0.121941
v -1.232637 2.013155 -0.121952
v -1.244952 2.010879 -0.121962
v -1.257405 2.008947 -0.121971
v -1.270012 2.007390 -0.121978
v -1.282785 2.006239 -0.121983
v -1.295739 2.005525 -0.121986
v -1.308887 2.005280 -0.121987
v -1.348349 2.007473 -0.121977
v -1.385581 2.013910 -0.121949
v -1.420356 2.024374 -0.121903
v -1.452442 2.038650 -0.121839
v -1.481613 2.056524 -0.121760
v -1.507637 2.077780 -0.121666
v -1.530286 2.102202 -0.121558
v -1.549331 2.129575 -0.121436
v -1.564543 2.159685 -0.121303
v -1.575692 2.192315 -0.121158
v -1.582550 2.227251 -0.121004
v -1.584887 2.264278 -0.120840
v -1.582538 2.300503 -0.120679
v -1.575683 2.334999 -0.120526
v -1.564606 2.367496 -0.120382
v -1.549591 2.397721 -0.120248
v -1.530923 2.425405 -0.120126
v -1.508887 2.450276 -0.120016
v -1.483768 2.472064 -0.119919
v -1.455850 2.490498 -0.119837
v -1.425418 2.505307 -0.119772
v -1.392757 2.516220 -0.119723
v -1.358152 2.522966 -0.119693
v -1.321887 2.525275 -0.119683
v -1.301368 2.524797 -0.119685
v -1.280822 2.523368 -0.119692
v -1.260262 2.520994 -0.119702
v -1.239702 2.517683 -0.119717
v -1.219155 2.513441 -0.119736
v -1.198637 2.508275 -0.119759
v -1.178160 2.502193 -0.119785
v -1.157739 2.495201 -0.119816
v -1.137387 2.487307 -0.119851
v -1.117118 2.478516 -0.119890
v -1.096947 2.468837 -0.119933
v -1.076887 2.458276 -0.119980
v -1.076887 2.557275 -0.119541
v -1.102618 2.567869 -0.119494
v -1.126484 2.577196 -0.119453
v -1.148746 2.585321 -0.119417
v -1.169665 2.592312 -0.119386
v -1.189500 2.598232 -0.119360
v -1.208512 2.603149 -0.119338
v -1.226961 2.607129 -0.119321
v -1.245109 2.610237 -0.119307
v -1.263215 2.612540 -0.119297
v -1.281540 2.614103 -0.119290
v -1.300343 2.614992 -0.119286
v -1.319887 2.615274 -0.119284
v -1.370783 2.612148 -0.119298
v -1.419220 2.603010 -0.119339
v -1.464824 2.588228 -0.119404
v -1.507220 2.568164 -0.119493
v -1.546033 2.543183 -0.119604
v -1.580887 2.513650 -0.119735
v -1.611408 2.479930 -0.119884
v -1.637220 2.442387 -0.120050
v -1.657949 2.401386 -0.120232
v -1.673220 2.357291 -0.120427
v -1.682658 2.310467 -0.120635
v -1.685887 2.261278 -0.120853
v -1.682736 2.212456 -0.121069
v -1.673512 2.166204 -0.121274
v -1.658559 2.122842 -0.121466
v -1.638220 2.082687 -0.121644
v -1.612840 2.046060 -0.121806
v -1.582762 2.013280 -0.121952
v -1.548330 1.984667 -0.122078
v -1.509887 1.960540 -0.122185
v -1.467777 1.941218 -0.122271
v -1.422345 1.927022 -0.122334
v -1.373934 1.918270 -0.122373
v -1.322887 1.915281 -0.122386
v -1.299552 1.915619 -0.122384
v -1.276961 1.916651 -0.122380
v -1.254981 1.918406 -0.122372
v -1.233479 1.920911 -0.122361
v -1.212326 1.924193 -0.122346
v -1.191387 1.928281 -0.122328
v -1.170532 1.933202 -0.122307
v -1.149628 1.938985 -0.122281
v -1.128543 1.945656 -0.122251
v -1.107146 1.953244 -0.122218
v -1.085305 1.961776 -0.122180
v -1.062887 1.971281 -0.122138
v -1.535700 1.054495 -0.143651
v -1.159332 1.540348 -0.162131
v -1.118185 1.508148 -0.170687
v -1.496466 1.023792 -0.151809
v -1.651962 1.408371 -0.146928
v -1.070875 1.115385 -0.169746
v -1.630538 1.450446 -0.133143
v -1.048916 1.158511 -0.155616
v -0.657020 1.643037 -0.123592
v -0.774824 1.561214 -0.123955
v -0.560289 1.299707 -0.125113
v -0.476514 1.299997 -0.125112
v -0.377021 0.864767 -0.127040
v -0.543897 1.234787 -0.125401
v -0.665061 1.244741 -0.125357
vn -0.0000 -0.0044 1.0000
vn -0.1460 0.0756 -0.9864
vn 0.0961 0.2654 -0.9593
vt 0.631418 0.714626
vt 0.650197 0.714770
vt 0.637878 0.726637
vt 0.603540 0.065542
vt 0.631168 0.189349
vt 0.612191 0.207452
vt 0.647605 0.207453
vt 0.654453 0.207128
vt 0.660781 0.206165
vt 0.666563 0.204588
vt 0.671775 0.202418
vt 0.676394 0.199680
vt 0.680395 0.196396
vt 0.683757 0.192591
vt 0.644070 0.189354
vt 0.686458 0.188289
vt 0.628150 0.144047
vt 0.648680 0.189183
vt 0.652792 0.188674
vt 0.656420 0.187838
vt 0.688477 0.183514
vt 0.659580 0.186686
vt 0.662285 0.185228
vt 0.664551 0.183477
vt 0.689793 0.178291
vt 0.666394 0.181443
vt 0.667827 0.179137
vt 0.668867 0.176571
vt 0.690388 0.172643
vt 0.669530 0.173757
vt 0.669831 0.170705
vt 0.690242 0.166597
vt 0.669785 0.167428
vt 0.669466 0.164434
vt 0.689728 0.162514
vt 0.668860 0.161509
vt 0.688890 0.158623
vt 0.667938 0.158689
vt 0.666673 0.156011
vt 0.687737 0.154930
vt 0.665039 0.153511
vt 0.686276 0.151441
vt 0.663007 0.151227
vt 0.684514 0.148162
vt 0.660550 0.149194
vt 0.657639 0.147448
vt 0.682460 0.145099
vt 0.654246 0.146025
vt 0.650343 0.144962
vt 0.680120 0.142257
vt 0.645901 0.144296
vt 0.640889 0.144061
vt 0.626932 0.125752
vt 0.677501 0.139645
vt 0.674611 0.137266
vt 0.671455 0.135128
vt 0.668042 0.133238
vt 0.664376 0.131601
vt 0.667226 0.129385
vt 0.669883 0.126983
vt 0.635179 0.125763
vt 0.637657 0.125685
vt 0.672373 0.124395
vt 0.622924 0.065589
vt 0.640084 0.125391
vt 0.642495 0.124805
vt 0.644925 0.123849
vt 0.674723 0.121622
vt 0.647407 0.122446
vt 0.649975 0.120521
vt 0.676959 0.118665
vt 0.652664 0.117998
vt 0.679107 0.115524
vt 0.655504 0.114803
vt 0.681194 0.112202
vt 0.658529 0.110862
vt 0.683246 0.108698
vt 0.661771 0.106106
vt 0.685289 0.105015
vt 0.665260 0.100464
vt 0.687349 0.101153
vt 0.689453 0.097114
vt 0.669027 0.093869
vt 0.691625 0.092899
vt 0.684555 0.065736
vt 0.692824 0.090615
vt 0.693965 0.088489
vt 0.695073 0.086476
vt 0.696172 0.084529
vt 0.697288 0.082600
vt 0.698446 0.080644
vt 0.699669 0.078616
vt 0.700984 0.076469
vt 0.702414 0.074158
vt 0.703983 0.071638
vt 0.705715 0.068864
vt 0.707635 0.065791
vt 0.345572 0.623651
vt 0.367647 0.746567
vt 0.347821 0.765524
vt 0.427647 0.765527
vt 0.426922 0.746588
vt 0.366708 0.702968
vt 0.366314 0.684669
vt 0.423231 0.703029
vt 0.422542 0.684746
vt 0.365381 0.641360
vt 0.424689 0.641484
vt 0.424005 0.623839
vt 0.123400 0.209928
vt 0.145783 0.209932
vt 0.134450 0.210636
vt 0.156446 0.207887
vt 0.113168 0.207870
vt 0.166378 0.204604
vt 0.103807 0.204567
vt 0.175523 0.200187
vt 0.095366 0.200125
vt 0.183829 0.194741
vt 0.087890 0.194650
vt 0.191244 0.188372
vt 0.081423 0.188251
vt 0.135947 0.191289
vt 0.128334 0.190805
vt 0.143679 0.190810
vt 0.151080 0.189405
vt 0.121185 0.189394
vt 0.158088 0.187127
vt 0.114554 0.187109
vt 0.197720 0.181187
vt 0.076004 0.181036
vt 0.164644 0.184032
vt 0.108493 0.184006
vt 0.170689 0.180176
vt 0.103053 0.180141
vt 0.203211 0.173291
vt 0.071673 0.173114
vt 0.176166 0.175615
vt 0.098285 0.175569
vt 0.181019 0.170407
vt 0.094237 0.170348
vt 0.207674 0.164788
vt 0.068463 0.164591
vt 0.185194 0.164608
vt 0.090957 0.164535
vt 0.211068 0.155781
vt 0.066409 0.155574
vt 0.188636 0.158275
vt 0.088490 0.158187
vt 0.191294 0.151465
vt 0.086882 0.151361
vt 0.213351 0.146372
vt 0.065542 0.146168
vt 0.193117 0.144233
vt 0.086175 0.144114
vt 0.214487 0.136661
vt 0.065893 0.136477
vt 0.194056 0.136635
vt 0.086411 0.136502
vt 0.067417 0.127013
vt 0.087580 0.128968
vt 0.194054 0.129113
vt 0.214438 0.127262
vt 0.089608 0.121845
vt 0.193130 0.121999
vt 0.213249 0.118171
vt 0.070051 0.117878
vt 0.092435 0.115182
vt 0.191339 0.115339
vt 0.210954 0.109487
vt 0.073737 0.109169
vt 0.096001 0.109024
vt 0.188732 0.109181
vt 0.207587 0.101309
vt 0.078415 0.100983
vt 0.100246 0.103418
vt 0.185358 0.103571
vt 0.105112 0.098411
vt 0.181269 0.098554
vt 0.203177 0.093733
vt 0.084030 0.093415
vt 0.110544 0.094048
vt 0.176511 0.094176
vt 0.116485 0.090376
vt 0.171131 0.090485
vt 0.197755 0.086855
vt 0.090526 0.086558
vt 0.122882 0.087440
vt 0.165174 0.087527
vt 0.129682 0.085288
vt 0.158686 0.085349
vt 0.191346 0.080769
vt 0.097853 0.080505
vt 0.136833 0.083967
vt 0.151709 0.083999
vt 0.144284 0.083527
vt 0.183976 0.075569
vt 0.105960 0.075349
vt 0.175666 0.071351
vt 0.114800 0.071181
vt 0.166436 0.068209
vt 0.124327 0.068095
vt 0.156302 0.066240
vt 0.134500 0.066183
vt 0.145278 0.065542
vt 0.065542 0.620385
vt 0.095020 0.747251
vt 0.077069 0.766950
vt 0.154407 0.766658
vt 0.152429 0.747055
vt 0.091220 0.702166
vt 0.089627 0.683263
vt 0.145927 0.702024
vt 0.144032 0.683140
vt 0.085860 0.638572
vt 0.143206 0.638489
vt 0.141362 0.620300
vt 0.345572 0.346664
vt 0.366496 0.492497
vt 0.348105 0.492566
vt 0.366926 0.459101
vt 0.367322 0.459100
vt 0.409427 0.430968
vt 0.474992 0.492087
vt 0.456873 0.492156
vt 0.453468 0.458827
vt 0.453862 0.458825
vt 0.467110 0.346528
vt 0.364335 0.346643
vt 0.406842 0.402161
vt 0.409950 0.402154
vt 0.448417 0.346549
vt 0.065542 0.341865
vt 0.132327 0.489163
vt 0.118434 0.489216
vt 0.125841 0.455850
vt 0.194093 0.341721
vt 0.107037 0.402374
vt 0.148645 0.402281
vt 0.100152 0.383715
vt 0.156752 0.383608
vt 0.084854 0.341843
vt 0.174858 0.341743
vt 0.401958 0.214782
vt 0.416098 0.215365
vt 0.412156 0.215443
vt 0.419900 0.215151
vt 0.423615 0.214787
vt 0.427298 0.214258
vt 0.392366 0.212774
vt 0.431000 0.213549
vt 0.434775 0.212646
vt 0.438674 0.211533
vt 0.383461 0.209505
vt 0.442752 0.210197
vt 0.447059 0.208622
vt 0.375319 0.205063
vt 0.451648 0.206796
vt 0.456570 0.204703
vt 0.368015 0.199536
vt 0.461877 0.202330
vt 0.421554 0.194959
vt 0.425708 0.194420
vt 0.429876 0.193674
vt 0.434052 0.192722
vt 0.438235 0.191568
vt 0.442420 0.190212
vt 0.446603 0.188658
vt 0.450781 0.186906
vt 0.454950 0.184959
vt 0.459108 0.182820
vt 0.463249 0.180491
vt 0.361619 0.193015
vt 0.413300 0.195410
vt 0.417417 0.195290
vt 0.406077 0.194924
vt 0.399266 0.193455
vt 0.392926 0.191066
vt 0.356200 0.185592
vt 0.387112 0.187819
vt 0.381879 0.183778
vt 0.351824 0.177359
vt 0.377281 0.179009
vt 0.373371 0.173576
vt 0.348554 0.168407
vt 0.370197 0.167544
vt 0.346450 0.158826
vt 0.367811 0.160980
vt 0.366259 0.153947
vt 0.345572 0.148707
vt 0.365589 0.146510
vt 0.345974 0.138138
vt 0.365845 0.138733
vt 0.367038 0.130818
vt 0.347622 0.127711
vt 0.425068 0.119021
vt 0.468693 0.137630
vt 0.423656 0.137738
vt 0.450696 0.118968
vt 0.472455 0.076987
vt 0.369072 0.123383
vt 0.350397 0.117889
vt 0.371893 0.116467
vt 0.452684 0.089633
vt 0.354218 0.108732
vt 0.375449 0.110109
vt 0.379687 0.104348
vt 0.359003 0.100295
vt 0.384559 0.099224
vt 0.364676 0.092636
vt 0.390013 0.094776
vt 0.396004 0.091044
vt 0.371159 0.085810
vt 0.402484 0.088066
vt 0.450455 0.088871
vt 0.448213 0.088143
vt 0.445956 0.087454
vt 0.409408 0.085885
vt 0.443680 0.086810
vt 0.441382 0.086218
vt 0.439060 0.085685
vt 0.416731 0.084540
vt 0.378380 0.079874
vt 0.436709 0.085217
vt 0.434326 0.084820
vt 0.431908 0.084501
vt 0.424412 0.084075
vt 0.429452 0.084266
vt 0.426955 0.084122
vt 0.386268 0.074883
vt 0.468253 0.075035
vt 0.464154 0.073285
vt 0.394752 0.070896
vt 0.460131 0.071730
vt 0.456159 0.070365
vt 0.403767 0.067970
vt 0.452212 0.069183
vt 0.448265 0.068178
vt 0.444291 0.067345
vt 0.413248 0.066165
vt 0.440265 0.066677
vt 0.436162 0.066168
vt 0.431956 0.065813
vt 0.423132 0.065542
vt 0.427621 0.065607
vt 0.890656 0.453061
vt 0.830475 0.346528
vt 0.821717 0.352487
vt 0.802377 0.700371
vt 0.934458 0.646589
vt 0.930952 0.637712
vt 0.655536 0.420746
vt 0.668680 0.434197
vt 0.651810 0.434118
vt 0.671292 0.793019
vt 0.642229 0.797803
vt 0.614882 0.733379
vt 0.606077 0.637712
vt 0.899808 0.446293
vt 0.805229 0.709553
vt 0.629539 0.506627
vt 0.606077 0.489062
vt 0.631136 0.422758
vt 0.690632 0.346528
s 0
usemtl マテリアル.003
f 6/1/1 4/2/1 3/3/1
f 9/4/1 75/5/1 8/6/1
f 75/5/1 74/7/1 8/6/1
f 75/5/1 73/8/1 74/7/1
f 75/5/1 72/9/1 73/8/1
f 75/5/1 71/10/1 72/9/1
f 75/5/1 70/11/1 71/10/1
f 75/5/1 69/12/1 70/11/1
f 75/5/1 68/13/1 69/12/1
f 75/5/1 67/14/1 68/13/1
f 75/5/1 76/15/1 67/14/1
f 76/15/1 66/16/1 67/14/1
f 9/4/1 101/17/1 75/5/1
f 77/18/1 66/16/1 76/15/1
f 78/19/1 66/16/1 77/18/1
f 79/20/1 66/16/1 78/19/1
f 79/20/1 65/21/1 66/16/1
f 80/22/1 65/21/1 79/20/1
f 81/23/1 65/21/1 80/22/1
f 82/24/1 65/21/1 81/23/1
f 82/24/1 64/25/1 65/21/1
f 83/26/1 64/25/1 82/24/1
f 84/27/1 64/25/1 83/26/1
f 85/28/1 64/25/1 84/27/1
f 85/28/1 63/29/1 64/25/1
f 86/30/1 63/29/1 85/28/1
f 87/31/1 63/29/1 86/30/1
f 87/31/1 62/32/1 63/29/1
f 88/33/1 62/32/1 87/31/1
f 89/34/1 62/32/1 88/33/1
f 89/34/1 61/35/1 62/32/1
f 90/36/1 61/35/1 89/34/1
f 90/36/1 60/37/1 61/35/1
f 91/38/1 60/37/1 90/36/1
f 92/39/1 60/37/1 91/38/1
f 92/39/1 59/40/1 60/37/1
f 93/41/1 59/40/1 92/39/1
f 93/41/1 58/42/1 59/40/1
f 94/43/1 58/42/1 93/41/1
f 94/43/1 57/44/1 58/42/1
f 95/45/1 57/44/1 94/43/1
f 96/46/1 57/44/1 95/45/1
f 96/46/1 56/47/1 57/44/1
f 97/48/1 56/47/1 96/46/1
f 98/49/1 56/47/1 97/48/1
f 98/49/1 55/50/1 56/47/1
f 99/51/1 55/50/1 98/49/1
f 100/52/1 55/50/1 99/51/1
f 9/4/1 11/53/1 101/17/1
f 11/53/1 100/52/1 101/17/1
f 11/53/1 55/50/1 100/52/1
f 11/53/1 54/54/1 55/50/1
f 11/53/1 53/55/1 54/54/1
f 11/53/1 52/56/1 53/55/1
f 11/53/1 51/57/1 52/56/1
f 11/53/1 50/58/1 51/57/1
f 11/53/1 49/59/1 50/58/1
f 11/53/1 48/60/1 49/59/1
f 11/53/1 12/61/1 48/60/1
f 12/61/1 13/62/1 48/60/1
f 13/62/1 47/63/1 48/60/1
f 9/4/1 10/64/1 11/53/1
f 14/65/1 47/63/1 13/62/1
f 15/66/1 47/63/1 14/65/1
f 16/67/1 47/63/1 15/66/1
f 16/67/1 46/68/1 47/63/1
f 17/69/1 46/68/1 16/67/1
f 18/70/1 46/68/1 17/69/1
f 18/70/1 45/71/1 46/68/1
f 19/72/1 45/71/1 18/70/1
f 19/72/1 44/73/1 45/71/1
f 20/74/1 44/73/1 19/72/1
f 20/74/1 43/75/1 44/73/1
f 21/76/1 43/75/1 20/74/1
f 21/76/1 42/77/1 43/75/1
f 22/78/1 42/77/1 21/76/1
f 22/78/1 41/79/1 42/77/1
f 23/80/1 41/79/1 22/78/1
f 23/80/1 40/81/1 41/79/1
f 23/80/1 39/82/1 40/81/1
f 24/83/1 39/82/1 23/80/1
f 24/83/1 38/84/1 39/82/1
f 25/85/1 38/84/1 24/83/1
f 25/85/1 37/86/1 38/84/1
f 25/85/1 36/87/1 37/86/1
f 25/85/1 35/88/1 36/87/1
f 25/85/1 34/89/1 35/88/1
f 25/85/1 33/90/1 34/89/1
f 25/85/1 32/91/1 33/90/1
f 25/85/1 31/92/1 32/91/1
f 25/85/1 30/93/1 31/92/1
f 25/85/1 29/94/1 30/93/1
f 25/85/1 28/95/1 29/94/1
f 25/85/1 27/96/1 28/95/1
f 25/85/1 26/97/1 27/96/1
f 104/98/1 112/99/1 103/100/1
f 112/99/1 102/101/1 103/100/1
f 112/99/1 113/102/1 102/101/1
f 104/98/1 111/103/1 112/99/1
f 104/98/1 108/104/1 111/103/1
f 108/104/1 110/105/1 111/103/1
f 108/104/1 109/106/1 110/105/1
f 104/98/1 107/107/1 108/104/1
f 104/98/1 106/108/1 107/107/1
f 104/98/1 105/109/1 106/108/1
f 151/110/1 149/111/1 150/112/1
f 151/110/1 148/113/1 149/111/1
f 152/114/1 148/113/1 151/110/1
f 152/114/1 147/115/1 148/113/1
f 153/116/1 147/115/1 152/114/1
f 153/116/1 146/117/1 147/115/1
f 154/118/1 146/117/1 153/116/1
f 154/118/1 145/119/1 146/117/1
f 155/120/1 145/119/1 154/118/1
f 155/120/1 144/121/1 145/119/1
f 156/122/1 174/123/1 155/120/1
f 174/123/1 144/121/1 155/120/1
f 156/122/1 173/124/1 174/123/1
f 175/125/1 144/121/1 174/123/1
f 176/126/1 144/121/1 175/125/1
f 156/122/1 172/127/1 173/124/1
f 177/128/1 144/121/1 176/126/1
f 156/122/1 171/129/1 172/127/1
f 177/128/1 143/130/1 144/121/1
f 157/131/1 171/129/1 156/122/1
f 178/132/1 143/130/1 177/128/1
f 157/131/1 170/133/1 171/129/1
f 179/134/1 143/130/1 178/132/1
f 157/131/1 169/135/1 170/133/1
f 179/134/1 142/136/1 143/130/1
f 158/137/1 169/135/1 157/131/1
f 180/138/1 142/136/1 179/134/1
f 158/137/1 168/139/1 169/135/1
f 181/140/1 142/136/1 180/138/1
f 158/137/1 167/141/1 168/139/1
f 181/140/1 141/142/1 142/136/1
f 159/143/1 167/141/1 158/137/1
f 182/144/1 141/142/1 181/140/1
f 159/143/1 166/145/1 167/141/1
f 182/144/1 140/146/1 141/142/1
f 160/147/1 166/145/1 159/143/1
f 183/148/1 140/146/1 182/144/1
f 160/147/1 165/149/1 166/145/1
f 184/150/1 140/146/1 183/148/1
f 160/147/1 164/151/1 165/149/1
f 184/150/1 139/152/1 140/146/1
f 161/153/1 164/151/1 160/147/1
f 185/154/1 139/152/1 184/150/1
f 161/153/1 163/155/1 164/151/1
f 185/154/1 138/156/1 139/152/1
f 114/157/1 163/155/1 161/153/1
f 186/158/1 138/156/1 185/154/1
f 114/157/1 162/159/1 163/155/1
f 115/160/1 162/159/1 114/157/1
f 115/160/1 209/161/1 162/159/1
f 187/162/1 138/156/1 186/158/1
f 187/162/1 137/163/1 138/156/1
f 115/160/1 208/164/1 209/161/1
f 188/165/1 137/163/1 187/162/1
f 188/165/1 136/166/1 137/163/1
f 116/167/1 208/164/1 115/160/1
f 116/167/1 207/168/1 208/164/1
f 189/169/1 136/166/1 188/165/1
f 189/169/1 135/170/1 136/166/1
f 117/171/1 207/168/1 116/167/1
f 117/171/1 206/172/1 207/168/1
f 190/173/1 135/170/1 189/169/1
f 190/173/1 134/174/1 135/170/1
f 118/175/1 206/172/1 117/171/1
f 118/175/1 205/176/1 206/172/1
f 191/177/1 134/174/1 190/173/1
f 118/175/1 204/178/1 205/176/1
f 192/179/1 134/174/1 191/177/1
f 192/179/1 133/180/1 134/174/1
f 119/181/1 204/178/1 118/175/1
f 119/181/1 203/182/1 204/178/1
f 193/183/1 133/180/1 192/179/1
f 119/181/1 202/184/1 203/182/1
f 194/185/1 133/180/1 193/183/1
f 194/185/1 132/186/1 133/180/1
f 120/187/1 202/184/1 119/181/1
f 120/187/1 201/188/1 202/184/1
f 195/189/1 132/186/1 194/185/1
f 120/187/1 200/190/1 201/188/1
f 196/191/1 132/186/1 195/189/1
f 196/191/1 131/192/1 132/186/1
f 121/193/1 200/190/1 120/187/1
f 121/193/1 199/194/1 200/190/1
f 197/195/1 131/192/1 196/191/1
f 121/193/1 198/196/1 199/194/1
f 198/196/1 131/192/1 197/195/1
f 121/193/1 131/192/1 198/196/1
f 121/193/1 130/197/1 131/192/1
f 122/198/1 130/197/1 121/193/1
f 122/198/1 129/199/1 130/197/1
f 123/200/1 129/199/1 122/198/1
f 123/200/1 128/201/1 129/199/1
f 124/202/1 128/201/1 123/200/1
f 124/202/1 127/203/1 128/201/1
f 125/204/1 127/203/1 124/202/1
f 125/204/1 126/205/1 127/203/1
f 212/206/1 220/207/1 211/208/1
f 220/207/1 210/209/1 211/208/1
f 220/207/1 221/210/1 210/209/1
f 212/206/1 219/211/1 220/207/1
f 212/206/1 216/212/1 219/211/1
f 216/212/1 218/213/1 219/211/1
f 216/212/1 217/214/1 218/213/1
f 212/206/1 215/215/1 216/212/1
f 212/206/1 214/216/1 215/215/1
f 212/206/1 213/217/1 214/216/1
f 227/218/1 225/219/1 226/220/1
f 227/218/1 229/221/1 225/219/1
f 229/221/1 230/222/1 225/219/1
f 230/222/1 224/223/1 225/219/1
f 224/223/1 222/224/1 223/225/1
f 224/223/1 233/226/1 222/224/1
f 233/226/1 234/227/1 222/224/1
f 234/227/1 236/228/1 222/224/1
f 227/218/1 228/229/1 229/221/1
f 231/230/1 224/223/1 230/222/1
f 224/223/1 232/231/1 233/226/1
f 235/232/1 236/228/1 234/227/1
f 231/230/1 232/231/1 224/223/1
f 239/233/1 237/234/1 238/235/1
f 239/233/1 245/236/1 237/234/1
f 245/236/1 244/237/1 237/234/1
f 239/233/1 247/238/1 245/236/1
f 246/239/1 244/237/1 245/236/1
f 239/233/1 241/240/1 247/238/1
f 241/240/1 246/239/1 247/238/1
f 241/240/1 242/241/1 246/239/1
f 242/241/1 244/237/1 246/239/1
f 239/233/1 240/242/1 241/240/1
f 243/243/1 244/237/1 242/241/1
f 314/244/1 312/245/1 313/246/1
f 314/244/1 311/247/1 312/245/1
f 314/244/1 310/248/1 311/247/1
f 314/244/1 309/249/1 310/248/1
f 315/250/1 309/249/1 314/244/1
f 315/250/1 308/251/1 309/249/1
f 315/250/1 307/252/1 308/251/1
f 315/250/1 306/253/1 307/252/1
f 316/254/1 306/253/1 315/250/1
f 316/254/1 305/255/1 306/253/1
f 316/254/1 304/256/1 305/255/1
f 317/257/1 304/256/1 316/254/1
f 317/257/1 303/258/1 304/256/1
f 317/257/1 302/259/1 303/258/1
f 318/260/1 302/259/1 317/257/1
f 318/260/1 301/261/1 302/259/1
f 318/260/1 290/262/1 301/261/1
f 290/262/1 291/263/1 301/261/1
f 291/263/1 292/264/1 301/261/1
f 292/264/1 293/265/1 301/261/1
f 293/265/1 294/266/1 301/261/1
f 294/266/1 295/267/1 301/261/1
f 295/267/1 296/268/1 301/261/1
f 296/268/1 297/269/1 301/261/1
f 297/269/1 298/270/1 301/261/1
f 298/270/1 299/271/1 301/261/1
f 299/271/1 300/272/1 301/261/1
f 319/273/1 288/274/1 318/260/1
f 288/274/1 289/275/1 318/260/1
f 289/275/1 290/262/1 318/260/1
f 319/273/1 287/276/1 288/274/1
f 319/273/1 286/277/1 287/276/1
f 319/273/1 285/278/1 286/277/1
f 320/279/1 285/278/1 319/273/1
f 320/279/1 284/280/1 285/278/1
f 320/279/1 283/281/1 284/280/1
f 321/282/1 283/281/1 320/279/1
f 321/282/1 282/283/1 283/281/1
f 321/282/1 281/284/1 282/283/1
f 322/285/1 281/284/1 321/282/1
f 322/285/1 280/286/1 281/284/1
f 323/287/1 280/286/1 322/285/1
f 323/287/1 279/288/1 280/286/1
f 323/287/1 278/289/1 279/288/1
f 324/290/1 278/289/1 323/287/1
f 324/290/1 277/291/1 278/289/1
f 325/292/1 277/291/1 324/290/1
f 325/292/1 276/293/1 277/291/1
f 325/292/1 275/294/1 276/293/1
f 326/295/1 275/294/1 325/292/1
f 250/296/1 248/297/1 249/298/1
f 250/296/1 251/299/1 248/297/1
f 251/299/1 349/300/1 248/297/1
f 326/295/1 274/301/1 275/294/1
f 327/302/1 274/301/1 326/295/1
f 327/302/1 273/303/1 274/301/1
f 252/304/1 349/300/1 251/299/1
f 328/305/1 273/303/1 327/302/1
f 328/305/1 272/306/1 273/303/1
f 328/305/1 271/307/1 272/306/1
f 329/308/1 271/307/1 328/305/1
f 329/308/1 270/309/1 271/307/1
f 330/310/1 270/309/1 329/308/1
f 330/310/1 269/311/1 270/309/1
f 330/310/1 268/312/1 269/311/1
f 331/313/1 268/312/1 330/310/1
f 331/313/1 267/314/1 268/312/1
f 253/315/1 349/300/1 252/304/1
f 254/316/1 349/300/1 253/315/1
f 255/317/1 349/300/1 254/316/1
f 331/313/1 266/318/1 267/314/1
f 256/319/1 349/300/1 255/317/1
f 257/320/1 349/300/1 256/319/1
f 258/321/1 349/300/1 257/320/1
f 331/313/1 265/322/1 266/318/1
f 332/323/1 265/322/1 331/313/1
f 259/324/1 349/300/1 258/321/1
f 260/325/1 349/300/1 259/324/1
f 261/326/1 349/300/1 260/325/1
f 332/323/1 264/327/1 265/322/1
f 262/328/1 349/300/1 261/326/1
f 263/329/1 349/300/1 262/328/1
f 264/327/1 349/300/1 263/329/1
f 332/323/1 349/300/1 264/327/1
f 333/330/1 349/300/1 332/323/1
f 333/330/1 348/331/1 349/300/1
f 333/330/1 347/332/1 348/331/1
f 334/333/1 347/332/1 333/330/1
f 334/333/1 346/334/1 347/332/1
f 334/333/1 345/335/1 346/334/1
f 335/336/1 345/335/1 334/333/1
f 335/336/1 344/337/1 345/335/1
f 335/336/1 343/338/1 344/337/1
f 335/336/1 342/339/1 343/338/1
f 336/340/1 342/339/1 335/336/1
f 336/340/1 341/341/1 342/339/1
f 336/340/1 340/342/1 341/341/1
f 336/340/1 339/343/1 340/342/1
f 337/344/1 339/343/1 336/340/1
f 337/344/1 338/345/1 339/343/1
f 351/346/2 353/347/2 350/348/2
f 354/349/3 357/350/3 355/351/3
f 363/352/1 361/353/1 360/354/1
f 1/355/1 2/356/1 3/3/1
f 2/356/1 7/357/1 3/3/1
f 6/1/1 5/358/1 4/2/1
f 7/357/1 6/1/1 3/3/1
f 351/346/2 352/359/2 353/347/2
f 354/349/3 356/360/3 357/350/3
f 358/361/1 359/362/1 360/354/1
f 359/362/1 364/363/1 360/354/1
f 363/352/1 362/364/1 361/353/1
f 364/363/1 363/352/1 360/354/1
