# Blender 4.4.1
# www.blender.org
mtllib 3DTitle.mtl
o テキスト
v 1.929080 1.107126 -0.000000
v 1.840080 1.107126 -0.000000
v 1.840080 0.425126 -0.000000
v 1.929080 0.425126 -0.000000
v 1.929080 0.747126 -0.000000
v 1.939362 0.758279 -0.000000
v 1.949252 0.768261 -0.000000
v 1.958815 0.777111 -0.000000
v 1.968117 0.784867 -0.000000
v 1.977225 0.791568 -0.000000
v 1.986205 0.797251 -0.000000
v 1.995122 0.801956 -0.000000
v 2.004043 0.805719 -0.000000
v 2.013033 0.808580 -0.000000
v 2.022159 0.810576 -0.000000
v 2.031486 0.811745 -0.000000
v 2.041080 0.812127 -0.000000
v 2.054156 0.811242 -0.000000
v 2.066349 0.808636 -0.000000
v 2.077612 0.804376 -0.000000
v 2.087895 0.798534 -0.000000
v 2.097151 0.791177 -0.000000
v 2.105330 0.782376 -0.000000
v 2.112385 0.772201 -0.000000
v 2.118266 0.760719 -0.000000
v 2.122924 0.748001 -0.000000
v 2.126312 0.734117 -0.000000
v 2.128381 0.719136 -0.000000
v 2.129080 0.703126 -0.000000
v 2.129080 0.425126 -0.000000
v 2.218081 0.425126 -0.000000
v 2.218081 0.700126 -0.000000
v 2.216751 0.729566 -0.000000
v 2.212858 0.756390 -0.000000
v 2.206549 0.780611 -0.000000
v 2.197969 0.802238 -0.000000
v 2.187264 0.821281 -0.000000
v 2.174581 0.837752 -0.000000
v 2.160063 0.851660 -0.000000
v 2.143858 0.863015 -0.000000
v 2.126112 0.871830 -0.000000
v 2.106969 0.878113 -0.000000
v 2.086577 0.881875 -0.000000
v 2.065080 0.883126 -0.000000
v 2.052589 0.882610 -0.000000
v 2.040154 0.881076 -0.000000
v 2.027831 0.878548 -0.000000
v 2.015673 0.875052 -0.000000
v 2.003738 0.870612 -0.000000
v 1.992081 0.865251 -0.000000
v 1.980757 0.858995 -0.000000
v 1.969821 0.851867 -0.000000
v 1.959331 0.843892 -0.000000
v 1.949340 0.835094 -0.000000
v 1.939905 0.825497 -0.000000
v 1.931080 0.815126 -0.000000
v 1.929080 0.815126 -0.000000
v 1.718080 0.846126 -0.000000
v 1.706412 0.852106 -0.000000
v 1.694900 0.857548 -0.000000
v 1.683533 0.862455 -0.000000
v 1.672302 0.866830 -0.000000
v 1.661196 0.870678 -0.000000
v 1.650205 0.874002 -0.000000
v 1.639318 0.876804 -0.000000
v 1.628525 0.879089 -0.000000
v 1.617815 0.880861 -0.000000
v 1.607177 0.882122 -0.000000
v 1.596602 0.882876 -0.000000
v 1.586080 0.883126 -0.000000
v 1.564262 0.882177 -0.000000
v 1.543867 0.879367 -0.000000
v 1.524986 0.874751 -0.000000
v 1.507710 0.868386 -0.000000
v 1.492127 0.860326 -0.000000
v 1.478330 0.850626 -0.000000
v 1.466408 0.839344 -0.000000
v 1.456450 0.826534 -0.000000
v 1.448549 0.812251 -0.000000
v 1.442793 0.796552 -0.000000
v 1.439273 0.779492 -0.000000
v 1.438080 0.761127 -0.000000
v 1.442212 0.732642 -0.000000
v 1.453636 0.707418 -0.000000
v 1.470892 0.685048 -0.000000
v 1.492524 0.665126 -0.000000
v 1.517073 0.647246 -0.000000
v 1.543080 0.631001 -0.000000
v 1.569087 0.615986 -0.000000
v 1.593636 0.601793 -0.000000
v 1.615267 0.588017 -0.000000
v 1.632524 0.574251 -0.000000
v 1.643948 0.560090 -0.000000
v 1.648080 0.545126 -0.000000
v 1.647469 0.537439 -0.000000
v 1.645691 0.530376 -0.000000
v 1.642830 0.523939 -0.000000
v 1.638969 0.518126 -0.000000
v 1.634192 0.512939 -0.000000
v 1.628581 0.508376 -0.000000
v 1.622220 0.504439 -0.000000
v 1.615192 0.501126 -0.000000
v 1.607581 0.498439 -0.000000
v 1.599470 0.496376 -0.000000
v 1.590942 0.494939 -0.000000
v 1.582080 0.494126 -0.000000
v 1.572733 0.494523 -0.000000
v 1.562719 0.495719 -0.000000
v 1.552080 0.497720 -0.000000
v 1.540858 0.500534 -0.000000
v 1.529094 0.504167 -0.000000
v 1.516830 0.508626 -0.000000
v 1.504108 0.513919 -0.000000
v 1.490969 0.520052 -0.000000
v 1.477455 0.527033 -0.000000
v 1.463608 0.534867 -0.000000
v 1.449469 0.543563 -0.000000
v 1.435080 0.553126 -0.000000
v 1.435080 0.457126 -0.000000
v 1.449283 0.450018 -0.000000
v 1.462955 0.443673 -0.000000
v 1.476190 0.438064 -0.000000
v 1.489080 0.433163 -0.000000
v 1.501721 0.428944 -0.000000
v 1.514205 0.425376 -0.000000
v 1.526628 0.422434 -0.000000
v 1.539081 0.420089 -0.000000
v 1.551659 0.418314 -0.000000
v 1.564456 0.417080 -0.000000
v 1.577565 0.416360 -0.000000
v 1.591080 0.416126 -0.000000
v 1.611848 0.417215 -0.000000
v 1.631557 0.420418 -0.000000
v 1.650065 0.425642 -0.000000
v 1.667229 0.432793 -0.000000
v 1.682906 0.441777 -0.000000
v 1.696955 0.452501 -0.000000
v 1.709234 0.464871 -0.000000
v 1.719599 0.478793 -0.000000
v 1.727908 0.494173 -0.000000
v 1.734020 0.510918 -0.000000
v 1.737791 0.528934 -0.000000
v 1.739080 0.548126 -0.000000
v 1.738506 0.559333 -0.000000
v 1.736737 0.570029 -0.000000
v 1.733705 0.580330 -0.000000
v 1.729339 0.590349 -0.000000
v 1.723571 0.600201 -0.000000
v 1.716330 0.610001 -0.000000
v 1.707548 0.619864 -0.000000
v 1.697154 0.629904 -0.000000
v 1.685080 0.640236 -0.000000
v 1.671256 0.650974 -0.000000
v 1.655612 0.662232 -0.000000
v 1.638080 0.674127 -0.000000
v 1.619340 0.685179 -0.000000
v 1.602575 0.695376 -0.000000
v 1.587720 0.704783 -0.000000
v 1.574709 0.713460 -0.000000
v 1.563476 0.721470 -0.000000
v 1.553955 0.728876 -0.000000
v 1.546079 0.735741 -0.000000
v 1.539783 0.742126 -0.000000
v 1.535002 0.748095 -0.000000
v 1.531668 0.753710 -0.000000
v 1.529716 0.759033 -0.000000
v 1.529080 0.764126 -0.000000
v 1.529554 0.769975 -0.000000
v 1.530951 0.775497 -0.000000
v 1.533237 0.780658 -0.000000
v 1.536377 0.785423 -0.000000
v 1.540337 0.789757 -0.000000
v 1.545081 0.793626 -0.000000
v 1.550575 0.796996 -0.000000
v 1.556784 0.799830 -0.000000
v 1.563674 0.802095 -0.000000
v 1.571210 0.803756 -0.000000
v 1.579357 0.804778 -0.000000
v 1.588080 0.805126 -0.000000
v 1.596615 0.804832 -0.000000
v 1.605696 0.803937 -0.000000
v 1.615283 0.802423 -0.000000
v 1.625339 0.800275 -0.000000
v 1.635826 0.797473 -0.000000
v 1.646705 0.794001 -0.000000
v 1.657938 0.789842 -0.000000
v 1.669487 0.784978 -0.000000
v 1.681314 0.779392 -0.000000
v 1.693380 0.773066 -0.000000
v 1.705648 0.765984 -0.000000
v 1.718080 0.758126 -0.000000
v 1.378080 0.505126 -0.000000
v 1.373126 0.501503 -0.000000
v 1.368279 0.498140 -0.000000
v 1.363565 0.495048 -0.000000
v 1.359006 0.492238 -0.000000
v 1.354629 0.489718 -0.000000
v 1.350456 0.487501 -0.000000
v 1.346512 0.485597 -0.000000
v 1.342822 0.484015 -0.000000
v 1.339409 0.482767 -0.000000
v 1.336298 0.481863 -0.000000
v 1.333514 0.481312 -0.000000
v 1.331080 0.481126 -0.000000
v 1.328435 0.481254 -0.000000
v 1.326002 0.481650 -0.000000
v 1.323783 0.482330 -0.000000
v 1.321784 0.483312 -0.000000
v 1.320007 0.484613 -0.000000
v 1.318455 0.486251 -0.000000
v 1.317133 0.488244 -0.000000
v 1.316043 0.490608 -0.000000
v 1.315190 0.493361 -0.000000
v 1.314576 0.496520 -0.000000
v 1.314205 0.500103 -0.000000
v 1.314080 0.504126 -0.000000
v 1.314080 0.735126 -0.000000
v 1.312611 0.759466 -0.000000
v 1.308326 0.781506 -0.000000
v 1.301408 0.801283 -0.000000
v 1.292043 0.818830 -0.000000
v 1.280414 0.834183 -0.000000
v 1.266705 0.847376 -0.000000
v 1.251100 0.858445 -0.000000
v 1.233784 0.867423 -0.000000
v 1.214939 0.874345 -0.000000
v 1.194751 0.879247 -0.000000
v 1.173404 0.882162 -0.000000
v 1.151080 0.883126 -0.000000
v 1.135163 0.882709 -0.000000
v 1.119905 0.881455 -0.000000
v 1.105299 0.879361 -0.000000
v 1.091340 0.876423 -0.000000
v 1.078019 0.872638 -0.000000
v 1.065331 0.868001 -0.000000
v 1.053267 0.862511 -0.000000
v 1.041821 0.856164 -0.000000
v 1.030987 0.848955 -0.000000
v 1.020756 0.840881 -0.000000
v 1.011123 0.831940 -0.000000
v 1.002080 0.822127 -0.000000
v 1.002080 0.725127 -0.000000
v 1.012972 0.737296 -0.000000
v 1.024127 0.748316 -0.000000
v 1.035518 0.758205 -0.000000
v 1.047117 0.766978 -0.000000
v 1.058897 0.774655 -0.000000
v 1.070830 0.781251 -0.000000
v 1.082888 0.786786 -0.000000
v 1.095043 0.791275 -0.000000
v 1.107268 0.794736 -0.000000
v 1.119534 0.797187 -0.000000
v 1.131814 0.798644 -0.000000
v 1.144080 0.799127 -0.000000
v 1.157018 0.798642 -0.000000
v 1.168830 0.797163 -0.000000
v 1.179518 0.794658 -0.000000
v 1.189080 0.791089 -0.000000
v 1.197518 0.786424 -0.000000
v 1.204830 0.780627 -0.000000
v 1.211018 0.773662 -0.000000
v 1.216080 0.765497 -0.000000
v 1.220018 0.756095 -0.000000
v 1.222830 0.745423 -0.000000
v 1.224517 0.733445 -0.000000
v 1.225080 0.720127 -0.000000
v 1.225080 0.696126 -0.000000
v 1.146080 0.668126 -0.000000
v 1.127945 0.661570 -0.000000
v 1.109747 0.654761 -0.000000
v 1.091799 0.647486 -0.000000
v 1.074414 0.639534 -0.000000
v 1.057903 0.630693 -0.000000
v 1.042580 0.620752 -0.000000
v 1.028757 0.609497 -0.000000
v 1.016747 0.596719 -0.000000
v 1.006862 0.582205 -0.000000
v 0.999414 0.565742 -0.000000
v 0.994716 0.547120 -0.000000
v 0.993080 0.526126 -0.000000
v 0.993984 0.511778 -0.000000
v 0.996645 0.497839 -0.000000
v 1.000987 0.484470 -0.000000
v 1.006932 0.471830 -0.000000
v 1.014406 0.460079 -0.000000
v 1.023330 0.449376 -0.000000
v 1.033630 0.439882 -0.000000
v 1.045228 0.431756 -0.000000
v 1.058049 0.425158 -0.000000
v 1.072015 0.420247 -0.000000
v 1.087051 0.417183 -0.000000
v 1.103080 0.416126 -0.000000
v 1.113329 0.416440 -0.000000
v 1.123571 0.417381 -0.000000
v 1.133799 0.418955 -0.000000
v 1.144006 0.421163 -0.000000
v 1.154186 0.424011 -0.000000
v 1.164330 0.427501 -0.000000
v 1.174433 0.431637 -0.000000
v 1.184488 0.436423 -0.000000
v 1.194487 0.441861 -0.000000
v 1.204423 0.447955 -0.000000
v 1.214290 0.454709 -0.000000
v 1.224081 0.462126 -0.000000
v 1.226354 0.454499 -0.000000
v 1.229187 0.447608 -0.000000
v 1.232596 0.441439 -0.000000
v 1.236599 0.435978 -0.000000
v 1.241213 0.431212 -0.000000
v 1.246455 0.427126 -0.000000
v 1.252344 0.423707 -0.000000
v 1.258895 0.420941 -0.000000
v 1.266127 0.418814 -0.000000
v 1.274057 0.417312 -0.000000
v 1.282702 0.416420 -0.000000
v 1.292080 0.416126 -0.000000
v 1.298872 0.416299 -0.000000
v 1.305326 0.416844 -0.000000
v 1.311565 0.417798 -0.000000
v 1.317710 0.419201 -0.000000
v 1.323884 0.421089 -0.000000
v 1.330206 0.423501 -0.000000
v 1.336799 0.426477 -0.000000
v 1.343785 0.430052 -0.000000
v 1.351284 0.434267 -0.000000
v 1.359419 0.439159 -0.000000
v 1.368310 0.444766 -0.000000
v 1.378080 0.451126 -0.000000
v 1.225080 0.516126 -0.000000
v 1.219039 0.510567 -0.000000
v 1.212914 0.505400 -0.000000
v 1.206705 0.500642 -0.000000
v 1.200414 0.496312 -0.000000
v 1.194039 0.492426 -0.000000
v 1.187580 0.489001 -0.000000
v 1.181039 0.486056 -0.000000
v 1.174414 0.483608 -0.000000
v 1.167705 0.481673 -0.000000
v 1.160914 0.480270 -0.000000
v 1.154039 0.479415 -0.000000
v 1.147080 0.479126 -0.000000
v 1.138049 0.479659 -0.000000
v 1.129493 0.481224 -0.000000
v 1.121471 0.483767 -0.000000
v 1.114043 0.487238 -0.000000
v 1.107269 0.491583 -0.000000
v 1.101206 0.496751 -0.000000
v 1.095913 0.502691 -0.000000
v 1.091451 0.509349 -0.000000
v 1.087878 0.516673 -0.000000
v 1.085252 0.524613 -0.000000
v 1.083633 0.533114 -0.000000
v 1.083080 0.542126 -0.000000
v 1.084423 0.554830 -0.000000
v 1.088321 0.566501 -0.000000
v 1.094580 0.577236 -0.000000
v 1.103006 0.587126 -0.000000
v 1.113404 0.596267 -0.000000
v 1.125580 0.604751 -0.000000
v 1.139340 0.612673 -0.000000
v 1.154488 0.620126 -0.000000
v 1.170830 0.627205 -0.000000
v 1.188173 0.634001 -0.000000
v 1.206321 0.640611 -0.000000
v 1.225080 0.647126 -0.000000
v 0.479080 0.425126 -0.000000
v 0.713080 0.425126 -0.000000
v 0.753607 0.427103 -0.000000
v 0.789789 0.432775 -0.000000
v 0.821784 0.441751 -0.000000
v 0.849747 0.453645 -0.000000
v 0.873836 0.468066 -0.000000
v 0.894206 0.484626 -0.000000
v 0.911013 0.502937 -0.000000
v 0.924414 0.522608 -0.000000
v 0.934565 0.543251 -0.000000
v 0.941622 0.564478 -0.000000
v 0.945742 0.585900 -0.000000
v 0.947080 0.607126 -0.000000
v 0.945801 0.629592 -0.000000
v 0.942016 0.650937 -0.000000
v 0.935799 0.671080 -0.000000
v 0.927228 0.689941 -0.000000
v 0.916380 0.707442 -0.000000
v 0.903330 0.723501 -0.000000
v 0.888155 0.738040 -0.000000
v 0.870932 0.750978 -0.000000
v 0.851737 0.762236 -0.000000
v 0.830645 0.771733 -0.000000
v 0.807734 0.779390 -0.000000
v 0.783080 0.785126 -0.000000
v 0.783080 0.787126 -0.000000
v 0.800042 0.794735 -0.000000
v 0.815437 0.803080 -0.000000
v 0.829283 0.812189 -0.000000
v 0.841599 0.822089 -0.000000
v 0.852401 0.832809 -0.000000
v 0.861706 0.844376 -0.000000
v 0.869531 0.856819 -0.000000
v 0.875896 0.870164 -0.000000
v 0.880815 0.884439 -0.000000
v 0.884308 0.899673 -0.000000
v 0.886390 0.915893 -0.000000
v 0.887080 0.933126 -0.000000
v 0.885756 0.954616 -0.000000
v 0.881733 0.975876 -0.000000
v 0.874940 0.996595 -0.000000
v 0.865303 1.016460 -0.000000
v 0.852749 1.035158 -0.000000
v 0.837205 1.052377 -0.000000
v 0.818599 1.067804 -0.000000
v 0.796858 1.081126 -0.000000
v 0.771908 1.092033 -0.000000
v 0.743677 1.100210 -0.000000
v 0.712092 1.105345 -0.000000
v 0.677080 1.107126 -0.000000
v 0.479080 1.107126 -0.000000
v 0.577080 1.019127 -0.000000
v 0.667080 1.019127 -0.000000
v 0.688328 1.018231 -0.000000
v 0.707145 1.015631 -0.000000
v 0.723643 1.011455 -0.000000
v 0.737932 1.005830 -0.000000
v 0.750124 0.998886 -0.000000
v 0.760330 0.990752 -0.000000
v 0.768661 0.981554 -0.000000
v 0.775229 0.971423 -0.000000
v 0.780143 0.960486 -0.000000
v 0.783515 0.948872 -0.000000
v 0.785458 0.936709 -0.000000
v 0.786080 0.924127 -0.000000
v 0.785100 0.906647 -0.000000
v 0.782150 0.890705 -0.000000
v 0.777221 0.876298 -0.000000
v 0.770303 0.863423 -0.000000
v 0.761384 0.852075 -0.000000
v 0.750455 0.842251 -0.000000
v 0.737506 0.833949 -0.000000
v 0.722525 0.827163 -0.000000
v 0.705502 0.821892 -0.000000
v 0.686428 0.818131 -0.000000
v 0.665290 0.815877 -0.000000
v 0.642080 0.815126 -0.000000
v 0.577080 0.815126 -0.000000
v 0.577080 0.727126 -0.000000
v 0.695080 0.727126 -0.000000
v 0.719688 0.726225 -0.000000
v 0.742029 0.723580 -0.000000
v 0.762127 0.719283 -0.000000
v 0.780006 0.713423 -0.000000
v 0.795691 0.706091 -0.000000
v 0.809205 0.697376 -0.000000
v 0.820574 0.687371 -0.000000
v 0.829821 0.676164 -0.000000
v 0.836971 0.663845 -0.000000
v 0.842047 0.650506 -0.000000
v 0.845076 0.636236 -0.000000
v 0.846080 0.621126 -0.000000
v 0.845404 0.608288 -0.000000
v 0.843252 0.595418 -0.000000
v 0.839440 0.582736 -0.000000
v 0.833784 0.570460 -0.000000
v 0.826101 0.558809 -0.000000
v 0.816205 0.548001 -0.000000
v 0.803914 0.538257 -0.000000
v 0.789043 0.529793 -0.000000
v 0.771408 0.522830 -0.000000
v 0.750826 0.517585 -0.000000
v 0.727111 0.514278 -0.000000
v 0.700080 0.513126 -0.000000
v 0.577080 0.513126 -0.000000
v -0.167920 0.505126 -0.000000
v -0.172874 0.501503 -0.000000
v -0.177721 0.498140 -0.000000
v -0.182436 0.495048 -0.000000
v -0.186994 0.492238 -0.000000
v -0.191372 0.489718 -0.000000
v -0.195545 0.487501 -0.000000
v -0.199489 0.485597 -0.000000
v -0.203179 0.484015 -0.000000
v -0.206592 0.482767 -0.000000
v -0.209702 0.481863 -0.000000
v -0.212487 0.481312 -0.000000
v -0.214920 0.481126 -0.000000
v -0.217565 0.481254 -0.000000
v -0.219999 0.481650 -0.000000
v -0.222217 0.482330 -0.000000
v -0.224216 0.483312 -0.000000
v -0.225993 0.484613 -0.000000
v -0.227545 0.486251 -0.000000
v -0.228867 0.488244 -0.000000
v -0.229957 0.490608 -0.000000
v -0.230810 0.493361 -0.000000
v -0.231424 0.496520 -0.000000
v -0.231795 0.500103 -0.000000
v -0.231920 0.504126 -0.000000
v -0.231920 0.735126 -0.000000
v -0.233389 0.759466 -0.000000
v -0.237674 0.781506 -0.000000
v -0.244592 0.801283 -0.000000
v -0.253957 0.818830 -0.000000
v -0.265586 0.834183 -0.000000
v -0.279295 0.847376 -0.000000
v -0.294899 0.858445 -0.000000
v -0.312216 0.867423 -0.000000
v -0.331060 0.874345 -0.000000
v -0.351249 0.879247 -0.000000
v -0.372596 0.882162 -0.000000
v -0.394920 0.883126 -0.000000
v -0.410838 0.882709 -0.000000
v -0.426096 0.881455 -0.000000
v -0.440701 0.879361 -0.000000
v -0.454660 0.876423 -0.000000
v -0.467981 0.872638 -0.000000
v -0.480670 0.868001 -0.000000
v -0.492733 0.862511 -0.000000
v -0.504179 0.856164 -0.000000
v -0.515013 0.848955 -0.000000
v -0.525244 0.840881 -0.000000
v -0.534877 0.831940 -0.000000
v -0.543920 0.822127 -0.000000
v -0.543920 0.725127 -0.000000
v -0.533029 0.737296 -0.000000
v -0.521873 0.748316 -0.000000
v -0.510482 0.758205 -0.000000
v -0.498883 0.766978 -0.000000
v -0.487103 0.774655 -0.000000
v -0.475170 0.781251 -0.000000
v -0.463112 0.786786 -0.000000
v -0.450957 0.791275 -0.000000
v -0.438733 0.794736 -0.000000
v -0.426466 0.797187 -0.000000
v -0.414186 0.798644 -0.000000
v -0.401920 0.799127 -0.000000
v -0.388982 0.798642 -0.000000
v -0.377170 0.797163 -0.000000
v -0.366482 0.794658 -0.000000
v -0.356920 0.791089 -0.000000
v -0.348482 0.786424 -0.000000
v -0.341170 0.780627 -0.000000
v -0.334982 0.773662 -0.000000
v -0.329920 0.765497 -0.000000
v -0.325982 0.756095 -0.000000
v -0.323170 0.745423 -0.000000
v -0.321482 0.733445 -0.000000
v -0.320920 0.720127 -0.000000
v -0.320920 0.696126 -0.000000
v -0.399920 0.668126 -0.000000
v -0.418055 0.661570 -0.000000
v -0.436253 0.654761 -0.000000
v -0.454201 0.647486 -0.000000
v -0.471586 0.639534 -0.000000
v -0.488097 0.630693 -0.000000
v -0.503420 0.620752 -0.000000
v -0.517243 0.609497 -0.000000
v -0.529253 0.596719 -0.000000
v -0.539139 0.582205 -0.000000
v -0.546587 0.565742 -0.000000
v -0.551285 0.547120 -0.000000
v -0.552920 0.526126 -0.000000
v -0.552016 0.511778 -0.000000
v -0.549355 0.497839 -0.000000
v -0.545014 0.484470 -0.000000
v -0.539068 0.471830 -0.000000
v -0.531595 0.460079 -0.000000
v -0.522670 0.449376 -0.000000
v -0.512370 0.439882 -0.000000
v -0.500772 0.431756 -0.000000
v -0.487951 0.425158 -0.000000
v -0.473985 0.420247 -0.000000
v -0.458949 0.417183 -0.000000
v -0.442920 0.416126 -0.000000
v -0.432671 0.416440 -0.000000
v -0.422429 0.417381 -0.000000
v -0.412201 0.418955 -0.000000
v -0.401994 0.421163 -0.000000
v -0.391815 0.424011 -0.000000
v -0.381670 0.427501 -0.000000
v -0.371567 0.431637 -0.000000
v -0.361513 0.436423 -0.000000
v -0.351514 0.441861 -0.000000
v -0.341578 0.447955 -0.000000
v -0.331711 0.454709 -0.000000
v -0.321920 0.462126 -0.000000
v -0.319646 0.454499 -0.000000
v -0.316813 0.447608 -0.000000
v -0.313404 0.441439 -0.000000
v -0.309401 0.435978 -0.000000
v -0.304787 0.431212 -0.000000
v -0.299545 0.427126 -0.000000
v -0.293656 0.423707 -0.000000
v -0.287105 0.420941 -0.000000
v -0.279873 0.418814 -0.000000
v -0.271943 0.417312 -0.000000
v -0.263298 0.416420 -0.000000
v -0.253920 0.416126 -0.000000
v -0.247129 0.416299 -0.000000
v -0.240674 0.416844 -0.000000
v -0.234436 0.417798 -0.000000
v -0.228290 0.419201 -0.000000
v -0.222117 0.421089 -0.000000
v -0.215795 0.423501 -0.000000
v -0.209202 0.426477 -0.000000
v -0.202216 0.430052 -0.000000
v -0.194717 0.434267 -0.000000
v -0.186582 0.439159 -0.000000
v -0.177690 0.444766 -0.000000
v -0.167920 0.451126 -0.000000
v -0.320920 0.516126 -0.000000
v -0.326962 0.510567 -0.000000
v -0.333087 0.505400 -0.000000
v -0.339295 0.500642 -0.000000
v -0.345587 0.496312 -0.000000
v -0.351962 0.492426 -0.000000
v -0.358420 0.489001 -0.000000
v -0.364962 0.486056 -0.000000
v -0.371587 0.483608 -0.000000
v -0.378295 0.481673 -0.000000
v -0.385087 0.480270 -0.000000
v -0.391962 0.479415 -0.000000
v -0.398920 0.479126 -0.000000
v -0.407952 0.479659 -0.000000
v -0.416508 0.481224 -0.000000
v -0.424529 0.483767 -0.000000
v -0.431957 0.487238 -0.000000
v -0.438732 0.491583 -0.000000
v -0.444795 0.496751 -0.000000
v -0.450087 0.502691 -0.000000
v -0.454549 0.509349 -0.000000
v -0.458123 0.516673 -0.000000
v -0.460748 0.524613 -0.000000
v -0.462367 0.533114 -0.000000
v -0.462920 0.542126 -0.000000
v -0.461577 0.554830 -0.000000
v -0.457679 0.566501 -0.000000
v -0.451420 0.577236 -0.000000
v -0.442994 0.587126 -0.000000
v -0.432596 0.596267 -0.000000
v -0.420420 0.604751 -0.000000
v -0.406661 0.612673 -0.000000
v -0.391512 0.620126 -0.000000
v -0.375170 0.627205 -0.000000
v -0.357827 0.634001 -0.000000
v -0.339679 0.640611 -0.000000
v -0.320920 0.647126 -0.000000
v -0.928920 1.107126 -0.000000
v -1.017920 1.107126 -0.000000
v -1.017920 0.425126 -0.000000
v -0.928920 0.425126 -0.000000
v -0.928920 0.747126 -0.000000
v -0.918638 0.758279 -0.000000
v -0.908749 0.768261 -0.000000
v -0.899186 0.777111 -0.000000
v -0.889883 0.784867 -0.000000
v -0.880775 0.791568 -0.000000
v -0.871795 0.797251 -0.000000
v -0.862878 0.801956 -0.000000
v -0.853957 0.805719 -0.000000
v -0.844967 0.808580 -0.000000
v -0.835841 0.810576 -0.000000
v -0.826514 0.811745 -0.000000
v -0.816920 0.812127 -0.000000
v -0.803845 0.811242 -0.000000
v -0.791651 0.808636 -0.000000
v -0.780389 0.804376 -0.000000
v -0.770105 0.798534 -0.000000
v -0.760849 0.791177 -0.000000
v -0.752670 0.782376 -0.000000
v -0.745615 0.772201 -0.000000
v -0.739735 0.760719 -0.000000
v -0.735076 0.748001 -0.000000
v -0.731688 0.734117 -0.000000
v -0.729620 0.719136 -0.000000
v -0.728920 0.703126 -0.000000
v -0.728920 0.425126 -0.000000
v -0.639920 0.425126 -0.000000
v -0.639920 0.700126 -0.000000
v -0.641250 0.729566 -0.000000
v -0.645142 0.756390 -0.000000
v -0.651451 0.780611 -0.000000
v -0.660031 0.802238 -0.000000
v -0.670736 0.821281 -0.000000
v -0.683420 0.837752 -0.000000
v -0.697937 0.851660 -0.000000
v -0.714142 0.863015 -0.000000
v -0.731889 0.871830 -0.000000
v -0.751031 0.878113 -0.000000
v -0.771423 0.881875 -0.000000
v -0.792920 0.883126 -0.000000
v -0.805411 0.882610 -0.000000
v -0.817846 0.881076 -0.000000
v -0.830170 0.878548 -0.000000
v -0.842327 0.875052 -0.000000
v -0.854263 0.870612 -0.000000
v -0.865920 0.865251 -0.000000
v -0.877244 0.858995 -0.000000
v -0.888179 0.851867 -0.000000
v -0.898670 0.843892 -0.000000
v -0.908661 0.835094 -0.000000
v -0.918096 0.825497 -0.000000
v -0.926920 0.815126 -0.000000
v -0.928920 0.815126 -0.000000
v -1.123920 0.852126 -0.000000
v -1.134518 0.856728 -0.000000
v -1.144869 0.861020 -0.000000
v -1.155061 0.864986 -0.000000
v -1.165179 0.868608 -0.000000
v -1.175312 0.871869 -0.000000
v -1.185545 0.874752 -0.000000
v -1.195966 0.877238 -0.000000
v -1.206661 0.879312 -0.000000
v -1.217717 0.880955 -0.000000
v -1.229221 0.882150 -0.000000
v -1.241260 0.882879 -0.000000
v -1.253920 0.883126 -0.000000
v -1.286857 0.881191 -0.000000
v -1.317587 0.875478 -0.000000
v -1.345982 0.866127 -0.000000
v -1.371920 0.853275 -0.000000
v -1.395274 0.837062 -0.000000
v -1.415920 0.817626 -0.000000
v -1.433733 0.795108 -0.000000
v -1.448587 0.769645 -0.000000
v -1.460358 0.741377 -0.000000
v -1.468920 0.710441 -0.000000
v -1.474149 0.676978 -0.000000
v -1.475920 0.641126 -0.000000
v -1.473993 0.608970 -0.000000
v -1.468336 0.578627 -0.000000
v -1.459139 0.550283 -0.000000
v -1.446586 0.524126 -0.000000
v -1.430868 0.500345 -0.000000
v -1.412170 0.479126 -0.000000
v -1.390680 0.460658 -0.000000
v -1.366586 0.445127 -0.000000
v -1.340076 0.432720 -0.000000
v -1.311336 0.423627 -0.000000
v -1.280555 0.418033 -0.000000
v -1.247920 0.416126 -0.000000
v -1.235983 0.416371 -0.000000
v -1.223758 0.417080 -0.000000
v -1.211373 0.418220 -0.000000
v -1.198957 0.419756 -0.000000
v -1.186638 0.421653 -0.000000
v -1.174545 0.423876 -0.000000
v -1.162806 0.426392 -0.000000
v -1.151549 0.429164 -0.000000
v -1.140904 0.432158 -0.000000
v -1.130998 0.435339 -0.000000
v -1.121961 0.438674 -0.000000
v -1.113920 0.442126 -0.000000
v -1.113920 0.530126 -0.000000
v -1.124989 0.525335 -0.000000
v -1.135721 0.520960 -0.000000
v -1.146154 0.517001 -0.000000
v -1.156327 0.513460 -0.000000
v -1.166278 0.510335 -0.000000
v -1.176045 0.507626 -0.000000
v -1.185666 0.505335 -0.000000
v -1.195179 0.503460 -0.000000
v -1.204623 0.502001 -0.000000
v -1.214036 0.500960 -0.000000
v -1.223455 0.500335 -0.000000
v -1.232920 0.500126 -0.000000
v -1.255237 0.501282 -0.000000
v -1.276124 0.504705 -0.000000
v -1.295482 0.510330 -0.000000
v -1.313216 0.518089 -0.000000
v -1.329228 0.527919 -0.000000
v -1.343420 0.539751 -0.000000
v -1.355695 0.553522 -0.000000
v -1.365957 0.569164 -0.000000
v -1.374107 0.586611 -0.000000
v -1.380049 0.605798 -0.000000
v -1.383686 0.626658 -0.000000
v -1.384920 0.649126 -0.000000
v -1.383771 0.671234 -0.000000
v -1.380397 0.691983 -0.000000
v -1.374904 0.711267 -0.000000
v -1.367401 0.728978 -0.000000
v -1.357996 0.745009 -0.000000
v -1.346795 0.759251 -0.000000
v -1.333907 0.771598 -0.000000
v -1.319438 0.781941 -0.000000
v -1.303498 0.790173 -0.000000
v -1.286193 0.796187 -0.000000
v -1.267631 0.799874 -0.000000
v -1.247920 0.801126 -0.000000
v -1.238261 0.800910 -0.000000
v -1.228735 0.800228 -0.000000
v -1.219264 0.799033 -0.000000
v -1.209772 0.797275 -0.000000
v -1.200183 0.794905 -0.000000
v -1.190420 0.791876 -0.000000
v -1.180407 0.788139 -0.000000
v -1.170068 0.783645 -0.000000
v -1.159326 0.778345 -0.000000
v -1.148105 0.772191 -0.000000
v -1.136328 0.765135 -0.000000
v -1.123920 0.757126 -0.000000
v -1.557920 0.555126 -0.000000
v -1.570901 0.546922 -0.000000
v -1.583855 0.539321 -0.000000
v -1.596795 0.532345 -0.000000
v -1.609735 0.526015 -0.000000
v -1.622688 0.520352 -0.000000
v -1.635670 0.515376 -0.000000
v -1.648693 0.511109 -0.000000
v -1.661772 0.507571 -0.000000
v -1.674920 0.504783 -0.000000
v -1.688151 0.502765 -0.000000
v -1.701480 0.501540 -0.000000
v -1.714920 0.501126 -0.000000
v -1.735690 0.502083 -0.000000
v -1.754994 0.504946 -0.000000
v -1.772826 0.509705 -0.000000
v -1.789179 0.516349 -0.000000
v -1.804046 0.524868 -0.000000
v -1.817420 0.535251 -0.000000
v -1.829294 0.547489 -0.000000
v -1.839661 0.561571 -0.000000
v -1.848514 0.577486 -0.000000
v -1.855846 0.595224 -0.000000
v -1.861650 0.614774 -0.000000
v -1.865920 0.636126 -0.000000
v -1.549920 0.636126 -0.000000
v -1.551484 0.675858 -0.000000
v -1.556100 0.712062 -0.000000
v -1.563654 0.744751 -0.000000
v -1.574031 0.773941 -0.000000
v -1.587116 0.799645 -0.000000
v -1.602795 0.821877 -0.000000
v -1.620953 0.840650 -0.000000
v -1.641475 0.855978 -0.000000
v -1.664248 0.867877 -0.000000
v -1.689156 0.876358 -0.000000
v -1.716084 0.881437 -0.000000
v -1.744920 0.883126 -0.000000
v -1.775100 0.881238 -0.000000
v -1.803531 0.875682 -0.000000
v -1.830045 0.866627 -0.000000
v -1.854475 0.854238 -0.000000
v -1.876656 0.838682 -0.000000
v -1.896420 0.820126 -0.000000
v -1.913600 0.798738 -0.000000
v -1.928031 0.774682 -0.000000
v -1.939545 0.748126 -0.000000
v -1.947975 0.719238 -0.000000
v -1.953156 0.688182 -0.000000
v -1.954920 0.655126 -0.000000
v -1.953304 0.624375 -0.000000
v -1.948494 0.594367 -0.000000
v -1.940545 0.565470 -0.000000
v -1.929512 0.538052 -0.000000
v -1.915452 0.512482 -0.000000
v -1.898420 0.489126 -0.000000
v -1.878471 0.468354 -0.000000
v -1.855661 0.450534 -0.000000
v -1.830045 0.436033 -0.000000
v -1.801679 0.425219 -0.000000
v -1.770619 0.418461 -0.000000
v -1.736920 0.416126 -0.000000
v -1.718464 0.416482 -0.000000
v -1.701022 0.417552 -0.000000
v -1.684482 0.419345 -0.000000
v -1.668735 0.421867 -0.000000
v -1.653668 0.425125 -0.000000
v -1.639170 0.429126 -0.000000
v -1.625131 0.433878 -0.000000
v -1.611439 0.439386 -0.000000
v -1.597983 0.445658 -0.000000
v -1.584651 0.452701 -0.000000
v -1.571334 0.460521 -0.000000
v -1.557920 0.469126 -0.000000
v -1.863920 0.695126 -0.000000
v -1.860317 0.712225 -0.000000
v -1.855512 0.728001 -0.000000
v -1.849514 0.742423 -0.000000
v -1.842327 0.755460 -0.000000
v -1.833960 0.767080 -0.000000
v -1.824420 0.777251 -0.000000
v -1.813713 0.785944 -0.000000
v -1.801846 0.793127 -0.000000
v -1.788826 0.798767 -0.000000
v -1.774660 0.802835 -0.000000
v -1.759356 0.805298 -0.000000
v -1.742920 0.806126 -0.000000
v -1.727677 0.805241 -0.000000
v -1.713475 0.802626 -0.000000
v -1.700357 0.798345 -0.000000
v -1.688364 0.792460 -0.000000
v -1.677538 0.785033 -0.000000
v -1.667920 0.776126 -0.000000
v -1.659552 0.765804 -0.000000
v -1.652475 0.754126 -0.000000
v -1.646732 0.741158 -0.000000
v -1.642364 0.726960 -0.000000
v -1.639413 0.711595 -0.000000
v -1.637920 0.695126 -0.000000
v -2.067920 1.107126 -0.000000
v -2.158920 1.107126 -0.000000
v -2.385920 0.827127 -0.000000
v -2.611920 1.107126 -0.000000
v -2.703920 1.107126 -0.000000
v -2.703920 0.425126 -0.000000
v -2.605920 0.425126 -0.000000
v -2.605920 0.956126 -0.000000
v -2.603920 0.956126 -0.000000
v -2.393920 0.692127 -0.000000
v -2.377920 0.692127 -0.000000
v -2.167920 0.956126 -0.000000
v -2.165920 0.956126 -0.000000
v -2.165920 0.425126 -0.000000
v -2.067920 0.425126 -0.000000
v -0.165521 0.698724 -0.006147
v 0.415312 0.655122 0.003915
v 0.394498 0.852231 0.003845
v 0.234431 0.679071 0.000797
v 0.111564 0.609465 -0.001449
v 0.079845 0.739326 -0.001809
v 0.222547 0.853422 0.000848
vn -0.0000 -0.0000 1.0000
vn -0.0174 -0.0015 0.9998
vt 0.439713 0.621509
vt 0.413069 0.417336
vt 0.439713 0.417336
vt 0.413069 0.504753
vt 0.376093 0.484550
vt 0.365918 0.484770
vt 0.372354 0.484396
vt 0.379816 0.485010
vt 0.359813 0.485897
vt 0.383505 0.485766
vt 0.387145 0.486813
vt 0.354082 0.487778
vt 0.390718 0.488142
vt 0.348770 0.490416
vt 0.394208 0.489747
vt 0.397598 0.491620
vt 0.343918 0.493816
vt 0.400872 0.493754
vt 0.404013 0.496141
vt 0.339572 0.497980
vt 0.407004 0.498775
vt 0.335775 0.502911
vt 0.409828 0.501648
vt 0.412470 0.504753
vt 0.379539 0.505651
vt 0.332570 0.508612
vt 0.413069 0.525110
vt 0.409991 0.521772
vt 0.407030 0.518784
vt 0.404167 0.516134
vt 0.401382 0.513812
vt 0.398655 0.511806
vt 0.395967 0.510105
vt 0.393297 0.508696
vt 0.390627 0.507569
vt 0.387935 0.506713
vt 0.385203 0.506116
vt 0.382411 0.505765
vt 0.375627 0.505961
vt 0.371976 0.506737
vt 0.368603 0.508009
vt 0.365523 0.509755
vt 0.329995 0.515083
vt 0.362749 0.511954
vt 0.360298 0.514587
vt 0.358183 0.517631
vt 0.328099 0.522333
vt 0.356419 0.521066
vt 0.355020 0.524872
vt 0.326925 0.530362
vt 0.354001 0.529028
vt 0.413069 0.621509
vt 0.353377 0.533512
vt 0.326518 0.539175
vt 0.353163 0.538305
vt 0.353077 0.621531
vt 0.326432 0.621503
vt 0.875173 0.556738
vt 0.884851 0.557088
vt 0.881700 0.557117
vt 0.888020 0.556908
vt 0.869079 0.555809
vt 0.891210 0.556576
vt 0.894424 0.556092
vt 0.863447 0.554345
vt 0.897664 0.555455
vt 0.900936 0.554663
vt 0.858303 0.552364
vt 0.904241 0.553716
vt 0.907582 0.552612
vt 0.853673 0.549884
vt 0.910963 0.551351
vt 0.914387 0.549931
vt 0.849585 0.546921
vt 0.917857 0.548352
vt 0.921376 0.546613
vt 0.846065 0.543492
vt 0.893811 0.532485
vt 0.896963 0.531691
vt 0.900235 0.530699
vt 0.903615 0.529503
vt 0.907094 0.528097
vt 0.910659 0.526476
vt 0.914298 0.524634
vt 0.918001 0.522567
vt 0.921757 0.520269
vt 0.843139 0.539614
vt 0.887915 0.533496
vt 0.890792 0.533084
vt 0.840836 0.535304
vt 0.885193 0.533724
vt 0.839181 0.530579
vt 0.880027 0.533631
vt 0.882637 0.533773
vt 0.877592 0.533290
vt 0.875343 0.532761
vt 0.873291 0.532053
vt 0.871444 0.531177
vt 0.869814 0.530145
vt 0.838201 0.525457
vt 0.868410 0.528966
vt 0.867244 0.527652
vt 0.866325 0.526212
vt 0.865663 0.524657
vt 0.837923 0.519954
vt 0.865268 0.522998
vt 0.865152 0.521245
vt 0.865364 0.519723
vt 0.839283 0.511445
vt 0.865971 0.518138
vt 0.866993 0.516471
vt 0.868451 0.514705
vt 0.870363 0.512821
vt 0.872750 0.510800
vt 0.842811 0.503943
vt 0.875632 0.508624
vt 0.879030 0.506274
vt 0.882962 0.503733
vt 0.848074 0.497321
vt 0.887450 0.500981
vt 0.892513 0.498001
vt 0.898170 0.494773
vt 0.854636 0.491451
vt 0.903470 0.491288
vt 0.862062 0.486204
vt 0.908202 0.487986
vt 0.912386 0.484831
vt 0.869917 0.481453
vt 0.916045 0.481790
vt 0.877768 0.477070
vt 0.919200 0.478829
vt 0.921872 0.475915
vt 0.885178 0.472928
vt 0.924082 0.473012
vt 0.891713 0.468897
vt 0.925851 0.470088
vt 0.927201 0.467107
vt 0.896938 0.464851
vt 0.928154 0.464037
vt 0.900419 0.460661
vt 0.928729 0.460843
vt 0.901721 0.456199
vt 0.928950 0.457490
vt 0.838337 0.428936
vt 0.842272 0.454874
vt 0.837923 0.457674
vt 0.928647 0.451739
vt 0.901571 0.453895
vt 0.846542 0.452331
vt 0.901069 0.451773
vt 0.850721 0.450046
vt 0.900241 0.449834
vt 0.927595 0.446330
vt 0.854797 0.448015
vt 0.899110 0.448077
vt 0.858756 0.446235
vt 0.897702 0.446504
vt 0.862588 0.444706
vt 0.896042 0.445114
vt 0.925838 0.441291
vt 0.866278 0.443424
vt 0.894155 0.443907
vt 0.892066 0.442885
vt 0.869816 0.442387
vt 0.889798 0.442048
vt 0.873187 0.441593
vt 0.887379 0.441396
vt 0.876381 0.441040
vt 0.884833 0.440928
vt 0.879383 0.440725
vt 0.882183 0.440647
vt 0.923417 0.436651
vt 0.920374 0.432438
vt 0.916752 0.428682
vt 0.842620 0.426869
vt 0.912592 0.425411
vt 0.846740 0.425029
vt 0.850726 0.423407
vt 0.907938 0.422654
vt 0.854606 0.421996
vt 0.858409 0.420787
vt 0.902831 0.420439
vt 0.862161 0.419773
vt 0.897313 0.418795
vt 0.865893 0.418946
vt 0.869631 0.418298
vt 0.891427 0.417751
vt 0.873404 0.417820
vt 0.877240 0.417506
vt 0.885214 0.417336
vt 0.881167 0.417347
vt 0.624366 0.901051
vt 0.635813 0.900876
vt 0.629131 0.901171
vt 0.619798 0.900680
vt 0.642203 0.899996
vt 0.615425 0.900057
vt 0.611245 0.899182
vt 0.648245 0.898523
vt 0.607256 0.898053
vt 0.653885 0.896445
vt 0.603456 0.896669
vt 0.599843 0.895029
vt 0.659066 0.893752
vt 0.596415 0.893132
vt 0.663734 0.890434
vt 0.593169 0.890977
vt 0.590104 0.888564
vt 0.667834 0.886480
vt 0.587217 0.885890
vt 0.671311 0.881880
vt 0.584507 0.882955
vt 0.584478 0.853917
vt 0.587742 0.857556
vt 0.591085 0.860852
vt 0.594498 0.863809
vt 0.597973 0.866432
vt 0.601502 0.868726
vt 0.605076 0.870697
vt 0.608688 0.872351
vt 0.612328 0.873691
vt 0.615988 0.874723
vt 0.619661 0.875453
vt 0.623342 0.875851
vt 0.627014 0.875994
vt 0.674113 0.876626
vt 0.630887 0.875848
vt 0.676182 0.870705
vt 0.634421 0.875389
vt 0.637621 0.874639
vt 0.640483 0.873571
vt 0.643010 0.872174
vt 0.645199 0.870439
vt 0.677465 0.864107
vt 0.647051 0.868354
vt 0.648567 0.865910
vt 0.649746 0.863096
vt 0.677906 0.856821
vt 0.650588 0.859901
vt 0.651094 0.856315
vt 0.677912 0.787667
vt 0.651263 0.852328
vt 0.651263 0.845143
vt 0.627614 0.836759
vt 0.651265 0.830474
vt 0.622185 0.834796
vt 0.616738 0.832757
vt 0.611365 0.830579
vt 0.606160 0.828198
vt 0.645649 0.828523
vt 0.651268 0.791257
vt 0.640216 0.826544
vt 0.601218 0.825551
vt 0.635025 0.824509
vt 0.596631 0.822574
vt 0.630132 0.822389
vt 0.592493 0.819205
vt 0.625598 0.820158
vt 0.621479 0.817786
vt 0.588898 0.815379
vt 0.617834 0.815246
vt 0.585939 0.811034
vt 0.614721 0.812509
vt 0.612199 0.809548
vt 0.583709 0.806106
vt 0.610325 0.806334
vt 0.609158 0.802840
vt 0.582303 0.800531
vt 0.608757 0.799037
vt 0.581814 0.794246
vt 0.608922 0.796339
vt 0.609407 0.793794
vt 0.582085 0.789951
vt 0.610193 0.791417
vt 0.611263 0.789224
vt 0.649460 0.789592
vt 0.582881 0.785778
vt 0.647626 0.788045
vt 0.612599 0.787231
vt 0.645768 0.786620
vt 0.695590 0.786876
vt 0.697073 0.771794
vt 0.697073 0.787960
vt 0.677950 0.786462
vt 0.614184 0.785453
vt 0.694139 0.785869
vt 0.643884 0.785324
vt 0.678061 0.785390
vt 0.692728 0.784943
vt 0.584181 0.781776
vt 0.615999 0.783906
vt 0.678245 0.784444
vt 0.641976 0.784160
vt 0.691363 0.784102
vt 0.678501 0.783620
vt 0.640042 0.783135
vt 0.690052 0.783348
vt 0.618027 0.782605
vt 0.678827 0.782913
vt 0.688803 0.782684
vt 0.638084 0.782253
vt 0.679223 0.782316
vt 0.687622 0.782114
vt 0.620251 0.781566
vt 0.679687 0.781826
vt 0.636100 0.781520
vt 0.686518 0.781640
vt 0.680219 0.781437
vt 0.585961 0.777992
vt 0.685496 0.781267
vt 0.622652 0.780805
vt 0.634092 0.780940
vt 0.680818 0.781143
vt 0.684565 0.780996
vt 0.681482 0.780940
vt 0.683731 0.780831
vt 0.632059 0.780520
vt 0.682211 0.780822
vt 0.683003 0.780775
vt 0.625214 0.780337
vt 0.630001 0.780264
vt 0.627918 0.780177
vt 0.650970 0.775088
vt 0.588199 0.774474
vt 0.648039 0.772867
vt 0.651650 0.772804
vt 0.590870 0.771270
vt 0.645085 0.770845
vt 0.652498 0.770742
vt 0.694148 0.769890
vt 0.593954 0.768428
vt 0.642110 0.769021
vt 0.653519 0.768894
vt 0.691486 0.768211
vt 0.639117 0.767393
vt 0.654717 0.767260
vt 0.597426 0.765995
vt 0.689051 0.766747
vt 0.636107 0.765960
vt 0.656098 0.765833
vt 0.686806 0.765485
vt 0.601264 0.764020
vt 0.633082 0.764722
vt 0.657668 0.764610
vt 0.684714 0.764415
vt 0.630045 0.763677
vt 0.659431 0.763586
vt 0.682741 0.763524
vt 0.605446 0.762550
vt 0.626998 0.762824
vt 0.661392 0.762758
vt 0.680848 0.762802
vt 0.623942 0.762163
vt 0.679000 0.762237
vt 0.663557 0.762121
vt 0.609947 0.761633
vt 0.677160 0.761817
vt 0.620880 0.761692
vt 0.665931 0.761671
vt 0.675292 0.761531
vt 0.617814 0.761410
vt 0.668519 0.761405
vt 0.614746 0.761316
vt 0.673360 0.761368
vt 0.671327 0.761316
vt 0.543679 0.275235
vt 0.514338 0.097397
vt 0.543679 0.071051
vt 0.484399 0.071051
vt 0.473917 0.071584
vt 0.464461 0.073121
vt 0.456009 0.075569
vt 0.448539 0.078835
vt 0.442030 0.082823
vt 0.436459 0.087442
vt 0.431806 0.092597
vt 0.487393 0.097397
vt 0.428047 0.098195
vt 0.514338 0.158473
vt 0.481032 0.097665
vt 0.475399 0.098443
vt 0.425162 0.104142
vt 0.470459 0.099694
vt 0.466181 0.101378
vt 0.462531 0.103457
vt 0.459475 0.105892
vt 0.423128 0.110346
vt 0.456981 0.108646
vt 0.455015 0.111679
vt 0.421924 0.116711
vt 0.453543 0.114953
vt 0.452534 0.118430
vt 0.421527 0.123145
vt 0.451952 0.122072
vt 0.451766 0.125839
vt 0.421734 0.128304
vt 0.452059 0.131072
vt 0.422357 0.133160
vt 0.452942 0.135845
vt 0.423403 0.137721
vt 0.454418 0.140158
vt 0.424876 0.141995
vt 0.456489 0.144013
vt 0.426781 0.145990
vt 0.459160 0.147411
vt 0.429124 0.149716
vt 0.462432 0.150352
vt 0.431910 0.153179
vt 0.466309 0.152837
vt 0.470794 0.154869
vt 0.435144 0.156388
vt 0.475890 0.156447
vt 0.438831 0.159352
vt 0.481601 0.157573
vt 0.487929 0.158248
vt 0.494878 0.158473
vt 0.514338 0.184819
vt 0.442977 0.162079
vt 0.447586 0.164578
vt 0.452664 0.166856
vt 0.452664 0.167454
vt 0.445283 0.169172
vt 0.438423 0.171464
vt 0.432109 0.174308
vt 0.426362 0.177678
vt 0.421205 0.181552
vt 0.479010 0.184819
vt 0.416662 0.185904
vt 0.514338 0.248889
vt 0.471643 0.185089
vt 0.464954 0.185881
vt 0.458937 0.187167
vt 0.412755 0.190712
vt 0.453585 0.188922
vt 0.448889 0.191117
vt 0.409507 0.195952
vt 0.444843 0.193726
vt 0.441439 0.196722
vt 0.406941 0.201599
vt 0.438671 0.200077
vt 0.436530 0.203765
vt 0.405080 0.207630
vt 0.435010 0.207758
vt 0.403947 0.214020
vt 0.434103 0.212031
vt 0.433802 0.216555
vt 0.403564 0.220746
vt 0.434005 0.220398
vt 0.434649 0.224251
vt 0.403965 0.227101
vt 0.435791 0.228048
vt 0.405198 0.233514
vt 0.437484 0.231724
vt 0.439784 0.235212
vt 0.407311 0.239870
vt 0.442747 0.238447
vt 0.446427 0.241365
vt 0.410350 0.246050
vt 0.450879 0.243899
vt 0.456159 0.245984
vt 0.462321 0.247554
vt 0.414362 0.251939
vt 0.469421 0.248544
vt 0.477513 0.248889
vt 0.419394 0.257421
vt 0.425493 0.262379
vt 0.432705 0.266697
vt 0.441077 0.270258
vt 0.450656 0.272945
vt 0.461488 0.274643
vt 0.473621 0.275235
vt 0.113602 0.903367
vt 0.125050 0.903192
vt 0.118368 0.903487
vt 0.109034 0.902996
vt 0.131440 0.902312
vt 0.104661 0.902374
vt 0.100482 0.901498
vt 0.137482 0.900839
vt 0.096493 0.900369
vt 0.143121 0.898761
vt 0.092693 0.898985
vt 0.089080 0.897345
vt 0.148303 0.896068
vt 0.085651 0.895448
vt 0.152971 0.892750
vt 0.082406 0.893294
vt 0.079341 0.890880
vt 0.157071 0.888796
vt 0.076454 0.888206
vt 0.160547 0.884196
vt 0.073744 0.885271
vt 0.073715 0.856233
vt 0.076979 0.859873
vt 0.080322 0.863168
vt 0.083735 0.866125
vt 0.087210 0.868748
vt 0.090739 0.871043
vt 0.094313 0.873014
vt 0.097924 0.874667
vt 0.101564 0.876007
vt 0.105225 0.877039
vt 0.108898 0.877769
vt 0.112578 0.878167
vt 0.116250 0.878310
vt 0.163349 0.878942
vt 0.120123 0.878164
vt 0.165419 0.873021
vt 0.123658 0.877705
vt 0.126857 0.876955
vt 0.129720 0.875887
vt 0.132246 0.874490
vt 0.134435 0.872755
vt 0.166702 0.866423
vt 0.136288 0.870670
vt 0.137804 0.868226
vt 0.138983 0.865412
vt 0.167143 0.859137
vt 0.139825 0.862217
vt 0.140330 0.858631
vt 0.167149 0.789983
vt 0.140499 0.854644
vt 0.140500 0.847459
vt 0.116851 0.839075
vt 0.140501 0.832790
vt 0.111422 0.837112
vt 0.105974 0.835073
vt 0.100601 0.832895
vt 0.095397 0.830514
vt 0.134885 0.830839
vt 0.140504 0.793573
vt 0.129453 0.828860
vt 0.090454 0.827867
vt 0.124261 0.826825
vt 0.085867 0.824890
vt 0.119369 0.824706
vt 0.081729 0.821521
vt 0.114834 0.822474
vt 0.110715 0.820102
vt 0.078134 0.817695
vt 0.107070 0.817562
vt 0.075175 0.813350
vt 0.103957 0.814825
vt 0.101435 0.811864
vt 0.072946 0.808422
vt 0.099562 0.808650
vt 0.098395 0.805156
vt 0.071540 0.802847
vt 0.097993 0.801353
vt 0.071050 0.796562
vt 0.098159 0.798655
vt 0.098643 0.796110
vt 0.071321 0.792267
vt 0.099430 0.793733
vt 0.100500 0.791541
vt 0.138696 0.791908
vt 0.072118 0.788094
vt 0.136862 0.790361
vt 0.101836 0.789547
vt 0.135004 0.788937
vt 0.184826 0.789192
vt 0.186310 0.774110
vt 0.186310 0.790276
vt 0.167186 0.788778
vt 0.103420 0.787769
vt 0.183375 0.788185
vt 0.133120 0.787640
vt 0.167297 0.787706
vt 0.181964 0.787259
vt 0.073417 0.784092
vt 0.105235 0.786222
vt 0.167481 0.786760
vt 0.131212 0.786476
vt 0.180599 0.786418
vt 0.167737 0.785936
vt 0.129279 0.785451
vt 0.179289 0.785664
vt 0.107264 0.784921
vt 0.168063 0.785229
vt 0.178039 0.785000
vt 0.127320 0.784569
vt 0.168459 0.784633
vt 0.176859 0.784430
vt 0.109487 0.783882
vt 0.168924 0.784142
vt 0.125337 0.783836
vt 0.175754 0.783956
vt 0.169456 0.783753
vt 0.075198 0.780308
vt 0.174732 0.783583
vt 0.111889 0.783121
vt 0.123329 0.783256
vt 0.170054 0.783459
vt 0.173801 0.783312
vt 0.170719 0.783256
vt 0.172968 0.783147
vt 0.121295 0.782836
vt 0.171447 0.783137
vt 0.172239 0.783091
vt 0.114450 0.782653
vt 0.119237 0.782580
vt 0.117154 0.782493
vt 0.140206 0.777404
vt 0.077435 0.776790
vt 0.137275 0.775183
vt 0.140887 0.775121
vt 0.080107 0.773586
vt 0.134321 0.773161
vt 0.141735 0.773057
vt 0.183385 0.772206
vt 0.083190 0.770744
vt 0.131346 0.771337
vt 0.142755 0.771211
vt 0.180723 0.770527
vt 0.128353 0.769709
vt 0.143954 0.769576
vt 0.086663 0.768311
vt 0.178287 0.769063
vt 0.125343 0.768276
vt 0.145335 0.768149
vt 0.176042 0.767801
vt 0.090501 0.766336
vt 0.122318 0.767038
vt 0.146904 0.766926
vt 0.173951 0.766731
vt 0.119282 0.765993
vt 0.148667 0.765902
vt 0.171977 0.765840
vt 0.094682 0.764866
vt 0.116234 0.765140
vt 0.150629 0.765074
vt 0.170084 0.765118
vt 0.113178 0.764479
vt 0.168236 0.764553
vt 0.152794 0.764437
vt 0.099183 0.763949
vt 0.166396 0.764133
vt 0.110116 0.764008
vt 0.155168 0.763987
vt 0.164528 0.763847
vt 0.107050 0.763726
vt 0.157756 0.763721
vt 0.103982 0.763632
vt 0.162596 0.763684
vt 0.160563 0.763632
vt 0.184331 0.621509
vt 0.157687 0.417336
vt 0.184331 0.417336
vt 0.157687 0.504753
vt 0.120711 0.484550
vt 0.110537 0.484770
vt 0.116972 0.484396
vt 0.124434 0.485010
vt 0.104432 0.485897
vt 0.128124 0.485766
vt 0.131763 0.486813
vt 0.098701 0.487778
vt 0.135337 0.488142
vt 0.093388 0.490416
vt 0.138826 0.489747
vt 0.142217 0.491620
vt 0.088537 0.493816
vt 0.145490 0.493754
vt 0.148631 0.496141
vt 0.084191 0.497980
vt 0.151622 0.498775
vt 0.080393 0.502910
vt 0.154447 0.501648
vt 0.157088 0.504753
vt 0.124157 0.505651
vt 0.077189 0.508612
vt 0.157687 0.525110
vt 0.154609 0.521772
vt 0.151648 0.518783
vt 0.148785 0.516134
vt 0.146000 0.513812
vt 0.143274 0.511806
vt 0.140585 0.510104
vt 0.137916 0.508696
vt 0.135245 0.507569
vt 0.132554 0.506713
vt 0.129822 0.506115
vt 0.127029 0.505765
vt 0.120246 0.505961
vt 0.116595 0.506737
vt 0.113221 0.508009
vt 0.110141 0.509755
vt 0.074613 0.515083
vt 0.107368 0.511954
vt 0.104916 0.514586
vt 0.102801 0.517631
vt 0.072717 0.522333
vt 0.101037 0.521066
vt 0.099638 0.524872
vt 0.071543 0.530362
vt 0.098620 0.529028
vt 0.157687 0.621509
vt 0.097996 0.533512
vt 0.071136 0.539175
vt 0.097781 0.538305
vt 0.097695 0.621531
vt 0.071050 0.621504
vt 0.387218 0.903201
vt 0.400878 0.903283
vt 0.397092 0.903474
vt 0.404474 0.902952
vt 0.407906 0.902488
vt 0.377969 0.901777
vt 0.411199 0.901893
vt 0.414380 0.901174
vt 0.417475 0.900333
vt 0.369385 0.899242
vt 0.420511 0.899375
vt 0.423513 0.898305
vt 0.426507 0.897127
vt 0.361503 0.895638
vt 0.429520 0.895845
vt 0.432577 0.894465
vt 0.435706 0.892989
vt 0.354364 0.891003
vt 0.409505 0.877373
vt 0.412353 0.876575
vt 0.415246 0.875578
vt 0.418208 0.874366
vt 0.421260 0.872925
vt 0.424425 0.871240
vt 0.427726 0.869294
vt 0.431184 0.867073
vt 0.434823 0.864561
vt 0.348005 0.885379
vt 0.403858 0.878433
vt 0.406681 0.877987
vt 0.342466 0.878806
vt 0.398125 0.878880
vt 0.401014 0.878726
vt 0.392215 0.878688
vt 0.386626 0.877757
vt 0.381392 0.876119
vt 0.337784 0.871324
vt 0.376545 0.873804
vt 0.372120 0.870843
vt 0.368148 0.867268
vt 0.333999 0.862974
vt 0.364664 0.863110
vt 0.361701 0.858400
vt 0.331149 0.853796
vt 0.359291 0.853170
vt 0.357468 0.847450
vt 0.329273 0.843831
vt 0.356265 0.841272
vt 0.328410 0.833119
vt 0.355716 0.834668
vt 0.355877 0.827933
vt 0.328688 0.823479
vt 0.356771 0.821656
vt 0.330099 0.814346
vt 0.358371 0.815860
vt 0.360648 0.810563
vt 0.332588 0.805779
vt 0.363573 0.805787
vt 0.367119 0.801552
vt 0.336101 0.797835
vt 0.371256 0.797879
vt 0.432349 0.795208
vt 0.434888 0.770205
vt 0.435706 0.796539
vt 0.375956 0.794789
vt 0.429097 0.793999
vt 0.340584 0.790572
vt 0.425938 0.792911
vt 0.381190 0.792302
vt 0.422861 0.791946
vt 0.419854 0.791103
vt 0.416906 0.790383
vt 0.386931 0.790439
vt 0.414006 0.789787
vt 0.411142 0.789314
vt 0.393149 0.789221
vt 0.408302 0.788966
vt 0.405476 0.788741
vt 0.399817 0.788668
vt 0.402651 0.788642
vt 0.345982 0.784049
vt 0.352241 0.778323
vt 0.359307 0.773451
vt 0.367125 0.769492
vt 0.432450 0.769247
vt 0.429715 0.768333
vt 0.426721 0.767473
vt 0.375640 0.766504
vt 0.423507 0.766676
vt 0.420113 0.765951
vt 0.416577 0.765308
vt 0.412937 0.764755
vt 0.384800 0.764544
vt 0.409233 0.764301
vt 0.405504 0.763957
vt 0.401787 0.763731
vt 0.394548 0.763670
vt 0.398122 0.763632
vt 0.605863 0.419636
vt 0.595325 0.425600
vt 0.600005 0.421819
vt 0.591304 0.429624
vt 0.611629 0.418093
vt 0.587998 0.433970
vt 0.617348 0.417336
vt 0.585439 0.438657
vt 0.622989 0.417370
vt 0.583652 0.443679
vt 0.628507 0.418184
vt 0.582653 0.449026
vt 0.633858 0.419765
vt 0.582463 0.454682
vt 0.638220 0.422098
vt 0.608438 0.438815
vt 0.607505 0.439576
vt 0.605941 0.440581
vt 0.610807 0.438146
vt 0.603817 0.442526
vt 0.614093 0.437171
vt 0.602048 0.444648
vt 0.581814 0.460752
vt 0.617357 0.436639
vt 0.644164 0.424879
vt 0.600508 0.446923
vt 0.620605 0.436512
vt 0.599321 0.449363
vt 0.623811 0.436817
vt 0.598480 0.451960
vt 0.626963 0.437543
vt 0.597986 0.454703
vt 0.649776 0.428625
vt 0.582002 0.467453
vt 0.630072 0.438668
vt 0.597750 0.457576
vt 0.633103 0.440201
vt 0.597887 0.460569
vt 0.654955 0.433325
vt 0.583306 0.474821
vt 0.636066 0.442127
vt 0.598324 0.463682
vt 0.638925 0.444443
vt 0.599153 0.466873
vt 0.659546 0.438938
vt 0.641697 0.447130
vt 0.585923 0.482694
vt 0.600325 0.470160
vt 0.663773 0.445012
vt 0.589576 0.490787
vt 0.668500 0.449875
vt 0.648710 0.460039
vt 0.650512 0.467246
vt 0.673606 0.455911
vt 0.652347 0.474609
vt 0.654195 0.482161
vt 0.678971 0.463316
vt 0.655636 0.489865
vt 0.684061 0.471842
vt 0.656523 0.497713
vt 0.588086 0.594630
vt 0.612714 0.619215
vt 0.581814 0.597193
vt 0.656933 0.505653
vt 0.594134 0.591922
vt 0.599954 0.589059
vt 0.688692 0.481709
vt 0.656520 0.513720
vt 0.605542 0.586031
vt 0.610894 0.582826
vt 0.655383 0.521834
vt 0.616006 0.579436
vt 0.653404 0.529966
vt 0.620874 0.575850
vt 0.692531 0.493008
vt 0.625494 0.572057
vt 0.650381 0.538159
vt 0.629863 0.568047
vt 0.646403 0.546375
vt 0.633976 0.563809
vt 0.637829 0.559334
vt 0.641419 0.554611
vt 0.695076 0.505666
vt 0.619250 0.616959
vt 0.695822 0.518626
vt 0.625500 0.614519
vt 0.631492 0.611872
vt 0.694661 0.531791
vt 0.637256 0.608960
vt 0.642823 0.605765
vt 0.691474 0.545060
vt 0.648219 0.602223
vt 0.653477 0.598322
vt 0.686149 0.558349
vt 0.658618 0.593984
vt 0.663684 0.589215
vt 0.668708 0.583979
vt 0.678683 0.571791
vt 0.673687 0.578157
vt 0.071050 0.071051
vt 0.098594 0.275235
vt 0.071050 0.275235
vt 0.100391 0.230027
vt 0.100990 0.230027
vt 0.166257 0.191406
vt 0.261463 0.275235
vt 0.234218 0.275235
vt 0.231524 0.230027
vt 0.232123 0.230027
vt 0.261463 0.071050
vt 0.100391 0.071051
vt 0.163862 0.150988
vt 0.168652 0.150988
vt 0.232123 0.071050
vt 0.685779 0.194872
vt 0.713665 0.146751
vt 0.738795 0.190561
vt 0.714785 0.071050
vt 0.754187 0.150424
vt 0.754187 0.243929
vt 0.693917 0.246581
s 1
usemtl マテリアル.002
f 3/1/1 1/2/1 2/3/1
f 3/1/1 57/4/1 1/2/1
f 45/5/1 43/6/1 44/7/1
f 46/8/1 43/6/1 45/5/1
f 46/8/1 42/9/1 43/6/1
f 47/10/1 42/9/1 46/8/1
f 48/11/1 42/9/1 47/10/1
f 48/11/1 41/12/1 42/9/1
f 49/13/1 41/12/1 48/11/1
f 49/13/1 40/14/1 41/12/1
f 50/15/1 40/14/1 49/13/1
f 51/16/1 40/14/1 50/15/1
f 51/16/1 39/17/1 40/14/1
f 52/18/1 39/17/1 51/16/1
f 53/19/1 39/17/1 52/18/1
f 53/19/1 38/20/1 39/17/1
f 54/21/1 38/20/1 53/19/1
f 54/21/1 37/22/1 38/20/1
f 55/23/1 37/22/1 54/21/1
f 56/24/1 37/22/1 55/23/1
f 56/24/1 17/25/1 37/22/1
f 17/25/1 36/26/1 37/22/1
f 3/1/1 56/24/1 57/4/1
f 3/1/1 5/27/1 56/24/1
f 5/27/1 6/28/1 56/24/1
f 6/28/1 7/29/1 56/24/1
f 7/29/1 8/30/1 56/24/1
f 8/30/1 9/31/1 56/24/1
f 9/31/1 10/32/1 56/24/1
f 10/32/1 11/33/1 56/24/1
f 11/33/1 12/34/1 56/24/1
f 12/34/1 13/35/1 56/24/1
f 13/35/1 14/36/1 56/24/1
f 14/36/1 15/37/1 56/24/1
f 15/37/1 16/38/1 56/24/1
f 16/38/1 17/25/1 56/24/1
f 18/39/1 36/26/1 17/25/1
f 19/40/1 36/26/1 18/39/1
f 20/41/1 36/26/1 19/40/1
f 21/42/1 36/26/1 20/41/1
f 21/42/1 35/43/1 36/26/1
f 22/44/1 35/43/1 21/42/1
f 23/45/1 35/43/1 22/44/1
f 24/46/1 35/43/1 23/45/1
f 24/46/1 34/47/1 35/43/1
f 25/48/1 34/47/1 24/46/1
f 26/49/1 34/47/1 25/48/1
f 26/49/1 33/50/1 34/47/1
f 27/51/1 33/50/1 26/49/1
f 3/1/1 4/52/1 5/27/1
f 28/53/1 33/50/1 27/51/1
f 28/53/1 32/54/1 33/50/1
f 29/55/1 32/54/1 28/53/1
f 30/56/1 32/54/1 29/55/1
f 30/56/1 31/57/1 32/54/1
f 71/58/1 69/59/1 70/60/1
f 71/58/1 68/61/1 69/59/1
f 72/62/1 68/61/1 71/58/1
f 72/62/1 67/63/1 68/61/1
f 72/62/1 66/64/1 67/63/1
f 73/65/1 66/64/1 72/62/1
f 73/65/1 65/66/1 66/64/1
f 73/65/1 64/67/1 65/66/1
f 74/68/1 64/67/1 73/65/1
f 74/68/1 63/69/1 64/67/1
f 74/68/1 62/70/1 63/69/1
f 75/71/1 62/70/1 74/68/1
f 75/71/1 61/72/1 62/70/1
f 75/71/1 60/73/1 61/72/1
f 76/74/1 60/73/1 75/71/1
f 76/74/1 59/75/1 60/73/1
f 76/74/1 58/76/1 59/75/1
f 77/77/1 58/76/1 76/74/1
f 77/77/1 183/78/1 58/76/1
f 183/78/1 184/79/1 58/76/1
f 184/79/1 185/80/1 58/76/1
f 185/80/1 186/81/1 58/76/1
f 186/81/1 187/82/1 58/76/1
f 187/82/1 188/83/1 58/76/1
f 188/83/1 189/84/1 58/76/1
f 189/84/1 190/85/1 58/76/1
f 190/85/1 191/86/1 58/76/1
f 78/87/1 181/88/1 77/77/1
f 181/88/1 182/89/1 77/77/1
f 182/89/1 183/78/1 77/77/1
f 79/90/1 180/91/1 78/87/1
f 180/91/1 181/88/1 78/87/1
f 80/92/1 178/93/1 79/90/1
f 178/93/1 179/94/1 79/90/1
f 179/94/1 180/91/1 79/90/1
f 80/92/1 177/95/1 178/93/1
f 80/92/1 176/96/1 177/95/1
f 80/92/1 175/97/1 176/96/1
f 80/92/1 174/98/1 175/97/1
f 80/92/1 173/99/1 174/98/1
f 81/100/1 173/99/1 80/92/1
f 81/100/1 172/101/1 173/99/1
f 81/100/1 171/102/1 172/101/1
f 81/100/1 170/103/1 171/102/1
f 81/100/1 169/104/1 170/103/1
f 82/105/1 169/104/1 81/100/1
f 82/105/1 168/106/1 169/104/1
f 82/105/1 167/107/1 168/106/1
f 82/105/1 166/108/1 167/107/1
f 83/109/1 166/108/1 82/105/1
f 83/109/1 165/110/1 166/108/1
f 83/109/1 164/111/1 165/110/1
f 83/109/1 163/112/1 164/111/1
f 83/109/1 162/113/1 163/112/1
f 83/109/1 161/114/1 162/113/1
f 84/115/1 161/114/1 83/109/1
f 84/115/1 160/116/1 161/114/1
f 84/115/1 159/117/1 160/116/1
f 84/115/1 158/118/1 159/117/1
f 85/119/1 158/118/1 84/115/1
f 85/119/1 157/120/1 158/118/1
f 85/119/1 156/121/1 157/120/1
f 85/119/1 155/122/1 156/121/1
f 86/123/1 155/122/1 85/119/1
f 86/123/1 154/124/1 155/122/1
f 87/125/1 154/124/1 86/123/1
f 87/125/1 153/126/1 154/124/1
f 87/125/1 152/127/1 153/126/1
f 88/128/1 152/127/1 87/125/1
f 88/128/1 151/129/1 152/127/1
f 89/130/1 151/129/1 88/128/1
f 89/130/1 150/131/1 151/129/1
f 89/130/1 149/132/1 150/131/1
f 90/133/1 149/132/1 89/130/1
f 90/133/1 148/134/1 149/132/1
f 91/135/1 148/134/1 90/133/1
f 91/135/1 147/136/1 148/134/1
f 91/135/1 146/137/1 147/136/1
f 92/138/1 146/137/1 91/135/1
f 92/138/1 145/139/1 146/137/1
f 93/140/1 145/139/1 92/138/1
f 93/140/1 144/141/1 145/139/1
f 94/142/1 144/141/1 93/140/1
f 94/142/1 143/143/1 144/141/1
f 119/144/1 117/145/1 118/146/1
f 94/142/1 142/147/1 143/143/1
f 95/148/1 142/147/1 94/142/1
f 119/144/1 116/149/1 117/145/1
f 96/150/1 142/147/1 95/148/1
f 119/144/1 115/151/1 116/149/1
f 97/152/1 142/147/1 96/150/1
f 97/152/1 141/153/1 142/147/1
f 119/144/1 114/154/1 115/151/1
f 98/155/1 141/153/1 97/152/1
f 119/144/1 113/156/1 114/154/1
f 99/157/1 141/153/1 98/155/1
f 119/144/1 112/158/1 113/156/1
f 100/159/1 141/153/1 99/157/1
f 100/159/1 140/160/1 141/153/1
f 119/144/1 111/161/1 112/158/1
f 101/162/1 140/160/1 100/159/1
f 102/163/1 140/160/1 101/162/1
f 119/144/1 110/164/1 111/161/1
f 103/165/1 140/160/1 102/163/1
f 119/144/1 109/166/1 110/164/1
f 104/167/1 140/160/1 103/165/1
f 119/144/1 108/168/1 109/166/1
f 105/169/1 140/160/1 104/167/1
f 119/144/1 107/170/1 108/168/1
f 106/171/1 140/160/1 105/169/1
f 119/144/1 106/171/1 107/170/1
f 106/171/1 139/172/1 140/160/1
f 119/144/1 139/172/1 106/171/1
f 119/144/1 138/173/1 139/172/1
f 119/144/1 137/174/1 138/173/1
f 120/175/1 137/174/1 119/144/1
f 120/175/1 136/176/1 137/174/1
f 121/177/1 136/176/1 120/175/1
f 122/178/1 136/176/1 121/177/1
f 122/178/1 135/179/1 136/176/1
f 123/180/1 135/179/1 122/178/1
f 124/181/1 135/179/1 123/180/1
f 124/181/1 134/182/1 135/179/1
f 125/183/1 134/182/1 124/181/1
f 125/183/1 133/184/1 134/182/1
f 126/185/1 133/184/1 125/183/1
f 127/186/1 133/184/1 126/185/1
f 127/186/1 132/187/1 133/184/1
f 128/188/1 132/187/1 127/186/1
f 129/189/1 132/187/1 128/188/1
f 129/189/1 131/190/1 132/187/1
f 130/191/1 131/190/1 129/189/1
f 230/192/1 228/193/1 229/194/1
f 231/195/1 228/193/1 230/192/1
f 231/195/1 227/196/1 228/193/1
f 232/197/1 227/196/1 231/195/1
f 233/198/1 227/196/1 232/197/1
f 233/198/1 226/199/1 227/196/1
f 234/200/1 226/199/1 233/198/1
f 234/200/1 225/201/1 226/199/1
f 235/202/1 225/201/1 234/200/1
f 236/203/1 225/201/1 235/202/1
f 236/203/1 224/204/1 225/201/1
f 237/205/1 224/204/1 236/203/1
f 237/205/1 223/206/1 224/204/1
f 238/207/1 223/206/1 237/205/1
f 239/208/1 223/206/1 238/207/1
f 239/208/1 222/209/1 223/206/1
f 240/210/1 222/209/1 239/208/1
f 240/210/1 221/211/1 222/209/1
f 241/212/1 221/211/1 240/210/1
f 242/213/1 243/214/1 241/212/1
f 243/214/1 244/215/1 241/212/1
f 244/215/1 245/216/1 241/212/1
f 245/216/1 246/217/1 241/212/1
f 246/217/1 247/218/1 241/212/1
f 247/218/1 248/219/1 241/212/1
f 248/219/1 249/220/1 241/212/1
f 249/220/1 250/221/1 241/212/1
f 250/221/1 251/222/1 241/212/1
f 251/222/1 252/223/1 241/212/1
f 252/223/1 221/211/1 241/212/1
f 252/223/1 253/224/1 221/211/1
f 253/224/1 254/225/1 221/211/1
f 254/225/1 220/226/1 221/211/1
f 254/225/1 255/227/1 220/226/1
f 255/227/1 219/228/1 220/226/1
f 256/229/1 219/228/1 255/227/1
f 257/230/1 219/228/1 256/229/1
f 258/231/1 219/228/1 257/230/1
f 259/232/1 219/228/1 258/231/1
f 260/233/1 219/228/1 259/232/1
f 260/233/1 218/234/1 219/228/1
f 261/235/1 218/234/1 260/233/1
f 262/236/1 218/234/1 261/235/1
f 263/237/1 218/234/1 262/236/1
f 263/237/1 217/238/1 218/234/1
f 264/239/1 217/238/1 263/237/1
f 265/240/1 217/238/1 264/239/1
f 265/240/1 216/241/1 217/238/1
f 266/242/1 216/241/1 265/240/1
f 267/243/1 216/241/1 266/242/1
f 268/244/1 365/245/1 267/243/1
f 365/245/1 216/241/1 267/243/1
f 269/246/1 365/245/1 268/244/1
f 270/247/1 365/245/1 269/246/1
f 271/248/1 365/245/1 270/247/1
f 272/249/1 365/245/1 271/248/1
f 272/249/1 364/250/1 365/245/1
f 329/251/1 216/241/1 365/245/1
f 272/249/1 363/252/1 364/250/1
f 273/253/1 363/252/1 272/249/1
f 273/253/1 362/254/1 363/252/1
f 274/255/1 362/254/1 273/253/1
f 274/255/1 361/256/1 362/254/1
f 275/257/1 361/256/1 274/255/1
f 275/257/1 360/258/1 361/256/1
f 275/257/1 359/259/1 360/258/1
f 276/260/1 359/259/1 275/257/1
f 276/260/1 358/261/1 359/259/1
f 277/262/1 358/261/1 276/260/1
f 277/262/1 357/263/1 358/261/1
f 277/262/1 356/264/1 357/263/1
f 278/265/1 356/264/1 277/262/1
f 278/265/1 355/266/1 356/264/1
f 278/265/1 354/267/1 355/266/1
f 279/268/1 354/267/1 278/265/1
f 279/268/1 353/269/1 354/267/1
f 280/270/1 353/269/1 279/268/1
f 280/270/1 352/271/1 353/269/1
f 280/270/1 351/272/1 352/271/1
f 281/273/1 351/272/1 280/270/1
f 281/273/1 350/274/1 351/272/1
f 281/273/1 349/275/1 350/274/1
f 330/276/1 216/241/1 329/251/1
f 282/277/1 349/275/1 281/273/1
f 331/278/1 216/241/1 330/276/1
f 282/277/1 348/279/1 349/275/1
f 332/280/1 216/241/1 331/278/1
f 193/281/1 328/282/1 192/283/1
f 332/280/1 215/284/1 216/241/1
f 282/277/1 347/285/1 348/279/1
f 194/286/1 328/282/1 193/281/1
f 333/287/1 215/284/1 332/280/1
f 333/287/1 214/288/1 215/284/1
f 195/289/1 328/282/1 194/286/1
f 283/290/1 347/285/1 282/277/1
f 283/290/1 346/291/1 347/285/1
f 333/287/1 213/292/1 214/288/1
f 334/293/1 213/292/1 333/287/1
f 196/294/1 328/282/1 195/289/1
f 334/293/1 212/295/1 213/292/1
f 335/296/1 212/295/1 334/293/1
f 197/297/1 328/282/1 196/294/1
f 283/290/1 345/298/1 346/291/1
f 335/296/1 211/299/1 212/295/1
f 198/300/1 328/282/1 197/297/1
f 336/301/1 211/299/1 335/296/1
f 336/301/1 210/302/1 211/299/1
f 199/303/1 328/282/1 198/300/1
f 283/290/1 344/304/1 345/298/1
f 336/301/1 209/305/1 210/302/1
f 337/306/1 209/305/1 336/301/1
f 200/307/1 328/282/1 199/303/1
f 337/306/1 208/308/1 209/305/1
f 284/309/1 344/304/1 283/290/1
f 201/310/1 328/282/1 200/307/1
f 284/309/1 343/311/1 344/304/1
f 338/312/1 208/308/1 337/306/1
f 338/312/1 207/313/1 208/308/1
f 202/314/1 328/282/1 201/310/1
f 338/312/1 206/315/1 207/313/1
f 203/316/1 328/282/1 202/314/1
f 339/317/1 206/315/1 338/312/1
f 339/317/1 205/318/1 206/315/1
f 204/319/1 328/282/1 203/316/1
f 339/317/1 204/319/1 205/318/1
f 284/309/1 342/320/1 343/311/1
f 339/317/1 328/282/1 204/319/1
f 340/321/1 328/282/1 339/317/1
f 284/309/1 341/322/1 342/320/1
f 341/322/1 328/282/1 340/321/1
f 284/309/1 304/323/1 341/322/1
f 304/323/1 328/282/1 341/322/1
f 285/324/1 304/323/1 284/309/1
f 285/324/1 303/325/1 304/323/1
f 305/326/1 328/282/1 304/323/1
f 286/327/1 303/325/1 285/324/1
f 286/327/1 302/328/1 303/325/1
f 306/329/1 328/282/1 305/326/1
f 306/329/1 327/330/1 328/282/1
f 287/331/1 302/328/1 286/327/1
f 287/331/1 301/332/1 302/328/1
f 307/333/1 327/330/1 306/329/1
f 307/333/1 326/334/1 327/330/1
f 287/331/1 300/335/1 301/332/1
f 308/336/1 326/334/1 307/333/1
f 288/337/1 300/335/1 287/331/1
f 308/336/1 325/338/1 326/334/1
f 288/337/1 299/339/1 300/335/1
f 309/340/1 325/338/1 308/336/1
f 309/340/1 324/341/1 325/338/1
f 289/342/1 299/339/1 288/337/1
f 289/342/1 298/343/1 299/339/1
f 310/344/1 324/341/1 309/340/1
f 310/344/1 323/345/1 324/341/1
f 289/342/1 297/346/1 298/343/1
f 311/347/1 323/345/1 310/344/1
f 311/347/1 322/348/1 323/345/1
f 290/349/1 297/346/1 289/342/1
f 290/349/1 296/350/1 297/346/1
f 312/351/1 322/348/1 311/347/1
f 312/351/1 321/352/1 322/348/1
f 290/349/1 295/353/1 296/350/1
f 312/351/1 320/354/1 321/352/1
f 313/355/1 320/354/1 312/351/1
f 291/356/1 295/353/1 290/349/1
f 313/355/1 319/357/1 320/354/1
f 291/356/1 294/358/1 295/353/1
f 314/359/1 319/357/1 313/355/1
f 314/359/1 318/360/1 319/357/1
f 291/356/1 293/361/1 294/358/1
f 315/362/1 318/360/1 314/359/1
f 292/363/1 293/361/1 291/356/1
f 315/362/1 317/364/1 318/360/1
f 316/365/1 317/364/1 315/362/1
f 366/366/1 418/367/1 417/368/1
f 418/367/1 416/369/1 417/368/1
f 418/367/1 415/370/1 416/369/1
f 418/367/1 414/371/1 415/370/1
f 418/367/1 413/372/1 414/371/1
f 418/367/1 412/373/1 413/372/1
f 418/367/1 411/374/1 412/373/1
f 418/367/1 410/375/1 411/374/1
f 418/367/1 409/376/1 410/375/1
f 418/367/1 419/377/1 409/376/1
f 419/377/1 408/378/1 409/376/1
f 366/366/1 444/379/1 418/367/1
f 420/380/1 408/378/1 419/377/1
f 421/381/1 408/378/1 420/380/1
f 421/381/1 407/382/1 408/378/1
f 422/383/1 407/382/1 421/381/1
f 423/384/1 407/382/1 422/383/1
f 424/385/1 407/382/1 423/384/1
f 425/386/1 407/382/1 424/385/1
f 425/386/1 406/387/1 407/382/1
f 426/388/1 406/387/1 425/386/1
f 427/389/1 406/387/1 426/388/1
f 427/389/1 405/390/1 406/387/1
f 428/391/1 405/390/1 427/389/1
f 429/392/1 405/390/1 428/391/1
f 429/392/1 404/393/1 405/390/1
f 430/394/1 404/393/1 429/392/1
f 431/395/1 404/393/1 430/394/1
f 431/395/1 403/396/1 404/393/1
f 432/397/1 403/396/1 431/395/1
f 432/397/1 402/398/1 403/396/1
f 433/399/1 402/398/1 432/397/1
f 433/399/1 401/400/1 402/398/1
f 434/401/1 401/400/1 433/399/1
f 434/401/1 400/402/1 401/400/1
f 435/403/1 400/402/1 434/401/1
f 435/403/1 399/404/1 400/402/1
f 436/405/1 399/404/1 435/403/1
f 436/405/1 398/406/1 399/404/1
f 437/407/1 398/406/1 436/405/1
f 437/407/1 397/408/1 398/406/1
f 438/409/1 397/408/1 437/407/1
f 439/410/1 397/408/1 438/409/1
f 439/410/1 396/411/1 397/408/1
f 440/412/1 396/411/1 439/410/1
f 440/412/1 395/413/1 396/411/1
f 441/414/1 395/413/1 440/412/1
f 442/415/1 395/413/1 441/414/1
f 443/416/1 395/413/1 442/415/1
f 366/366/1 445/417/1 444/379/1
f 445/417/1 443/416/1 444/379/1
f 445/417/1 395/413/1 443/416/1
f 445/417/1 394/418/1 395/413/1
f 445/417/1 393/419/1 394/418/1
f 445/417/1 392/420/1 393/419/1
f 445/417/1 391/421/1 392/420/1
f 445/417/1 390/422/1 391/421/1
f 445/417/1 389/423/1 390/422/1
f 445/417/1 388/424/1 389/423/1
f 445/417/1 387/425/1 388/424/1
f 445/417/1 386/426/1 387/425/1
f 445/417/1 446/427/1 386/426/1
f 446/427/1 385/428/1 386/426/1
f 366/366/1 471/429/1 445/417/1
f 447/430/1 385/428/1 446/427/1
f 448/431/1 385/428/1 447/430/1
f 449/432/1 385/428/1 448/431/1
f 449/432/1 384/433/1 385/428/1
f 450/434/1 384/433/1 449/432/1
f 451/435/1 384/433/1 450/434/1
f 451/435/1 383/436/1 384/433/1
f 452/437/1 383/436/1 451/435/1
f 453/438/1 383/436/1 452/437/1
f 453/438/1 382/439/1 383/436/1
f 454/440/1 382/439/1 453/438/1
f 455/441/1 382/439/1 454/440/1
f 455/441/1 381/442/1 382/439/1
f 456/443/1 381/442/1 455/441/1
f 456/443/1 380/444/1 381/442/1
f 457/445/1 380/444/1 456/443/1
f 458/446/1 380/444/1 457/445/1
f 458/446/1 379/447/1 380/444/1
f 459/448/1 379/447/1 458/446/1
f 460/449/1 379/447/1 459/448/1
f 460/449/1 378/450/1 379/447/1
f 461/451/1 378/450/1 460/449/1
f 461/451/1 377/452/1 378/450/1
f 462/453/1 377/452/1 461/451/1
f 463/454/1 377/452/1 462/453/1
f 463/454/1 376/455/1 377/452/1
f 464/456/1 376/455/1 463/454/1
f 465/457/1 376/455/1 464/456/1
f 465/457/1 375/458/1 376/455/1
f 466/459/1 375/458/1 465/457/1
f 467/460/1 375/458/1 466/459/1
f 468/461/1 375/458/1 467/460/1
f 468/461/1 374/462/1 375/458/1
f 469/463/1 374/462/1 468/461/1
f 470/464/1 374/462/1 469/463/1
f 366/366/1 470/464/1 471/429/1
f 366/366/1 374/462/1 470/464/1
f 366/366/1 373/465/1 374/462/1
f 366/366/1 372/466/1 373/465/1
f 366/366/1 371/467/1 372/466/1
f 366/366/1 370/468/1 371/467/1
f 366/366/1 369/469/1 370/468/1
f 366/366/1 368/470/1 369/469/1
f 366/366/1 367/471/1 368/470/1
f 510/472/1 508/473/1 509/474/1
f 511/475/1 508/473/1 510/472/1
f 511/475/1 507/476/1 508/473/1
f 512/477/1 507/476/1 511/475/1
f 513/478/1 507/476/1 512/477/1
f 513/478/1 506/479/1 507/476/1
f 514/480/1 506/479/1 513/478/1
f 514/480/1 505/481/1 506/479/1
f 515/482/1 505/481/1 514/480/1
f 516/483/1 505/481/1 515/482/1
f 516/483/1 504/484/1 505/481/1
f 517/485/1 504/484/1 516/483/1
f 517/485/1 503/486/1 504/484/1
f 518/487/1 503/486/1 517/485/1
f 519/488/1 503/486/1 518/487/1
f 519/488/1 502/489/1 503/486/1
f 520/490/1 502/489/1 519/488/1
f 520/490/1 501/491/1 502/489/1
f 521/492/1 501/491/1 520/490/1
f 522/493/1 523/494/1 521/492/1
f 523/494/1 524/495/1 521/492/1
f 524/495/1 525/496/1 521/492/1
f 525/496/1 526/497/1 521/492/1
f 526/497/1 527/498/1 521/492/1
f 527/498/1 528/499/1 521/492/1
f 528/499/1 529/500/1 521/492/1
f 529/500/1 530/501/1 521/492/1
f 530/501/1 531/502/1 521/492/1
f 531/502/1 532/503/1 521/492/1
f 532/503/1 501/491/1 521/492/1
f 532/503/1 533/504/1 501/491/1
f 533/504/1 534/505/1 501/491/1
f 534/505/1 500/506/1 501/491/1
f 534/505/1 535/507/1 500/506/1
f 535/507/1 499/508/1 500/506/1
f 536/509/1 499/508/1 535/507/1
f 537/510/1 499/508/1 536/509/1
f 538/511/1 499/508/1 537/510/1
f 539/512/1 499/508/1 538/511/1
f 540/513/1 499/508/1 539/512/1
f 540/513/1 498/514/1 499/508/1
f 541/515/1 498/514/1 540/513/1
f 542/516/1 498/514/1 541/515/1
f 543/517/1 498/514/1 542/516/1
f 543/517/1 497/518/1 498/514/1
f 544/519/1 497/518/1 543/517/1
f 545/520/1 497/518/1 544/519/1
f 545/520/1 496/521/1 497/518/1
f 546/522/1 496/521/1 545/520/1
f 547/523/1 496/521/1 546/522/1
f 548/524/1 645/525/1 547/523/1
f 645/525/1 496/521/1 547/523/1
f 549/526/1 645/525/1 548/524/1
f 550/527/1 645/525/1 549/526/1
f 551/528/1 645/525/1 550/527/1
f 552/529/1 645/525/1 551/528/1
f 552/529/1 644/530/1 645/525/1
f 609/531/1 496/521/1 645/525/1
f 552/529/1 643/532/1 644/530/1
f 553/533/1 643/532/1 552/529/1
f 553/533/1 642/534/1 643/532/1
f 554/535/1 642/534/1 553/533/1
f 554/535/1 641/536/1 642/534/1
f 555/537/1 641/536/1 554/535/1
f 555/537/1 640/538/1 641/536/1
f 555/537/1 639/539/1 640/538/1
f 556/540/1 639/539/1 555/537/1
f 556/540/1 638/541/1 639/539/1
f 557/542/1 638/541/1 556/540/1
f 557/542/1 637/543/1 638/541/1
f 557/542/1 636/544/1 637/543/1
f 558/545/1 636/544/1 557/542/1
f 558/545/1 635/546/1 636/544/1
f 558/545/1 634/547/1 635/546/1
f 559/548/1 634/547/1 558/545/1
f 559/548/1 633/549/1 634/547/1
f 560/550/1 633/549/1 559/548/1
f 560/550/1 632/551/1 633/549/1
f 560/550/1 631/552/1 632/551/1
f 561/553/1 631/552/1 560/550/1
f 561/553/1 630/554/1 631/552/1
f 561/553/1 629/555/1 630/554/1
f 610/556/1 496/521/1 609/531/1
f 562/557/1 629/555/1 561/553/1
f 611/558/1 496/521/1 610/556/1
f 562/557/1 628/559/1 629/555/1
f 612/560/1 496/521/1 611/558/1
f 473/561/1 608/562/1 472/563/1
f 612/560/1 495/564/1 496/521/1
f 562/557/1 627/565/1 628/559/1
f 474/566/1 608/562/1 473/561/1
f 613/567/1 495/564/1 612/560/1
f 613/567/1 494/568/1 495/564/1
f 475/569/1 608/562/1 474/566/1
f 563/570/1 627/565/1 562/557/1
f 563/570/1 626/571/1 627/565/1
f 613/567/1 493/572/1 494/568/1
f 614/573/1 493/572/1 613/567/1
f 476/574/1 608/562/1 475/569/1
f 614/573/1 492/575/1 493/572/1
f 615/576/1 492/575/1 614/573/1
f 477/577/1 608/562/1 476/574/1
f 563/570/1 625/578/1 626/571/1
f 615/576/1 491/579/1 492/575/1
f 478/580/1 608/562/1 477/577/1
f 616/581/1 491/579/1 615/576/1
f 616/581/1 490/582/1 491/579/1
f 479/583/1 608/562/1 478/580/1
f 563/570/1 624/584/1 625/578/1
f 616/581/1 489/585/1 490/582/1
f 617/586/1 489/585/1 616/581/1
f 480/587/1 608/562/1 479/583/1
f 617/586/1 488/588/1 489/585/1
f 564/589/1 624/584/1 563/570/1
f 481/590/1 608/562/1 480/587/1
f 564/589/1 623/591/1 624/584/1
f 618/592/1 488/588/1 617/586/1
f 618/592/1 487/593/1 488/588/1
f 482/594/1 608/562/1 481/590/1
f 618/592/1 486/595/1 487/593/1
f 483/596/1 608/562/1 482/594/1
f 619/597/1 486/595/1 618/592/1
f 619/597/1 485/598/1 486/595/1
f 484/599/1 608/562/1 483/596/1
f 619/597/1 484/599/1 485/598/1
f 564/589/1 622/600/1 623/591/1
f 619/597/1 608/562/1 484/599/1
f 620/601/1 608/562/1 619/597/1
f 564/589/1 621/602/1 622/600/1
f 621/602/1 608/562/1 620/601/1
f 564/589/1 584/603/1 621/602/1
f 584/603/1 608/562/1 621/602/1
f 565/604/1 584/603/1 564/589/1
f 565/604/1 583/605/1 584/603/1
f 585/606/1 608/562/1 584/603/1
f 566/607/1 583/605/1 565/604/1
f 566/607/1 582/608/1 583/605/1
f 586/609/1 608/562/1 585/606/1
f 586/609/1 607/610/1 608/562/1
f 567/611/1 582/608/1 566/607/1
f 567/611/1 581/612/1 582/608/1
f 587/613/1 607/610/1 586/609/1
f 587/613/1 606/614/1 607/610/1
f 567/611/1 580/615/1 581/612/1
f 588/616/1 606/614/1 587/613/1
f 568/617/1 580/615/1 567/611/1
f 588/616/1 605/618/1 606/614/1
f 568/617/1 579/619/1 580/615/1
f 589/620/1 605/618/1 588/616/1
f 589/620/1 604/621/1 605/618/1
f 569/622/1 579/619/1 568/617/1
f 569/622/1 578/623/1 579/619/1
f 590/624/1 604/621/1 589/620/1
f 590/624/1 603/625/1 604/621/1
f 569/622/1 577/626/1 578/623/1
f 591/627/1 603/625/1 590/624/1
f 591/627/1 602/628/1 603/625/1
f 570/629/1 577/626/1 569/622/1
f 570/629/1 576/630/1 577/626/1
f 592/631/1 602/628/1 591/627/1
f 592/631/1 601/632/1 602/628/1
f 570/629/1 575/633/1 576/630/1
f 592/631/1 600/634/1 601/632/1
f 593/635/1 600/634/1 592/631/1
f 571/636/1 575/633/1 570/629/1
f 593/635/1 599/637/1 600/634/1
f 571/636/1 574/638/1 575/633/1
f 594/639/1 599/637/1 593/635/1
f 594/639/1 598/640/1 599/637/1
f 571/636/1 573/641/1 574/638/1
f 595/642/1 598/640/1 594/639/1
f 572/643/1 573/641/1 571/636/1
f 595/642/1 597/644/1 598/640/1
f 596/645/1 597/644/1 595/642/1
f 648/646/1 646/647/1 647/648/1
f 648/646/1 702/649/1 646/647/1
f 690/650/1 688/651/1 689/652/1
f 691/653/1 688/651/1 690/650/1
f 691/653/1 687/654/1 688/651/1
f 692/655/1 687/654/1 691/653/1
f 693/656/1 687/654/1 692/655/1
f 693/656/1 686/657/1 687/654/1
f 694/658/1 686/657/1 693/656/1
f 694/658/1 685/659/1 686/657/1
f 695/660/1 685/659/1 694/658/1
f 696/661/1 685/659/1 695/660/1
f 696/661/1 684/662/1 685/659/1
f 697/663/1 684/662/1 696/661/1
f 698/664/1 684/662/1 697/663/1
f 698/664/1 683/665/1 684/662/1
f 699/666/1 683/665/1 698/664/1
f 699/666/1 682/667/1 683/665/1
f 700/668/1 682/667/1 699/666/1
f 701/669/1 682/667/1 700/668/1
f 701/669/1 662/670/1 682/667/1
f 662/670/1 681/671/1 682/667/1
f 648/646/1 701/669/1 702/649/1
f 648/646/1 650/672/1 701/669/1
f 650/672/1 651/673/1 701/669/1
f 651/673/1 652/674/1 701/669/1
f 652/674/1 653/675/1 701/669/1
f 653/675/1 654/676/1 701/669/1
f 654/676/1 655/677/1 701/669/1
f 655/677/1 656/678/1 701/669/1
f 656/678/1 657/679/1 701/669/1
f 657/679/1 658/680/1 701/669/1
f 658/680/1 659/681/1 701/669/1
f 659/681/1 660/682/1 701/669/1
f 660/682/1 661/683/1 701/669/1
f 661/683/1 662/670/1 701/669/1
f 663/684/1 681/671/1 662/670/1
f 664/685/1 681/671/1 663/684/1
f 665/686/1 681/671/1 664/685/1
f 666/687/1 681/671/1 665/686/1
f 666/687/1 680/688/1 681/671/1
f 667/689/1 680/688/1 666/687/1
f 668/690/1 680/688/1 667/689/1
f 669/691/1 680/688/1 668/690/1
f 669/691/1 679/692/1 680/688/1
f 670/693/1 679/692/1 669/691/1
f 671/694/1 679/692/1 670/693/1
f 671/694/1 678/695/1 679/692/1
f 672/696/1 678/695/1 671/694/1
f 648/646/1 649/697/1 650/672/1
f 673/698/1 678/695/1 672/696/1
f 673/698/1 677/699/1 678/695/1
f 674/700/1 677/699/1 673/698/1
f 675/701/1 677/699/1 674/700/1
f 675/701/1 676/702/1 677/699/1
f 716/703/1 714/704/1 715/705/1
f 716/703/1 713/706/1 714/704/1
f 716/703/1 712/707/1 713/706/1
f 717/708/1 712/707/1 716/703/1
f 717/708/1 711/709/1 712/707/1
f 717/708/1 710/710/1 711/709/1
f 717/708/1 709/711/1 710/710/1
f 718/712/1 709/711/1 717/708/1
f 718/712/1 708/713/1 709/711/1
f 718/712/1 707/714/1 708/713/1
f 718/712/1 706/715/1 707/714/1
f 719/716/1 706/715/1 718/712/1
f 719/716/1 705/717/1 706/715/1
f 719/716/1 704/718/1 705/717/1
f 719/716/1 703/719/1 704/718/1
f 720/720/1 703/719/1 719/716/1
f 720/720/1 792/721/1 703/719/1
f 792/721/1 793/722/1 703/719/1
f 793/722/1 794/723/1 703/719/1
f 794/723/1 795/724/1 703/719/1
f 795/724/1 796/725/1 703/719/1
f 796/725/1 797/726/1 703/719/1
f 797/726/1 798/727/1 703/719/1
f 798/727/1 799/728/1 703/719/1
f 799/728/1 800/729/1 703/719/1
f 721/730/1 790/731/1 720/720/1
f 790/731/1 791/732/1 720/720/1
f 791/732/1 792/721/1 720/720/1
f 722/733/1 788/734/1 721/730/1
f 788/734/1 789/735/1 721/730/1
f 789/735/1 790/731/1 721/730/1
f 722/733/1 787/736/1 788/734/1
f 722/733/1 786/737/1 787/736/1
f 722/733/1 785/738/1 786/737/1
f 723/739/1 785/738/1 722/733/1
f 723/739/1 784/740/1 785/738/1
f 723/739/1 783/741/1 784/740/1
f 723/739/1 782/742/1 783/741/1
f 724/743/1 782/742/1 723/739/1
f 724/743/1 781/744/1 782/742/1
f 724/743/1 780/745/1 781/744/1
f 725/746/1 780/745/1 724/743/1
f 725/746/1 779/747/1 780/745/1
f 725/746/1 778/748/1 779/747/1
f 726/749/1 778/748/1 725/746/1
f 726/749/1 777/750/1 778/748/1
f 727/751/1 777/750/1 726/749/1
f 727/751/1 776/752/1 777/750/1
f 727/751/1 775/753/1 776/752/1
f 728/754/1 775/753/1 727/751/1
f 728/754/1 774/755/1 775/753/1
f 729/756/1 774/755/1 728/754/1
f 729/756/1 773/757/1 774/755/1
f 729/756/1 772/758/1 773/757/1
f 730/759/1 772/758/1 729/756/1
f 730/759/1 771/760/1 772/758/1
f 730/759/1 770/761/1 771/760/1
f 731/762/1 770/761/1 730/759/1
f 731/762/1 769/763/1 770/761/1
f 753/764/1 751/765/1 752/766/1
f 731/762/1 768/767/1 769/763/1
f 754/768/1 751/765/1 753/764/1
f 732/769/1 768/767/1 731/762/1
f 755/770/1 751/765/1 754/768/1
f 732/769/1 767/771/1 768/767/1
f 756/772/1 751/765/1 755/770/1
f 757/773/1 751/765/1 756/772/1
f 758/774/1 751/765/1 757/773/1
f 732/769/1 766/775/1 767/771/1
f 759/776/1 751/765/1 758/774/1
f 760/777/1 751/765/1 759/776/1
f 732/769/1 765/778/1 766/775/1
f 761/779/1 751/765/1 760/777/1
f 762/780/1 751/765/1 761/779/1
f 732/769/1 764/781/1 765/778/1
f 763/782/1 751/765/1 762/780/1
f 733/783/1 764/781/1 732/769/1
f 764/781/1 751/765/1 763/782/1
f 733/783/1 751/765/1 764/781/1
f 734/784/1 751/765/1 733/783/1
f 735/785/1 751/765/1 734/784/1
f 736/786/1 751/765/1 735/785/1
f 736/786/1 750/787/1 751/765/1
f 736/786/1 749/788/1 750/787/1
f 736/786/1 748/789/1 749/788/1
f 737/790/1 748/789/1 736/786/1
f 737/790/1 747/791/1 748/789/1
f 737/790/1 746/792/1 747/791/1
f 737/790/1 745/793/1 746/792/1
f 737/790/1 744/794/1 745/793/1
f 738/795/1 744/794/1 737/790/1
f 738/795/1 743/796/1 744/794/1
f 738/795/1 742/797/1 743/796/1
f 738/795/1 741/798/1 742/797/1
f 739/799/1 741/798/1 738/795/1
f 739/799/1 740/800/1 741/798/1
f 839/801/1 837/802/1 838/803/1
f 839/801/1 836/804/1 837/802/1
f 840/805/1 836/804/1 839/801/1
f 840/805/1 835/806/1 836/804/1
f 841/807/1 835/806/1 840/805/1
f 841/807/1 834/808/1 835/806/1
f 842/809/1 834/808/1 841/807/1
f 842/809/1 833/810/1 834/808/1
f 843/811/1 833/810/1 842/809/1
f 843/811/1 832/812/1 833/810/1
f 844/813/1 832/812/1 843/811/1
f 844/813/1 831/814/1 832/812/1
f 845/815/1 887/816/1 844/813/1
f 887/816/1 831/814/1 844/813/1
f 845/815/1 886/817/1 887/816/1
f 888/818/1 831/814/1 887/816/1
f 845/815/1 885/819/1 886/817/1
f 889/820/1 831/814/1 888/818/1
f 845/815/1 884/821/1 885/819/1
f 890/822/1 831/814/1 889/820/1
f 890/822/1 830/823/1 831/814/1
f 845/815/1 883/824/1 884/821/1
f 846/825/1 883/824/1 845/815/1
f 891/826/1 830/823/1 890/822/1
f 846/825/1 882/827/1 883/824/1
f 892/828/1 830/823/1 891/826/1
f 846/825/1 881/829/1 882/827/1
f 893/830/1 830/823/1 892/828/1
f 846/825/1 880/831/1 881/829/1
f 894/832/1 830/823/1 893/830/1
f 847/833/1 880/831/1 846/825/1
f 894/832/1 829/834/1 830/823/1
f 847/833/1 879/835/1 880/831/1
f 895/836/1 829/834/1 894/832/1
f 847/833/1 878/837/1 879/835/1
f 896/838/1 829/834/1 895/836/1
f 848/839/1 878/837/1 847/833/1
f 896/838/1 828/840/1 829/834/1
f 848/839/1 877/841/1 878/837/1
f 897/842/1 828/840/1 896/838/1
f 848/839/1 876/843/1 877/841/1
f 898/844/1 828/840/1 897/842/1
f 849/845/1 876/843/1 848/839/1
f 849/845/1 875/846/1 876/843/1
f 898/844/1 827/847/1 828/840/1
f 899/848/1 827/847/1 898/844/1
f 849/845/1 899/848/1 875/846/1
f 849/845/1 827/847/1 899/848/1
f 850/849/1 827/847/1 849/845/1
f 850/849/1 826/850/1 827/847/1
f 851/851/1 825/852/1 850/849/1
f 825/852/1 826/850/1 850/849/1
f 851/851/1 824/853/1 825/852/1
f 852/854/1 824/853/1 851/851/1
f 852/854/1 823/855/1 824/853/1
f 852/854/1 822/856/1 823/855/1
f 853/857/1 822/856/1 852/854/1
f 853/857/1 821/858/1 822/856/1
f 854/859/1 821/858/1 853/857/1
f 854/859/1 820/860/1 821/858/1
f 802/861/1 874/862/1 801/863/1
f 854/859/1 819/864/1 820/860/1
f 803/865/1 874/862/1 802/861/1
f 804/866/1 874/862/1 803/865/1
f 855/867/1 819/864/1 854/859/1
f 855/867/1 818/868/1 819/864/1
f 805/869/1 874/862/1 804/866/1
f 806/870/1 874/862/1 805/869/1
f 855/867/1 817/871/1 818/868/1
f 807/872/1 874/862/1 806/870/1
f 855/867/1 816/873/1 817/871/1
f 808/874/1 874/862/1 807/872/1
f 856/875/1 816/873/1 855/867/1
f 809/876/1 874/862/1 808/874/1
f 856/875/1 815/877/1 816/873/1
f 810/878/1 874/862/1 809/876/1
f 856/875/1 814/879/1 815/877/1
f 811/880/1 874/862/1 810/878/1
f 812/881/1 874/862/1 811/880/1
f 856/875/1 813/882/1 814/879/1
f 813/882/1 874/862/1 812/881/1
f 856/875/1 874/862/1 813/882/1
f 857/883/1 874/862/1 856/875/1
f 857/883/1 873/884/1 874/862/1
f 858/885/1 873/884/1 857/883/1
f 858/885/1 872/886/1 873/884/1
f 858/885/1 871/887/1 872/886/1
f 859/888/1 871/887/1 858/885/1
f 859/888/1 870/889/1 871/887/1
f 859/888/1 869/890/1 870/889/1
f 860/891/1 869/890/1 859/888/1
f 860/891/1 868/892/1 869/890/1
f 860/891/1 867/893/1 868/892/1
f 861/894/1 867/893/1 860/891/1
f 861/894/1 866/895/1 867/893/1
f 861/894/1 865/896/1 866/895/1
f 861/894/1 864/897/1 865/896/1
f 862/898/1 864/897/1 861/894/1
f 862/898/1 863/899/1 864/897/1
f 905/900/1 903/901/1 904/902/1
f 905/900/1 907/903/1 903/901/1
f 907/903/1 908/904/1 903/901/1
f 908/904/1 902/905/1 903/901/1
f 902/905/1 900/906/1 901/907/1
f 902/905/1 911/908/1 900/906/1
f 911/908/1 912/909/1 900/906/1
f 912/909/1 914/910/1 900/906/1
f 905/900/1 906/911/1 907/903/1
f 909/912/1 902/905/1 908/904/1
f 902/905/1 910/913/1 911/908/1
f 913/914/1 914/910/1 912/909/1
f 909/912/1 910/913/1 902/905/1
f 921/915/2 920/916/2 918/917/2
f 920/916/2 915/918/2 919/919/2
f 918/917/2 916/920/2 917/921/2
f 920/916/2 919/919/2 918/917/2
f 917/921/2 921/915/2 918/917/2
