# Blender 4.4.1
# www.blender.org
mtllib alphaBossRightArm.mtl
o 立方体
v -0.398458 -0.477354 0.411789
v -0.398458 0.477354 0.411789
v -0.398458 -0.477354 -0.380277
v -0.398458 0.477354 -0.380277
v 4.057169 -0.477354 0.411789
v 4.057169 0.477354 0.411789
v 4.057169 -0.477354 -0.380277
v 4.057169 0.477354 -0.380277
vn -1.0000 -0.0000 -0.0000
vn -0.0000 -0.0000 -1.0000
vn 1.0000 -0.0000 -0.0000
vn -0.0000 -0.0000 1.0000
vn -0.0000 -1.0000 -0.0000
vn -0.0000 1.0000 -0.0000
vt 0.912495 0.995050
vt 0.926559 0.844005
vt 0.995049 0.912495
vt 0.844004 0.926559
vt 0.541277 0.458723
vt 0.458723 0.541277
vt 0.472787 0.390232
vt 0.390232 0.472787
vt 0.087505 0.004951
vt 0.858068 0.004951
vt 0.926559 0.073441
vt 0.073441 0.926559
vt 0.004951 0.087505
vt 0.004950 0.858068
s 1
usemtl マテリアル.001
f 2/1/1 3/2/1 1/3/1
f 4/4/2 7/5/2 3/2/2
f 8/6/3 5/7/3 7/5/3
f 6/8/4 1/9/4 5/7/4
f 7/5/5 1/10/5 3/11/5
f 4/12/6 6/8/6 8/6/6
f 2/1/1 4/4/1 3/2/1
f 4/4/2 8/6/2 7/5/2
f 8/6/3 6/8/3 5/7/3
f 6/8/4 2/13/4 1/9/4
f 7/5/5 5/7/5 1/10/5
f 4/12/6 2/14/6 6/8/6
