# Blender 4.4.1
# www.blender.org
mtllib boss.mtl
o 胴体
v -0.762500 -0.762500 0.762500
v -0.762500 1.525000 0.762500
v -0.762500 -0.762500 -0.762500
v -0.762500 1.525000 -0.762500
v 0.762500 -0.762500 0.762500
v 0.762500 1.525000 0.762500
v 0.762500 -0.762500 -0.762500
v 0.762500 1.525000 -0.762500
v -0.762500 0.000000 0.762500
v -0.762500 0.000000 -0.762500
v 0.762500 0.000000 -0.762500
v 0.762500 0.000000 0.762500
v 0.000000 -0.762500 -1.525000
v 0.000000 1.525000 -1.525000
v 0.000000 -0.762500 1.525000
v 0.000000 1.525000 1.525000
v 0.000000 0.000000 0.762500
v 0.000000 0.000000 -0.762500
v -1.525000 -0.762500 0.000000
v -1.525000 1.525000 0.000000
v 1.525000 -0.762500 0.000000
v 1.525000 1.525000 0.000000
v 0.762500 0.000000 0.000000
v -0.762500 0.000000 0.000000
v 0.000000 1.525000 0.000000
v 0.000000 -0.762500 0.000000
v -0.496433 -1.074536 -0.174536
v -0.496433 -0.725464 -0.174536
v -0.462383 -1.074536 -0.171183
v -0.462383 -0.725464 -0.171183
v -0.429641 -1.074536 -0.161251
v -0.429641 -0.725464 -0.161251
v -0.399466 -1.074536 -0.145122
v -0.399466 -0.725464 -0.145122
v -0.373017 -1.074536 -0.123416
v -0.373017 -0.725464 -0.123416
v -0.351311 -1.074536 -0.096967
v -0.351311 -0.725464 -0.096967
v -0.335182 -1.074536 -0.066792
v -0.335182 -0.725464 -0.066792
v -0.325250 -1.074536 -0.034050
v -0.325250 -0.725464 -0.034050
v -0.321897 -1.074536 0.000000
v -0.321897 -0.725464 0.000000
v -0.325250 -1.074536 0.034050
v -0.325250 -0.725464 0.034050
v -0.335182 -1.074536 0.066792
v -0.335182 -0.725464 0.066792
v -0.351311 -1.074536 0.096967
v -0.351311 -0.725464 0.096967
v -0.373017 -1.074536 0.123416
v -0.373017 -0.725464 0.123416
v -0.399466 -1.074536 0.145122
v -0.399466 -0.725464 0.145122
v -0.429641 -1.074536 0.161251
v -0.429641 -0.725464 0.161251
v -0.462383 -1.074536 0.171183
v -0.462383 -0.725464 0.171183
v -0.496433 -1.074536 0.174536
v -0.496433 -0.725464 0.174536
v -0.530483 -1.074536 0.171183
v -0.530483 -0.725464 0.171183
v -0.563225 -1.074536 0.161251
v -0.563225 -0.725464 0.161251
v -0.593400 -1.074536 0.145122
v -0.593400 -0.725464 0.145122
v -0.619849 -1.074536 0.123416
v -0.619849 -0.725464 0.123416
v -0.641555 -1.074536 0.096967
v -0.641555 -0.725464 0.096967
v -0.657684 -1.074536 0.066792
v -0.657684 -0.725464 0.066792
v -0.667616 -1.074536 0.034050
v -0.667616 -0.725464 0.034050
v -0.670969 -1.074536 0.000000
v -0.670969 -0.725464 0.000000
v -0.667616 -1.074536 -0.034050
v -0.667616 -0.725464 -0.034050
v -0.657684 -1.074536 -0.066792
v -0.657684 -0.725464 -0.066792
v -0.641555 -1.074536 -0.096967
v -0.641555 -0.725464 -0.096967
v -0.619849 -1.074536 -0.123416
v -0.619849 -0.725464 -0.123416
v -0.593400 -1.074536 -0.145122
v -0.593400 -0.725464 -0.145122
v -0.563225 -1.074536 -0.161251
v -0.563225 -0.725464 -0.161251
v -0.530483 -1.074536 -0.171183
v -0.530483 -0.725464 -0.171183
v 0.503567 -1.074536 -0.174536
v 0.503567 -0.725464 -0.174536
v 0.537617 -1.074536 -0.171183
v 0.537617 -0.725464 -0.171183
v 0.570359 -1.074536 -0.161251
v 0.570359 -0.725464 -0.161251
v 0.600534 -1.074536 -0.145122
v 0.600534 -0.725464 -0.145122
v 0.626983 -1.074536 -0.123416
v 0.626983 -0.725464 -0.123416
v 0.648689 -1.074536 -0.096967
v 0.648689 -0.725464 -0.096967
v 0.664818 -1.074536 -0.066792
v 0.664818 -0.725464 -0.066792
v 0.674750 -1.074536 -0.034050
v 0.674750 -0.725464 -0.034050
v 0.678103 -1.074536 0.000000
v 0.678103 -0.725464 0.000000
v 0.674750 -1.074536 0.034050
v 0.674750 -0.725464 0.034050
v 0.664818 -1.074536 0.066792
v 0.664818 -0.725464 0.066792
v 0.648689 -1.074536 0.096967
v 0.648689 -0.725464 0.096967
v 0.626983 -1.074536 0.123416
v 0.626983 -0.725464 0.123416
v 0.600534 -1.074536 0.145122
v 0.600534 -0.725464 0.145122
v 0.570359 -1.074536 0.161251
v 0.570359 -0.725464 0.161251
v 0.537617 -1.074536 0.171183
v 0.537617 -0.725464 0.171183
v 0.503567 -1.074536 0.174536
v 0.503567 -0.725464 0.174536
v 0.469517 -1.074536 0.171183
v 0.469517 -0.725464 0.171183
v 0.436775 -1.074536 0.161251
v 0.436775 -0.725464 0.161251
v 0.406600 -1.074536 0.145122
v 0.406600 -0.725464 0.145122
v 0.380151 -1.074536 0.123416
v 0.380151 -0.725464 0.123416
v 0.358445 -1.074536 0.096967
v 0.358445 -0.725464 0.096967
v 0.342316 -1.074536 0.066792
v 0.342316 -0.725464 0.066792
v 0.332384 -1.074536 0.034050
v 0.332384 -0.725464 0.034050
v 0.329031 -1.074536 0.000000
v 0.329031 -0.725464 0.000000
v 0.332384 -1.074536 -0.034050
v 0.332384 -0.725464 -0.034050
v 0.342316 -1.074536 -0.066792
v 0.342316 -0.725464 -0.066792
v 0.358445 -1.074536 -0.096967
v 0.358445 -0.725464 -0.096967
v 0.380151 -1.074536 -0.123416
v 0.380151 -0.725464 -0.123416
v 0.406600 -1.074536 -0.145122
v 0.406600 -0.725464 -0.145122
v 0.436775 -1.074536 -0.161251
v 0.436775 -0.725464 -0.161251
v 0.469517 -1.074536 -0.171183
v 0.469517 -0.725464 -0.171183
v -0.134945 2.389589 -0.251759
v -0.193245 2.251639 -0.376784
v -0.224797 2.071399 -0.444447
v -0.228857 1.973854 -0.453154
v -0.224797 1.876309 -0.444447
v -0.193245 1.696069 -0.376784
v -0.040733 2.464247 -0.094750
v -0.063027 2.435793 -0.185858
v -0.083573 2.389589 -0.269824
v -0.101582 2.327407 -0.343421
v -0.116362 2.251639 -0.403821
v -0.127344 2.165195 -0.448702
v -0.134107 2.071399 -0.476339
v -0.136391 1.973854 -0.485671
v -0.134107 1.876309 -0.476339
v -0.127344 1.782512 -0.448702
v -0.116362 1.696069 -0.403821
v -0.101582 1.620300 -0.343421
v -0.083573 1.558119 -0.269824
v -0.063027 1.511914 -0.185858
v -0.040733 1.483461 -0.094750
v -0.021803 2.464247 -0.097452
v -0.025894 2.435793 -0.191160
v -0.029665 2.389589 -0.277521
v -0.032970 2.327407 -0.353217
v -0.035682 2.251639 -0.415339
v -0.037697 2.165195 -0.461500
v -0.038938 2.071399 -0.489926
v -0.039357 1.973854 -0.499524
v -0.038938 1.876309 -0.489926
v -0.037697 1.782512 -0.461500
v -0.035682 1.696069 -0.415339
v -0.032970 1.620300 -0.353217
v -0.029665 1.558119 -0.277521
v -0.025894 1.511914 -0.191160
v -0.021803 1.483461 -0.097452
v -0.002709 2.464247 -0.096410
v 0.011560 2.435793 -0.189115
v 0.024710 2.389589 -0.274552
v 0.036236 2.327407 -0.349439
v 0.045695 2.251639 -0.410896
v 0.052724 2.165195 -0.456564
v 0.057052 2.071399 -0.484685
v 0.058514 1.973854 -0.494181
v 0.057052 1.876309 -0.484685
v 0.052724 1.782512 -0.456564
v 0.045695 1.696069 -0.410896
v 0.036236 1.620300 -0.349439
v 0.024710 1.558119 -0.274552
v 0.011560 1.511914 -0.189115
v -0.002709 1.483461 -0.096410
v 0.015815 2.464247 -0.091662
v 0.047895 2.435793 -0.179802
v 0.077460 2.389589 -0.261033
v 0.103375 2.327407 -0.332232
v 0.124642 2.251639 -0.390663
v 0.140445 2.165195 -0.434081
v 0.150176 2.071399 -0.460818
v 0.153462 1.973854 -0.469846
v 0.150176 1.876309 -0.460818
v 0.140445 1.782512 -0.434081
v 0.124642 1.696069 -0.390663
v 0.103375 1.620300 -0.332232
v 0.077460 1.558119 -0.261033
v 0.047895 1.511914 -0.179802
v 0.015815 1.483461 -0.091662
v 0.033056 2.464247 -0.083393
v 0.081715 2.435793 -0.163580
v 0.126560 2.389589 -0.237482
v 0.165866 2.327407 -0.302257
v 0.198124 2.251639 -0.355417
v 0.222094 2.165195 -0.394918
v 0.236855 2.071399 -0.419243
v 0.241839 1.973854 -0.427456
v 0.236855 1.876309 -0.419243
v 0.222094 1.782512 -0.394918
v 0.198124 1.696069 -0.355417
v 0.165866 1.620300 -0.302257
v 0.126560 1.558119 -0.237482
v 0.081715 1.511914 -0.163580
v 0.033056 1.483461 -0.083393
v -0.017548 2.473854 0.000000
v 0.048353 2.464247 -0.071918
v 0.111721 2.435793 -0.141072
v 0.170121 2.389589 -0.204805
v 0.221310 2.327407 -0.260667
v 0.263319 2.251639 -0.306512
v 0.294534 2.165195 -0.340578
v 0.313757 2.071399 -0.361555
v 0.320247 1.973854 -0.368639
v 0.313757 1.876309 -0.361555
v 0.294534 1.782512 -0.340578
v 0.263319 1.696069 -0.306512
v 0.221310 1.620300 -0.260667
v 0.170121 1.558119 -0.204805
v 0.111721 1.511914 -0.141072
v 0.048353 1.483461 -0.071918
v 0.061117 2.464247 -0.057679
v 0.136759 2.435793 -0.113142
v 0.206471 2.389589 -0.164257
v 0.267574 2.327407 -0.209060
v 0.317719 2.251639 -0.245828
v 0.354981 2.165195 -0.273150
v 0.377927 2.071399 -0.289974
v 0.385675 1.973854 -0.295655
v 0.377927 1.876309 -0.289974
v 0.354981 1.782512 -0.273150
v 0.317719 1.696069 -0.245828
v 0.267574 1.620300 -0.209060
v 0.206471 1.558119 -0.164257
v 0.136759 1.511914 -0.113142
v 0.061117 1.483461 -0.057679
v 0.070858 2.464247 -0.041224
v 0.155867 2.435793 -0.080865
v 0.234211 2.389589 -0.117397
v 0.302880 2.327407 -0.149418
v 0.359236 2.251639 -0.175697
v 0.401112 2.165195 -0.195224
v 0.426899 2.071399 -0.207249
v 0.435606 1.973854 -0.211309
v 0.426899 1.876309 -0.207249
v 0.401112 1.782512 -0.195224
v 0.359236 1.696069 -0.175697
v 0.302880 1.620300 -0.149418
v 0.234211 1.558119 -0.117397
v 0.155867 1.511914 -0.080865
v 0.070858 1.483461 -0.041224
v 0.077202 2.464247 -0.023185
v 0.168311 2.435793 -0.045479
v 0.252277 2.389589 -0.066026
v 0.325874 2.327407 -0.084035
v 0.386273 2.251639 -0.098814
v 0.431154 2.165195 -0.109797
v 0.458791 2.071399 -0.116559
v 0.468123 1.973854 -0.118843
v 0.458791 1.876309 -0.116559
v 0.431154 1.782512 -0.109797
v 0.386273 1.696069 -0.098814
v 0.325874 1.620300 -0.084035
v 0.252277 1.558119 -0.066026
v 0.168311 1.511914 -0.045479
v 0.077202 1.483461 -0.023185
v 0.079904 2.464247 -0.004255
v 0.173612 2.435793 -0.008346
v 0.259973 2.389589 -0.012117
v 0.335669 2.327407 -0.015422
v 0.397791 2.251639 -0.018134
v 0.443952 2.165195 -0.020150
v 0.472378 2.071399 -0.021391
v 0.481976 1.973854 -0.021810
v 0.472378 1.876309 -0.021391
v 0.443952 1.782512 -0.020150
v 0.397791 1.696069 -0.018134
v 0.335669 1.620300 -0.015422
v 0.259973 1.558119 -0.012117
v 0.173612 1.511914 -0.008346
v 0.079904 1.483461 -0.004255
v 0.078862 2.464247 0.014839
v 0.171567 2.435793 0.029108
v 0.257004 2.389589 0.042258
v 0.331891 2.327407 0.053784
v 0.393348 2.251639 0.063243
v 0.439016 2.165195 0.070272
v 0.467137 2.071399 0.074600
v 0.476633 1.973854 0.076062
v 0.467137 1.876309 0.074600
v 0.439016 1.782512 0.070272
v 0.393348 1.696069 0.063243
v 0.331891 1.620300 0.053784
v 0.257004 1.558119 0.042258
v 0.171567 1.511914 0.029108
v 0.078862 1.483461 0.014839
v 0.074115 2.464247 0.033362
v 0.162255 2.435793 0.065443
v 0.243485 2.389589 0.095008
v 0.314684 2.327407 0.120922
v 0.373115 2.251639 0.142190
v 0.416534 2.165195 0.157993
v 0.443271 2.071399 0.167724
v 0.452298 1.973854 0.171010
v 0.443271 1.876309 0.167724
v 0.416534 1.782512 0.157993
v 0.373115 1.696069 0.142190
v 0.314684 1.620300 0.120922
v 0.243485 1.558119 0.095008
v 0.162255 1.511914 0.065443
v 0.074115 1.483461 0.033362
v 0.065845 2.464247 0.050604
v 0.146032 2.435793 0.099263
v 0.219934 2.389589 0.144107
v 0.284709 2.327407 0.183414
v 0.337869 2.251639 0.215672
v 0.377370 2.165195 0.239642
v 0.401695 2.071399 0.254402
v 0.409908 1.973854 0.259387
v 0.401695 1.876309 0.254402
v 0.377370 1.782512 0.239642
v 0.337869 1.696069 0.215672
v 0.284709 1.620300 0.183414
v 0.219934 1.558119 0.144107
v 0.146032 1.511914 0.099263
v 0.065845 1.483461 0.050604
v 0.054370 2.464247 0.065901
v 0.123524 2.435793 0.129269
v 0.187257 2.389589 0.187669
v 0.243119 2.327407 0.238857
v 0.288964 2.251639 0.280866
v 0.323030 2.165195 0.312082
v 0.344007 2.071399 0.331304
v 0.351091 1.973854 0.337795
v 0.344007 1.876309 0.331304
v 0.323030 1.782512 0.312082
v 0.288964 1.696069 0.280866
v 0.243119 1.620300 0.238857
v 0.187257 1.558119 0.187669
v 0.123524 1.511914 0.129269
v 0.054370 1.483461 0.065901
v 0.040132 2.464247 0.078665
v 0.095594 2.435793 0.154306
v 0.146709 2.389589 0.224018
v 0.191512 2.327407 0.285121
v 0.228280 2.251639 0.335267
v 0.255602 2.165195 0.372529
v 0.272426 2.071399 0.395474
v 0.278107 1.973854 0.403222
v 0.272426 1.876309 0.395474
v 0.255602 1.782512 0.372529
v 0.228280 1.696069 0.335267
v 0.191512 1.620300 0.285121
v 0.146709 1.558119 0.224018
v 0.095594 1.511914 0.154306
v 0.040132 1.483461 0.078665
v 0.023676 2.464247 0.088406
v 0.063317 2.435793 0.173414
v 0.099849 2.389589 0.251759
v 0.131870 2.327407 0.320428
v 0.158149 2.251639 0.376784
v 0.177676 2.165195 0.418660
v 0.189701 2.071399 0.444447
v 0.193761 1.973854 0.453154
v 0.189701 1.876309 0.444447
v 0.177676 1.782512 0.418660
v 0.158149 1.696069 0.376784
v 0.131870 1.620300 0.320428
v 0.099849 1.558119 0.251759
v 0.063317 1.511914 0.173414
v 0.023676 1.483461 0.088406
v 0.005637 2.464247 0.094750
v 0.027931 2.435793 0.185858
v 0.048478 2.389589 0.269824
v 0.066487 2.327407 0.343421
v 0.081266 2.251639 0.403821
v 0.092249 2.165195 0.448701
v 0.099011 2.071399 0.476339
v 0.101295 1.973854 0.485671
v 0.099011 1.876309 0.476339
v 0.092249 1.782512 0.448701
v 0.081266 1.696069 0.403821
v 0.066487 1.620300 0.343421
v 0.048478 1.558119 0.269824
v 0.027931 1.511914 0.185858
v 0.005637 1.483461 0.094750
v -0.013293 2.464247 0.097452
v -0.009202 2.435793 0.191160
v -0.005431 2.389589 0.277521
v -0.002126 2.327407 0.353217
v 0.000586 2.251639 0.415339
v 0.002602 2.165195 0.461500
v 0.003843 2.071399 0.489926
v 0.004262 1.973854 0.499524
v 0.003843 1.876309 0.489926
v 0.002602 1.782512 0.461500
v 0.000586 1.696069 0.415339
v -0.002126 1.620300 0.353217
v -0.005431 1.558119 0.277521
v -0.009202 1.511914 0.191160
v -0.013293 1.483461 0.097452
v -0.032387 2.464247 0.096410
v -0.046655 2.435793 0.189115
v -0.059806 2.389589 0.274552
v -0.071332 2.327407 0.349439
v -0.080791 2.251639 0.410896
v -0.087820 2.165195 0.456563
v -0.092148 2.071399 0.484685
v -0.093610 1.973854 0.494180
v -0.092148 1.876309 0.484685
v -0.087820 1.782512 0.456563
v -0.080791 1.696069 0.410896
v -0.071332 1.620300 0.349439
v -0.059806 1.558119 0.274552
v -0.046655 1.511914 0.189115
v -0.032387 1.483461 0.096410
v -0.050910 2.464247 0.091662
v -0.082991 2.435793 0.179802
v -0.112556 2.389589 0.261032
v -0.138470 2.327407 0.332232
v -0.159738 2.251639 0.390663
v -0.175541 2.165195 0.434081
v -0.185272 2.071399 0.460818
v -0.188558 1.973854 0.469846
v -0.185272 1.876309 0.460818
v -0.175541 1.782512 0.434081
v -0.159738 1.696069 0.390663
v -0.138470 1.620300 0.332232
v -0.112556 1.558119 0.261032
v -0.082991 1.511914 0.179802
v -0.050910 1.483461 0.091662
v -0.017548 1.473854 0.000000
v -0.068152 2.464247 0.083392
v -0.116811 2.435793 0.163580
v -0.161655 2.389589 0.237482
v -0.200962 2.327407 0.302257
v -0.233220 2.251639 0.355417
v -0.257190 2.165195 0.394918
v -0.271951 2.071399 0.419242
v -0.276935 1.973854 0.427456
v -0.271951 1.876309 0.419242
v -0.257190 1.782512 0.394918
v -0.233220 1.696069 0.355417
v -0.200962 1.620300 0.302257
v -0.161655 1.558119 0.237482
v -0.116811 1.511914 0.163580
v -0.068152 1.483461 0.083392
v -0.083448 2.464247 0.071918
v -0.146816 2.435793 0.141072
v -0.205217 2.389589 0.204805
v -0.256405 2.327407 0.260667
v -0.298414 2.251639 0.306512
v -0.329630 2.165195 0.340578
v -0.348853 2.071399 0.361555
v -0.355343 1.973854 0.368638
v -0.348853 1.876309 0.361555
v -0.329630 1.782512 0.340578
v -0.298414 1.696069 0.306512
v -0.256405 1.620300 0.260667
v -0.205217 1.558119 0.204805
v -0.146816 1.511914 0.141072
v -0.083448 1.483461 0.071918
v -0.096213 2.464247 0.057679
v -0.171854 2.435793 0.113142
v -0.241566 2.389589 0.164257
v -0.302669 2.327407 0.209060
v -0.352815 2.251639 0.245828
v -0.390077 2.165195 0.273149
v -0.413023 2.071399 0.289974
v -0.420770 1.973854 0.295654
v -0.413023 1.876309 0.289974
v -0.390077 1.782512 0.273149
v -0.352815 1.696069 0.245828
v -0.302669 1.620300 0.209060
v -0.241566 1.558119 0.164257
v -0.171854 1.511914 0.113142
v -0.096213 1.483461 0.057679
v -0.105954 2.464247 0.041224
v -0.190962 2.435793 0.080864
v -0.269307 2.389589 0.117397
v -0.337976 2.327407 0.149418
v -0.394332 2.251639 0.175697
v -0.436208 2.165195 0.195224
v -0.461995 2.071399 0.207249
v -0.470702 1.973854 0.211309
v -0.461995 1.876309 0.207249
v -0.436208 1.782512 0.195224
v -0.394332 1.696069 0.175697
v -0.337976 1.620300 0.149418
v -0.269307 1.558119 0.117397
v -0.190962 1.511914 0.080864
v -0.105954 1.483461 0.041224
v -0.112298 2.464247 0.023185
v -0.203406 2.435793 0.045479
v -0.287372 2.389589 0.066026
v -0.360969 2.327407 0.084035
v -0.421369 2.251639 0.098814
v -0.466249 2.165195 0.109797
v -0.493887 2.071399 0.116559
v -0.503219 1.973854 0.118843
v -0.493887 1.876309 0.116559
v -0.466249 1.782512 0.109797
v -0.421369 1.696069 0.098814
v -0.360969 1.620300 0.084035
v -0.287372 1.558119 0.066026
v -0.203406 1.511914 0.045479
v -0.112298 1.483461 0.023185
v -0.115000 2.464247 0.004255
v -0.208707 2.435793 0.008346
v -0.295068 2.389589 0.012117
v -0.370765 2.327407 0.015422
v -0.432887 2.251639 0.018134
v -0.479048 2.165195 0.020150
v -0.507474 2.071399 0.021391
v -0.517072 1.973854 0.021810
v -0.507474 1.876309 0.021391
v -0.479048 1.782512 0.020150
v -0.432887 1.696069 0.018134
v -0.370765 1.620300 0.015422
v -0.295068 1.558119 0.012117
v -0.208707 1.511914 0.008346
v -0.115000 1.483461 0.004255
v -0.113958 2.464247 -0.014839
v -0.206663 2.435793 -0.029108
v -0.292100 2.389589 -0.042258
v -0.366986 2.327407 -0.053784
v -0.428444 2.251639 -0.063243
v -0.474111 2.165195 -0.070272
v -0.502233 2.071399 -0.074600
v -0.511728 1.973854 -0.076062
v -0.502233 1.876309 -0.074600
v -0.474111 1.782512 -0.070272
v -0.428444 1.696069 -0.063243
v -0.366986 1.620300 -0.053784
v -0.292100 1.558119 -0.042258
v -0.206663 1.511914 -0.029108
v -0.113958 1.483461 -0.014839
v -0.109210 2.464247 -0.033362
v -0.197350 2.435793 -0.065443
v -0.278580 2.389589 -0.095008
v -0.349779 2.327407 -0.120922
v -0.408211 2.251639 -0.142190
v -0.451629 2.165195 -0.157993
v -0.478366 2.071399 -0.167724
v -0.487394 1.973854 -0.171010
v -0.478366 1.876309 -0.167724
v -0.451629 1.782512 -0.157993
v -0.408211 1.696069 -0.142190
v -0.349779 1.620300 -0.120922
v -0.278580 1.558119 -0.095008
v -0.197350 1.511914 -0.065443
v -0.109210 1.483461 -0.033362
v -0.100940 2.464247 -0.050604
v -0.181128 2.435793 -0.099263
v -0.255029 2.389589 -0.144107
v -0.319805 2.327407 -0.183414
v -0.372964 2.251639 -0.215672
v -0.412466 2.165195 -0.239642
v -0.436790 2.071399 -0.254402
v -0.445003 1.973854 -0.259386
v -0.436790 1.876309 -0.254402
v -0.412466 1.782512 -0.239642
v -0.372964 1.696069 -0.215672
v -0.319805 1.620300 -0.183414
v -0.255029 1.558119 -0.144107
v -0.181128 1.511914 -0.099263
v -0.100940 1.483461 -0.050604
v -0.089466 2.464247 -0.065900
v -0.158620 2.435793 -0.129269
v -0.222352 2.389589 -0.187669
v -0.278215 2.327407 -0.238857
v -0.324059 2.251639 -0.280866
v -0.358125 2.165195 -0.312082
v -0.379103 2.071399 -0.331304
v -0.386186 1.973854 -0.337795
v -0.379103 1.876309 -0.331304
v -0.358125 1.782512 -0.312082
v -0.324059 1.696069 -0.280866
v -0.278215 1.620300 -0.238857
v -0.222352 1.558119 -0.187669
v -0.158620 1.511914 -0.129269
v -0.089466 1.483461 -0.065900
v -0.075227 2.464247 -0.078665
v -0.130690 2.435793 -0.154306
v -0.181805 2.389589 -0.224018
v -0.226607 2.327407 -0.285121
v -0.263376 2.251639 -0.335267
v -0.290697 2.165195 -0.372529
v -0.307522 2.071399 -0.395474
v -0.313202 1.973854 -0.403222
v -0.307522 1.876309 -0.395474
v -0.290697 1.782512 -0.372529
v -0.263376 1.696069 -0.335267
v -0.226607 1.620300 -0.285121
v -0.181805 1.558119 -0.224018
v -0.130690 1.511914 -0.154306
v -0.075227 1.483461 -0.078665
v -0.058772 2.464247 -0.088406
v -0.098412 2.435793 -0.173414
v -0.166966 2.327407 -0.320428
v -0.212772 2.165195 -0.418659
v -0.212772 1.782512 -0.418659
v -0.166966 1.620300 -0.320428
v -0.134945 1.558119 -0.251759
v -0.098412 1.511914 -0.173414
v -0.058772 1.483461 -0.088406
vn 0.6667 0.3333 0.6667
vn -0.6667 0.3333 0.6667
vn -0.6667 0.3333 -0.6667
vn 0.6667 0.3333 -0.6667
vn -0.0000 1.0000 -0.0000
vn -0.0000 -1.0000 -0.0000
vn 0.5774 -0.5774 -0.5774
vn -0.5774 -0.5774 -0.5774
vn -0.5774 -0.5774 0.5774
vn 0.5774 -0.5774 0.5774
vn -0.0000 -0.0000 1.0000
vn -0.0000 -0.0000 -1.0000
vn 1.0000 -0.0000 -0.0000
vn -1.0000 -0.0000 -0.0000
vn -0.0980 -0.0000 0.9952
vn -0.2903 -0.0000 0.9569
vn -0.4714 -0.0000 0.8819
vn -0.6344 -0.0000 0.7730
vn -0.7730 -0.0000 0.6344
vn -0.8819 -0.0000 0.4714
vn -0.9569 -0.0000 0.2903
vn -0.9952 -0.0000 0.0980
vn -0.9952 -0.0000 -0.0980
vn -0.9569 -0.0000 -0.2903
vn -0.8819 -0.0000 -0.4714
vn -0.7730 -0.0000 -0.6344
vn -0.6344 -0.0000 -0.7730
vn -0.4714 -0.0000 -0.8819
vn -0.2903 -0.0000 -0.9569
vn -0.0980 -0.0000 -0.9952
vn 0.0980 -0.0000 -0.9952
vn 0.2903 -0.0000 -0.9569
vn 0.4714 -0.0000 -0.8819
vn 0.6344 -0.0000 -0.7730
vn 0.7730 -0.0000 -0.6344
vn 0.8819 -0.0000 -0.4714
vn 0.9569 -0.0000 -0.2903
vn 0.9952 -0.0000 -0.0980
vn 0.9952 -0.0000 0.0980
vn 0.9569 -0.0000 0.2903
vn 0.8819 -0.0000 0.4714
vn 0.7730 -0.0000 0.6344
vn 0.6344 -0.0000 0.7730
vn 0.4714 -0.0000 0.8819
vn 0.2903 -0.0000 0.9569
vn 0.0980 -0.0000 0.9952
vn 0.2111 0.7715 0.6002
vn 0.2929 -0.4696 0.8329
vn 0.1570 0.8810 0.4464
vn 0.3176 -0.2890 0.9031
vn 0.0967 0.9565 0.2751
vn 0.3302 -0.0975 0.9389
vn 0.0327 -0.9951 0.0929
vn 0.0327 0.9951 0.0929
vn 0.3302 0.0975 0.9389
vn 0.0967 -0.9565 0.2751
vn 0.3176 0.2890 0.9031
vn 0.1570 -0.8810 0.4464
vn 0.2929 0.4696 0.8329
vn 0.2111 -0.7715 0.6002
vn 0.2569 0.6326 0.7306
vn 0.2569 -0.6326 0.7306
vn 0.1095 0.6326 0.7667
vn 0.1095 -0.6326 0.7667
vn 0.0899 0.7715 0.6298
vn 0.1248 -0.4696 0.8740
vn 0.0669 0.8810 0.4684
vn 0.1353 -0.2890 0.9477
vn 0.0412 0.9565 0.2886
vn 0.1407 -0.0975 0.9852
vn 0.0139 -0.9951 0.0975
vn 0.0139 0.9951 0.0975
vn 0.1407 0.0976 0.9852
vn 0.0412 -0.9565 0.2886
vn 0.1353 0.2890 0.9477
vn 0.0669 -0.8810 0.4684
vn 0.1248 0.4696 0.8740
vn 0.0899 -0.7715 0.6298
vn -0.0054 -0.9951 0.0983
vn -0.0054 0.9951 0.0983
vn -0.0543 0.0975 0.9938
vn -0.0159 -0.9565 0.2911
vn -0.0522 0.2890 0.9559
vn -0.0258 -0.8810 0.4725
vn -0.0481 0.4696 0.8816
vn -0.0347 -0.7715 0.6353
vn -0.0422 0.6326 0.7734
vn -0.0422 -0.6326 0.7734
vn -0.0347 0.7715 0.6353
vn -0.0481 -0.4696 0.8816
vn -0.0258 0.8810 0.4725
vn -0.0522 -0.2890 0.9559
vn -0.0159 0.9565 0.2911
vn -0.0543 -0.0975 0.9938
vn -0.1923 -0.6326 0.7503
vn -0.1580 0.7715 0.6163
vn -0.2192 -0.4696 0.8552
vn -0.1175 0.8810 0.4584
vn -0.2377 -0.2890 0.9274
vn -0.0724 0.9565 0.2824
vn -0.2471 -0.0975 0.9641
vn -0.0244 -0.9951 0.0954
vn -0.0244 0.9951 0.0954
vn -0.2471 0.0975 0.9641
vn -0.0724 -0.9565 0.2824
vn -0.2377 0.2890 0.9274
vn -0.1175 -0.8810 0.4584
vn -0.2192 0.4696 0.8552
vn -0.1580 -0.7715 0.6163
vn -0.1923 0.6326 0.7503
vn -0.4304 0.0976 0.8973
vn -0.1261 -0.9565 0.2629
vn -0.4140 0.2890 0.8632
vn -0.2046 -0.8810 0.4266
vn -0.3818 0.4696 0.7960
vn -0.2752 -0.7715 0.5736
vn -0.3350 0.6326 0.6983
vn -0.3350 -0.6326 0.6983
vn -0.2752 0.7715 0.5736
vn -0.3818 -0.4696 0.7960
vn -0.2046 0.8810 0.4266
vn -0.4140 -0.2890 0.8632
vn -0.1261 0.9566 0.2629
vn -0.4304 -0.0976 0.8973
vn -0.0426 -0.9951 0.0888
vn -0.0426 0.9951 0.0888
vn -0.3818 0.7715 0.5089
vn -0.5298 -0.4696 0.7062
vn -0.2839 0.8810 0.3785
vn -0.5745 -0.2890 0.7658
vn -0.1750 0.9565 0.2332
vn -0.5972 -0.0976 0.7961
vn -0.0591 -0.9951 0.0788
vn -0.0591 0.9951 0.0788
vn -0.5972 0.0976 0.7961
vn -0.1750 -0.9565 0.2332
vn -0.5745 0.2890 0.7658
vn -0.2839 -0.8810 0.3785
vn -0.5298 0.4696 0.7062
vn -0.3818 -0.7715 0.5089
vn -0.4648 0.6326 0.6196
vn -0.4648 -0.6326 0.6196
vn -0.2171 -0.9566 0.1946
vn -0.7128 0.2890 0.6390
vn -0.3523 -0.8810 0.3158
vn -0.6574 0.4696 0.5893
vn -0.4737 -0.7715 0.4247
vn -0.5767 0.6326 0.5170
vn -0.5767 -0.6326 0.5170
vn -0.4737 0.7715 0.4247
vn -0.6574 -0.4696 0.5893
vn -0.3523 0.8810 0.3158
vn -0.7128 -0.2890 0.6390
vn -0.2171 0.9565 0.1946
vn -0.7411 -0.0975 0.6643
vn -0.0733 -0.9951 0.0657
vn -0.0733 0.9951 0.0657
vn -0.7411 0.0975 0.6643
vn -0.7597 -0.4696 0.4497
vn -0.4072 0.8810 0.2410
vn -0.8238 -0.2890 0.4877
vn -0.2509 0.9565 0.1485
vn -0.8564 -0.0975 0.5070
vn -0.0848 -0.9951 0.0502
vn -0.0847 0.9951 0.0502
vn -0.8564 0.0975 0.5070
vn -0.2509 -0.9565 0.1485
vn -0.8238 0.2890 0.4877
vn -0.4072 -0.8810 0.2410
vn -0.7597 0.4696 0.4497
vn -0.5475 -0.7715 0.3241
vn -0.6665 0.6326 0.3945
vn -0.6665 -0.6326 0.3945
vn -0.5475 0.7715 0.3241
vn -0.9031 0.2890 0.3176
vn -0.4464 -0.8810 0.1570
vn -0.8329 0.4696 0.2929
vn -0.6002 -0.7715 0.2111
vn -0.7306 0.6326 0.2569
vn -0.7306 -0.6326 0.2569
vn -0.6002 0.7715 0.2111
vn -0.8329 -0.4696 0.2929
vn -0.4464 0.8810 0.1570
vn -0.9031 -0.2890 0.3176
vn -0.2751 0.9565 0.0967
vn -0.9389 -0.0975 0.3302
vn -0.0929 -0.9951 0.0327
vn -0.0929 0.9951 0.0327
vn -0.9389 0.0975 0.3302
vn -0.2751 -0.9565 0.0967
vn -0.4684 0.8810 0.0669
vn -0.9477 -0.2890 0.1353
vn -0.2886 0.9565 0.0412
vn -0.9852 -0.0975 0.1407
vn -0.0975 -0.9951 0.0139
vn -0.0975 0.9951 0.0139
vn -0.9852 0.0975 0.1407
vn -0.2886 -0.9565 0.0412
vn -0.9477 0.2890 0.1353
vn -0.4684 -0.8810 0.0669
vn -0.8740 0.4696 0.1248
vn -0.6298 -0.7715 0.0899
vn -0.7667 0.6326 0.1095
vn -0.7667 -0.6326 0.1095
vn -0.6298 0.7715 0.0899
vn -0.8740 -0.4696 0.1248
vn -0.8816 0.4696 -0.0481
vn -0.6353 -0.7715 -0.0347
vn -0.7734 0.6326 -0.0422
vn -0.7734 -0.6326 -0.0422
vn -0.6353 0.7715 -0.0347
vn -0.8816 -0.4696 -0.0481
vn -0.4725 0.8810 -0.0258
vn -0.9559 -0.2890 -0.0522
vn -0.2911 0.9565 -0.0159
vn -0.9938 -0.0975 -0.0543
vn -0.0983 -0.9951 -0.0054
vn -0.0983 0.9951 -0.0054
vn -0.9938 0.0975 -0.0543
vn -0.2911 -0.9565 -0.0159
vn -0.9559 0.2890 -0.0522
vn -0.4725 -0.8810 -0.0258
vn -0.2824 0.9566 -0.0724
vn -0.9641 -0.0975 -0.2471
vn -0.0954 -0.9951 -0.0245
vn -0.0954 0.9951 -0.0245
vn -0.9641 0.0975 -0.2471
vn -0.2824 -0.9565 -0.0724
vn -0.9274 0.2890 -0.2377
vn -0.4584 -0.8810 -0.1175
vn -0.8552 0.4696 -0.2192
vn -0.6163 -0.7715 -0.1580
vn -0.7503 0.6326 -0.1923
vn -0.7503 -0.6326 -0.1923
vn -0.6163 0.7715 -0.1580
vn -0.8552 -0.4696 -0.2192
vn -0.4584 0.8810 -0.1175
vn -0.9274 -0.2890 -0.2377
vn -0.5736 -0.7715 -0.2752
vn -0.6983 0.6326 -0.3350
vn -0.6983 -0.6326 -0.3350
vn -0.5736 0.7715 -0.2752
vn -0.7960 -0.4696 -0.3818
vn -0.4266 0.8810 -0.2046
vn -0.8632 -0.2890 -0.4140
vn -0.2629 0.9566 -0.1261
vn -0.8973 -0.0975 -0.4304
vn -0.0888 -0.9951 -0.0426
vn -0.0888 0.9951 -0.0426
vn -0.8973 0.0975 -0.4304
vn -0.2629 -0.9565 -0.1261
vn -0.8632 0.2890 -0.4140
vn -0.4266 -0.8810 -0.2046
vn -0.7960 0.4696 -0.3818
vn -0.7961 -0.0975 -0.5972
vn -0.0788 -0.9951 -0.0591
vn -0.0788 0.9951 -0.0591
vn -0.7961 0.0975 -0.5972
vn -0.2332 -0.9566 -0.1750
vn -0.7658 0.2890 -0.5745
vn -0.3785 -0.8810 -0.2839
vn -0.7062 0.4696 -0.5298
vn -0.5089 -0.7715 -0.3818
vn -0.6196 0.6326 -0.4648
vn -0.6196 -0.6326 -0.4648
vn -0.5089 0.7715 -0.3818
vn -0.7062 -0.4696 -0.5298
vn -0.3785 0.8810 -0.2839
vn -0.7658 -0.2890 -0.5745
vn -0.2332 0.9566 -0.1750
vn -0.5170 0.6326 -0.5767
vn -0.5170 -0.6326 -0.5767
vn -0.4247 0.7715 -0.4737
vn -0.5893 -0.4696 -0.6574
vn -0.3158 0.8810 -0.3523
vn -0.6390 -0.2890 -0.7128
vn -0.1946 0.9565 -0.2171
vn -0.6643 -0.0975 -0.7411
vn -0.0657 -0.9951 -0.0733
vn -0.0657 0.9951 -0.0733
vn -0.6643 0.0975 -0.7411
vn -0.1946 -0.9565 -0.2171
vn -0.6390 0.2890 -0.7128
vn -0.3158 -0.8810 -0.3523
vn -0.5893 0.4696 -0.6574
vn -0.4247 -0.7715 -0.4737
vn -0.0502 -0.9951 -0.0848
vn -0.0502 0.9951 -0.0847
vn -0.5070 0.0975 -0.8564
vn -0.1485 -0.9565 -0.2509
vn -0.4877 0.2890 -0.8238
vn -0.2410 -0.8810 -0.4072
vn -0.4497 0.4696 -0.7597
vn -0.3241 -0.7715 -0.5475
vn -0.3945 0.6326 -0.6665
vn -0.3945 -0.6326 -0.6665
vn -0.3241 0.7715 -0.5475
vn -0.4497 -0.4696 -0.7597
vn -0.2410 0.8810 -0.4072
vn -0.4877 -0.2890 -0.8238
vn -0.1485 0.9565 -0.2509
vn -0.5070 -0.0975 -0.8564
vn -0.2569 -0.6326 -0.7306
vn -0.2111 0.7715 -0.6002
vn -0.2929 -0.4696 -0.8329
vn -0.1570 0.8810 -0.4464
vn -0.3176 -0.2890 -0.9031
vn -0.0967 0.9565 -0.2751
vn -0.3302 -0.0975 -0.9389
vn -0.0327 -0.9951 -0.0929
vn -0.0327 0.9951 -0.0929
vn -0.3302 0.0975 -0.9389
vn -0.0967 -0.9565 -0.2751
vn -0.3176 0.2890 -0.9031
vn -0.1570 -0.8810 -0.4464
vn -0.2929 0.4696 -0.8329
vn -0.2111 -0.7715 -0.6002
vn -0.2569 0.6326 -0.7306
vn -0.1407 0.0975 -0.9852
vn -0.0412 -0.9565 -0.2886
vn -0.1353 0.2890 -0.9477
vn -0.0669 -0.8810 -0.4684
vn -0.1248 0.4696 -0.8740
vn -0.0899 -0.7715 -0.6298
vn -0.1095 0.6326 -0.7667
vn -0.1095 -0.6326 -0.7667
vn -0.0899 0.7715 -0.6298
vn -0.1248 -0.4696 -0.8740
vn -0.0669 0.8810 -0.4684
vn -0.1353 -0.2890 -0.9477
vn -0.0412 0.9565 -0.2886
vn -0.1407 -0.0975 -0.9852
vn -0.0139 -0.9951 -0.0975
vn -0.0139 0.9951 -0.0975
vn 0.0347 0.7715 -0.6353
vn 0.0481 -0.4696 -0.8816
vn 0.0258 0.8810 -0.4725
vn 0.0522 -0.2890 -0.9559
vn 0.0159 0.9565 -0.2911
vn 0.0543 -0.0975 -0.9938
vn 0.0054 -0.9951 -0.0983
vn 0.0054 0.9951 -0.0983
vn 0.0543 0.0975 -0.9938
vn 0.0159 -0.9565 -0.2911
vn 0.0522 0.2890 -0.9559
vn 0.0258 -0.8810 -0.4725
vn 0.0481 0.4696 -0.8816
vn 0.0347 -0.7715 -0.6353
vn 0.0422 0.6326 -0.7734
vn 0.0422 -0.6326 -0.7734
vn 0.2377 0.2890 -0.9274
vn 0.1175 -0.8810 -0.4584
vn 0.2192 0.4696 -0.8552
vn 0.1580 -0.7715 -0.6163
vn 0.1923 0.6326 -0.7503
vn 0.1923 -0.6326 -0.7503
vn 0.1580 0.7715 -0.6163
vn 0.2192 -0.4696 -0.8552
vn 0.1175 0.8810 -0.4584
vn 0.2377 -0.2890 -0.9274
vn 0.0724 0.9565 -0.2824
vn 0.2471 -0.0975 -0.9641
vn 0.0245 -0.9951 -0.0954
vn 0.0245 0.9951 -0.0954
vn 0.2471 0.0975 -0.9641
vn 0.0724 -0.9565 -0.2824
vn 0.2046 0.8810 -0.4266
vn 0.4140 -0.2890 -0.8632
vn 0.1261 0.9566 -0.2629
vn 0.4304 -0.0975 -0.8973
vn 0.0426 -0.9951 -0.0888
vn 0.0426 0.9951 -0.0888
vn 0.4304 0.0975 -0.8973
vn 0.1261 -0.9565 -0.2629
vn 0.4140 0.2890 -0.8632
vn 0.2046 -0.8810 -0.4266
vn 0.3818 0.4696 -0.7960
vn 0.2752 -0.7715 -0.5736
vn 0.3350 0.6326 -0.6983
vn 0.3350 -0.6326 -0.6983
vn 0.2752 0.7715 -0.5736
vn 0.3818 -0.4696 -0.7960
vn 0.2839 -0.8810 -0.3785
vn 0.5298 0.4696 -0.7062
vn 0.3818 -0.7715 -0.5089
vn 0.4648 0.6326 -0.6196
vn 0.4648 -0.6326 -0.6196
vn 0.3818 0.7715 -0.5089
vn 0.5298 -0.4696 -0.7062
vn 0.2839 0.8810 -0.3785
vn 0.5745 -0.2890 -0.7658
vn 0.1750 0.9565 -0.2332
vn 0.5972 -0.0975 -0.7961
vn 0.0591 -0.9951 -0.0788
vn 0.0591 0.9951 -0.0788
vn 0.5972 0.0975 -0.7961
vn 0.1750 -0.9565 -0.2332
vn 0.5745 0.2890 -0.7658
vn 0.7128 -0.2890 -0.6390
vn 0.2171 0.9565 -0.1946
vn 0.7411 -0.0975 -0.6643
vn 0.0733 -0.9951 -0.0657
vn 0.0733 0.9951 -0.0657
vn 0.7411 0.0975 -0.6643
vn 0.2171 -0.9565 -0.1946
vn 0.7128 0.2890 -0.6390
vn 0.3523 -0.8810 -0.3158
vn 0.6574 0.4696 -0.5893
vn 0.4737 -0.7715 -0.4247
vn 0.5767 0.6326 -0.5170
vn 0.5767 -0.6326 -0.5170
vn 0.4737 0.7715 -0.4247
vn 0.6574 -0.4696 -0.5893
vn 0.3523 0.8810 -0.3158
vn 0.7597 0.4696 -0.4497
vn 0.5475 -0.7715 -0.3241
vn 0.6665 0.6326 -0.3945
vn 0.6665 -0.6326 -0.3945
vn 0.5475 0.7715 -0.3241
vn 0.7597 -0.4696 -0.4497
vn 0.4072 0.8810 -0.2410
vn 0.8238 -0.2890 -0.4877
vn 0.2509 0.9566 -0.1485
vn 0.8564 -0.0975 -0.5070
vn 0.0848 -0.9951 -0.0502
vn 0.0848 0.9951 -0.0502
vn 0.8564 0.0975 -0.5070
vn 0.2509 -0.9565 -0.1485
vn 0.8238 0.2890 -0.4877
vn 0.4072 -0.8810 -0.2410
vn 0.2751 0.9565 -0.0967
vn 0.9389 -0.0975 -0.3302
vn 0.0929 -0.9951 -0.0327
vn 0.0929 0.9951 -0.0327
vn 0.9389 0.0975 -0.3302
vn 0.2751 -0.9566 -0.0967
vn 0.9031 0.2890 -0.3176
vn 0.4464 -0.8810 -0.1570
vn 0.8329 0.4696 -0.2929
vn 0.6002 -0.7715 -0.2111
vn 0.7306 0.6326 -0.2569
vn 0.7307 -0.6326 -0.2569
vn 0.6002 0.7715 -0.2111
vn 0.8329 -0.4696 -0.2929
vn 0.4464 0.8810 -0.1570
vn 0.9031 -0.2890 -0.3176
vn 0.6298 -0.7715 -0.0899
vn 0.7667 0.6326 -0.1095
vn 0.7667 -0.6326 -0.1095
vn 0.6298 0.7715 -0.0899
vn 0.8740 -0.4696 -0.1248
vn 0.4684 0.8810 -0.0669
vn 0.9477 -0.2890 -0.1353
vn 0.2886 0.9565 -0.0412
vn 0.9852 -0.0975 -0.1407
vn 0.0975 -0.9951 -0.0139
vn 0.0975 0.9951 -0.0139
vn 0.9852 0.0975 -0.1407
vn 0.2886 -0.9565 -0.0412
vn 0.9477 0.2890 -0.1353
vn 0.4684 -0.8810 -0.0669
vn 0.8740 0.4696 -0.1248
vn 0.9938 -0.0975 0.0543
vn 0.0983 -0.9951 0.0054
vn 0.0983 0.9951 0.0054
vn 0.9938 0.0975 0.0543
vn 0.2911 -0.9565 0.0159
vn 0.9559 0.2890 0.0522
vn 0.4725 -0.8810 0.0258
vn 0.8816 0.4696 0.0481
vn 0.6353 -0.7715 0.0347
vn 0.7734 0.6326 0.0422
vn 0.7734 -0.6326 0.0422
vn 0.6353 0.7715 0.0347
vn 0.8816 -0.4696 0.0481
vn 0.4725 0.8810 0.0258
vn 0.9559 -0.2890 0.0522
vn 0.2911 0.9565 0.0159
vn 0.7503 0.6326 0.1923
vn 0.7503 -0.6326 0.1923
vn 0.6163 0.7715 0.1580
vn 0.8552 -0.4696 0.2192
vn 0.4584 0.8810 0.1175
vn 0.9274 -0.2890 0.2377
vn 0.2824 0.9566 0.0724
vn 0.9641 -0.0975 0.2471
vn 0.0954 -0.9951 0.0245
vn 0.0954 0.9951 0.0245
vn 0.9641 0.0975 0.2471
vn 0.2824 -0.9565 0.0724
vn 0.9274 0.2890 0.2377
vn 0.4584 -0.8810 0.1175
vn 0.8552 0.4696 0.2192
vn 0.6163 -0.7715 0.1580
vn 0.0888 0.9951 0.0426
vn 0.8973 0.0975 0.4304
vn 0.2629 -0.9565 0.1261
vn 0.8632 0.2890 0.4140
vn 0.4266 -0.8810 0.2046
vn 0.7960 0.4696 0.3818
vn 0.5736 -0.7715 0.2752
vn 0.6983 0.6326 0.3350
vn 0.6983 -0.6326 0.3350
vn 0.5736 0.7715 0.2752
vn 0.7960 -0.4696 0.3818
vn 0.4266 0.8810 0.2046
vn 0.8632 -0.2890 0.4140
vn 0.2629 0.9565 0.1261
vn 0.8973 -0.0975 0.4304
vn 0.0888 -0.9951 0.0426
vn 0.5089 0.7715 0.3818
vn 0.7062 -0.4696 0.5298
vn 0.3785 0.8810 0.2839
vn 0.7658 -0.2890 0.5745
vn 0.2332 0.9566 0.1750
vn 0.7961 -0.0975 0.5972
vn 0.0788 -0.9951 0.0591
vn 0.0788 0.9951 0.0591
vn 0.7961 0.0975 0.5972
vn 0.2332 -0.9565 0.1750
vn 0.7658 0.2890 0.5745
vn 0.3785 -0.8810 0.2839
vn 0.7062 0.4696 0.5298
vn 0.5089 -0.7715 0.3818
vn 0.6196 0.6326 0.4648
vn 0.6196 -0.6326 0.4648
vn 0.1946 -0.9565 0.2171
vn 0.6390 0.2890 0.7128
vn 0.3158 -0.8810 0.3523
vn 0.5893 0.4696 0.6574
vn 0.4247 -0.7715 0.4737
vn 0.5170 0.6326 0.5767
vn 0.5170 -0.6326 0.5767
vn 0.4247 0.7715 0.4737
vn 0.5893 -0.4696 0.6574
vn 0.3158 0.8810 0.3523
vn 0.6390 -0.2890 0.7128
vn 0.1946 0.9565 0.2171
vn 0.6643 -0.0975 0.7411
vn 0.0657 -0.9951 0.0733
vn 0.0657 0.9951 0.0733
vn 0.6643 0.0975 0.7411
vn 0.4497 -0.4696 0.7597
vn 0.2410 0.8810 0.4072
vn 0.4877 -0.2890 0.8238
vn 0.1485 0.9565 0.2509
vn 0.5070 -0.0975 0.8564
vn 0.0502 -0.9951 0.0848
vn 0.0502 0.9951 0.0847
vn 0.5070 0.0975 0.8564
vn 0.1485 -0.9566 0.2509
vn 0.4877 0.2890 0.8238
vn 0.2410 -0.8810 0.4072
vn 0.4497 0.4696 0.7597
vn 0.3241 -0.7715 0.5475
vn 0.3945 0.6326 0.6665
vn 0.3946 -0.6326 0.6665
vn 0.3241 0.7715 0.5475
vn 0.1407 -0.0976 0.9852
vn 0.1407 0.0975 0.9852
vn -0.2471 -0.0976 0.9641
vn -0.4304 0.0975 0.8973
vn -0.2751 -0.7715 0.5736
vn -0.1261 0.9565 0.2629
vn -0.4304 -0.0975 0.8973
vn -0.1750 0.9566 0.2332
vn -0.5972 -0.0975 0.7961
vn -0.5972 0.0975 0.7961
vn -0.2171 -0.9565 0.1946
vn -0.2751 0.9566 0.0967
vn -0.2824 0.9565 -0.0724
vn -0.2824 -0.9566 -0.0724
vn -0.2629 0.9565 -0.1261
vn -0.2629 -0.9566 -0.1261
vn -0.2333 -0.9565 -0.1750
vn -0.2332 0.9565 -0.1750
vn -0.1946 0.9566 -0.2171
vn -0.1485 -0.9566 -0.2509
vn 0.1261 0.9565 -0.2629
vn 0.1750 -0.9566 -0.2332
vn 0.2509 0.9565 -0.1485
vn 0.2751 -0.9565 -0.0967
vn 0.7306 -0.6326 -0.2569
vn 0.8815 0.4696 0.0481
vn 0.2824 0.9565 0.0724
vn 0.2824 -0.9566 0.0724
vn 0.2629 0.9566 0.1261
vn 0.2332 0.9565 0.1750
vn 0.5070 -0.0976 0.8564
vn 0.5070 0.0976 0.8564
vn 0.1485 -0.9565 0.2509
vn 0.3946 0.6326 0.6665
vn 0.3945 -0.6326 0.6665
vt 0.575759 0.418379
vt 0.519468 0.297938
vt 0.465457 0.344531
vt 0.652530 0.315889
vt 0.604784 0.190660
vt 0.547411 0.232554
vt 0.722724 0.219950
vt 0.680786 0.105899
vt 0.655892 0.160018
vt 0.807704 0.139766
vt 0.780535 0.011419
vt 0.717331 0.044552
vt 0.809712 0.296773
vt 0.798199 0.222249
vt 0.759669 0.252572
vt 0.593661 0.104228
vt 0.591058 0.017124
vt 0.501472 0.021562
vt 0.890078 0.127679
vt 0.867398 0.197639
vt 0.734352 0.294504
vt 0.720678 0.365679
vt 0.657009 0.399997
vt 0.640806 0.470868
vt 0.612932 0.366726
vt 0.762826 0.181860
vt 0.884795 0.289835
vt 0.890079 0.367805
vt 0.812050 0.372136
vt 0.733908 0.372646
vt 0.515613 0.200361
vt 0.574954 0.502240
vt 0.537656 0.466295
vt 0.689587 0.264576
vt 0.506788 0.111099
vt 0.443366 0.412238
vt 0.011419 0.030350
vt 0.204554 0.011419
vt 0.011419 0.011419
vt 0.011419 0.049280
vt 0.204554 0.030350
vt 0.011419 0.068211
vt 0.204554 0.049280
vt 0.011419 0.087141
vt 0.204554 0.068211
vt 0.011419 0.106072
vt 0.204554 0.087141
vt 0.011419 0.125002
vt 0.204554 0.106072
vt 0.011419 0.143933
vt 0.204554 0.125002
vt 0.011419 0.162863
vt 0.204554 0.143933
vt 0.011419 0.181794
vt 0.204554 0.162863
vt 0.011419 0.200724
vt 0.204554 0.181794
vt 0.011419 0.219655
vt 0.204554 0.200724
vt 0.011419 0.238585
vt 0.204554 0.219655
vt 0.011419 0.257516
vt 0.204554 0.238585
vt 0.011419 0.276446
vt 0.204554 0.257516
vt 0.011419 0.295377
vt 0.204554 0.276446
vt 0.011419 0.314307
vt 0.204554 0.295377
vt 0.011419 0.333238
vt 0.204554 0.314307
vt 0.011419 0.352168
vt 0.204554 0.333238
vt 0.011419 0.371099
vt 0.204554 0.352168
vt 0.011419 0.390029
vt 0.204554 0.371099
vt 0.011419 0.408960
vt 0.204554 0.390029
vt 0.011419 0.427890
vt 0.204554 0.408960
vt 0.011419 0.446821
vt 0.204554 0.427890
vt 0.011419 0.465751
vt 0.204554 0.446821
vt 0.011419 0.484682
vt 0.204554 0.465751
vt 0.011419 0.503612
vt 0.204554 0.484682
vt 0.011419 0.522543
vt 0.204554 0.503612
vt 0.011419 0.541473
vt 0.204554 0.522543
vt 0.011419 0.560404
vt 0.204554 0.541473
vt 0.011419 0.579334
vt 0.204554 0.560404
vt 0.750050 0.630646
vt 0.784891 0.695828
vt 0.907414 0.546533
vt 0.011419 0.598265
vt 0.204554 0.579334
vt 0.011419 0.617195
vt 0.204554 0.598265
vt 0.098056 0.832238
vt 0.168783 0.810783
vt 0.182169 0.674874
vt 0.227393 0.030350
vt 0.420527 0.011419
vt 0.227393 0.011419
vt 0.227393 0.049280
vt 0.420527 0.030350
vt 0.227393 0.068211
vt 0.420527 0.049280
vt 0.227393 0.087141
vt 0.420527 0.068211
vt 0.227393 0.106072
vt 0.420527 0.087141
vt 0.227393 0.125002
vt 0.420527 0.106072
vt 0.227393 0.143933
vt 0.420527 0.125002
vt 0.227393 0.162863
vt 0.420527 0.143933
vt 0.227393 0.181794
vt 0.420527 0.162863
vt 0.227393 0.200724
vt 0.420527 0.181794
vt 0.227393 0.219655
vt 0.420527 0.200724
vt 0.227393 0.238585
vt 0.420527 0.219655
vt 0.227393 0.257516
vt 0.420527 0.238585
vt 0.227393 0.276446
vt 0.420527 0.257516
vt 0.227393 0.295377
vt 0.420527 0.276446
vt 0.227393 0.314307
vt 0.420527 0.295377
vt 0.227393 0.333238
vt 0.420527 0.314307
vt 0.227393 0.352168
vt 0.420527 0.333238
vt 0.227393 0.371099
vt 0.420527 0.352168
vt 0.227393 0.390029
vt 0.420527 0.371099
vt 0.227393 0.408960
vt 0.420527 0.390029
vt 0.227393 0.427890
vt 0.420527 0.408960
vt 0.227393 0.446821
vt 0.420527 0.427890
vt 0.227393 0.465751
vt 0.420527 0.446821
vt 0.227393 0.484682
vt 0.420527 0.465751
vt 0.227393 0.503612
vt 0.420527 0.484682
vt 0.227393 0.522543
vt 0.420527 0.503612
vt 0.227393 0.541473
vt 0.420527 0.522543
vt 0.227393 0.560404
vt 0.420527 0.541473
vt 0.227393 0.579334
vt 0.420527 0.560404
vt 0.750050 0.845689
vt 0.784891 0.910872
vt 0.907414 0.761577
vt 0.227393 0.598265
vt 0.420527 0.579334
vt 0.227393 0.617195
vt 0.420527 0.598265
vt 0.313100 0.832238
vt 0.383826 0.810783
vt 0.397212 0.674874
vt 0.524131 0.705848
vt 0.535040 0.691885
vt 0.520856 0.697578
vt 0.606744 0.684272
vt 0.617236 0.696644
vt 0.619115 0.686349
vt 0.507674 0.712921
vt 0.504277 0.706125
vt 0.594928 0.683237
vt 0.605467 0.695088
vt 0.485408 0.724239
vt 0.482889 0.719425
vt 0.583674 0.694209
vt 0.583386 0.683176
vt 0.688067 0.716065
vt 0.685649 0.721322
vt 0.713675 0.731028
vt 0.459592 0.734680
vt 0.572949 0.694758
vt 0.571929 0.683816
vt 0.664825 0.702959
vt 0.562021 0.696026
vt 0.560254 0.685378
vt 0.647434 0.694858
vt 0.661540 0.710135
vt 0.550478 0.698093
vt 0.548098 0.687991
vt 0.632650 0.689643
vt 0.644360 0.703476
vt 0.540539 0.710260
vt 0.538002 0.701218
vt 0.627805 0.708575
vt 0.629963 0.699298
vt 0.526782 0.713948
vt 0.615687 0.706481
vt 0.510473 0.719761
vt 0.594431 0.694318
vt 0.604550 0.705235
vt 0.487504 0.729248
vt 0.583911 0.704594
vt 0.683231 0.726515
vt 0.710934 0.736254
vt 0.460901 0.737437
vt 0.573761 0.705037
vt 0.563362 0.706034
vt 0.658890 0.717274
vt 0.552350 0.707702
vt 0.641910 0.711861
vt 0.681197 0.731795
vt 0.709146 0.739533
vt 0.461993 0.740506
vt 0.489204 0.734415
vt 0.574416 0.714821
vt 0.564454 0.715616
vt 0.656768 0.724343
vt 0.639810 0.720052
vt 0.542388 0.718979
vt 0.614528 0.715855
vt 0.529027 0.721885
vt 0.603838 0.714911
vt 0.512757 0.726616
vt 0.594077 0.704673
vt 0.593822 0.714509
vt 0.624975 0.726132
vt 0.626150 0.717496
vt 0.530786 0.729707
vt 0.613596 0.724911
vt 0.514587 0.733475
vt 0.603300 0.724204
vt 0.490533 0.739714
vt 0.584125 0.714457
vt 0.593638 0.723916
vt 0.679518 0.737146
vt 0.707658 0.743036
vt 0.462841 0.743844
vt 0.574940 0.724228
vt 0.565323 0.724850
vt 0.654894 0.731329
vt 0.555107 0.725898
vt 0.553902 0.716957
vt 0.638269 0.728038
vt 0.543866 0.727478
vt 0.575357 0.733337
vt 0.584287 0.723947
vt 0.678187 0.742546
vt 0.565996 0.733813
vt 0.653432 0.738278
vt 0.637138 0.735858
vt 0.545002 0.735800
vt 0.624122 0.734535
vt 0.532127 0.737439
vt 0.602923 0.733213
vt 0.516012 0.740328
vt 0.491512 0.745124
vt 0.593533 0.733041
vt 0.706400 0.746635
vt 0.463424 0.747413
vt 0.533093 0.745096
vt 0.602705 0.742006
vt 0.612923 0.733701
vt 0.517015 0.747160
vt 0.584441 0.733110
vt 0.593498 0.741946
vt 0.677198 0.747958
vt 0.705300 0.750297
vt 0.464794 0.753695
vt 0.492668 0.750474
vt 0.575683 0.742229
vt 0.652599 0.745193
vt 0.566500 0.742577
vt 0.556027 0.734606
vt 0.636305 0.743593
vt 0.545829 0.743993
vt 0.623427 0.742805
vt 0.676530 0.753367
vt 0.566852 0.751214
vt 0.652139 0.752039
vt 0.556701 0.743146
vt 0.635811 0.751268
vt 0.546369 0.752100
vt 0.612568 0.742268
vt 0.623126 0.750959
vt 0.533713 0.752701
vt 0.602619 0.750658
vt 0.517649 0.753956
vt 0.493495 0.755813
vt 0.584588 0.742047
vt 0.593528 0.750704
vt 0.704456 0.754071
vt 0.465848 0.757363
vt 0.575931 0.750980
vt 0.602666 0.759237
vt 0.612341 0.750734
vt 0.517907 0.760723
vt 0.493999 0.761125
vt 0.584728 0.750837
vt 0.593622 0.759387
vt 0.676171 0.758773
vt 0.703931 0.757900
vt 0.466647 0.761039
vt 0.576107 0.759661
vt 0.651831 0.758847
vt 0.567063 0.759786
vt 0.557153 0.751576
vt 0.623080 0.759047
vt 0.546638 0.760167
vt 0.567140 0.768359
vt 0.635712 0.758878
vt 0.651885 0.765643
vt 0.557397 0.759954
vt 0.623294 0.767102
vt 0.546641 0.768241
vt 0.612331 0.759123
vt 0.534007 0.760282
vt 0.602847 0.767801
vt 0.517819 0.767487
vt 0.493680 0.766449
vt 0.584865 0.759553
vt 0.593784 0.768060
vt 0.676129 0.764161
vt 0.703635 0.761682
vt 0.466677 0.762161
vt 0.576215 0.768338
vt 0.533642 0.775516
vt 0.533982 0.767875
vt 0.603170 0.776412
vt 0.517338 0.774280
vt 0.585002 0.768262
vt 0.594018 0.776789
vt 0.676408 0.769499
vt 0.703502 0.765406
vt 0.466048 0.765878
vt 0.493043 0.771804
vt 0.576259 0.777079
vt 0.652536 0.772398
vt 0.567083 0.776994
vt 0.636404 0.774022
vt 0.635929 0.766444
vt 0.557439 0.768335
vt 0.623776 0.775177
vt 0.546376 0.776367
vt 0.612526 0.767491
vt 0.557279 0.776776
vt 0.566887 0.785757
vt 0.624556 0.783325
vt 0.545825 0.784591
vt 0.612930 0.775897
vt 0.603645 0.785136
vt 0.532889 0.783214
vt 0.516644 0.781118
vt 0.585143 0.777033
vt 0.594334 0.785644
vt 0.677010 0.774792
vt 0.703709 0.769077
vt 0.465326 0.772249
vt 0.492602 0.777194
vt 0.576237 0.785953
vt 0.653343 0.779159
vt 0.637298 0.781641
vt 0.515353 0.787978
vt 0.585292 0.785938
vt 0.594742 0.794700
vt 0.677951 0.780019
vt 0.704149 0.772603
vt 0.465195 0.773336
vt 0.491332 0.782442
vt 0.576146 0.795036
vt 0.654553 0.785928
vt 0.566541 0.794718
vt 0.638556 0.789306
vt 0.556907 0.785333
vt 0.625665 0.791577
vt 0.544976 0.792951
vt 0.614409 0.793045
vt 0.613553 0.784397
vt 0.604291 0.794041
vt 0.531845 0.790997
vt 0.627017 0.799988
vt 0.543789 0.801518
vt 0.556306 0.794066
vt 0.605146 0.803212
vt 0.530400 0.798930
vt 0.513618 0.794879
vt 0.585453 0.795052
vt 0.595259 0.804041
vt 0.679246 0.785146
vt 0.704754 0.775976
vt 0.463927 0.776755
vt 0.489706 0.787654
vt 0.575979 0.804413
vt 0.656415 0.792640
vt 0.566028 0.803958
vt 0.640152 0.797048
vt 0.585630 0.804462
vt 0.595904 0.813757
vt 0.680910 0.790166
vt 0.705684 0.779172
vt 0.462436 0.780071
vt 0.487715 0.792805
vt 0.575727 0.814182
vt 0.658547 0.799381
vt 0.565323 0.813566
vt 0.642304 0.804930
vt 0.555450 0.803050
vt 0.628903 0.808633
vt 0.554299 0.812360
vt 0.617091 0.811081
vt 0.615625 0.801926
vt 0.542210 0.810351
vt 0.606220 0.812714
vt 0.528432 0.807048
vt 0.511612 0.801869
vt 0.540180 0.819491
vt 0.618962 0.820612
vt 0.607575 0.822667
vt 0.525949 0.815343
vt 0.509028 0.808928
vt 0.585829 0.814266
vt 0.596704 0.823968
vt 0.682967 0.795042
vt 0.706815 0.782110
vt 0.460063 0.785428
vt 0.485756 0.798033
vt 0.575372 0.824457
vt 0.661228 0.806109
vt 0.564389 0.823647
vt 0.644986 0.812940
vt 0.631254 0.817534
vt 0.685446 0.799735
vt 0.708152 0.784739
vt 0.459598 0.786300
vt 0.482980 0.802888
vt 0.574894 0.835382
vt 0.586057 0.824585
vt 0.563174 0.834328
vt 0.648304 0.821091
vt 0.552801 0.822080
vt 0.634178 0.826752
vt 0.537615 0.829004
vt 0.621315 0.830609
vt 0.609275 0.833187
vt 0.522918 0.823811
vt 0.597700 0.834811
vt 0.637805 0.836346
vt 0.534380 0.838987
vt 0.611411 0.844423
vt 0.501676 0.822966
vt 0.505684 0.815952
vt 0.479747 0.807556
vt 0.586321 0.835564
vt 0.598944 0.846461
vt 0.688370 0.804181
vt 0.709586 0.787040
vt 0.457550 0.788729
vt 0.574257 0.847136
vt 0.664514 0.812805
vt 0.561605 0.845770
vt 0.668668 0.819340
vt 0.550878 0.832312
vt 0.573414 0.859946
vt 0.586631 0.847388
vt 0.692009 0.808117
vt 0.559577 0.858171
vt 0.657309 0.837833
vt 0.652298 0.829358
vt 0.548424 0.843185
vt 0.642334 0.846410
vt 0.530309 0.849520
vt 0.624267 0.841181
vt 0.519126 0.832542
vt 0.614109 0.856562
vt 0.514433 0.841536
vt 0.476035 0.811981
vt 0.600509 0.859138
vt 0.710270 0.787588
vt 0.455317 0.790833
vt 0.525175 0.860689
vt 0.617543 0.869841
vt 0.627981 0.852469
vt 0.491188 0.836739
vt 0.496886 0.829922
vt 0.471825 0.816089
vt 0.587001 0.860292
vt 0.602499 0.873133
vt 0.696121 0.811731
vt 0.712501 0.788944
vt 0.452976 0.792557
vt 0.572294 0.874114
vt 0.673391 0.825787
vt 0.556941 0.871787
vt 0.679046 0.832019
vt 0.545293 0.854850
vt 0.647983 0.856980
vt 0.553480 0.886953
vt 0.663425 0.846438
vt 0.685878 0.837819
vt 0.541278 0.867490
vt 0.655060 0.868088
vt 0.518665 0.872573
vt 0.632678 0.864626
vt 0.508643 0.850780
vt 0.621968 0.884566
vt 0.484437 0.843294
vt 0.467104 0.819785
vt 0.587448 0.874589
vt 0.605062 0.888835
vt 0.700714 0.814923
vt 0.714703 0.789898
vt 0.450611 0.793850
vt 0.570792 0.890043
vt 0.476482 0.849401
vt 0.501501 0.860223
vt 0.627759 0.901152
vt 0.461870 0.822953
vt 0.587995 0.890700
vt 0.608417 0.906779
vt 0.705688 0.817776
vt 0.717756 0.790977
vt 0.448326 0.794672
vt 0.568751 0.908289
vt 0.548866 0.904118
vt 0.670783 0.855006
vt 0.693749 0.843135
vt 0.536084 0.881329
vt 0.664050 0.879794
vt 0.510340 0.885235
vt 0.638678 0.877836
vt 0.691056 0.871621
vt 0.679989 0.863572
vt 0.529279 0.896638
vt 0.542593 0.923907
vt 0.675523 0.891992
vt 0.499579 0.898691
vt 0.646443 0.892336
vt 0.492675 0.869747
vt 0.635485 0.920162
vt 0.481755 0.879122
vt 0.456148 0.825454
vt 0.588676 0.909209
vt 0.612890 0.927723
vt 0.711114 0.819885
vt 0.719158 0.791147
vt 0.446250 0.795012
vt 0.565929 0.929641
vt 0.702977 0.847552
vt 0.646072 0.942448
vt 0.449995 0.827126
vt 0.467169 0.854788
vt 0.589535 0.930929
vt 0.618951 0.952779
vt 0.716914 0.821101
vt 0.720219 0.790904
vt 0.444539 0.794900
vt 0.561984 0.955260
vt 0.533831 0.947265
vt 0.713386 0.850735
vt 0.520221 0.913750
vt 0.690464 0.904579
vt 0.485462 0.912863
vt 0.656643 0.908373
vt 0.456365 0.859074
vt 0.507940 0.933013
vt 0.520980 0.975987
vt 0.710295 0.917203
vt 0.704863 0.878875
vt 0.466505 0.927563
vt 0.670291 0.926208
vt 0.468250 0.887906
vt 0.661273 0.969620
vt 0.444000 0.861734
vt 0.443520 0.827791
vt 0.590639 0.956972
vt 0.627180 0.983640
vt 0.722939 0.821260
vt 0.720738 0.790444
vt 0.443366 0.794429
vt 0.556524 0.986912
vt 0.725025 0.852085
vt 0.445320 0.696991
vt 0.455090 0.667115
vt 0.443366 0.665643
vt 0.577602 0.525079
vt 0.608649 0.562003
vt 0.615620 0.529760
vt 0.727039 0.690518
vt 0.720589 0.691184
vt 0.727211 0.723756
vt 0.447497 0.727859
vt 0.451355 0.697155
vt 0.550016 0.564519
vt 0.540255 0.533219
vt 0.714238 0.659301
vt 0.726524 0.656743
vt 0.522960 0.575396
vt 0.507960 0.549698
vt 0.719482 0.622698
vt 0.479813 0.571975
vt 0.684819 0.605330
vt 0.703120 0.591182
vt 0.478973 0.613294
vt 0.460088 0.601206
vt 0.680252 0.563206
vt 0.447191 0.632871
vt 0.636801 0.570588
vt 0.649597 0.543281
vt 0.670813 0.619430
vt 0.702367 0.630441
vt 0.493640 0.625837
vt 0.498825 0.591900
vt 0.662701 0.585200
vt 0.464108 0.638858
vt 0.627783 0.593861
vt 0.477606 0.646241
vt 0.465723 0.670416
vt 0.579147 0.559894
vt 0.604252 0.588034
vt 0.714455 0.692870
vt 0.726125 0.723320
vt 0.447889 0.727777
vt 0.457235 0.698411
vt 0.556519 0.589938
vt 0.703350 0.663589
vt 0.533738 0.597552
vt 0.688886 0.639219
vt 0.580263 0.586805
vt 0.601265 0.609650
vt 0.708749 0.695402
vt 0.724517 0.723243
vt 0.449854 0.727242
vt 0.462692 0.700393
vt 0.561130 0.611133
vt 0.693926 0.668971
vt 0.541591 0.616684
vt 0.678032 0.648554
vt 0.512552 0.609684
vt 0.660039 0.632937
vt 0.505095 0.638179
vt 0.650225 0.604440
vt 0.621340 0.613782
vt 0.488835 0.654521
vt 0.474852 0.674967
vt 0.514091 0.650026
vt 0.522798 0.625749
vt 0.641053 0.621559
vt 0.651657 0.645709
vt 0.616625 0.631103
vt 0.497993 0.663154
vt 0.482777 0.680414
vt 0.581112 0.608860
vt 0.599147 0.628084
vt 0.703546 0.698608
vt 0.722501 0.723549
vt 0.450489 0.727252
vt 0.467675 0.703273
vt 0.564532 0.629265
vt 0.685997 0.675161
vt 0.547448 0.633430
vt 0.669095 0.658143
vt 0.452168 0.727863
vt 0.472154 0.706752
vt 0.567110 0.645119
vt 0.581776 0.627555
vt 0.679298 0.681821
vt 0.551908 0.648312
vt 0.530599 0.640331
vt 0.645093 0.657706
vt 0.521212 0.661303
vt 0.628899 0.650860
vt 0.634162 0.636933
vt 0.613102 0.646415
vt 0.489560 0.686429
vt 0.597602 0.644160
vt 0.698866 0.702347
vt 0.720281 0.724351
vt 0.505483 0.671891
vt 0.526890 0.672014
vt 0.610431 0.660158
vt 0.495333 0.692807
vt 0.582308 0.643802
vt 0.596455 0.658453
vt 0.694707 0.706499
vt 0.717969 0.725641
vt 0.453944 0.728995
vt 0.476126 0.710711
vt 0.569103 0.659244
vt 0.673690 0.688754
vt 0.555358 0.661730
vt 0.661859 0.667649
vt 0.536634 0.653655
vt 0.639930 0.668972
vt 0.668733 0.695784
vt 0.558048 0.673978
vt 0.655944 0.676975
vt 0.541370 0.665929
vt 0.635894 0.679558
vt 0.531433 0.682198
vt 0.624822 0.663598
vt 0.511626 0.680587
vt 0.608396 0.672655
vt 0.500223 0.699408
vt 0.582740 0.658213
vt 0.595594 0.671369
vt 0.691299 0.711270
vt 0.717338 0.726270
vt 0.455707 0.730628
vt 0.479605 0.715054
vt 0.570667 0.672035
vt 0.621610 0.675376
vt 0.516679 0.689165
vt 0.583095 0.671222
vt 0.714148 0.730153
vt 0.458949 0.733994
vt 0.651216 0.686005
vt 0.545146 0.677347
vt 0.849054 0.095621
vt 0.875706 0.212212
vt 0.680747 0.016205
vt 0.800631 0.706346
vt 0.818120 0.713590
vt 0.836687 0.717283
vt 0.855618 0.717283
vt 0.874184 0.713590
vt 0.891674 0.706346
vt 0.907414 0.695828
vt 0.920800 0.682442
vt 0.931317 0.666702
vt 0.938561 0.649213
vt 0.942255 0.630646
vt 0.942255 0.611716
vt 0.938561 0.593149
vt 0.931317 0.575660
vt 0.920800 0.559919
vt 0.891674 0.536016
vt 0.874184 0.528772
vt 0.855618 0.525079
vt 0.836687 0.525079
vt 0.818120 0.528772
vt 0.800631 0.536016
vt 0.784891 0.546533
vt 0.771505 0.559919
vt 0.760988 0.575659
vt 0.753743 0.593149
vt 0.750050 0.611716
vt 0.753743 0.649213
vt 0.760988 0.666702
vt 0.771505 0.682442
vt 0.204554 0.617195
vt 0.168783 0.661488
vt 0.116987 0.640034
vt 0.153043 0.650971
vt 0.135554 0.643727
vt 0.098056 0.640034
vt 0.079490 0.643727
vt 0.062000 0.650971
vt 0.046260 0.661488
vt 0.032874 0.674874
vt 0.022357 0.690614
vt 0.015113 0.708104
vt 0.011419 0.726671
vt 0.011419 0.745601
vt 0.015113 0.764168
vt 0.022357 0.781657
vt 0.032874 0.797397
vt 0.046260 0.810783
vt 0.062000 0.821301
vt 0.079490 0.828545
vt 0.116987 0.832238
vt 0.135554 0.828545
vt 0.153043 0.821301
vt 0.182169 0.797397
vt 0.192686 0.781657
vt 0.199931 0.764168
vt 0.203624 0.745601
vt 0.203624 0.726671
vt 0.199931 0.708104
vt 0.192686 0.690614
vt 0.800631 0.921389
vt 0.818120 0.928633
vt 0.836687 0.932326
vt 0.855618 0.932326
vt 0.874184 0.928633
vt 0.891674 0.921389
vt 0.907414 0.910872
vt 0.920800 0.897486
vt 0.931317 0.881746
vt 0.938561 0.864256
vt 0.942255 0.845689
vt 0.942255 0.826759
vt 0.938561 0.808192
vt 0.931317 0.790703
vt 0.920800 0.774962
vt 0.891674 0.751059
vt 0.874184 0.743815
vt 0.855618 0.740122
vt 0.836687 0.740122
vt 0.818120 0.743815
vt 0.800631 0.751059
vt 0.784891 0.761577
vt 0.771505 0.774962
vt 0.760988 0.790703
vt 0.753743 0.808192
vt 0.750050 0.826759
vt 0.753743 0.864256
vt 0.760988 0.881746
vt 0.771505 0.897486
vt 0.420527 0.617195
vt 0.383826 0.661488
vt 0.332030 0.640034
vt 0.368086 0.650971
vt 0.350597 0.643727
vt 0.313099 0.640034
vt 0.294533 0.643727
vt 0.277043 0.650971
vt 0.261303 0.661488
vt 0.247917 0.674874
vt 0.237400 0.690614
vt 0.230156 0.708104
vt 0.226463 0.726671
vt 0.226463 0.745601
vt 0.230156 0.764168
vt 0.237400 0.781657
vt 0.247917 0.797397
vt 0.261303 0.810783
vt 0.277043 0.821301
vt 0.294533 0.828545
vt 0.332030 0.832238
vt 0.350597 0.828545
vt 0.368086 0.821301
vt 0.397212 0.797398
vt 0.407729 0.781657
vt 0.414974 0.764168
vt 0.418667 0.745601
vt 0.418667 0.726671
vt 0.414974 0.708104
vt 0.407729 0.690614
vt 0.491029 0.954491
vt 0.721652 0.884344
vt 0.688784 0.945754
vt 0.451696 0.895252
vt 0.592069 0.988581
s 0
usemtl マテリアル
f 24/1/1 4/2/1 20/3/1
f 18/4/2 8/5/2 14/6/2
f 23/7/3 6/8/3 22/9/3
f 17/10/4 2/11/4 16/12/4
f 26/13/5 5/14/5 21/15/5
f 25/16/6 2/17/6 20/18/6
f 1/19/7 17/10/7 15/20/7
f 5/14/8 23/7/8 21/15/8
f 7/21/9 18/4/9 13/22/9
f 3/23/10 24/1/10 19/24/10
f 3/23/11 18/4/11 10/25/11
f 5/14/12 17/10/12 12/26/12
f 6/8/6 25/16/6 22/9/6
f 1/27/5 26/13/5 19/28/5
f 17/10/12 6/8/12 12/26/12
f 18/4/11 4/2/11 10/25/11
f 3/29/5 26/13/5 13/30/5
f 8/5/6 25/16/6 14/31/6
f 1/32/13 24/1/13 9/33/13
f 7/21/14 23/7/14 11/34/14
f 25/16/6 4/35/6 14/31/6
f 26/13/5 7/21/5 13/30/5
f 23/7/14 8/5/14 11/34/14
f 24/1/13 2/36/13 9/33/13
f 29/37/15 28/38/15 27/39/15
f 31/40/16 30/41/16 29/37/16
f 33/42/17 32/43/17 31/40/17
f 35/44/18 34/45/18 33/42/18
f 37/46/19 36/47/19 35/44/19
f 39/48/20 38/49/20 37/46/20
f 41/50/21 40/51/21 39/48/21
f 43/52/22 42/53/22 41/50/22
f 45/54/23 44/55/23 43/52/23
f 47/56/24 46/57/24 45/54/24
f 49/58/25 48/59/25 47/56/25
f 51/60/26 50/61/26 49/58/26
f 53/62/27 52/63/27 51/60/27
f 55/64/28 54/65/28 53/62/28
f 57/66/29 56/67/29 55/64/29
f 59/68/30 58/69/30 57/66/30
f 61/70/31 60/71/31 59/68/31
f 63/72/32 62/73/32 61/70/32
f 65/74/33 64/75/33 63/72/33
f 67/76/34 66/77/34 65/74/34
f 69/78/35 68/79/35 67/76/35
f 71/80/36 70/81/36 69/78/36
f 73/82/37 72/83/37 71/80/37
f 75/84/38 74/85/38 73/82/38
f 77/86/39 76/87/39 75/84/39
f 79/88/40 78/89/40 77/86/40
f 81/90/41 80/91/41 79/88/41
f 83/92/42 82/93/42 81/90/42
f 85/94/43 84/95/43 83/92/43
f 87/96/44 86/97/44 85/94/44
f 84/98/6 28/99/6 60/100/6
f 89/101/45 88/102/45 87/96/45
f 27/103/46 90/104/46 89/101/46
f 53/105/5 45/106/5 29/107/5
f 93/108/15 92/109/15 91/110/15
f 95/111/16 94/112/16 93/108/16
f 97/113/17 96/114/17 95/111/17
f 99/115/18 98/116/18 97/113/18
f 101/117/19 100/118/19 99/115/19
f 103/119/20 102/120/20 101/117/20
f 105/121/21 104/122/21 103/119/21
f 107/123/22 106/124/22 105/121/22
f 109/125/23 108/126/23 107/123/23
f 111/127/24 110/128/24 109/125/24
f 113/129/25 112/130/25 111/127/25
f 115/131/26 114/132/26 113/129/26
f 117/133/27 116/134/27 115/131/27
f 119/135/28 118/136/28 117/133/28
f 121/137/29 120/138/29 119/135/29
f 123/139/30 122/140/30 121/137/30
f 125/141/31 124/142/31 123/139/31
f 127/143/32 126/144/32 125/141/32
f 129/145/33 128/146/33 127/143/33
f 131/147/34 130/148/34 129/145/34
f 133/149/35 132/150/35 131/147/35
f 135/151/36 134/152/36 133/149/36
f 137/153/37 136/154/37 135/151/37
f 139/155/38 138/156/38 137/153/38
f 141/157/39 140/158/39 139/155/39
f 143/159/40 142/160/40 141/157/40
f 145/161/41 144/162/41 143/159/41
f 147/163/42 146/164/42 145/161/42
f 149/165/43 148/166/43 147/163/43
f 151/167/44 150/168/44 149/165/44
f 148/169/6 92/170/6 124/171/6
f 153/172/45 152/173/45 151/167/45
f 91/174/46 154/175/46 153/172/46
f 117/176/5 109/177/5 93/178/5
f 173/179/47 633/180/47 634/181/47
f 631/182/48 165/183/48 156/184/48
f 174/185/49 634/181/49 635/186/49
f 157/187/50 166/188/50 631/182/50
f 175/189/51 635/186/51 636/190/51
f 168/191/52 157/187/52 158/192/52
f 628/193/53 161/194/53 236/195/53
f 462/196/54 175/189/54 636/190/54
f 169/197/55 158/192/55 159/198/55
f 629/199/56 161/194/56 628/193/56
f 170/200/57 159/198/57 632/201/57
f 155/202/58 162/203/58 629/199/58
f 171/204/59 632/201/59 160/205/59
f 630/206/60 163/207/60 155/202/60
f 633/180/61 171/204/61 160/205/61
f 165/183/62 630/206/62 156/184/62
f 187/208/63 171/204/63 172/209/63
f 165/183/64 179/210/64 164/211/64
f 188/212/65 172/209/65 173/179/65
f 166/188/66 180/213/66 165/183/66
f 189/214/67 173/179/67 174/185/67
f 167/215/68 181/216/68 166/188/68
f 190/217/69 174/185/69 175/189/69
f 183/218/70 167/215/70 168/191/70
f 161/194/71 176/219/71 236/220/71
f 462/221/72 190/217/72 175/189/72
f 184/222/73 168/191/73 169/197/73
f 162/203/74 176/219/74 161/194/74
f 185/223/75 169/197/75 170/200/75
f 163/207/76 177/224/76 162/203/76
f 186/225/77 170/200/77 171/204/77
f 164/211/78 178/226/78 163/207/78
f 176/219/79 191/227/79 236/228/79
f 462/229/80 205/230/80 190/217/80
f 199/231/81 183/218/81 184/222/81
f 177/224/82 191/227/82 176/219/82
f 200/232/83 184/222/83 185/223/83
f 178/226/84 192/233/84 177/224/84
f 186/225/85 200/232/85 185/223/85
f 179/210/86 193/234/86 178/226/86
f 202/235/87 186/225/87 187/208/87
f 195/236/88 179/210/88 180/213/88
f 203/237/89 187/208/89 188/212/89
f 196/238/90 180/213/90 181/216/90
f 204/239/91 188/212/91 189/214/91
f 182/240/92 196/238/92 181/216/92
f 205/230/93 189/214/93 190/217/93
f 183/218/94 197/241/94 182/240/94
f 195/236/95 209/242/95 194/243/95
f 218/244/96 202/235/96 203/237/96
f 196/238/97 210/245/97 195/236/97
f 219/246/98 203/237/98 204/239/98
f 197/241/99 211/247/99 196/238/99
f 220/248/100 204/239/100 205/230/100
f 198/249/101 212/250/101 197/241/101
f 191/227/102 206/251/102 236/252/102
f 462/253/103 220/248/103 205/230/103
f 214/254/104 198/249/104 199/231/104
f 192/233/105 206/251/105 191/227/105
f 215/255/106 199/231/106 200/232/106
f 193/234/107 207/256/107 192/233/107
f 216/257/108 200/232/108 201/258/108
f 194/243/109 208/259/109 193/234/109
f 217/260/110 201/258/110 202/235/110
f 229/261/111 213/262/111 214/254/111
f 207/256/112 221/263/112 206/251/112
f 230/264/113 214/254/113 215/255/113
f 208/259/114 222/265/114 207/256/114
f 216/257/115 230/264/115 215/255/115
f 209/242/116 223/266/116 208/259/116
f 232/267/117 216/257/117 217/260/117
f 210/245/118 224/268/118 209/242/118
f 233/269/119 217/260/119 218/244/119
f 226/270/120 210/245/120 211/247/120
f 234/271/121 218/244/121 219/246/121
f 212/250/122 226/270/122 211/247/122
f 235/272/123 219/246/123 220/248/123
f 213/262/124 227/273/124 212/250/124
f 206/251/125 221/263/125 236/274/125
f 462/275/126 235/272/126 220/248/126
f 249/276/127 232/267/127 233/269/127
f 242/277/128 225/278/128 226/270/128
f 250/279/129 233/269/129 234/271/129
f 227/273/130 242/277/130 226/270/130
f 235/272/131 250/279/131 234/271/131
f 228/280/132 243/281/132 227/273/132
f 221/263/133 237/282/133 236/283/133
f 462/284/134 251/285/134 235/272/134
f 245/286/135 228/280/135 229/261/135
f 238/287/136 221/263/136 222/265/136
f 246/288/137 229/261/137 230/264/137
f 223/266/138 238/287/138 222/265/138
f 231/289/139 246/288/139 230/264/139
f 224/268/140 239/290/140 223/266/140
f 248/291/141 231/289/141 232/267/141
f 225/278/142 240/292/142 224/268/142
f 238/287/143 252/293/143 237/282/143
f 261/294/144 245/286/144 246/288/144
f 239/290/145 253/295/145 238/287/145
f 247/296/146 261/294/146 246/288/146
f 240/292/147 254/297/147 239/290/147
f 263/298/148 247/296/148 248/291/148
f 241/299/149 255/300/149 240/292/149
f 264/301/150 248/291/150 249/276/150
f 257/302/151 241/299/151 242/277/151
f 265/303/152 249/276/152 250/279/152
f 243/281/153 257/302/153 242/277/153
f 266/304/154 250/279/154 251/285/154
f 244/305/155 258/306/155 243/281/155
f 237/282/156 252/293/156 236/307/156
f 462/308/157 266/304/157 251/285/157
f 260/309/158 244/305/158 245/286/158
f 272/310/159 256/311/159 257/302/159
f 280/312/160 264/301/160 265/303/160
f 258/306/161 272/310/161 257/302/161
f 281/313/162 265/303/162 266/304/162
f 259/314/163 273/315/163 258/306/163
f 252/293/164 267/316/164 236/317/164
f 462/318/165 281/313/165 266/304/165
f 275/319/166 259/314/166 260/309/166
f 268/320/167 252/293/167 253/295/167
f 276/321/168 260/309/168 261/294/168
f 254/297/169 268/320/169 253/295/169
f 262/322/170 276/321/170 261/294/170
f 270/323/171 254/297/171 255/300/171
f 278/324/172 262/322/172 263/298/172
f 256/311/173 270/323/173 255/300/173
f 264/301/174 278/324/174 263/298/174
f 291/325/175 275/319/175 276/321/175
f 269/326/176 283/327/176 268/320/176
f 277/328/177 291/325/177 276/321/177
f 285/329/178 269/326/178 270/323/178
f 293/330/179 277/328/179 278/324/179
f 271/331/180 285/329/180 270/323/180
f 279/332/181 293/330/181 278/324/181
f 287/333/182 271/331/182 272/310/182
f 295/334/183 279/332/183 280/312/183
f 273/315/184 287/333/184 272/310/184
f 296/335/185 280/312/185 281/313/185
f 274/336/186 288/337/186 273/315/186
f 267/316/187 282/338/187 236/339/187
f 462/340/188 296/335/188 281/313/188
f 290/341/189 274/336/189 275/319/189
f 268/320/190 282/338/190 267/316/190
f 295/334/191 309/342/191 294/343/191
f 288/337/192 302/344/192 287/333/192
f 296/335/193 310/345/193 295/334/193
f 289/346/194 303/347/194 288/337/194
f 282/338/195 297/348/195 236/349/195
f 462/350/196 311/351/196 296/335/196
f 305/352/197 289/346/197 290/341/197
f 298/353/198 282/338/198 283/327/198
f 306/354/199 290/341/199 291/325/199
f 299/355/200 283/327/200 284/356/200
f 292/357/201 306/354/201 291/325/201
f 300/358/202 284/356/202 285/329/202
f 308/359/203 292/357/203 293/330/203
f 286/360/204 300/358/204 285/329/204
f 294/343/205 308/359/205 293/330/205
f 302/344/206 286/360/206 287/333/206
f 307/361/207 321/362/207 306/354/207
f 315/363/208 299/355/208 300/358/208
f 323/364/209 307/361/209 308/359/209
f 301/365/210 315/363/210 300/358/210
f 309/342/211 323/364/211 308/359/211
f 317/366/212 301/365/212 302/344/212
f 310/345/213 324/367/213 309/342/213
f 303/347/214 317/366/214 302/344/214
f 311/351/215 325/368/215 310/345/215
f 304/369/216 318/370/216 303/347/216
f 297/348/217 312/371/217 236/372/217
f 462/373/218 326/374/218 311/351/218
f 320/375/219 304/369/219 305/352/219
f 313/376/220 297/348/220 298/353/220
f 321/362/221 305/352/221 306/354/221
f 314/377/222 298/353/222 299/355/222
f 326/374/223 340/378/223 325/368/223
f 319/379/224 333/380/224 318/370/224
f 312/371/225 327/381/225 236/382/225
f 462/383/226 341/384/226 326/374/226
f 335/385/227 319/379/227 320/375/227
f 328/386/228 312/371/228 313/376/228
f 336/387/229 320/375/229 321/362/229
f 329/388/230 313/376/230 314/377/230
f 322/389/231 336/387/231 321/362/231
f 330/390/232 314/377/232 315/363/232
f 338/391/233 322/389/233 323/364/233
f 331/392/234 315/363/234 316/393/234
f 324/367/235 338/391/235 323/364/235
f 332/394/236 316/393/236 317/366/236
f 325/368/237 339/395/237 324/367/237
f 318/370/238 332/394/238 317/366/238
f 345/396/239 329/388/239 330/390/239
f 353/397/240 337/398/240 338/391/240
f 331/392/241 345/396/241 330/390/241
f 339/395/242 353/397/242 338/391/242
f 347/399/243 331/392/243 332/394/243
f 340/378/244 354/400/244 339/395/244
f 333/380/245 347/399/245 332/394/245
f 341/384/246 355/401/246 340/378/246
f 334/402/247 348/403/247 333/380/247
f 327/381/248 342/404/248 236/405/248
f 462/406/249 356/407/249 341/384/249
f 350/408/250 334/402/250 335/385/250
f 343/409/251 327/381/251 328/386/251
f 351/410/252 335/385/252 336/387/252
f 344/411/253 328/386/253 329/388/253
f 337/398/254 351/410/254 336/387/254
f 349/412/255 363/413/255 348/403/255
f 342/404/256 357/414/256 236/415/256
f 462/416/257 371/417/257 356/407/257
f 365/418/258 349/412/258 350/408/258
f 358/419/259 342/404/259 343/409/259
f 366/420/260 350/408/260 351/410/260
f 359/421/261 343/409/261 344/411/261
f 352/422/262 366/420/262 351/410/262
f 360/423/263 344/411/263 345/396/263
f 353/397/264 367/424/264 352/422/264
f 361/425/265 345/396/265 346/426/265
f 354/400/266 368/427/266 353/397/266
f 362/428/267 346/426/267 347/399/267
f 355/401/268 369/429/268 354/400/268
f 348/403/269 362/428/269 347/399/269
f 356/407/270 370/430/270 355/401/270
f 383/431/271 367/424/271 368/427/271
f 376/432/272 360/423/272 361/425/272
f 369/429/273 383/431/273 368/427/273
f 377/433/274 361/425/274 362/428/274
f 370/430/275 384/434/275 369/429/275
f 363/413/276 377/433/276 362/428/276
f 371/417/277 385/435/277 370/430/277
f 364/436/278 378/437/278 363/413/278
f 357/414/279 372/438/279 236/439/279
f 462/440/280 386/441/280 371/417/280
f 380/442/281 364/436/281 365/418/281
f 373/443/282 357/414/282 358/419/282
f 381/444/283 365/418/283 366/420/283
f 374/445/284 358/419/284 359/421/284
f 367/424/285 381/444/285 366/420/285
f 375/446/286 359/421/286 360/423/286
f 372/438/287 387/447/287 236/448/287
f 462/449/288 401/450/288 386/441/288
f 395/451/289 379/452/289 380/442/289
f 373/443/290 387/447/290 372/438/290
f 396/453/291 380/442/291 381/444/291
f 389/454/292 373/443/292 374/445/292
f 382/455/293 396/453/293 381/444/293
f 390/456/294 374/445/294 375/446/294
f 398/457/295 382/455/295 383/431/295
f 391/458/296 375/446/296 376/432/296
f 384/434/297 398/457/297 383/431/297
f 392/459/298 376/432/298 377/433/298
f 385/435/299 399/460/299 384/434/299
f 378/437/300 392/459/300 377/433/300
f 401/450/301 385/435/301 386/441/301
f 379/452/302 393/461/302 378/437/302
f 391/458/303 405/462/303 390/456/303
f 399/460/304 413/463/304 398/457/304
f 407/464/305 391/458/305 392/459/305
f 415/465/306 399/460/306 400/466/306
f 393/461/307 407/464/307 392/459/307
f 416/467/308 400/466/308 401/450/308
f 394/468/309 408/469/309 393/461/309
f 387/447/310 402/470/310 236/471/310
f 462/472/311 416/467/311 401/450/311
f 410/473/312 394/468/312 395/451/312
f 388/474/313 402/470/313 387/447/313
f 411/475/314 395/451/314 396/453/314
f 389/454/315 403/476/315 388/474/315
f 397/477/316 411/475/316 396/453/316
f 405/462/317 389/454/317 390/456/317
f 413/463/318 397/477/318 398/457/318
f 425/478/319 409/479/319 410/473/319
f 403/476/320 417/480/320 402/470/320
f 426/481/321 410/473/321 411/475/321
f 419/482/322 403/476/322 404/483/322
f 412/484/323 426/481/323 411/475/323
f 420/485/324 404/483/324 405/462/324
f 428/486/325 412/484/325 413/463/325
f 406/487/326 420/485/326 405/462/326
f 414/488/327 428/486/327 413/463/327
f 422/489/328 406/487/328 407/464/328
f 415/465/329 429/490/329 414/488/329
f 408/469/330 422/489/330 407/464/330
f 431/491/331 415/465/331 416/467/331
f 409/479/332 423/492/332 408/469/332
f 402/470/333 417/480/333 236/493/333
f 462/494/334 431/491/334 416/467/334
f 429/490/335 443/495/335 428/486/335
f 437/496/336 421/497/336 422/489/336
f 445/498/337 429/490/337 430/499/337
f 423/492/338 437/496/338 422/489/338
f 446/500/339 430/499/339 431/491/339
f 424/501/340 438/502/340 423/492/340
f 417/480/341 432/503/341 236/504/341
f 462/505/342 446/500/342 431/491/342
f 440/506/343 424/501/343 425/478/343
f 418/507/344 432/503/344 417/480/344
f 441/508/345 425/478/345 426/481/345
f 419/482/346 433/509/346 418/507/346
f 427/510/347 441/508/347 426/481/347
f 435/511/348 419/482/348 420/485/348
f 443/495/349 427/510/349 428/486/349
f 421/497/350 435/511/350 420/485/350
f 456/512/351 440/506/351 441/508/351
f 434/513/352 448/514/352 433/509/352
f 442/515/353 456/512/353 441/508/353
f 450/516/354 434/513/354 435/511/354
f 458/517/355 442/515/355 443/495/355
f 436/518/356 450/516/356 435/511/356
f 444/519/357 458/517/357 443/495/357
f 452/520/358 436/518/358 437/496/358
f 460/521/359 444/519/359 445/498/359
f 438/502/360 452/520/360 437/496/360
f 461/522/361 445/498/361 446/500/361
f 439/523/362 453/524/362 438/502/362
f 432/503/363 447/525/363 236/526/363
f 462/527/364 461/522/364 446/500/364
f 455/528/365 439/523/365 440/506/365
f 433/509/366 447/525/366 432/503/366
f 476/529/367 459/530/367 460/521/367
f 453/524/368 468/531/368 452/520/368
f 477/532/369 460/521/369 461/522/369
f 454/533/370 469/534/370 453/524/370
f 447/525/371 463/535/371 236/536/371
f 462/537/372 477/532/372 461/522/372
f 471/538/373 454/533/373 455/528/373
f 448/514/374 463/535/374 447/525/374
f 472/539/375 455/528/375 456/512/375
f 449/540/376 464/541/376 448/514/376
f 457/542/377 472/539/377 456/512/377
f 466/543/378 449/540/378 450/516/378
f 474/544/379 457/542/379 458/517/379
f 451/545/380 466/543/380 450/516/380
f 459/530/381 474/544/381 458/517/381
f 468/531/382 451/545/382 452/520/382
f 480/546/383 464/541/383 465/547/383
f 473/548/384 487/549/384 472/539/384
f 481/550/385 465/547/385 466/543/385
f 489/551/386 473/548/386 474/544/386
f 467/552/387 481/550/387 466/543/387
f 475/553/388 489/551/388 474/544/388
f 483/554/389 467/552/389 468/531/389
f 476/529/390 490/555/390 475/553/390
f 469/534/391 483/554/391 468/531/391
f 492/556/392 476/529/392 477/532/392
f 470/557/393 484/558/393 469/534/393
f 463/535/394 478/559/394 236/560/394
f 462/561/395 492/556/395 477/532/395
f 486/562/396 470/557/396 471/538/396
f 479/563/397 463/535/397 464/541/397
f 487/549/398 471/538/398 472/539/398
f 484/558/399 498/564/399 483/554/399
f 507/565/400 491/566/400 492/556/400
f 485/567/401 499/568/401 484/558/401
f 478/559/402 493/569/402 236/570/402
f 462/571/403 507/565/403 492/556/403
f 501/572/404 485/567/404 486/562/404
f 479/563/405 493/569/405 478/559/405
f 502/573/406 486/562/406 487/549/406
f 480/546/407 494/574/407 479/563/407
f 488/575/408 502/573/408 487/549/408
f 496/576/409 480/546/409 481/550/409
f 504/577/410 488/575/410 489/551/410
f 482/578/411 496/576/411 481/550/411
f 490/555/412 504/577/412 489/551/412
f 498/564/413 482/578/413 483/554/413
f 506/579/414 490/555/414 491/566/414
f 503/580/415 517/581/415 502/573/415
f 511/582/416 495/583/416 496/576/416
f 519/584/417 503/580/417 504/577/417
f 497/585/418 511/582/418 496/576/418
f 505/586/419 519/584/419 504/577/419
f 513/587/420 497/585/420 498/564/420
f 521/588/421 505/586/421 506/579/421
f 499/568/422 513/587/422 498/564/422
f 522/589/423 506/579/423 507/565/423
f 500/590/424 514/591/424 499/568/424
f 493/569/425 508/592/425 236/593/425
f 462/594/426 522/589/426 507/565/426
f 516/595/427 500/590/427 501/572/427
f 509/596/428 493/569/428 494/574/428
f 517/581/429 501/572/429 502/573/429
f 495/583/430 509/596/430 494/574/430
f 522/597/431 536/598/431 521/599/431
f 515/600/432 529/601/432 514/602/432
f 508/603/433 523/604/433 236/605/433
f 462/606/434 537/607/434 522/597/434
f 531/608/435 515/600/435 516/609/435
f 524/610/436 508/603/436 509/611/436
f 532/612/437 516/609/437 517/613/437
f 510/614/438 524/610/438 509/611/438
f 518/615/439 532/612/439 517/613/439
f 526/616/440 510/614/440 511/617/440
f 534/618/441 518/615/441 519/619/441
f 512/620/442 526/616/442 511/617/442
f 520/621/443 534/618/443 519/619/443
f 528/622/444 512/620/444 513/623/444
f 536/598/445 520/621/445 521/599/445
f 514/602/446 528/622/446 513/623/446
f 541/624/447 525/625/447 526/616/447
f 549/626/448 533/627/448 534/618/448
f 527/628/449 541/624/449 526/616/449
f 535/629/450 549/626/450 534/618/450
f 543/630/451 527/628/451 528/622/451
f 536/598/452 550/631/452 535/629/452
f 529/601/453 543/630/453 528/622/453
f 537/607/454 551/632/454 536/598/454
f 530/633/455 544/634/455 529/601/455
f 523/604/456 538/635/456 236/636/456
f 462/637/457 552/638/457 537/607/457
f 546/639/458 530/633/458 531/608/458
f 539/640/459 523/604/459 524/610/459
f 547/641/460 531/608/460 532/612/460
f 540/642/461 524/610/461 525/625/461
f 533/627/462 547/641/462 532/612/462
f 545/643/463 559/644/463 544/634/463
f 538/635/464 553/645/464 236/646/464
f 462/647/465 567/648/465 552/638/465
f 561/649/466 545/643/466 546/639/466
f 554/650/467 538/635/467 539/640/467
f 562/651/468 546/639/468 547/641/468
f 555/652/469 539/640/469 540/642/469
f 548/653/470 562/651/470 547/641/470
f 556/654/471 540/642/471 541/624/471
f 564/655/472 548/653/472 549/626/472
f 542/656/473 556/654/473 541/624/473
f 550/631/474 564/655/474 549/626/474
f 558/657/475 542/656/475 543/630/475
f 551/632/476 565/658/476 550/631/476
f 544/634/477 558/657/477 543/630/477
f 552/638/478 566/659/478 551/632/478
f 579/660/479 563/661/479 564/655/479
f 557/662/480 571/663/480 556/654/480
f 565/658/481 579/660/481 564/655/481
f 573/664/482 557/662/482 558/657/482
f 566/659/483 580/665/483 565/658/483
f 559/644/484 573/664/484 558/657/484
f 567/648/485 581/666/485 566/659/485
f 560/667/486 574/668/486 559/644/486
f 553/645/487 568/669/487 236/670/487
f 462/671/488 582/672/488 567/648/488
f 576/673/489 560/667/489 561/649/489
f 569/674/490 553/645/490 554/650/490
f 577/675/491 561/649/491 562/651/491
f 570/676/492 554/650/492 555/652/492
f 563/661/493 577/675/493 562/651/493
f 571/663/494 555/652/494 556/654/494
f 462/677/495 597/678/495 582/672/495
f 591/679/496 575/680/496 576/673/496
f 584/681/497 568/669/497 569/674/497
f 592/682/498 576/673/498 577/675/498
f 570/676/499 584/681/499 569/674/499
f 578/683/500 592/682/500 577/675/500
f 586/684/501 570/676/501 571/663/501
f 594/685/502 578/683/502 579/660/502
f 587/686/503 571/663/503 572/687/503
f 580/665/504 594/685/504 579/660/504
f 588/688/505 572/687/505 573/664/505
f 596/689/506 580/665/506 581/666/506
f 574/668/507 588/688/507 573/664/507
f 582/672/508 596/689/508 581/666/508
f 575/680/509 589/690/509 574/668/509
f 568/669/510 583/691/510 236/692/510
f 595/693/511 609/694/511 594/685/511
f 603/695/512 587/686/512 588/688/512
f 611/696/513 595/693/513 596/689/513
f 589/690/514 603/695/514 588/688/514
f 597/678/515 611/696/515 596/689/515
f 590/697/516 604/698/516 589/690/516
f 583/691/517 598/699/517 236/700/517
f 462/701/518 612/702/518 597/678/518
f 606/703/519 590/697/519 591/679/519
f 599/704/520 583/691/520 584/681/520
f 607/705/521 591/679/521 592/682/521
f 585/706/522 599/704/522 584/681/522
f 593/707/523 607/705/523 592/682/523
f 601/708/524 585/706/524 586/684/524
f 609/694/525 593/707/525 594/685/525
f 587/686/526 601/708/526 586/684/526
f 614/709/527 598/699/527 599/704/527
f 622/710/528 606/703/528 607/705/528
f 600/711/529 614/709/529 599/704/529
f 608/712/530 622/710/530 607/705/530
f 616/713/531 600/711/531 601/708/531
f 624/714/532 608/712/532 609/694/532
f 602/715/533 616/713/533 601/708/533
f 610/716/534 624/714/534 609/694/534
f 618/717/535 602/715/535 603/695/535
f 626/718/536 610/716/536 611/696/536
f 604/698/537 618/717/537 603/695/537
f 612/702/538 626/718/538 611/696/538
f 605/719/539 619/720/539 604/698/539
f 598/699/540 613/721/540 236/722/540
f 462/723/541 627/724/541 612/702/541
f 621/725/542 605/719/542 606/703/542
f 631/182/543 617/726/543 618/717/543
f 635/186/544 625/727/544 626/718/544
f 619/720/545 631/182/545 618/717/545
f 636/190/546 626/718/546 627/724/546
f 620/728/547 157/187/547 619/720/547
f 613/721/548 628/193/548 236/729/548
f 462/730/549 636/190/549 627/724/549
f 159/198/550 620/728/550 621/725/550
f 614/709/551 628/193/551 613/721/551
f 632/201/552 621/725/552 622/710/552
f 615/731/553 629/199/553 614/709/553
f 623/732/554 632/201/554 622/710/554
f 616/713/555 155/202/555 615/731/555
f 633/180/556 623/732/556 624/714/556
f 617/726/557 630/206/557 616/713/557
f 625/727/558 633/180/558 624/714/558
f 24/1/13 10/25/13 4/2/13
f 18/4/11 11/34/11 8/5/11
f 23/7/14 12/26/14 6/8/14
f 17/10/12 9/733/12 2/11/12
f 26/13/5 15/734/5 5/14/5
f 25/16/6 16/735/6 2/17/6
f 1/19/12 9/733/12 17/10/12
f 5/14/14 12/26/14 23/7/14
f 7/21/11 11/34/11 18/4/11
f 3/23/13 10/25/13 24/1/13
f 3/23/10 13/22/10 18/4/10
f 5/14/8 15/20/8 17/10/8
f 6/8/6 16/735/6 25/16/6
f 1/27/5 15/734/5 26/13/5
f 17/10/3 16/12/3 6/8/3
f 18/4/1 14/6/1 4/2/1
f 3/29/5 19/28/5 26/13/5
f 8/5/6 22/9/6 25/16/6
f 1/32/7 19/24/7 24/1/7
f 7/21/9 21/15/9 23/7/9
f 25/16/6 20/18/6 4/35/6
f 26/13/5 21/15/5 7/21/5
f 23/7/2 22/9/2 8/5/2
f 24/1/4 20/3/4 2/36/4
f 29/37/15 30/41/15 28/38/15
f 31/40/16 32/43/16 30/41/16
f 33/42/17 34/45/17 32/43/17
f 35/44/18 36/47/18 34/45/18
f 37/46/19 38/49/19 36/47/19
f 39/48/20 40/51/20 38/49/20
f 41/50/21 42/53/21 40/51/21
f 43/52/22 44/55/22 42/53/22
f 45/54/23 46/57/23 44/55/23
f 47/56/24 48/59/24 46/57/24
f 49/58/25 50/61/25 48/59/25
f 51/60/26 52/63/26 50/61/26
f 53/62/27 54/65/27 52/63/27
f 55/64/28 56/67/28 54/65/28
f 57/66/29 58/69/29 56/67/29
f 59/68/30 60/71/30 58/69/30
f 61/70/31 62/73/31 60/71/31
f 63/72/32 64/75/32 62/73/32
f 65/74/33 66/77/33 64/75/33
f 67/76/34 68/79/34 66/77/34
f 69/78/35 70/81/35 68/79/35
f 71/80/36 72/83/36 70/81/36
f 73/82/37 74/85/37 72/83/37
f 75/84/38 76/87/38 74/85/38
f 77/86/39 78/89/39 76/87/39
f 79/88/40 80/91/40 78/89/40
f 81/90/41 82/93/41 80/91/41
f 83/92/42 84/95/42 82/93/42
f 85/94/43 86/97/43 84/95/43
f 87/96/44 88/102/44 86/97/44
f 28/99/6 30/736/6 32/737/6
f 32/737/6 34/738/6 28/99/6
f 34/738/6 36/739/6 28/99/6
f 36/739/6 38/740/6 40/741/6
f 40/741/6 42/742/6 44/743/6
f 44/743/6 46/744/6 48/745/6
f 48/745/6 50/746/6 52/747/6
f 52/747/6 54/748/6 60/100/6
f 54/748/6 56/749/6 60/100/6
f 56/749/6 58/750/6 60/100/6
f 60/100/6 62/751/6 64/752/6
f 64/752/6 66/753/6 60/100/6
f 66/753/6 68/754/6 60/100/6
f 68/754/6 70/755/6 72/756/6
f 72/756/6 74/757/6 76/758/6
f 76/758/6 78/759/6 80/760/6
f 80/760/6 82/761/6 84/98/6
f 84/98/6 86/762/6 28/99/6
f 86/762/6 88/763/6 28/99/6
f 88/763/6 90/764/6 28/99/6
f 36/739/6 40/741/6 44/743/6
f 44/743/6 48/745/6 52/747/6
f 68/754/6 72/756/6 76/758/6
f 76/758/6 80/760/6 84/98/6
f 28/99/6 36/739/6 44/743/6
f 44/743/6 52/747/6 28/99/6
f 52/747/6 60/100/6 28/99/6
f 60/100/6 68/754/6 76/758/6
f 76/758/6 84/98/6 60/100/6
f 89/101/45 90/104/45 88/102/45
f 27/103/46 28/765/46 90/104/46
f 29/107/5 27/766/5 85/767/5
f 27/766/5 89/768/5 85/767/5
f 89/768/5 87/769/5 85/767/5
f 85/767/5 83/770/5 81/771/5
f 81/771/5 79/772/5 85/767/5
f 79/772/5 77/773/5 85/767/5
f 77/773/5 75/774/5 73/775/5
f 73/775/5 71/776/5 77/773/5
f 71/776/5 69/777/5 77/773/5
f 69/777/5 67/778/5 65/779/5
f 65/779/5 63/780/5 61/781/5
f 61/781/5 59/782/5 53/105/5
f 59/782/5 57/783/5 53/105/5
f 57/783/5 55/784/5 53/105/5
f 53/105/5 51/785/5 49/786/5
f 49/786/5 47/787/5 53/105/5
f 47/787/5 45/106/5 53/105/5
f 45/106/5 43/788/5 41/789/5
f 41/789/5 39/790/5 45/106/5
f 39/790/5 37/791/5 45/106/5
f 37/791/5 35/792/5 33/793/5
f 33/793/5 31/794/5 29/107/5
f 69/777/5 65/779/5 77/773/5
f 65/779/5 61/781/5 77/773/5
f 37/791/5 33/793/5 45/106/5
f 33/793/5 29/107/5 45/106/5
f 29/107/5 85/767/5 61/781/5
f 85/767/5 77/773/5 61/781/5
f 61/781/5 53/105/5 29/107/5
f 93/108/15 94/112/15 92/109/15
f 95/111/16 96/114/16 94/112/16
f 97/113/17 98/116/17 96/114/17
f 99/115/18 100/118/18 98/116/18
f 101/117/19 102/120/19 100/118/19
f 103/119/20 104/122/20 102/120/20
f 105/121/21 106/124/21 104/122/21
f 107/123/22 108/126/22 106/124/22
f 109/125/23 110/128/23 108/126/23
f 111/127/24 112/130/24 110/128/24
f 113/129/25 114/132/25 112/130/25
f 115/131/26 116/134/26 114/132/26
f 117/133/27 118/136/27 116/134/27
f 119/135/28 120/138/28 118/136/28
f 121/137/29 122/140/29 120/138/29
f 123/139/30 124/142/30 122/140/30
f 125/141/31 126/144/31 124/142/31
f 127/143/32 128/146/32 126/144/32
f 129/145/33 130/148/33 128/146/33
f 131/147/34 132/150/34 130/148/34
f 133/149/35 134/152/35 132/150/35
f 135/151/36 136/154/36 134/152/36
f 137/153/37 138/156/37 136/154/37
f 139/155/38 140/158/38 138/156/38
f 141/157/39 142/160/39 140/158/39
f 143/159/40 144/162/40 142/160/40
f 145/161/41 146/164/41 144/162/41
f 147/163/42 148/166/42 146/164/42
f 149/165/43 150/168/43 148/166/43
f 151/167/44 152/173/44 150/168/44
f 92/170/6 94/795/6 96/796/6
f 96/796/6 98/797/6 92/170/6
f 98/797/6 100/798/6 92/170/6
f 100/798/6 102/799/6 104/800/6
f 104/800/6 106/801/6 108/802/6
f 108/802/6 110/803/6 112/804/6
f 112/804/6 114/805/6 116/806/6
f 116/806/6 118/807/6 124/171/6
f 118/807/6 120/808/6 124/171/6
f 120/808/6 122/809/6 124/171/6
f 124/171/6 126/810/6 128/811/6
f 128/811/6 130/812/6 124/171/6
f 130/812/6 132/813/6 124/171/6
f 132/813/6 134/814/6 136/815/6
f 136/815/6 138/816/6 140/817/6
f 140/817/6 142/818/6 144/819/6
f 144/819/6 146/820/6 148/169/6
f 148/169/6 150/821/6 92/170/6
f 150/821/6 152/822/6 92/170/6
f 152/822/6 154/823/6 92/170/6
f 100/798/6 104/800/6 108/802/6
f 108/802/6 112/804/6 116/806/6
f 132/813/6 136/815/6 140/817/6
f 140/817/6 144/819/6 148/169/6
f 92/170/6 100/798/6 108/802/6
f 108/802/6 116/806/6 92/170/6
f 116/806/6 124/171/6 92/170/6
f 124/171/6 132/813/6 140/817/6
f 140/817/6 148/169/6 124/171/6
f 153/172/45 154/175/45 152/173/45
f 91/174/46 92/824/46 154/175/46
f 93/178/5 91/825/5 149/826/5
f 91/825/5 153/827/5 149/826/5
f 153/827/5 151/828/5 149/826/5
f 149/826/5 147/829/5 145/830/5
f 145/830/5 143/831/5 149/826/5
f 143/831/5 141/832/5 149/826/5
f 141/832/5 139/833/5 137/834/5
f 137/834/5 135/835/5 141/832/5
f 135/835/5 133/836/5 141/832/5
f 133/836/5 131/837/5 129/838/5
f 129/838/5 127/839/5 125/840/5
f 125/840/5 123/841/5 117/176/5
f 123/841/5 121/842/5 117/176/5
f 121/842/5 119/843/5 117/176/5
f 117/176/5 115/844/5 113/845/5
f 113/845/5 111/846/5 117/176/5
f 111/846/5 109/177/5 117/176/5
f 109/177/5 107/847/5 105/848/5
f 105/848/5 103/849/5 109/177/5
f 103/849/5 101/850/5 109/177/5
f 101/850/5 99/851/5 97/852/5
f 97/852/5 95/853/5 93/178/5
f 133/836/5 129/838/5 141/832/5
f 129/838/5 125/840/5 141/832/5
f 101/850/5 97/852/5 109/177/5
f 97/852/5 93/178/5 109/177/5
f 93/178/5 149/826/5 125/840/5
f 149/826/5 141/832/5 125/840/5
f 125/840/5 117/176/5 93/178/5
f 173/179/47 172/209/47 633/180/47
f 631/182/48 166/188/48 165/183/48
f 174/185/49 173/179/49 634/181/49
f 157/187/50 167/215/50 166/188/50
f 175/189/51 174/185/51 635/186/51
f 168/191/52 167/215/52 157/187/52
f 169/197/55 168/191/55 158/192/55
f 629/199/56 162/203/56 161/194/56
f 170/200/57 169/197/57 159/198/57
f 155/202/58 163/207/58 162/203/58
f 171/204/59 170/200/59 632/201/59
f 630/206/60 164/211/60 163/207/60
f 633/180/61 172/209/61 171/204/61
f 165/183/62 164/211/62 630/206/62
f 187/208/63 186/225/63 171/204/63
f 165/183/64 180/213/64 179/210/64
f 188/212/65 187/208/65 172/209/65
f 166/188/66 181/216/66 180/213/66
f 189/214/67 188/212/67 173/179/67
f 167/215/68 182/240/68 181/216/68
f 190/217/69 189/214/69 174/185/69
f 183/218/559 182/240/559 167/215/559
f 184/222/560 183/218/560 168/191/560
f 162/203/74 177/224/74 176/219/74
f 185/223/75 184/222/75 169/197/75
f 163/207/76 178/226/76 177/224/76
f 186/225/77 185/223/77 170/200/77
f 164/211/78 179/210/78 178/226/78
f 199/231/81 198/249/81 183/218/81
f 177/224/82 192/233/82 191/227/82
f 200/232/83 199/231/83 184/222/83
f 178/226/84 193/234/84 192/233/84
f 186/225/85 201/258/85 200/232/85
f 179/210/86 194/243/86 193/234/86
f 202/235/87 201/258/87 186/225/87
f 195/236/88 194/243/88 179/210/88
f 203/237/89 202/235/89 187/208/89
f 196/238/90 195/236/90 180/213/90
f 204/239/91 203/237/91 188/212/91
f 182/240/92 197/241/92 196/238/92
f 205/230/93 204/239/93 189/214/93
f 183/218/94 198/249/94 197/241/94
f 195/236/95 210/245/95 209/242/95
f 218/244/96 217/260/96 202/235/96
f 196/238/97 211/247/97 210/245/97
f 219/246/98 218/244/98 203/237/98
f 197/241/99 212/250/99 211/247/99
f 220/248/100 219/246/100 204/239/100
f 198/249/561 213/262/561 212/250/561
f 214/254/104 213/262/104 198/249/104
f 192/233/105 207/256/105 206/251/105
f 215/255/106 214/254/106 199/231/106
f 193/234/107 208/259/107 207/256/107
f 216/257/108 215/255/108 200/232/108
f 194/243/109 209/242/109 208/259/109
f 217/260/110 216/257/110 201/258/110
f 229/261/562 228/280/562 213/262/562
f 207/256/112 222/265/112 221/263/112
f 230/264/113 229/261/113 214/254/113
f 208/259/114 223/266/114 222/265/114
f 216/257/115 231/289/115 230/264/115
f 209/242/563 224/268/563 223/266/563
f 232/267/117 231/289/117 216/257/117
f 210/245/118 225/278/118 224/268/118
f 233/269/119 232/267/119 217/260/119
f 226/270/120 225/278/120 210/245/120
f 234/271/121 233/269/121 218/244/121
f 212/250/122 227/273/122 226/270/122
f 235/272/564 234/271/564 219/246/564
f 213/262/565 228/280/565 227/273/565
f 249/276/127 248/291/127 232/267/127
f 242/277/128 241/299/128 225/278/128
f 250/279/129 249/276/129 233/269/129
f 227/273/130 243/281/130 242/277/130
f 235/272/566 251/285/566 250/279/566
f 228/280/567 244/305/567 243/281/567
f 245/286/568 244/305/568 228/280/568
f 238/287/136 237/282/136 221/263/136
f 246/288/137 245/286/137 229/261/137
f 223/266/138 239/290/138 238/287/138
f 231/289/139 247/296/139 246/288/139
f 224/268/140 240/292/140 239/290/140
f 248/291/141 247/296/141 231/289/141
f 225/278/142 241/299/142 240/292/142
f 238/287/569 253/295/569 252/293/569
f 261/294/144 260/309/144 245/286/144
f 239/290/145 254/297/145 253/295/145
f 247/296/146 262/322/146 261/294/146
f 240/292/147 255/300/147 254/297/147
f 263/298/148 262/322/148 247/296/148
f 241/299/149 256/311/149 255/300/149
f 264/301/150 263/298/150 248/291/150
f 257/302/151 256/311/151 241/299/151
f 265/303/152 264/301/152 249/276/152
f 243/281/153 258/306/153 257/302/153
f 266/304/154 265/303/154 250/279/154
f 244/305/155 259/314/155 258/306/155
f 260/309/158 259/314/158 244/305/158
f 272/310/159 271/331/159 256/311/159
f 280/312/160 279/332/160 264/301/160
f 258/306/161 273/315/161 272/310/161
f 281/313/162 280/312/162 265/303/162
f 259/314/163 274/336/163 273/315/163
f 275/319/166 274/336/166 259/314/166
f 268/320/167 267/316/167 252/293/167
f 276/321/168 275/319/168 260/309/168
f 254/297/169 269/326/169 268/320/169
f 262/322/170 277/328/170 276/321/170
f 270/323/171 269/326/171 254/297/171
f 278/324/172 277/328/172 262/322/172
f 256/311/173 271/331/173 270/323/173
f 264/301/174 279/332/174 278/324/174
f 291/325/175 290/341/175 275/319/175
f 269/326/176 284/356/176 283/327/176
f 277/328/177 292/357/177 291/325/177
f 285/329/178 284/356/178 269/326/178
f 293/330/179 292/357/179 277/328/179
f 271/331/180 286/360/180 285/329/180
f 279/332/181 294/343/181 293/330/181
f 287/333/182 286/360/182 271/331/182
f 295/334/183 294/343/183 279/332/183
f 273/315/184 288/337/184 287/333/184
f 296/335/570 295/334/570 280/312/570
f 274/336/186 289/346/186 288/337/186
f 290/341/189 289/346/189 274/336/189
f 268/320/190 283/327/190 282/338/190
f 295/334/191 310/345/191 309/342/191
f 288/337/192 303/347/192 302/344/192
f 296/335/193 311/351/193 310/345/193
f 289/346/194 304/369/194 303/347/194
f 305/352/197 304/369/197 289/346/197
f 298/353/198 297/348/198 282/338/198
f 306/354/199 305/352/199 290/341/199
f 299/355/200 298/353/200 283/327/200
f 292/357/201 307/361/201 306/354/201
f 300/358/202 299/355/202 284/356/202
f 308/359/203 307/361/203 292/357/203
f 286/360/204 301/365/204 300/358/204
f 294/343/205 309/342/205 308/359/205
f 302/344/206 301/365/206 286/360/206
f 307/361/207 322/389/207 321/362/207
f 315/363/208 314/377/208 299/355/208
f 323/364/209 322/389/209 307/361/209
f 301/365/210 316/393/210 315/363/210
f 309/342/211 324/367/211 323/364/211
f 317/366/212 316/393/212 301/365/212
f 310/345/213 325/368/213 324/367/213
f 303/347/214 318/370/214 317/366/214
f 311/351/215 326/374/215 325/368/215
f 304/369/216 319/379/216 318/370/216
f 320/375/219 319/379/219 304/369/219
f 313/376/220 312/371/220 297/348/220
f 321/362/221 320/375/221 305/352/221
f 314/377/222 313/376/222 298/353/222
f 326/374/571 341/384/571 340/378/571
f 319/379/224 334/402/224 333/380/224
f 335/385/227 334/402/227 319/379/227
f 328/386/572 327/381/572 312/371/572
f 336/387/229 335/385/229 320/375/229
f 329/388/230 328/386/230 313/376/230
f 322/389/231 337/398/231 336/387/231
f 330/390/232 329/388/232 314/377/232
f 338/391/233 337/398/233 322/389/233
f 331/392/234 330/390/234 315/363/234
f 324/367/235 339/395/235 338/391/235
f 332/394/236 331/392/236 316/393/236
f 325/368/237 340/378/237 339/395/237
f 318/370/238 333/380/238 332/394/238
f 345/396/239 344/411/239 329/388/239
f 353/397/240 352/422/240 337/398/240
f 331/392/241 346/426/241 345/396/241
f 339/395/242 354/400/242 353/397/242
f 347/399/243 346/426/243 331/392/243
f 340/378/244 355/401/244 354/400/244
f 333/380/245 348/403/245 347/399/245
f 341/384/573 356/407/573 355/401/573
f 334/402/247 349/412/247 348/403/247
f 350/408/250 349/412/250 334/402/250
f 343/409/574 342/404/574 327/381/574
f 351/410/252 350/408/252 335/385/252
f 344/411/253 343/409/253 328/386/253
f 337/398/254 352/422/254 351/410/254
f 349/412/255 364/436/255 363/413/255
f 365/418/258 364/436/258 349/412/258
f 358/419/575 357/414/575 342/404/575
f 366/420/260 365/418/260 350/408/260
f 359/421/261 358/419/261 343/409/261
f 352/422/262 367/424/262 366/420/262
f 360/423/263 359/421/263 344/411/263
f 353/397/264 368/427/264 367/424/264
f 361/425/265 360/423/265 345/396/265
f 354/400/266 369/429/266 368/427/266
f 362/428/267 361/425/267 346/426/267
f 355/401/268 370/430/268 369/429/268
f 348/403/269 363/413/269 362/428/269
f 356/407/576 371/417/576 370/430/576
f 383/431/271 382/455/271 367/424/271
f 376/432/272 375/446/272 360/423/272
f 369/429/273 384/434/273 383/431/273
f 377/433/274 376/432/274 361/425/274
f 370/430/275 385/435/275 384/434/275
f 363/413/276 378/437/276 377/433/276
f 371/417/577 386/441/577 385/435/577
f 364/436/278 379/452/278 378/437/278
f 380/442/281 379/452/281 364/436/281
f 373/443/282 372/438/282 357/414/282
f 381/444/283 380/442/283 365/418/283
f 374/445/284 373/443/284 358/419/284
f 367/424/285 382/455/285 381/444/285
f 375/446/286 374/445/286 359/421/286
f 395/451/289 394/468/289 379/452/289
f 373/443/578 388/474/578 387/447/578
f 396/453/291 395/451/291 380/442/291
f 389/454/292 388/474/292 373/443/292
f 382/455/293 397/477/293 396/453/293
f 390/456/294 389/454/294 374/445/294
f 398/457/295 397/477/295 382/455/295
f 391/458/296 390/456/296 375/446/296
f 384/434/297 399/460/297 398/457/297
f 392/459/298 391/458/298 376/432/298
f 385/435/299 400/466/299 399/460/299
f 378/437/300 393/461/300 392/459/300
f 401/450/301 400/466/301 385/435/301
f 379/452/302 394/468/302 393/461/302
f 391/458/303 406/487/303 405/462/303
f 399/460/304 414/488/304 413/463/304
f 407/464/305 406/487/305 391/458/305
f 415/465/306 414/488/306 399/460/306
f 393/461/307 408/469/307 407/464/307
f 416/467/308 415/465/308 400/466/308
f 394/468/309 409/479/309 408/469/309
f 410/473/312 409/479/312 394/468/312
f 388/474/313 403/476/313 402/470/313
f 411/475/314 410/473/314 395/451/314
f 389/454/315 404/483/315 403/476/315
f 397/477/316 412/484/316 411/475/316
f 405/462/317 404/483/317 389/454/317
f 413/463/318 412/484/318 397/477/318
f 425/478/319 424/501/319 409/479/319
f 403/476/320 418/507/320 417/480/320
f 426/481/321 425/478/321 410/473/321
f 419/482/322 418/507/322 403/476/322
f 412/484/323 427/510/323 426/481/323
f 420/485/324 419/482/324 404/483/324
f 428/486/325 427/510/325 412/484/325
f 406/487/326 421/497/326 420/485/326
f 414/488/327 429/490/327 428/486/327
f 422/489/328 421/497/328 406/487/328
f 415/465/329 430/499/329 429/490/329
f 408/469/330 423/492/330 422/489/330
f 431/491/331 430/499/331 415/465/331
f 409/479/332 424/501/332 423/492/332
f 429/490/335 444/519/335 443/495/335
f 437/496/336 436/518/336 421/497/336
f 445/498/337 444/519/337 429/490/337
f 423/492/338 438/502/338 437/496/338
f 446/500/339 445/498/339 430/499/339
f 424/501/340 439/523/340 438/502/340
f 440/506/343 439/523/343 424/501/343
f 418/507/344 433/509/344 432/503/344
f 441/508/345 440/506/345 425/478/345
f 419/482/346 434/513/346 433/509/346
f 427/510/347 442/515/347 441/508/347
f 435/511/348 434/513/348 419/482/348
f 443/495/349 442/515/349 427/510/349
f 421/497/350 436/518/350 435/511/350
f 456/512/351 455/528/351 440/506/351
f 434/513/352 449/540/352 448/514/352
f 442/515/353 457/542/353 456/512/353
f 450/516/354 449/540/354 434/513/354
f 458/517/355 457/542/355 442/515/355
f 436/518/356 451/545/356 450/516/356
f 444/519/357 459/530/357 458/517/357
f 452/520/358 451/545/358 436/518/358
f 460/521/359 459/530/359 444/519/359
f 438/502/360 453/524/360 452/520/360
f 461/522/361 460/521/361 445/498/361
f 439/523/362 454/533/362 453/524/362
f 455/528/365 454/533/365 439/523/365
f 433/509/366 448/514/366 447/525/366
f 476/529/367 475/553/367 459/530/367
f 453/524/368 469/534/368 468/531/368
f 477/532/579 476/529/579 460/521/579
f 454/533/370 470/557/370 469/534/370
f 471/538/373 470/557/373 454/533/373
f 448/514/374 464/541/374 463/535/374
f 472/539/375 471/538/375 455/528/375
f 449/540/376 465/547/376 464/541/376
f 457/542/377 473/548/377 472/539/377
f 466/543/378 465/547/378 449/540/378
f 474/544/379 473/548/379 457/542/379
f 451/545/380 467/552/380 466/543/380
f 459/530/381 475/553/381 474/544/381
f 468/531/382 467/552/382 451/545/382
f 480/546/383 479/563/383 464/541/383
f 473/548/384 488/575/384 487/549/384
f 481/550/385 480/546/385 465/547/385
f 489/551/386 488/575/386 473/548/386
f 467/552/387 482/578/387 481/550/387
f 475/553/388 490/555/388 489/551/388
f 483/554/389 482/578/389 467/552/389
f 476/529/390 491/566/390 490/555/390
f 469/534/391 484/558/391 483/554/391
f 492/556/392 491/566/392 476/529/392
f 470/557/393 485/567/393 484/558/393
f 486/562/396 485/567/396 470/557/396
f 479/563/580 478/559/580 463/535/580
f 487/549/398 486/562/398 471/538/398
f 484/558/399 499/568/399 498/564/399
f 507/565/400 506/579/400 491/566/400
f 485/567/401 500/590/401 499/568/401
f 501/572/404 500/590/404 485/567/404
f 479/563/405 494/574/405 493/569/405
f 502/573/406 501/572/406 486/562/406
f 480/546/407 495/583/407 494/574/407
f 488/575/408 503/580/408 502/573/408
f 496/576/409 495/583/409 480/546/409
f 504/577/410 503/580/410 488/575/410
f 482/578/411 497/585/411 496/576/411
f 490/555/412 505/586/412 504/577/412
f 498/564/413 497/585/413 482/578/413
f 506/579/414 505/586/414 490/555/414
f 503/580/415 518/854/415 517/581/415
f 511/582/416 510/855/416 495/583/416
f 519/584/417 518/854/417 503/580/417
f 497/585/418 512/856/418 511/582/418
f 505/586/419 520/857/419 519/584/419
f 513/587/420 512/856/420 497/585/420
f 521/588/421 520/857/421 505/586/421
f 499/568/422 514/591/422 513/587/422
f 522/589/581 521/588/581 506/579/581
f 500/590/424 515/858/424 514/591/424
f 516/595/427 515/858/427 500/590/427
f 509/596/428 508/592/428 493/569/428
f 517/581/429 516/595/429 501/572/429
f 495/583/430 510/855/430 509/596/430
f 522/597/431 537/607/431 536/598/431
f 515/600/432 530/633/432 529/601/432
f 531/608/435 530/633/435 515/600/435
f 524/610/582 523/604/582 508/603/582
f 532/612/437 531/608/437 516/609/437
f 510/614/438 525/625/438 524/610/438
f 518/615/439 533/627/439 532/612/439
f 526/616/440 525/625/440 510/614/440
f 534/618/441 533/627/441 518/615/441
f 512/620/583 527/628/583 526/616/583
f 520/621/443 535/629/443 534/618/443
f 528/622/444 527/628/444 512/620/444
f 536/598/445 535/629/445 520/621/445
f 514/602/446 529/601/446 528/622/446
f 541/624/447 540/642/447 525/625/447
f 549/626/448 548/653/448 533/627/448
f 527/628/449 542/656/449 541/624/449
f 535/629/450 550/631/450 549/626/450
f 543/630/451 542/656/451 527/628/451
f 536/598/452 551/632/452 550/631/452
f 529/601/453 544/634/453 543/630/453
f 537/607/454 552/638/454 551/632/454
f 530/633/455 545/643/455 544/634/455
f 546/639/458 545/643/458 530/633/458
f 539/640/459 538/635/459 523/604/459
f 547/641/460 546/639/460 531/608/460
f 540/642/461 539/640/461 524/610/461
f 533/627/462 548/653/462 547/641/462
f 545/643/463 560/667/463 559/644/463
f 561/649/466 560/667/466 545/643/466
f 554/650/467 553/645/467 538/635/467
f 562/651/468 561/649/468 546/639/468
f 555/652/469 554/650/469 539/640/469
f 548/653/584 563/661/584 562/651/584
f 556/654/471 555/652/471 540/642/471
f 564/655/472 563/661/472 548/653/472
f 542/656/473 557/662/473 556/654/473
f 550/631/474 565/658/474 564/655/474
f 558/657/475 557/662/475 542/656/475
f 551/632/476 566/659/476 565/658/476
f 544/634/477 559/644/477 558/657/477
f 552/638/478 567/648/478 566/659/478
f 579/660/479 578/683/479 563/661/479
f 557/662/480 572/687/480 571/663/480
f 565/658/481 580/665/481 579/660/481
f 573/664/482 572/687/482 557/662/482
f 566/659/483 581/666/483 580/665/483
f 559/644/484 574/668/484 573/664/484
f 567/648/585 582/672/585 581/666/585
f 560/667/486 575/680/486 574/668/486
f 576/673/489 575/680/489 560/667/489
f 569/674/586 568/669/586 553/645/586
f 577/675/491 576/673/491 561/649/491
f 570/676/492 569/674/492 554/650/492
f 563/661/493 578/683/493 577/675/493
f 571/663/494 570/676/494 555/652/494
f 591/679/496 590/697/496 575/680/496
f 584/681/497 583/691/497 568/669/497
f 592/682/498 591/679/498 576/673/498
f 570/676/499 585/706/499 584/681/499
f 578/683/500 593/707/500 592/682/500
f 586/684/501 585/706/501 570/676/501
f 594/685/502 593/707/502 578/683/502
f 587/686/503 586/684/503 571/663/503
f 580/665/504 595/693/504 594/685/504
f 588/688/505 587/686/505 572/687/505
f 596/689/506 595/693/506 580/665/506
f 574/668/507 589/690/507 588/688/507
f 582/672/587 597/678/587 596/689/587
f 575/680/509 590/697/509 589/690/509
f 595/693/511 610/716/511 609/694/511
f 603/695/512 602/715/512 587/686/512
f 611/696/513 610/716/513 595/693/513
f 589/690/514 604/698/514 603/695/514
f 597/678/588 612/702/588 611/696/588
f 590/697/516 605/719/516 604/698/516
f 606/703/519 605/719/519 590/697/519
f 599/704/520 598/699/520 583/691/520
f 607/705/521 606/703/521 591/679/521
f 585/706/522 600/711/522 599/704/522
f 593/707/523 608/712/523 607/705/523
f 601/708/524 600/711/524 585/706/524
f 609/694/525 608/712/525 593/707/525
f 587/686/526 602/715/526 601/708/526
f 614/709/527 613/721/527 598/699/527
f 622/710/528 621/725/528 606/703/528
f 600/711/529 615/731/529 614/709/529
f 608/712/530 623/732/530 622/710/530
f 616/713/531 615/731/531 600/711/531
f 624/714/532 623/732/532 608/712/532
f 602/715/533 617/726/533 616/713/533
f 610/716/534 625/727/534 624/714/534
f 618/717/535 617/726/535 602/715/535
f 626/718/536 625/727/536 610/716/536
f 604/698/537 619/720/537 618/717/537
f 612/702/538 627/724/538 626/718/538
f 605/719/539 620/728/539 619/720/539
f 621/725/542 620/728/542 605/719/542
f 631/182/543 156/184/543 617/726/543
f 635/186/544 634/181/544 625/727/544
f 619/720/545 157/187/545 631/182/545
f 636/190/546 635/186/546 626/718/546
f 620/728/589 158/192/589 157/187/589
f 159/198/590 158/192/590 620/728/590
f 614/709/591 629/199/591 628/193/591
f 632/201/552 159/198/552 621/725/552
f 615/731/553 155/202/553 629/199/553
f 623/732/554 160/205/554 632/201/554
f 616/713/555 630/206/555 155/202/555
f 633/180/592 160/205/592 623/732/592
f 617/726/593 156/184/593 630/206/593
f 625/727/558 634/181/558 633/180/558
