# Blender 4.4.1
# www.blender.org
mtllib explosion.mtl
o 円柱
v 0.000000 0.000000 -1.000000
v 0.000000 2.000000 -1.000000
v 0.195090 0.000000 -0.980785
v 0.195090 2.000000 -0.980785
v 0.382683 0.000000 -0.923880
v 0.382683 2.000000 -0.923880
v 0.555570 0.000000 -0.831470
v 0.555570 2.000000 -0.831470
v 0.707107 0.000000 -0.707107
v 0.707107 2.000000 -0.707107
v 0.831470 0.000000 -0.555570
v 0.831470 2.000000 -0.555570
v 0.923880 0.000000 -0.382683
v 0.923880 2.000000 -0.382683
v 0.980785 0.000000 -0.195090
v 0.980785 2.000000 -0.195090
v 1.000000 0.000000 0.000000
v 1.000000 2.000000 0.000000
v 0.980785 0.000000 0.195090
v 0.980785 2.000000 0.195090
v 0.923880 0.000000 0.382683
v 0.923880 2.000000 0.382683
v 0.831470 0.000000 0.555570
v 0.831470 2.000000 0.555570
v 0.707107 0.000000 0.707107
v 0.707107 2.000000 0.707107
v 0.555570 0.000000 0.831470
v 0.555570 2.000000 0.831470
v 0.382683 0.000000 0.923880
v 0.382683 2.000000 0.923880
v 0.195090 0.000000 0.980785
v 0.195090 2.000000 0.980785
v 0.000000 0.000000 1.000000
v 0.000000 2.000000 1.000000
v -0.195090 0.000000 0.980785
v -0.195090 2.000000 0.980785
v -0.382683 0.000000 0.923880
v -0.382683 2.000000 0.923880
v -0.555570 0.000000 0.831470
v -0.555570 2.000000 0.831470
v -0.707107 0.000000 0.707107
v -0.707107 2.000000 0.707107
v -0.831470 0.000000 0.555570
v -0.831470 2.000000 0.555570
v -0.923880 0.000000 0.382683
v -0.923880 2.000000 0.382683
v -0.980785 0.000000 0.195090
v -0.980785 2.000000 0.195090
v -1.000000 0.000000 0.000000
v -1.000000 2.000000 0.000000
v -0.980785 0.000000 -0.195090
v -0.980785 2.000000 -0.195090
v -0.923880 0.000000 -0.382683
v -0.923880 2.000000 -0.382683
v -0.831470 0.000000 -0.555570
v -0.831470 2.000000 -0.555570
v -0.707107 0.000000 -0.707107
v -0.707107 2.000000 -0.707107
v -0.555570 0.000000 -0.831470
v -0.555570 2.000000 -0.831470
v -0.382683 0.000000 -0.923880
v -0.382683 2.000000 -0.923880
v -0.195090 0.000000 -0.980785
v -0.195090 2.000000 -0.980785
vn 0.0980 -0.0000 -0.9952
vn 0.2903 -0.0000 -0.9569
vn 0.4714 -0.0000 -0.8819
vn 0.6344 -0.0000 -0.7730
vn 0.7730 -0.0000 -0.6344
vn 0.8819 -0.0000 -0.4714
vn 0.9569 -0.0000 -0.2903
vn 0.9952 -0.0000 -0.0980
vn 0.9952 -0.0000 0.0980
vn 0.9569 -0.0000 0.2903
vn 0.8819 -0.0000 0.4714
vn 0.7730 -0.0000 0.6344
vn 0.6344 -0.0000 0.7730
vn 0.4714 -0.0000 0.8819
vn 0.2903 -0.0000 0.9569
vn 0.0980 -0.0000 0.9952
vn -0.0980 -0.0000 0.9952
vn -0.2903 -0.0000 0.9569
vn -0.4714 -0.0000 0.8819
vn -0.6344 -0.0000 0.7730
vn -0.7730 -0.0000 0.6344
vn -0.8819 -0.0000 0.4714
vn -0.9569 -0.0000 0.2903
vn -0.9952 -0.0000 0.0980
vn -0.9952 -0.0000 -0.0980
vn -0.9569 -0.0000 -0.2903
vn -0.8819 -0.0000 -0.4714
vn -0.7730 -0.0000 -0.6344
vn -0.6344 -0.0000 -0.7730
vn -0.4714 -0.0000 -0.8819
vn -0.0000 1.0000 -0.0000
vn -0.2903 -0.0000 -0.9569
vn -0.0980 -0.0000 -0.9952
vn -0.0000 -1.0000 -0.0000
vt 0.281409 0.717313
vt 0.015940 0.743333
vt 0.015940 0.717313
vt 0.281409 0.427811
vt 0.015940 0.453832
vt 0.015940 0.427811
vt 0.578758 0.717313
vt 0.313289 0.743333
vt 0.313289 0.717313
vt 0.281409 0.369911
vt 0.015940 0.395932
vt 0.015940 0.369911
vt 0.281409 0.601512
vt 0.015940 0.627533
vt 0.015940 0.601512
vt 0.578758 0.659413
vt 0.313289 0.685433
vt 0.313289 0.659413
vt 0.636658 0.577480
vt 0.610638 0.312011
vt 0.636658 0.312011
vt 0.752459 0.874829
vt 0.726439 0.609360
vt 0.752459 0.609360
vt 0.694559 0.577480
vt 0.668538 0.312011
vt 0.694559 0.312011
vt 0.752459 0.577480
vt 0.726439 0.312011
vt 0.752459 0.312011
vt 0.578758 0.485712
vt 0.313289 0.511732
vt 0.313289 0.485712
vt 0.810359 0.874829
vt 0.784339 0.609360
vt 0.810359 0.609360
vt 0.281409 0.485712
vt 0.015940 0.511732
vt 0.015940 0.485712
vt 0.578758 0.601512
vt 0.313289 0.627533
vt 0.313289 0.601512
vt 0.810359 0.577480
vt 0.784339 0.312011
vt 0.810359 0.312011
vt 0.868260 0.577480
vt 0.842239 0.312011
vt 0.868260 0.312011
vt 0.694559 0.874829
vt 0.668538 0.609360
vt 0.694559 0.609360
vt 0.636658 0.874829
vt 0.610638 0.609360
vt 0.636658 0.609360
vt 0.578758 0.543612
vt 0.313289 0.569633
vt 0.313289 0.543612
vt 0.926160 0.577480
vt 0.900139 0.312011
vt 0.926160 0.312011
vt 0.926160 0.874829
vt 0.900139 0.609360
vt 0.926160 0.609360
vt 0.281409 0.775213
vt 0.015940 0.801234
vt 0.015940 0.775213
vt 0.281409 0.543612
vt 0.015940 0.569633
vt 0.015940 0.543612
vt 0.578758 0.775213
vt 0.313289 0.801234
vt 0.313289 0.775213
vt 0.281409 0.659413
vt 0.015940 0.685433
vt 0.015940 0.659413
vt 0.578758 0.427811
vt 0.313289 0.453832
vt 0.313289 0.427811
vt 0.578758 0.312011
vt 0.313289 0.338031
vt 0.313289 0.312011
vt 0.868260 0.874829
vt 0.842239 0.609360
vt 0.868260 0.609360
vt 0.984060 0.577480
vt 0.958040 0.312011
vt 0.984060 0.312011
vt 0.578758 0.369911
vt 0.313289 0.395932
vt 0.313289 0.369911
vt 0.015940 0.135025
vt 0.161046 0.015940
vt 0.280131 0.161046
vt 0.281409 0.312011
vt 0.015940 0.338031
vt 0.015940 0.312011
vt 0.281409 0.833113
vt 0.015940 0.859134
vt 0.015940 0.833113
vt 0.327045 0.210606
vt 0.381535 0.030974
vt 0.561168 0.085465
vt 0.281409 0.743333
vt 0.281409 0.453832
vt 0.578758 0.743333
vt 0.281409 0.395932
vt 0.281409 0.627533
vt 0.578758 0.685433
vt 0.610638 0.577480
vt 0.726439 0.874829
vt 0.668538 0.577480
vt 0.726439 0.577480
vt 0.578758 0.511732
vt 0.784339 0.874829
vt 0.281409 0.511732
vt 0.578758 0.627533
vt 0.784339 0.577480
vt 0.842239 0.577480
vt 0.668538 0.874829
vt 0.610638 0.874829
vt 0.578758 0.569632
vt 0.900139 0.577480
vt 0.900139 0.874829
vt 0.281409 0.801234
vt 0.281409 0.569633
vt 0.578758 0.801234
vt 0.281409 0.685433
vt 0.578758 0.453832
vt 0.578758 0.338031
vt 0.842239 0.874829
vt 0.958040 0.577480
vt 0.578758 0.395932
vt 0.275054 0.186566
vt 0.265097 0.210606
vt 0.250641 0.232241
vt 0.232241 0.250641
vt 0.210606 0.265097
vt 0.186566 0.275055
vt 0.161046 0.280131
vt 0.135025 0.280131
vt 0.109504 0.275054
vt 0.085465 0.265097
vt 0.063829 0.250641
vt 0.045430 0.232241
vt 0.030974 0.210606
vt 0.021016 0.186566
vt 0.015940 0.161046
vt 0.021016 0.109504
vt 0.063830 0.045430
vt 0.030974 0.085465
vt 0.045430 0.063829
vt 0.085465 0.030974
vt 0.109505 0.021016
vt 0.135025 0.015940
vt 0.186566 0.021016
vt 0.250641 0.063830
vt 0.210606 0.030974
vt 0.232241 0.045430
vt 0.265097 0.085465
vt 0.275055 0.109505
vt 0.280131 0.135025
vt 0.281409 0.338031
vt 0.281409 0.859134
vt 0.571125 0.109505
vt 0.576202 0.135025
vt 0.576202 0.161046
vt 0.571125 0.186566
vt 0.561168 0.210606
vt 0.546711 0.232241
vt 0.528312 0.250641
vt 0.506677 0.265097
vt 0.482637 0.275054
vt 0.457116 0.280131
vt 0.431096 0.280131
vt 0.405575 0.275054
vt 0.381535 0.265097
vt 0.359900 0.250641
vt 0.341501 0.232241
vt 0.317087 0.186566
vt 0.312011 0.161046
vt 0.312011 0.135025
vt 0.317087 0.109504
vt 0.327045 0.085465
vt 0.341501 0.063829
vt 0.359900 0.045430
vt 0.405575 0.021016
vt 0.431096 0.015940
vt 0.457116 0.015940
vt 0.482637 0.021016
vt 0.506677 0.030974
vt 0.528312 0.045430
vt 0.546711 0.063829
s 0
usemtl マテリアル
f 2/1/1 3/2/1 1/3/1
f 4/4/2 5/5/2 3/6/2
f 6/7/3 7/8/3 5/9/3
f 8/10/4 9/11/4 7/12/4
f 10/13/5 11/14/5 9/15/5
f 12/16/6 13/17/6 11/18/6
f 14/19/7 15/20/7 13/21/7
f 16/22/8 17/23/8 15/24/8
f 18/25/9 19/26/9 17/27/9
f 20/28/10 21/29/10 19/30/10
f 22/31/11 23/32/11 21/33/11
f 24/34/12 25/35/12 23/36/12
f 26/37/13 27/38/13 25/39/13
f 28/40/14 29/41/14 27/42/14
f 30/43/15 31/44/15 29/45/15
f 32/46/16 33/47/16 31/48/16
f 34/49/17 35/50/17 33/51/17
f 36/52/18 37/53/18 35/54/18
f 38/55/19 39/56/19 37/57/19
f 40/58/20 41/59/20 39/60/20
f 42/61/21 43/62/21 41/63/21
f 44/64/22 45/65/22 43/66/22
f 46/67/23 47/68/23 45/69/23
f 48/70/24 49/71/24 47/72/24
f 50/73/25 51/74/25 49/75/25
f 52/76/26 53/77/26 51/78/26
f 54/79/27 55/80/27 53/81/27
f 56/82/28 57/83/28 55/84/28
f 58/85/29 59/86/29 57/87/29
f 60/88/30 61/89/30 59/90/30
f 38/91/31 22/92/31 6/93/31
f 62/94/32 63/95/32 61/96/32
f 64/97/33 1/98/33 63/99/33
f 31/100/34 47/101/34 63/102/34
f 2/1/1 4/103/1 3/2/1
f 4/4/2 6/104/2 5/5/2
f 6/7/3 8/105/3 7/8/3
f 8/10/4 10/106/4 9/11/4
f 10/13/5 12/107/5 11/14/5
f 12/16/6 14/108/6 13/17/6
f 14/19/7 16/109/7 15/20/7
f 16/22/8 18/110/8 17/23/8
f 18/25/9 20/111/9 19/26/9
f 20/28/10 22/112/10 21/29/10
f 22/31/11 24/113/11 23/32/11
f 24/34/12 26/114/12 25/35/12
f 26/37/13 28/115/13 27/38/13
f 28/40/14 30/116/14 29/41/14
f 30/43/15 32/117/15 31/44/15
f 32/46/16 34/118/16 33/47/16
f 34/49/17 36/119/17 35/50/17
f 36/52/18 38/120/18 37/53/18
f 38/55/19 40/121/19 39/56/19
f 40/58/20 42/122/20 41/59/20
f 42/61/21 44/123/21 43/62/21
f 44/64/22 46/124/22 45/65/22
f 46/67/23 48/125/23 47/68/23
f 48/70/24 50/126/24 49/71/24
f 50/73/25 52/127/25 51/74/25
f 52/76/26 54/128/26 53/77/26
f 54/79/27 56/129/27 55/80/27
f 56/82/28 58/130/28 57/83/28
f 58/85/29 60/131/29 59/86/29
f 60/88/30 62/132/30 61/89/30
f 6/93/31 4/133/31 2/134/31
f 2/134/31 64/135/31 6/93/31
f 64/135/31 62/136/31 6/93/31
f 62/136/31 60/137/31 58/138/31
f 58/138/31 56/139/31 54/140/31
f 54/140/31 52/141/31 50/142/31
f 50/142/31 48/143/31 54/140/31
f 48/143/31 46/144/31 54/140/31
f 46/144/31 44/145/31 42/146/31
f 42/146/31 40/147/31 38/91/31
f 38/91/31 36/148/31 30/149/31
f 36/148/31 34/150/31 30/149/31
f 34/150/31 32/151/31 30/149/31
f 30/149/31 28/152/31 26/153/31
f 26/153/31 24/154/31 22/92/31
f 22/92/31 20/155/31 14/156/31
f 20/155/31 18/157/31 14/156/31
f 18/157/31 16/158/31 14/156/31
f 14/156/31 12/159/31 10/160/31
f 10/160/31 8/161/31 6/93/31
f 62/136/31 58/138/31 6/93/31
f 58/138/31 54/140/31 6/93/31
f 46/144/31 42/146/31 54/140/31
f 42/146/31 38/91/31 54/140/31
f 30/149/31 26/153/31 38/91/31
f 26/153/31 22/92/31 38/91/31
f 14/156/31 10/160/31 22/92/31
f 10/160/31 6/93/31 22/92/31
f 6/93/31 54/140/31 38/91/31
f 62/94/32 64/162/32 63/95/32
f 64/97/33 2/163/33 1/98/33
f 63/102/34 1/164/34 3/165/34
f 3/165/34 5/166/34 7/167/34
f 7/167/34 9/168/34 11/169/34
f 11/169/34 13/170/34 15/171/34
f 15/171/34 17/172/34 19/173/34
f 19/173/34 21/174/34 23/175/34
f 23/175/34 25/176/34 27/177/34
f 27/177/34 29/178/34 31/100/34
f 31/100/34 33/179/34 35/180/34
f 35/180/34 37/181/34 39/182/34
f 39/182/34 41/183/34 43/184/34
f 43/184/34 45/185/34 47/101/34
f 47/101/34 49/186/34 51/187/34
f 51/187/34 53/188/34 55/189/34
f 55/189/34 57/190/34 59/191/34
f 59/191/34 61/192/34 63/102/34
f 63/102/34 3/165/34 15/171/34
f 3/165/34 7/167/34 15/171/34
f 7/167/34 11/169/34 15/171/34
f 15/171/34 19/173/34 31/100/34
f 19/173/34 23/175/34 31/100/34
f 23/175/34 27/177/34 31/100/34
f 31/100/34 35/180/34 47/101/34
f 35/180/34 39/182/34 47/101/34
f 39/182/34 43/184/34 47/101/34
f 47/101/34 51/187/34 63/102/34
f 51/187/34 55/189/34 63/102/34
f 55/189/34 59/191/34 63/102/34
f 63/102/34 15/171/34 31/100/34
