# Blender 4.4.1
# www.blender.org
mtllib explosion.mtl
o 球
v 0.021088 2.503719 -0.555570
v 0.021088 1.672932 -0.831470
v 0.021088 0.587455 -0.980785
v 0.021088 0.000000 -1.000000
v 0.021088 -0.587455 -0.980785
v 0.059148 2.953338 -0.191342
v 0.095745 2.781984 -0.375330
v 0.129474 2.503719 -0.544895
v 0.159037 2.129238 -0.693520
v 0.183299 1.672932 -0.815493
v 0.201328 1.152335 -0.906127
v 0.212429 0.587455 -0.961940
v 0.216178 0.000000 -0.980785
v 0.212429 -0.587455 -0.961940
v 0.095745 2.953338 -0.180240
v 0.167534 2.781984 -0.353553
v 0.233695 2.503719 -0.513280
v 0.291686 2.129238 -0.653281
v 0.339277 1.672932 -0.768178
v 0.374641 1.152335 -0.853553
v 0.396418 0.587455 -0.906127
v 0.403771 0.000000 -0.923879
v 0.396418 -0.587455 -0.906127
v 0.129474 2.953338 -0.162212
v 0.233695 2.781984 -0.318190
v 0.329746 2.503719 -0.461940
v 0.413935 2.129238 -0.587938
v 0.483027 1.672932 -0.691342
v 0.534368 1.152335 -0.768178
v 0.565983 0.587455 -0.815493
v 0.576658 0.000000 -0.831469
v 0.565983 -0.587455 -0.815493
v 0.159037 2.953338 -0.137950
v 0.291686 2.781984 -0.270598
v 0.413935 2.503719 -0.392847
v 0.521088 2.129238 -0.500000
v 0.609025 1.672932 -0.587938
v 0.674369 1.152335 -0.653281
v 0.714607 0.587455 -0.693520
v 0.728194 0.000000 -0.707107
v 0.714607 -0.587455 -0.693520
v 0.183299 2.953338 -0.108386
v 0.339277 2.781984 -0.212608
v 0.483027 2.503719 -0.308658
v 0.609025 2.129238 -0.392847
v 0.712429 1.672932 -0.461940
v 0.789265 1.152335 -0.513280
v 0.836581 0.587455 -0.544895
v 0.852557 0.000000 -0.555570
v 0.836581 -0.587455 -0.544895
v 0.021088 3.011197 0.000000
v 0.201328 2.953338 -0.074658
v 0.374641 2.781984 -0.146447
v 0.534368 2.503719 -0.212607
v 0.674369 2.129238 -0.270598
v 0.789265 1.672932 -0.318190
v 0.874641 1.152335 -0.353553
v 0.927215 0.587455 -0.375330
v 0.944967 0.000000 -0.382683
v 0.927215 -0.587455 -0.375330
v 0.212429 2.953338 -0.038060
v 0.396418 2.781984 -0.074658
v 0.565983 2.503719 -0.108386
v 0.714607 2.129238 -0.137950
v 0.836581 1.672932 -0.162212
v 0.927215 1.152335 -0.180240
v 0.983027 0.587455 -0.191342
v 1.001873 0.000000 -0.195090
v 0.983027 -0.587455 -0.191342
v 0.216178 2.953338 0.000000
v 0.403771 2.781984 0.000000
v 0.576658 2.503719 0.000000
v 0.728194 2.129238 -0.000000
v 0.852557 1.672932 0.000000
v 0.944967 1.152335 -0.000000
v 1.001873 0.587455 0.000000
v 1.021087 0.000000 0.000000
v 1.001873 -0.587455 0.000000
v 0.212429 2.953338 0.038060
v 0.396418 2.781984 0.074658
v 0.565983 2.503719 0.108386
v 0.714607 2.129238 0.137950
v 0.836581 1.672932 0.162212
v 0.927215 1.152335 0.180240
v 0.983027 0.587455 0.191342
v 1.001873 0.000000 0.195090
v 0.983027 -0.587455 0.191342
v 0.201327 2.953338 0.074658
v 0.374641 2.781984 0.146447
v 0.534367 2.503719 0.212608
v 0.674369 2.129238 0.270598
v 0.789265 1.672932 0.318190
v 0.874641 1.152335 0.353553
v 0.927215 0.587455 0.375330
v 0.944967 0.000000 0.382683
v 0.927215 -0.587455 0.375330
v 0.183299 2.953338 0.108386
v 0.339277 2.781984 0.212608
v 0.483027 2.503719 0.308658
v 0.609025 2.129238 0.392847
v 0.712429 1.672932 0.461940
v 0.789265 1.152335 0.513280
v 0.836581 0.587455 0.544895
v 0.852557 0.000000 0.555570
v 0.836581 -0.587455 0.544895
v 0.159037 2.953338 0.137950
v 0.291686 2.781984 0.270598
v 0.413935 2.503719 0.392847
v 0.521088 2.129238 0.500000
v 0.609025 1.672932 0.587938
v 0.674369 1.152335 0.653281
v 0.714607 0.587455 0.693520
v 0.728194 0.000000 0.707107
v 0.714607 -0.587455 0.693520
v 0.129474 2.953338 0.162212
v 0.233695 2.781984 0.318190
v 0.329746 2.503719 0.461940
v 0.413935 2.129238 0.587938
v 0.483027 1.672932 0.691342
v 0.534368 1.152335 0.768178
v 0.565982 0.587455 0.815493
v 0.576657 0.000000 0.831469
v 0.565982 -0.587455 0.815493
v 0.095745 2.953338 0.180240
v 0.167534 2.781984 0.353553
v 0.233695 2.503719 0.513280
v 0.291686 2.129238 0.653281
v 0.339277 1.672932 0.768178
v 0.374641 1.152335 0.853553
v 0.396418 0.587455 0.906127
v 0.403771 0.000000 0.923879
v 0.396418 -0.587455 0.906127
v 0.059148 2.953338 0.191342
v 0.095745 2.781984 0.375330
v 0.129474 2.503719 0.544895
v 0.159037 2.129238 0.693520
v 0.183299 1.672932 0.815493
v 0.201328 1.152335 0.906127
v 0.212429 0.587455 0.961939
v 0.216178 0.000000 0.980785
v 0.212429 -0.587455 0.961939
v 0.021088 2.953338 0.195090
v 0.021088 2.781984 0.382683
v 0.021088 2.503719 0.555570
v 0.021088 2.129238 0.707107
v 0.021087 1.672932 0.831469
v 0.021088 1.152335 0.923879
v 0.021087 0.587455 0.980785
v 0.021087 0.000000 0.999999
v 0.021087 -0.587455 0.980785
v -0.016973 2.953338 0.191342
v -0.053570 2.781984 0.375330
v -0.087299 2.503719 0.544895
v -0.116862 2.129238 0.693520
v -0.141124 1.672932 0.815493
v -0.159152 1.152335 0.906127
v -0.170254 0.587455 0.961939
v -0.174003 0.000000 0.980785
v -0.170254 -0.587455 0.961939
v -0.053570 2.953338 0.180240
v -0.125359 2.781984 0.353553
v -0.191520 2.503719 0.513280
v -0.249510 2.129238 0.653281
v -0.297102 1.672932 0.768177
v -0.332466 1.152335 0.853553
v -0.354243 0.587455 0.906127
v -0.361596 0.000000 0.923879
v -0.354243 -0.587455 0.906127
v -0.087299 2.953338 0.162212
v -0.191520 2.781984 0.318190
v -0.287571 2.503719 0.461939
v -0.371760 2.129238 0.587938
v -0.440852 1.672932 0.691341
v -0.492192 1.152335 0.768178
v -0.523807 0.587455 0.815493
v -0.534483 0.000000 0.831469
v -0.523807 -0.587455 0.815493
v -0.116862 2.953338 0.137950
v -0.249510 2.781984 0.270598
v -0.371760 2.503719 0.392847
v -0.478912 2.129238 0.500000
v -0.566850 1.672932 0.587937
v -0.632194 1.152335 0.653281
v -0.672432 0.587455 0.693520
v -0.686019 0.000000 0.707106
v -0.672432 -0.587455 0.693520
v -0.141124 2.953338 0.108386
v -0.297102 2.781984 0.212607
v -0.440852 2.503719 0.308658
v -0.566850 2.129238 0.392847
v -0.670254 1.672932 0.461939
v -0.747090 1.152335 0.513280
v -0.794405 0.587455 0.544895
v -0.810382 0.000000 0.555569
v -0.794405 -0.587455 0.544895
v -0.159152 2.953338 0.074658
v -0.332466 2.781984 0.146447
v -0.492192 2.503719 0.212607
v -0.632194 2.129238 0.270598
v -0.747090 1.672932 0.318189
v -0.832465 1.152335 0.353553
v -0.885040 0.587455 0.375330
v -0.902791 0.000000 0.382683
v -0.885040 -0.587455 0.375330
v -0.170254 2.953338 0.038060
v -0.354243 2.781984 0.074658
v -0.523807 2.503719 0.108386
v -0.672432 2.129238 0.137950
v -0.794405 1.672932 0.162211
v -0.885040 1.152335 0.180240
v -0.940852 0.587455 0.191341
v -0.959697 0.000000 0.195090
v -0.940852 -0.587455 0.191341
v -0.174003 2.953338 -0.000000
v -0.361596 2.781984 -0.000000
v -0.534482 2.503719 -0.000000
v -0.686019 2.129238 -0.000000
v -0.810382 1.672932 -0.000000
v -0.902792 1.152335 -0.000000
v -0.959697 0.587455 -0.000000
v -0.978911 0.000000 -0.000000
v -0.959697 -0.587455 -0.000000
v -0.170254 2.953338 -0.038060
v -0.354243 2.781984 -0.074658
v -0.523807 2.503719 -0.108386
v -0.672432 2.129238 -0.137950
v -0.794405 1.672932 -0.162212
v -0.885039 1.152335 -0.180240
v -0.940852 0.587455 -0.191342
v -0.959697 0.000000 -0.195091
v -0.940852 -0.587455 -0.191342
v -0.159152 2.953338 -0.074658
v -0.332466 2.781984 -0.146447
v -0.492192 2.503719 -0.212607
v -0.632194 2.129238 -0.270598
v -0.747090 1.672932 -0.318190
v -0.832465 1.152335 -0.353553
v -0.885039 0.587455 -0.375330
v -0.902791 0.000000 -0.382683
v -0.885039 -0.587455 -0.375330
v -0.141124 2.953338 -0.108386
v -0.297102 2.781984 -0.212607
v -0.440852 2.503719 -0.308658
v -0.566850 2.129238 -0.392847
v -0.670254 1.672932 -0.461940
v -0.747090 1.152335 -0.513280
v -0.794405 0.587455 -0.544895
v -0.810381 0.000000 -0.555570
v -0.794405 -0.587455 -0.544895
v -0.116862 2.953338 -0.137950
v -0.249510 2.781984 -0.270598
v -0.371759 2.503719 -0.392847
v -0.478912 2.129238 -0.500000
v -0.566850 1.672932 -0.587938
v -0.632194 1.152335 -0.653281
v -0.672432 0.587455 -0.693520
v -0.686018 0.000000 -0.707106
v -0.672432 -0.587455 -0.693520
v -0.087299 2.953338 -0.162212
v -0.191520 2.781984 -0.318190
v -0.287570 2.503719 -0.461939
v -0.371760 2.129238 -0.587938
v -0.440852 1.672932 -0.691341
v -0.492192 1.152335 -0.768177
v -0.523807 0.587455 -0.815493
v -0.534482 0.000000 -0.831469
v -0.523807 -0.587455 -0.815493
v -0.053570 2.953338 -0.180240
v -0.125359 2.781984 -0.353553
v -0.191519 2.503719 -0.513279
v -0.249510 2.129238 -0.653281
v -0.297102 1.672932 -0.768177
v -0.332466 1.152335 -0.853553
v -0.354242 0.587455 -0.906127
v -0.361595 0.000000 -0.923879
v -0.354242 -0.587455 -0.906127
v -0.016973 2.953338 -0.191342
v -0.053570 2.781984 -0.375330
v -0.087298 2.503719 -0.544895
v -0.116862 2.129238 -0.693520
v -0.141124 1.672932 -0.815493
v -0.159152 1.152335 -0.906127
v -0.170254 0.587455 -0.961939
v -0.174002 0.000000 -0.980784
v -0.170254 -0.587455 -0.961939
v 0.021088 2.953338 -0.195090
v 0.021088 2.781984 -0.382683
v 0.021088 2.129238 -0.707107
v 0.021088 1.152335 -0.923879
vn -0.0946 -0.2618 0.9605
vn -0.0965 -0.1740 0.9800
vn -0.0975 -0.0998 0.9902
vn -0.0980 -0.0325 0.9947
vn -0.0280 -0.9583 0.2842
vn -0.0980 0.0325 0.9947
vn -0.0663 -0.7367 0.6729
vn -0.0834 -0.5259 0.8464
vn -0.0909 -0.3736 0.9231
vn -0.2693 -0.3736 0.8877
vn -0.2802 -0.2618 0.9236
vn -0.2859 -0.1740 0.9423
vn -0.2888 -0.0998 0.9522
vn -0.2901 -0.0325 0.9564
vn -0.0829 -0.9583 0.2733
vn -0.2901 0.0325 0.9564
vn -0.1963 -0.7367 0.6471
vn -0.2469 -0.5259 0.8139
vn -0.4711 -0.0325 0.8815
vn -0.1346 -0.9583 0.2519
vn -0.4711 0.0325 0.8815
vn -0.3188 -0.7367 0.5964
vn -0.4009 -0.5259 0.7501
vn -0.4373 -0.3736 0.8181
vn -0.4550 -0.2618 0.8512
vn -0.4642 -0.1740 0.8685
vn -0.4690 -0.0998 0.8775
vn -0.5885 -0.3736 0.7171
vn -0.6123 -0.2618 0.7461
vn -0.6247 -0.1740 0.7612
vn -0.6312 -0.0998 0.7692
vn -0.6341 -0.0325 0.7726
vn -0.1812 -0.9583 0.2208
vn -0.6341 0.0325 0.7726
vn -0.4290 -0.7367 0.5227
vn -0.5396 -0.5259 0.6575
vn -0.7726 -0.0325 0.6341
vn -0.2208 -0.9584 0.1812
vn -0.7726 0.0325 0.6341
vn -0.5227 -0.7367 0.4290
vn -0.6575 -0.5259 0.5396
vn -0.7171 -0.3736 0.5885
vn -0.7461 -0.2618 0.6123
vn -0.7612 -0.1740 0.6247
vn -0.7692 -0.0998 0.6312
vn -0.8512 -0.2618 0.4550
vn -0.8685 -0.1740 0.4642
vn -0.8775 -0.0998 0.4690
vn -0.8815 -0.0325 0.4711
vn -0.2519 -0.9583 0.1346
vn -0.8815 0.0325 0.4711
vn -0.5964 -0.7367 0.3188
vn -0.7501 -0.5259 0.4009
vn -0.8181 -0.3736 0.4373
vn -0.2733 -0.9583 0.0829
vn -0.9564 0.0325 0.2901
vn -0.6471 -0.7367 0.1963
vn -0.8139 -0.5259 0.2469
vn -0.8877 -0.3736 0.2693
vn -0.9236 -0.2618 0.2802
vn -0.9423 -0.1740 0.2859
vn -0.9522 -0.0998 0.2888
vn -0.9564 -0.0325 0.2901
vn -0.9605 -0.2618 0.0946
vn -0.9800 -0.1740 0.0965
vn -0.9902 -0.0998 0.0975
vn -0.9947 -0.0325 0.0980
vn -0.2842 -0.9583 0.0280
vn -0.9947 0.0325 0.0980
vn -0.6729 -0.7367 0.0663
vn -0.8464 -0.5259 0.0834
vn -0.9231 -0.3736 0.0909
vn -0.9947 0.0325 -0.0980
vn -0.6729 -0.7367 -0.0663
vn -0.8464 -0.5259 -0.0834
vn -0.9231 -0.3736 -0.0909
vn -0.9605 -0.2618 -0.0946
vn -0.9800 -0.1740 -0.0965
vn -0.9902 -0.0998 -0.0975
vn -0.9947 -0.0325 -0.0980
vn -0.2842 -0.9583 -0.0280
vn -0.9423 -0.1740 -0.2859
vn -0.9522 -0.0998 -0.2888
vn -0.9564 -0.0325 -0.2901
vn -0.2733 -0.9584 -0.0829
vn -0.9564 0.0325 -0.2901
vn -0.6471 -0.7367 -0.1963
vn -0.8139 -0.5259 -0.2469
vn -0.8877 -0.3736 -0.2693
vn -0.9236 -0.2618 -0.2802
vn -0.7501 -0.5259 -0.4009
vn -0.8181 -0.3736 -0.4373
vn -0.8512 -0.2618 -0.4550
vn -0.8685 -0.1740 -0.4642
vn -0.8775 -0.0998 -0.4690
vn -0.8815 -0.0325 -0.4711
vn -0.2519 -0.9583 -0.1346
vn -0.8815 0.0325 -0.4711
vn -0.5964 -0.7367 -0.3188
vn -0.7692 -0.0998 -0.6312
vn -0.7726 -0.0325 -0.6341
vn -0.2208 -0.9584 -0.1812
vn -0.7726 0.0325 -0.6341
vn -0.5227 -0.7367 -0.4290
vn -0.6575 -0.5259 -0.5396
vn -0.7171 -0.3736 -0.5885
vn -0.7461 -0.2618 -0.6123
vn -0.7612 -0.1740 -0.6247
vn -0.5396 -0.5259 -0.6575
vn -0.5885 -0.3736 -0.7171
vn -0.6123 -0.2618 -0.7461
vn -0.6247 -0.1740 -0.7612
vn -0.6312 -0.0998 -0.7692
vn -0.6341 -0.0325 -0.7726
vn -0.1812 -0.9583 -0.2208
vn -0.6341 0.0325 -0.7726
vn -0.4290 -0.7367 -0.5227
vn -0.4690 -0.0998 -0.8775
vn -0.4711 -0.0325 -0.8815
vn -0.1346 -0.9583 -0.2519
vn -0.4711 0.0325 -0.8815
vn -0.3188 -0.7367 -0.5964
vn -0.4009 -0.5259 -0.7501
vn -0.4373 -0.3736 -0.8181
vn -0.4550 -0.2618 -0.8512
vn -0.4642 -0.1740 -0.8685
vn -0.2693 -0.3736 -0.8877
vn -0.2802 -0.2618 -0.9236
vn -0.2859 -0.1740 -0.9423
vn -0.2888 -0.0998 -0.9522
vn -0.2901 -0.0325 -0.9564
vn -0.0829 -0.9583 -0.2733
vn -0.2901 0.0325 -0.9564
vn -0.1963 -0.7367 -0.6471
vn -0.2469 -0.5259 -0.8139
vn -0.0980 -0.0325 -0.9947
vn -0.0280 -0.9583 -0.2842
vn -0.0980 0.0325 -0.9947
vn -0.0663 -0.7367 -0.6729
vn -0.0834 -0.5259 -0.8464
vn -0.0909 -0.3736 -0.9231
vn -0.0946 -0.2618 -0.9605
vn -0.0965 -0.1740 -0.9800
vn -0.0975 -0.0998 -0.9902
vn 0.0909 -0.3736 -0.9231
vn 0.0946 -0.2618 -0.9605
vn 0.0965 -0.1740 -0.9800
vn 0.0975 -0.0998 -0.9902
vn 0.0980 -0.0325 -0.9947
vn 0.0280 -0.9583 -0.2842
vn 0.0980 0.0325 -0.9947
vn 0.0663 -0.7367 -0.6729
vn 0.0834 -0.5259 -0.8464
vn 0.2901 -0.0325 -0.9564
vn 0.0829 -0.9583 -0.2733
vn 0.2901 0.0325 -0.9564
vn 0.1963 -0.7367 -0.6471
vn 0.2469 -0.5259 -0.8139
vn 0.2693 -0.3736 -0.8877
vn 0.2802 -0.2618 -0.9236
vn 0.2859 -0.1740 -0.9423
vn 0.2888 -0.0998 -0.9522
vn 0.4550 -0.2618 -0.8512
vn 0.4642 -0.1740 -0.8685
vn 0.4690 -0.0998 -0.8775
vn 0.4711 -0.0325 -0.8815
vn 0.1346 -0.9583 -0.2519
vn 0.4711 0.0325 -0.8815
vn 0.3188 -0.7367 -0.5964
vn 0.4009 -0.5259 -0.7501
vn 0.4373 -0.3736 -0.8181
vn 0.6341 0.0325 -0.7726
vn 0.4290 -0.7367 -0.5227
vn 0.5396 -0.5259 -0.6575
vn 0.5885 -0.3736 -0.7171
vn 0.6123 -0.2618 -0.7461
vn 0.6247 -0.1740 -0.7612
vn 0.6312 -0.0998 -0.7692
vn 0.6341 -0.0325 -0.7726
vn 0.1812 -0.9583 -0.2208
vn 0.7612 -0.1740 -0.6247
vn 0.7692 -0.0998 -0.6312
vn 0.7726 -0.0325 -0.6341
vn 0.2208 -0.9584 -0.1812
vn 0.7726 0.0325 -0.6341
vn 0.5227 -0.7367 -0.4290
vn 0.6575 -0.5259 -0.5396
vn 0.7171 -0.3736 -0.5885
vn 0.7461 -0.2618 -0.6123
vn 0.5964 -0.7367 -0.3188
vn 0.7501 -0.5259 -0.4009
vn 0.8181 -0.3736 -0.4373
vn 0.8512 -0.2618 -0.4550
vn 0.8685 -0.1740 -0.4642
vn 0.8775 -0.0998 -0.4690
vn 0.8815 -0.0325 -0.4711
vn 0.2519 -0.9583 -0.1346
vn 0.8815 0.0325 -0.4711
vn 0.9423 -0.1740 -0.2859
vn 0.9522 -0.0998 -0.2888
vn 0.9564 -0.0325 -0.2901
vn 0.2733 -0.9583 -0.0829
vn 0.9564 0.0325 -0.2901
vn 0.6471 -0.7367 -0.1963
vn 0.8139 -0.5259 -0.2469
vn 0.8877 -0.3736 -0.2693
vn 0.9236 -0.2618 -0.2802
vn 0.8464 -0.5259 -0.0834
vn 0.9231 -0.3736 -0.0909
vn 0.9605 -0.2618 -0.0946
vn 0.9800 -0.1740 -0.0965
vn 0.9902 -0.0998 -0.0975
vn 0.9947 -0.0325 -0.0980
vn 0.2842 -0.9583 -0.0280
vn 0.9947 0.0325 -0.0980
vn 0.6729 -0.7367 -0.0663
vn 0.9902 -0.0998 0.0975
vn 0.9947 -0.0325 0.0980
vn 0.2842 -0.9583 0.0280
vn 0.9947 0.0325 0.0980
vn 0.6729 -0.7367 0.0663
vn 0.8464 -0.5259 0.0834
vn 0.9231 -0.3736 0.0909
vn 0.9605 -0.2618 0.0946
vn 0.9800 -0.1740 0.0965
vn 0.8139 -0.5259 0.2469
vn 0.8877 -0.3736 0.2693
vn 0.9236 -0.2618 0.2802
vn 0.9423 -0.1740 0.2859
vn 0.9522 -0.0998 0.2888
vn 0.9564 -0.0325 0.2901
vn 0.2733 -0.9583 0.0829
vn 0.9564 0.0325 0.2901
vn 0.6471 -0.7367 0.1963
vn 0.8775 -0.0998 0.4690
vn 0.8815 -0.0325 0.4711
vn 0.2519 -0.9583 0.1346
vn 0.8815 0.0325 0.4711
vn 0.5964 -0.7367 0.3188
vn 0.7501 -0.5259 0.4009
vn 0.8181 -0.3736 0.4373
vn 0.8512 -0.2618 0.4550
vn 0.8685 -0.1740 0.4642
vn 0.7171 -0.3736 0.5885
vn 0.7461 -0.2618 0.6123
vn 0.7612 -0.1740 0.6247
vn 0.7692 -0.0998 0.6312
vn 0.7726 -0.0325 0.6341
vn 0.2208 -0.9584 0.1812
vn 0.7726 0.0325 0.6341
vn 0.5227 -0.7367 0.4290
vn 0.6575 -0.5259 0.5396
vn 0.6341 -0.0325 0.7726
vn 0.1812 -0.9583 0.2208
vn 0.6341 0.0325 0.7726
vn 0.4290 -0.7367 0.5227
vn 0.5396 -0.5259 0.6575
vn 0.5885 -0.3736 0.7171
vn 0.6123 -0.2618 0.7461
vn 0.6247 -0.1740 0.7612
vn 0.6312 -0.0998 0.7692
vn 0.4550 -0.2618 0.8512
vn 0.4642 -0.1740 0.8685
vn 0.4690 -0.0998 0.8775
vn 0.4711 -0.0325 0.8815
vn 0.1346 -0.9583 0.2519
vn 0.4711 0.0325 0.8815
vn 0.3188 -0.7367 0.5964
vn 0.4009 -0.5259 0.7501
vn 0.4373 -0.3736 0.8181
vn 0.0829 -0.9583 0.2733
vn 0.2901 0.0325 0.9564
vn 0.1963 -0.7367 0.6471
vn 0.2469 -0.5259 0.8139
vn 0.2693 -0.3736 0.8877
vn 0.2802 -0.2618 0.9236
vn 0.2859 -0.1740 0.9423
vn 0.2888 -0.0998 0.9522
vn 0.2901 -0.0325 0.9564
vn 0.0946 -0.2618 0.9605
vn 0.0965 -0.1740 0.9800
vn 0.0975 -0.0998 0.9902
vn 0.0980 -0.0325 0.9947
vn 0.0280 -0.9583 0.2842
vn 0.0980 0.0325 0.9947
vn 0.0663 -0.7367 0.6729
vn 0.0834 -0.5259 0.8464
vn 0.0909 -0.3736 0.9231
vn -0.7170 -0.3736 0.5885
vn -0.5885 -0.3736 -0.7170
vn 0.5885 -0.3736 -0.7170
vn 0.7170 -0.3736 0.5885
vt 0.691350 0.444537
vt 0.654026 0.486828
vt 0.698264 0.482962
vt 0.747892 0.478448
vt 0.804960 0.473091
vt 0.738710 0.430707
vt 0.857824 0.396003
vt 0.870474 0.467469
vt 0.536870 0.497706
vt 0.535503 0.490579
vt 0.500033 0.501215
vt 0.937010 0.373869
vt 0.952151 0.460695
vt 0.574138 0.494270
vt 0.612800 0.490658
vt 0.571418 0.479936
vt 0.608689 0.468824
vt 0.636671 0.429056
vt 0.648201 0.457034
vt 0.676487 0.408339
vt 0.720583 0.385533
vt 0.793439 0.414328
vt 0.831300 0.327923
vt 0.532747 0.483860
vt 0.905288 0.290444
vt 0.565940 0.466390
vt 0.600374 0.448174
vt 0.737816 0.308876
vt 0.770951 0.358816
vt 0.528730 0.477807
vt 0.857025 0.213964
vt 0.557905 0.454156
vt 0.588026 0.429660
vt 0.619924 0.403968
vt 0.654955 0.375621
vt 0.693852 0.344693
vt 0.598838 0.382306
vt 0.659643 0.309698
vt 0.791741 0.265711
vt 0.696134 0.265622
vt 0.523609 0.472657
vt 0.793546 0.148813
vt 0.547566 0.443804
vt 0.572368 0.413873
vt 0.739789 0.213061
vt 0.646349 0.231560
vt 0.517583 0.468606
vt 0.718436 0.098014
vt 0.535422 0.435684
vt 0.573782 0.365133
vt 0.627401 0.347766
vt 0.619213 0.282085
vt 0.595008 0.325864
vt 0.545728 0.353652
vt 0.574097 0.262930
vt 0.678587 0.171603
vt 0.590754 0.208045
vt 0.510881 0.465807
vt 0.635006 0.063192
vt 0.521966 0.429988
vt 0.533377 0.392850
vt 0.553909 0.401428
vt 0.503759 0.464372
vt 0.546563 0.045470
vt 0.610500 0.143032
vt 0.507637 0.427025
vt 0.516098 0.347451
vt 0.558937 0.310556
vt 0.526056 0.253023
vt 0.531626 0.195952
vt 0.520503 0.302735
vt 0.485779 0.347223
vt 0.477038 0.252729
vt 0.538215 0.128415
vt 0.471320 0.195701
vt 0.496497 0.464355
vt 0.456524 0.045399
vt 0.493006 0.427016
vt 0.489379 0.388323
vt 0.511602 0.388425
vt 0.368328 0.062893
vt 0.464557 0.128251
vt 0.489373 0.465756
vt 0.478671 0.429859
vt 0.455980 0.352949
vt 0.481323 0.302561
vt 0.428935 0.262033
vt 0.412176 0.207256
vt 0.383604 0.280557
vt 0.442882 0.310047
vt 0.392367 0.142486
vt 0.356471 0.230139
vt 0.482657 0.468521
vt 0.285328 0.097222
vt 0.465117 0.435344
vt 0.446952 0.401011
vt 0.467536 0.392569
vt 0.427867 0.364395
vt 0.428418 0.413298
vt 0.402514 0.381108
vt 0.406661 0.324900
vt 0.342791 0.307573
vt 0.324408 0.170529
vt 0.306340 0.263448
vt 0.476613 0.472544
vt 0.210671 0.147040
vt 0.452955 0.443464
vt 0.308059 0.342027
vt 0.263273 0.211275
vt 0.263697 0.305888
vt 0.471472 0.477666
vt 0.147186 0.210431
vt 0.442627 0.453793
vt 0.412641 0.428993
vt 0.380847 0.402455
vt 0.374067 0.346541
vt 0.434416 0.465884
vt 0.364193 0.427781
vt 0.346388 0.374125
vt 0.280706 0.382597
vt 0.211289 0.263147
vt 0.230165 0.355832
vt 0.467429 0.483695
vt 0.097296 0.284976
vt 0.261813 0.427752
vt 0.170438 0.324155
vt 0.207034 0.411360
vt 0.464643 0.490395
vt 0.062922 0.367819
vt 0.428821 0.479387
vt 0.391718 0.467956
vt 0.400271 0.447464
vt 0.352414 0.455645
vt 0.324476 0.406563
vt 0.346349 0.485323
vt 0.309437 0.442730
vt 0.252107 0.475693
vt 0.142290 0.391956
vt 0.195197 0.470314
vt 0.463220 0.497507
vt 0.045399 0.455763
vt 0.425968 0.493710
vt 0.387326 0.489733
vt 0.127931 0.463929
vt 0.195103 0.530422
vt 0.463212 0.504756
vt 0.045399 0.545408
vt 0.387264 0.511964
vt 0.346213 0.515625
vt 0.301730 0.481084
vt 0.251949 0.524585
vt 0.352002 0.545365
vt 0.301653 0.520185
vt 0.261336 0.572549
vt 0.127907 0.537296
vt 0.206744 0.589368
vt 0.464620 0.511869
vt 0.062909 0.633290
vt 0.425970 0.508301
vt 0.428712 0.522648
vt 0.142211 0.609225
vt 0.229663 0.644884
vt 0.467365 0.518581
vt 0.097234 0.716019
vt 0.399989 0.554299
vt 0.391550 0.533766
vt 0.363481 0.573393
vt 0.309206 0.558533
vt 0.279899 0.617740
vt 0.324095 0.594656
vt 0.380208 0.598638
vt 0.306917 0.658421
vt 0.170275 0.676947
vt 0.262965 0.694835
vt 0.471370 0.524628
vt 0.147032 0.790413
vt 0.442404 0.548268
vt 0.434301 0.536144
vt 0.412281 0.572802
vt 0.210366 0.853617
vt 0.211005 0.737856
vt 0.452635 0.558651
vt 0.401533 0.620125
vt 0.345741 0.627168
vt 0.341341 0.693032
vt 0.305358 0.737304
vt 0.476477 0.529779
vt 0.381839 0.720248
vt 0.373306 0.654819
vt 0.262817 0.789615
vt 0.355201 0.770665
vt 0.482505 0.533817
vt 0.284779 0.903211
vt 0.427945 0.588534
vt 0.464761 0.566739
vt 0.426629 0.637031
vt 0.478197 0.572416
vt 0.466831 0.609443
vt 0.446358 0.600912
vt 0.454531 0.648712
vt 0.405722 0.676550
vt 0.426847 0.739030
vt 0.323705 0.830242
vt 0.410567 0.793648
vt 0.489205 0.536603
vt 0.367394 0.937303
vt 0.474632 0.748668
vt 0.441741 0.691534
vt 0.391313 0.858188
vt 0.469320 0.805381
vt 0.496316 0.538028
vt 0.455017 0.954601
vt 0.492504 0.575257
vt 0.484164 0.654724
vt 0.488558 0.613823
vt 0.507072 0.575253
vt 0.514397 0.654843
vt 0.479974 0.699202
vt 0.523356 0.748803
vt 0.463032 0.872395
vt 0.529198 0.805430
vt 0.503564 0.538040
vt 0.544268 0.954465
vt 0.571147 0.739445
vt 0.536095 0.872338
vt 0.587900 0.793814
vt 0.510678 0.536639
vt 0.631703 0.936928
vt 0.510739 0.613883
vt 0.521389 0.572517
vt 0.544064 0.649068
vt 0.518954 0.699268
vt 0.532494 0.609608
vt 0.534853 0.566940
vt 0.572030 0.637629
vt 0.557185 0.691740
vt 0.616176 0.720969
vt 0.607690 0.858043
vt 0.643175 0.771001
vt 0.517379 0.533879
vt 0.713955 0.902703
vt 0.656730 0.694099
vt 0.675066 0.830092
vt 0.692917 0.737894
vt 0.523411 0.529869
vt 0.787862 0.853157
vt 0.546949 0.558850
vt 0.552990 0.601191
vt 0.597234 0.620963
vt 0.593203 0.676915
vt 0.618712 0.599714
vt 0.571476 0.588930
vt 0.625637 0.655370
vt 0.691272 0.659878
vt 0.735646 0.789595
vt 0.735244 0.695787
vt 0.528549 0.524761
vt 0.850601 0.790261
vt 0.557311 0.548632
vt 0.787130 0.738152
vt 0.768587 0.646312
vt 0.532593 0.518748
vt 0.899808 0.716519
vt 0.565485 0.536572
vt 0.587216 0.573301
vt 0.635646 0.574698
vt 0.653251 0.627936
vt 0.718516 0.619619
vt 0.674990 0.595665
vt 0.647410 0.546857
vt 0.737472 0.574843
vt 0.827592 0.677779
vt 0.791750 0.591350
vt 0.535386 0.512061
vt 0.933706 0.634867
vt 0.599598 0.554925
vt 0.571159 0.523135
vt 0.536847 0.504958
vt 0.951228 0.548522
vt 0.855560 0.610818
vt 0.574009 0.508839
vt 0.608141 0.534504
vt 0.653604 0.517201
vt 0.690005 0.559794
vt 0.747510 0.527168
vt 0.803977 0.532907
vt 0.697626 0.521745
vt 0.870054 0.539818
vt 0.612516 0.512815
s 0
usemtl マテリアル.009
f 10/1/1 288/2/1 2/3/1
f 289/4/2 10/1/2 2/3/2
f 3/5/3 11/6/3 289/4/3
f 13/7/4 3/5/4 4/8/4
f 286/9/5 6/10/5 51/11/5
f 14/12/6 4/8/6 5/13/6
f 287/14/7 6/10/7 286/9/7
f 1/15/8 7/16/8 287/14/8
f 288/2/9 8/17/9 1/15/9
f 18/18/10 8/17/10 9/19/10
f 19/20/11 9/19/11 10/1/11
f 20/21/12 10/1/12 11/6/12
f 12/22/13 20/21/13 11/6/13
f 22/23/14 12/22/14 13/7/14
f 6/10/15 15/24/15 51/11/15
f 23/25/16 13/7/16 14/12/16
f 16/26/17 6/10/17 7/16/17
f 17/27/18 7/16/18 8/17/18
f 22/23/19 30/28/19 21/29/19
f 15/24/20 24/30/20 51/11/20
f 32/31/21 22/23/21 23/25/21
f 25/32/22 15/24/22 16/26/22
f 26/33/23 16/26/23 17/27/23
f 27/34/24 17/27/24 18/18/24
f 28/35/25 18/18/25 19/20/25
f 29/36/26 19/20/26 20/21/26
f 21/29/27 29/36/27 20/21/27
f 36/37/28 26/33/28 27/34/28
f 28/35/29 36/37/29 27/34/29
f 38/38/30 28/35/30 29/36/30
f 30/28/31 38/38/31 29/36/31
f 31/39/32 39/40/32 30/28/32
f 24/30/33 33/41/33 51/11/33
f 41/42/34 31/39/34 32/31/34
f 34/43/35 24/30/35 25/32/35
f 35/44/36 25/32/36 26/33/36
f 40/45/37 48/46/37 39/40/37
f 33/41/38 42/47/38 51/11/38
f 50/48/39 40/45/39 41/42/39
f 34/43/40 42/47/40 33/41/40
f 35/44/41 43/49/41 34/43/41
f 45/50/42 35/44/42 36/37/42
f 37/51/43 45/50/43 36/37/43
f 47/52/44 37/51/44 38/38/44
f 39/40/45 47/52/45 38/38/45
f 46/53/46 55/54/46 45/50/46
f 57/55/47 46/53/47 47/52/47
f 48/46/48 57/55/48 47/52/48
f 49/56/49 58/57/49 48/46/49
f 42/47/50 52/58/50 51/11/50
f 60/59/51 49/56/51 50/48/51
f 53/60/52 42/47/52 43/49/52
f 54/61/53 43/49/53 44/62/53
f 55/54/54 44/62/54 45/50/54
f 52/58/55 61/63/55 51/11/55
f 69/64/56 59/65/56 60/59/56
f 62/66/57 52/58/57 53/60/57
f 54/61/58 62/66/58 53/60/58
f 64/67/59 54/61/59 55/54/59
f 56/68/60 64/67/60 55/54/60
f 66/69/61 56/68/61 57/55/61
f 58/57/62 66/69/62 57/55/62
f 59/65/63 67/70/63 58/57/63
f 65/71/64 73/72/64 64/67/64
f 75/73/65 65/71/65 66/69/65
f 67/70/66 75/73/66 66/69/66
f 68/74/67 76/75/67 67/70/67
f 61/63/68 70/76/68 51/11/68
f 78/77/69 68/74/69 69/64/69
f 71/78/70 61/63/70 62/66/70
f 72/79/71 62/66/71 63/80/71
f 73/72/72 63/80/72 64/67/72
f 87/81/73 77/82/73 78/77/73
f 71/78/74 79/83/74 70/76/74
f 72/79/75 80/84/75 71/78/75
f 82/85/76 72/79/76 73/72/76
f 74/86/77 82/85/77 73/72/77
f 84/87/78 74/86/78 75/73/78
f 76/75/79 84/87/79 75/73/79
f 77/82/80 85/88/80 76/75/80
f 70/76/81 79/83/81 51/11/81
f 93/89/82 83/90/82 84/87/82
f 85/88/83 93/89/83 84/87/83
f 86/91/84 94/92/84 85/88/84
f 79/83/85 88/93/85 51/11/85
f 96/94/86 86/91/86 87/81/86
f 89/95/87 79/83/87 80/84/87
f 90/96/88 80/84/88 81/97/88
f 91/98/89 81/97/89 82/85/89
f 83/90/90 91/98/90 82/85/90
f 99/99/91 89/95/91 90/96/91
f 100/100/92 90/96/92 91/98/92
f 92/101/93 100/100/93 91/98/93
f 102/102/94 92/101/94 93/89/94
f 94/92/95 102/102/95 93/89/95
f 95/103/96 103/104/96 94/92/96
f 88/93/97 97/105/97 51/11/97
f 105/106/98 95/103/98 96/94/98
f 98/107/99 88/93/99 89/95/99
f 103/104/100 111/108/100 102/102/100
f 104/109/101 112/110/101 103/104/101
f 97/105/102 106/111/102 51/11/102
f 114/112/103 104/109/103 105/106/103
f 107/113/104 97/105/104 98/107/104
f 108/114/105 98/107/105 99/99/105
f 109/115/106 99/99/106 100/100/106
f 101/116/107 109/115/107 100/100/107
f 111/108/108 101/116/108 102/102/108
f 108/114/109 116/117/109 107/113/109
f 118/118/110 108/114/110 109/115/110
f 110/119/111 118/118/111 109/115/111
f 120/120/112 110/119/112 111/108/112
f 112/110/113 120/120/113 111/108/113
f 113/121/114 121/122/114 112/110/114
f 106/111/115 115/123/115 51/11/115
f 123/124/116 113/121/116 114/112/116
f 107/113/117 115/123/117 106/111/117
f 121/122/118 129/125/118 120/120/118
f 122/126/119 130/127/119 121/122/119
f 115/123/120 124/128/120 51/11/120
f 132/129/121 122/126/121 123/124/121
f 125/130/122 115/123/122 116/117/122
f 126/131/123 116/117/123 117/132/123
f 127/133/124 117/132/124 118/118/124
f 119/134/125 127/133/125 118/118/125
f 129/125/126 119/134/126 120/120/126
f 136/135/127 126/131/127 127/133/127
f 128/136/128 136/135/128 127/133/128
f 138/137/129 128/136/129 129/125/129
f 130/127/130 138/137/130 129/125/130
f 131/138/131 139/139/131 130/127/131
f 124/128/132 133/140/132 51/11/132
f 141/141/133 131/138/133 132/129/133
f 134/142/134 124/128/134 125/130/134
f 135/143/135 125/130/135 126/131/135
f 140/144/136 148/145/136 139/139/136
f 133/140/137 142/146/137 51/11/137
f 150/147/138 140/144/138 141/141/138
f 134/142/139 142/146/139 133/140/139
f 144/148/140 134/142/140 135/143/140
f 145/149/141 135/143/141 136/135/141
f 137/150/142 145/149/142 136/135/142
f 147/151/143 137/150/143 138/137/143
f 139/139/144 147/151/144 138/137/144
f 154/152/145 144/148/145 145/149/145
f 146/153/146 154/152/146 145/149/146
f 156/154/147 146/153/147 147/151/147
f 148/145/148 156/154/148 147/151/148
f 149/155/149 157/156/149 148/145/149
f 142/146/150 151/157/150 51/11/150
f 159/158/151 149/155/151 150/147/151
f 143/159/152 151/157/152 142/146/152
f 144/148/153 152/160/153 143/159/153
f 158/161/154 166/162/154 157/156/154
f 151/157/155 160/163/155 51/11/155
f 168/164/156 158/161/156 159/158/156
f 152/160/157 160/163/157 151/157/157
f 162/165/158 152/160/158 153/166/158
f 163/167/159 153/166/159 154/152/159
f 155/168/160 163/167/160 154/152/160
f 165/169/161 155/168/161 156/154/161
f 157/156/162 165/169/162 156/154/162
f 164/170/163 172/171/163 163/167/163
f 174/172/164 164/170/164 165/169/164
f 166/162/165 174/172/165 165/169/165
f 167/173/166 175/174/166 166/162/166
f 160/163/167 169/175/167 51/11/167
f 177/176/168 167/173/168 168/164/168
f 170/177/169 160/163/169 161/178/169
f 171/179/170 161/178/170 162/165/170
f 172/171/171 162/165/171 163/167/171
f 186/180/172 176/181/172 177/176/172
f 179/182/173 169/175/173 170/177/173
f 171/179/174 179/182/174 170/177/174
f 181/183/175 171/179/175 172/171/175
f 173/184/176 181/183/176 172/171/176
f 183/185/177 173/184/177 174/172/177
f 175/174/178 183/185/178 174/172/178
f 176/181/179 184/186/179 175/174/179
f 169/175/180 178/187/180 51/11/180
f 192/188/181 182/189/181 183/185/181
f 184/186/182 192/188/182 183/185/182
f 185/190/183 193/191/183 184/186/183
f 178/187/184 187/192/184 51/11/184
f 195/193/185 185/190/185 186/180/185
f 179/182/186 187/192/186 178/187/186
f 180/194/187 188/195/187 179/182/187
f 190/196/188 180/194/188 181/183/188
f 182/189/189 190/196/189 181/183/189
f 197/197/190 187/192/190 188/195/190
f 198/198/191 188/195/191 189/199/191
f 199/200/192 189/199/192 190/196/192
f 191/201/193 199/200/193 190/196/193
f 201/202/194 191/201/194 192/188/194
f 193/191/195 201/202/195 192/188/195
f 194/203/196 202/204/196 193/191/196
f 187/192/197 196/205/197 51/11/197
f 204/206/198 194/203/198 195/193/198
f 210/207/199 200/208/199 201/202/199
f 202/204/200 210/207/200 201/202/200
f 203/209/201 211/210/201 202/204/201
f 196/205/202 205/211/202 51/11/202
f 213/212/203 203/209/203 204/206/203
f 206/213/204 196/205/204 197/197/204
f 198/198/205 206/213/205 197/197/205
f 208/214/206 198/198/206 199/200/206
f 200/208/207 208/214/207 199/200/207
f 207/215/208 215/216/208 206/213/208
f 217/217/209 207/215/209 208/214/209
f 209/218/210 217/217/210 208/214/210
f 219/219/211 209/218/211 210/207/211
f 211/210/212 219/219/212 210/207/212
f 212/220/213 220/221/213 211/210/213
f 205/211/214 214/222/214 51/11/214
f 222/223/215 212/220/215 213/212/215
f 215/216/216 205/211/216 206/213/216
f 220/221/217 228/224/217 219/219/217
f 221/225/218 229/226/218 220/221/218
f 214/222/219 223/227/219 51/11/219
f 231/228/220 221/225/220 222/223/220
f 215/216/221 223/227/221 214/222/221
f 216/229/222 224/230/222 215/216/222
f 226/231/223 216/229/223 217/217/223
f 218/232/224 226/231/224 217/217/224
f 228/224/225 218/232/225 219/219/225
f 225/233/226 233/234/226 224/230/226
f 235/235/227 225/233/227 226/231/227
f 227/236/228 235/235/228 226/231/228
f 237/237/229 227/236/229 228/224/229
f 229/226/230 237/237/230 228/224/230
f 230/238/231 238/239/231 229/226/231
f 223/227/232 232/240/232 51/11/232
f 240/241/233 230/238/233 231/228/233
f 224/230/234 232/240/234 223/227/234
f 238/239/235 246/242/235 237/237/235
f 239/243/236 247/244/236 238/239/236
f 232/240/237 241/245/237 51/11/237
f 249/246/238 239/243/238 240/241/238
f 242/247/239 232/240/239 233/234/239
f 234/248/240 242/247/240 233/234/240
f 244/249/241 234/248/241 235/235/241
f 236/250/242 244/249/242 235/235/242
f 246/242/243 236/250/243 237/237/243
f 253/251/244 243/252/244 244/249/244
f 245/253/245 253/251/245 244/249/245
f 255/254/246 245/253/246 246/242/246
f 247/244/247 255/254/247 246/242/247
f 248/255/248 256/256/248 247/244/248
f 241/245/249 250/257/249 51/11/249
f 258/258/250 248/255/250 249/246/250
f 251/259/251 241/245/251 242/247/251
f 243/252/252 251/259/252 242/247/252
f 257/260/253 265/261/253 256/256/253
f 250/257/254 259/262/254 51/11/254
f 267/263/255 257/260/255 258/258/255
f 260/264/256 250/257/256 251/259/256
f 252/265/257 260/264/257 251/259/257
f 262/266/258 252/265/258 253/251/258
f 254/267/259 262/266/259 253/251/259
f 264/268/260 254/267/260 255/254/260
f 256/256/261 264/268/261 255/254/261
f 263/269/262 271/270/262 262/266/262
f 273/271/263 263/269/263 264/268/263
f 265/261/264 273/271/264 264/268/264
f 266/272/265 274/273/265 265/261/265
f 259/262/266 268/274/266 51/11/266
f 276/275/267 266/272/267 267/263/267
f 260/264/268 268/274/268 259/262/268
f 261/276/269 269/277/269 260/264/269
f 271/270/270 261/276/270 262/266/270
f 268/274/271 277/278/271 51/11/271
f 285/279/272 275/280/272 276/275/272
f 278/281/273 268/274/273 269/277/273
f 270/282/274 278/281/274 269/277/274
f 280/283/275 270/282/275 271/270/275
f 272/284/276 280/283/276 271/270/276
f 282/285/277 272/284/277 273/271/277
f 274/273/278 282/285/278 273/271/278
f 275/280/279 283/286/279 274/273/279
f 281/287/280 288/2/280 280/283/280
f 282/285/281 2/3/281 281/287/281
f 283/286/282 289/4/282 282/285/282
f 284/288/283 3/5/283 283/286/283
f 277/278/284 286/9/284 51/11/284
f 5/13/285 284/288/285 285/279/285
f 287/14/286 277/278/286 278/281/286
f 279/289/287 287/14/287 278/281/287
f 280/283/288 1/15/288 279/289/288
f 10/1/1 9/19/1 288/2/1
f 289/4/2 11/6/2 10/1/2
f 3/5/3 12/22/3 11/6/3
f 13/7/4 12/22/4 3/5/4
f 14/12/6 13/7/6 4/8/6
f 287/14/7 7/16/7 6/10/7
f 1/15/8 8/17/8 7/16/8
f 288/2/9 9/19/9 8/17/9
f 18/18/10 17/27/10 8/17/10
f 19/20/11 18/18/11 9/19/11
f 20/21/12 19/20/12 10/1/12
f 12/22/13 21/29/13 20/21/13
f 22/23/14 21/29/14 12/22/14
f 23/25/16 22/23/16 13/7/16
f 16/26/17 15/24/17 6/10/17
f 17/27/18 16/26/18 7/16/18
f 22/23/19 31/39/19 30/28/19
f 32/31/21 31/39/21 22/23/21
f 25/32/22 24/30/22 15/24/22
f 26/33/23 25/32/23 16/26/23
f 27/34/24 26/33/24 17/27/24
f 28/35/25 27/34/25 18/18/25
f 29/36/26 28/35/26 19/20/26
f 21/29/27 30/28/27 29/36/27
f 36/37/28 35/44/28 26/33/28
f 28/35/29 37/51/29 36/37/29
f 38/38/30 37/51/30 28/35/30
f 30/28/31 39/40/31 38/38/31
f 31/39/32 40/45/32 39/40/32
f 41/42/34 40/45/34 31/39/34
f 34/43/35 33/41/35 24/30/35
f 35/44/36 34/43/36 25/32/36
f 40/45/37 49/56/37 48/46/37
f 50/48/39 49/56/39 40/45/39
f 34/43/40 43/49/40 42/47/40
f 35/44/41 44/62/41 43/49/41
f 45/50/289 44/62/289 35/44/289
f 37/51/43 46/53/43 45/50/43
f 47/52/44 46/53/44 37/51/44
f 39/40/45 48/46/45 47/52/45
f 46/53/46 56/68/46 55/54/46
f 57/55/47 56/68/47 46/53/47
f 48/46/48 58/57/48 57/55/48
f 49/56/49 59/65/49 58/57/49
f 60/59/51 59/65/51 49/56/51
f 53/60/52 52/58/52 42/47/52
f 54/61/53 53/60/53 43/49/53
f 55/54/54 54/61/54 44/62/54
f 69/64/56 68/74/56 59/65/56
f 62/66/57 61/63/57 52/58/57
f 54/61/58 63/80/58 62/66/58
f 64/67/59 63/80/59 54/61/59
f 56/68/60 65/71/60 64/67/60
f 66/69/61 65/71/61 56/68/61
f 58/57/62 67/70/62 66/69/62
f 59/65/63 68/74/63 67/70/63
f 65/71/64 74/86/64 73/72/64
f 75/73/65 74/86/65 65/71/65
f 67/70/66 76/75/66 75/73/66
f 68/74/67 77/82/67 76/75/67
f 78/77/69 77/82/69 68/74/69
f 71/78/70 70/76/70 61/63/70
f 72/79/71 71/78/71 62/66/71
f 73/72/72 72/79/72 63/80/72
f 87/81/73 86/91/73 77/82/73
f 71/78/74 80/84/74 79/83/74
f 72/79/75 81/97/75 80/84/75
f 82/85/76 81/97/76 72/79/76
f 74/86/77 83/90/77 82/85/77
f 84/87/78 83/90/78 74/86/78
f 76/75/79 85/88/79 84/87/79
f 77/82/80 86/91/80 85/88/80
f 93/89/82 92/101/82 83/90/82
f 85/88/83 94/92/83 93/89/83
f 86/91/84 95/103/84 94/92/84
f 96/94/86 95/103/86 86/91/86
f 89/95/87 88/93/87 79/83/87
f 90/96/88 89/95/88 80/84/88
f 91/98/89 90/96/89 81/97/89
f 83/90/90 92/101/90 91/98/90
f 99/99/91 98/107/91 89/95/91
f 100/100/92 99/99/92 90/96/92
f 92/101/93 101/116/93 100/100/93
f 102/102/94 101/116/94 92/101/94
f 94/92/95 103/104/95 102/102/95
f 95/103/96 104/109/96 103/104/96
f 105/106/98 104/109/98 95/103/98
f 98/107/99 97/105/99 88/93/99
f 103/104/100 112/110/100 111/108/100
f 104/109/101 113/121/101 112/110/101
f 114/112/103 113/121/103 104/109/103
f 107/113/104 106/111/104 97/105/104
f 108/114/105 107/113/105 98/107/105
f 109/115/106 108/114/106 99/99/106
f 101/116/107 110/119/107 109/115/107
f 111/108/108 110/119/108 101/116/108
f 108/114/109 117/132/109 116/117/109
f 118/118/290 117/132/290 108/114/290
f 110/119/111 119/134/111 118/118/111
f 120/120/112 119/134/112 110/119/112
f 112/110/113 121/122/113 120/120/113
f 113/121/114 122/126/114 121/122/114
f 123/124/116 122/126/116 113/121/116
f 107/113/117 116/117/117 115/123/117
f 121/122/118 130/127/118 129/125/118
f 122/126/119 131/138/119 130/127/119
f 132/129/121 131/138/121 122/126/121
f 125/130/122 124/128/122 115/123/122
f 126/131/123 125/130/123 116/117/123
f 127/133/124 126/131/124 117/132/124
f 119/134/125 128/136/125 127/133/125
f 129/125/126 128/136/126 119/134/126
f 136/135/127 135/143/127 126/131/127
f 128/136/128 137/150/128 136/135/128
f 138/137/129 137/150/129 128/136/129
f 130/127/130 139/139/130 138/137/130
f 131/138/131 140/144/131 139/139/131
f 141/141/133 140/144/133 131/138/133
f 134/142/134 133/140/134 124/128/134
f 135/143/135 134/142/135 125/130/135
f 140/144/136 149/155/136 148/145/136
f 150/147/138 149/155/138 140/144/138
f 134/142/139 143/159/139 142/146/139
f 144/148/140 143/159/140 134/142/140
f 145/149/141 144/148/141 135/143/141
f 137/150/142 146/153/142 145/149/142
f 147/151/143 146/153/143 137/150/143
f 139/139/144 148/145/144 147/151/144
f 154/152/145 153/166/145 144/148/145
f 146/153/146 155/168/146 154/152/146
f 156/154/147 155/168/147 146/153/147
f 148/145/148 157/156/148 156/154/148
f 149/155/149 158/161/149 157/156/149
f 159/158/151 158/161/151 149/155/151
f 143/159/152 152/160/152 151/157/152
f 144/148/153 153/166/153 152/160/153
f 158/161/154 167/173/154 166/162/154
f 168/164/156 167/173/156 158/161/156
f 152/160/157 161/178/157 160/163/157
f 162/165/158 161/178/158 152/160/158
f 163/167/159 162/165/159 153/166/159
f 155/168/160 164/170/160 163/167/160
f 165/169/161 164/170/161 155/168/161
f 157/156/162 166/162/162 165/169/162
f 164/170/163 173/184/163 172/171/163
f 174/172/164 173/184/164 164/170/164
f 166/162/165 175/174/165 174/172/165
f 167/173/166 176/181/166 175/174/166
f 177/176/168 176/181/168 167/173/168
f 170/177/169 169/175/169 160/163/169
f 171/179/170 170/177/170 161/178/170
f 172/171/171 171/179/171 162/165/171
f 186/180/172 185/190/172 176/181/172
f 179/182/173 178/187/173 169/175/173
f 171/179/174 180/194/174 179/182/174
f 181/183/291 180/194/291 171/179/291
f 173/184/176 182/189/176 181/183/176
f 183/185/177 182/189/177 173/184/177
f 175/174/178 184/186/178 183/185/178
f 176/181/179 185/190/179 184/186/179
f 192/188/181 191/201/181 182/189/181
f 184/186/182 193/191/182 192/188/182
f 185/190/183 194/203/183 193/191/183
f 195/193/185 194/203/185 185/190/185
f 179/182/186 188/195/186 187/192/186
f 180/194/187 189/199/187 188/195/187
f 190/196/188 189/199/188 180/194/188
f 182/189/189 191/201/189 190/196/189
f 197/197/190 196/205/190 187/192/190
f 198/198/191 197/197/191 188/195/191
f 199/200/192 198/198/192 189/199/192
f 191/201/193 200/208/193 199/200/193
f 201/202/194 200/208/194 191/201/194
f 193/191/195 202/204/195 201/202/195
f 194/203/196 203/209/196 202/204/196
f 204/206/198 203/209/198 194/203/198
f 210/207/199 209/218/199 200/208/199
f 202/204/200 211/210/200 210/207/200
f 203/209/201 212/220/201 211/210/201
f 213/212/203 212/220/203 203/209/203
f 206/213/204 205/211/204 196/205/204
f 198/198/205 207/215/205 206/213/205
f 208/214/206 207/215/206 198/198/206
f 200/208/207 209/218/207 208/214/207
f 207/215/208 216/229/208 215/216/208
f 217/217/209 216/229/209 207/215/209
f 209/218/210 218/232/210 217/217/210
f 219/219/211 218/232/211 209/218/211
f 211/210/212 220/221/212 219/219/212
f 212/220/213 221/225/213 220/221/213
f 222/223/215 221/225/215 212/220/215
f 215/216/216 214/222/216 205/211/216
f 220/221/217 229/226/217 228/224/217
f 221/225/218 230/238/218 229/226/218
f 231/228/220 230/238/220 221/225/220
f 215/216/221 224/230/221 223/227/221
f 216/229/222 225/233/222 224/230/222
f 226/231/223 225/233/223 216/229/223
f 218/232/224 227/236/224 226/231/224
f 228/224/225 227/236/225 218/232/225
f 225/233/226 234/248/226 233/234/226
f 235/235/227 234/248/227 225/233/227
f 227/236/228 236/250/228 235/235/228
f 237/237/229 236/250/229 227/236/229
f 229/226/230 238/239/230 237/237/230
f 230/238/231 239/243/231 238/239/231
f 240/241/233 239/243/233 230/238/233
f 224/230/234 233/234/234 232/240/234
f 238/239/235 247/244/235 246/242/235
f 239/243/236 248/255/236 247/244/236
f 249/246/238 248/255/238 239/243/238
f 242/247/239 241/245/239 232/240/239
f 234/248/240 243/252/240 242/247/240
f 244/249/241 243/252/241 234/248/241
f 236/250/242 245/253/242 244/249/242
f 246/242/243 245/253/243 236/250/243
f 253/251/292 252/265/292 243/252/292
f 245/253/245 254/267/245 253/251/245
f 255/254/246 254/267/246 245/253/246
f 247/244/247 256/256/247 255/254/247
f 248/255/248 257/260/248 256/256/248
f 258/258/250 257/260/250 248/255/250
f 251/259/251 250/257/251 241/245/251
f 243/252/252 252/265/252 251/259/252
f 257/260/253 266/272/253 265/261/253
f 267/263/255 266/272/255 257/260/255
f 260/264/256 259/262/256 250/257/256
f 252/265/257 261/276/257 260/264/257
f 262/266/258 261/276/258 252/265/258
f 254/267/259 263/269/259 262/266/259
f 264/268/260 263/269/260 254/267/260
f 256/256/261 265/261/261 264/268/261
f 263/269/262 272/284/262 271/270/262
f 273/271/263 272/284/263 263/269/263
f 265/261/264 274/273/264 273/271/264
f 266/272/265 275/280/265 274/273/265
f 276/275/267 275/280/267 266/272/267
f 260/264/268 269/277/268 268/274/268
f 261/276/269 270/282/269 269/277/269
f 271/270/270 270/282/270 261/276/270
f 285/279/272 284/288/272 275/280/272
f 278/281/273 277/278/273 268/274/273
f 270/282/274 279/289/274 278/281/274
f 280/283/275 279/289/275 270/282/275
f 272/284/276 281/287/276 280/283/276
f 282/285/277 281/287/277 272/284/277
f 274/273/278 283/286/278 282/285/278
f 275/280/279 284/288/279 283/286/279
f 281/287/280 2/3/280 288/2/280
f 282/285/281 289/4/281 2/3/281
f 283/286/282 3/5/282 289/4/282
f 284/288/283 4/8/283 3/5/283
f 5/13/285 4/8/285 284/288/285
f 287/14/286 286/9/286 277/278/286
f 279/289/287 1/15/287 287/14/287
f 280/283/288 288/2/288 1/15/288
