# Blender 4.4.1
# www.blender.org
mtllib gravity.mtl
o 球
v 0.000000 1.662939 -1.111141
v 0.000000 1.111140 -1.662940
v 0.000000 0.390181 -1.961571
v 0.000000 0.000000 -2.000001
v 0.000000 -0.390181 -1.961571
v 0.000000 -1.111140 -1.662940
v 0.076121 1.961571 -0.382684
v 0.149316 1.847759 -0.750661
v 0.216773 1.662939 -1.089791
v 0.275900 1.414214 -1.387040
v 0.324424 1.111140 -1.630987
v 0.360480 0.765367 -1.812255
v 0.382684 0.390181 -1.923880
v 0.390181 0.000000 -1.961571
v 0.382684 -0.390181 -1.923880
v 0.360480 -0.765367 -1.812255
v 0.324424 -1.111140 -1.630987
v 0.275900 -1.414214 -1.387040
v 0.216773 -1.662939 -1.089791
v 0.149316 -1.847759 -0.750661
v 0.076121 -1.961571 -0.382684
v 0.149316 1.961571 -0.360480
v 0.292893 1.847759 -0.707107
v 0.425215 1.662939 -1.026560
v 0.541196 1.414214 -1.306563
v 0.636380 1.111140 -1.536356
v 0.707107 0.765367 -1.707107
v 0.750661 0.390181 -1.812255
v 0.765367 0.000000 -1.847760
v 0.750661 -0.390181 -1.812255
v 0.707107 -0.765367 -1.707107
v 0.636380 -1.111140 -1.536356
v 0.541196 -1.414214 -1.306563
v 0.425215 -1.662939 -1.026560
v 0.292893 -1.847759 -0.707107
v 0.149316 -1.961571 -0.360480
v 0.216773 1.961571 -0.324423
v 0.425215 1.847759 -0.636380
v 0.617317 1.662939 -0.923880
v 0.785695 1.414214 -1.175876
v 0.923880 1.111140 -1.382684
v 1.026560 0.765367 -1.536356
v 1.089791 0.390181 -1.630987
v 1.111141 0.000000 -1.662940
v 1.089791 -0.390181 -1.630987
v 1.026560 -0.765367 -1.536356
v 0.923880 -1.111140 -1.382684
v 0.785695 -1.414214 -1.175876
v 0.617317 -1.662939 -0.923880
v 0.425215 -1.847759 -0.636380
v 0.216773 -1.961571 -0.324423
v 0.275900 1.961571 -0.275899
v 0.541196 1.847759 -0.541196
v 0.785695 1.662939 -0.785695
v 1.000001 1.414214 -1.000000
v 1.175876 1.111140 -1.175876
v 1.306564 0.765367 -1.306563
v 1.387041 0.390181 -1.387040
v 1.414214 0.000000 -1.414214
v 1.387041 -0.390181 -1.387040
v 1.306564 -0.765367 -1.306563
v 1.175876 -1.111140 -1.175876
v 1.000001 -1.414214 -1.000000
v 0.785695 -1.662939 -0.785695
v 0.541196 -1.847759 -0.541196
v 0.275900 -1.961571 -0.275899
v 0.324423 1.961571 -0.216773
v 0.636380 1.847759 -0.425215
v 0.923880 1.662939 -0.617317
v 1.175876 1.414214 -0.785695
v 1.382684 1.111140 -0.923880
v 1.536356 0.765367 -1.026560
v 1.630987 0.390181 -1.089790
v 1.662940 0.000000 -1.111140
v 1.630987 -0.390181 -1.089790
v 1.536356 -0.765367 -1.026560
v 1.382684 -1.111140 -0.923880
v 1.175876 -1.414214 -0.785695
v 0.923880 -1.662939 -0.617317
v 0.636380 -1.847759 -0.425215
v 0.324423 -1.961571 -0.216773
v 0.000000 2.000000 0.000000
v 0.360480 1.961571 -0.149316
v 0.707107 1.847759 -0.292893
v 1.026560 1.662939 -0.425215
v 1.306564 1.414214 -0.541196
v 1.536356 1.111140 -0.636379
v 1.707108 0.765367 -0.707107
v 1.812256 0.390181 -0.750661
v 1.847760 0.000000 -0.765367
v 1.812256 -0.390181 -0.750661
v 1.707108 -0.765367 -0.707107
v 1.536356 -1.111140 -0.636379
v 1.306564 -1.414214 -0.541196
v 1.026560 -1.662939 -0.425215
v 0.707107 -1.847759 -0.292893
v 0.360480 -1.961571 -0.149316
v 0.382684 1.961571 -0.076120
v 0.750661 1.847759 -0.149316
v 1.089791 1.662939 -0.216773
v 1.387041 1.414214 -0.275899
v 1.630987 1.111140 -0.324423
v 1.812256 0.765367 -0.360480
v 1.923880 0.390181 -0.382683
v 1.961571 0.000000 -0.390180
v 1.923880 -0.390181 -0.382683
v 1.812256 -0.765367 -0.360480
v 1.630987 -1.111140 -0.324423
v 1.387041 -1.414214 -0.275899
v 1.089791 -1.662939 -0.216773
v 0.750661 -1.847759 -0.149316
v 0.382684 -1.961571 -0.076120
v 0.390181 1.961571 0.000000
v 0.765367 1.847759 0.000000
v 1.111141 1.662939 0.000000
v 1.414214 1.414214 -0.000000
v 1.662940 1.111140 0.000000
v 1.847760 0.765367 -0.000000
v 1.961571 0.390181 0.000000
v 2.000000 0.000000 0.000000
v 1.961571 -0.390181 0.000000
v 1.847760 -0.765367 -0.000000
v 1.662940 -1.111140 0.000000
v 1.414214 -1.414214 -0.000000
v 1.111141 -1.662939 0.000000
v 0.765367 -1.847759 0.000000
v 0.390181 -1.961571 0.000000
v 0.382684 1.961571 0.076120
v 0.750661 1.847759 0.149316
v 1.089791 1.662939 0.216773
v 1.387040 1.414214 0.275899
v 1.630987 1.111140 0.324424
v 1.812256 0.765367 0.360480
v 1.923880 0.390181 0.382684
v 1.961571 0.000000 0.390181
v 1.923880 -0.390181 0.382684
v 1.812256 -0.765367 0.360480
v 1.630987 -1.111140 0.324424
v 1.387040 -1.414214 0.275899
v 1.089791 -1.662939 0.216773
v 0.750661 -1.847759 0.149316
v 0.382684 -1.961571 0.076120
v 0.360480 1.961571 0.149316
v 0.707107 1.847759 0.292893
v 1.026560 1.662939 0.425215
v 1.306564 1.414214 0.541196
v 1.536356 1.111140 0.636380
v 1.707108 0.765367 0.707107
v 1.812256 0.390181 0.750661
v 1.847759 0.000000 0.765367
v 1.812256 -0.390181 0.750661
v 1.707108 -0.765367 0.707107
v 1.536356 -1.111140 0.636380
v 1.306564 -1.414214 0.541196
v 1.026560 -1.662939 0.425215
v 0.707107 -1.847759 0.292893
v 0.360480 -1.961571 0.149316
v 0.324423 1.961571 0.216773
v 0.636380 1.847759 0.425215
v 0.923880 1.662939 0.617317
v 1.175876 1.414214 0.785695
v 1.382684 1.111140 0.923880
v 1.536356 0.765367 1.026560
v 1.630987 0.390181 1.089790
v 1.662939 0.000000 1.111141
v 1.630987 -0.390181 1.089790
v 1.536356 -0.765367 1.026560
v 1.382684 -1.111140 0.923880
v 1.175876 -1.414214 0.785695
v 0.923880 -1.662939 0.617317
v 0.636380 -1.847759 0.425215
v 0.324423 -1.961571 0.216773
v 0.275899 1.961571 0.275899
v 0.541196 1.847759 0.541196
v 0.785695 1.662939 0.785695
v 1.000000 1.414214 1.000000
v 1.175876 1.111140 1.175876
v 1.306564 0.765367 1.306563
v 1.387040 0.390181 1.387040
v 1.414213 0.000000 1.414214
v 1.387040 -0.390181 1.387040
v 1.306564 -0.765367 1.306563
v 1.175876 -1.111140 1.175876
v 1.000000 -1.414214 1.000000
v 0.785695 -1.662939 0.785695
v 0.541196 -1.847759 0.541196
v 0.275899 -1.961571 0.275899
v 0.216773 1.961571 0.324423
v 0.425215 1.847759 0.636379
v 0.617317 1.662939 0.923880
v 0.785695 1.414214 1.175876
v 0.923880 1.111140 1.382684
v 1.026560 0.765367 1.536356
v 1.089790 0.390181 1.630987
v 1.111140 0.000000 1.662939
v 1.089790 -0.390181 1.630987
v 1.026560 -0.765367 1.536356
v 0.923880 -1.111140 1.382684
v 0.785695 -1.414214 1.175876
v 0.617317 -1.662939 0.923880
v 0.425215 -1.847759 0.636379
v 0.216773 -1.961571 0.324423
v 0.149316 1.961571 0.360480
v 0.292893 1.847759 0.707107
v 0.425215 1.662939 1.026560
v 0.541196 1.414214 1.306563
v 0.636379 1.111140 1.536356
v 0.707107 0.765367 1.707107
v 0.750661 0.390181 1.812255
v 0.765366 0.000000 1.847759
v 0.750661 -0.390181 1.812255
v 0.707107 -0.765367 1.707107
v 0.636379 -1.111140 1.536356
v 0.541196 -1.414214 1.306563
v 0.425215 -1.662939 1.026560
v 0.292893 -1.847759 0.707107
v 0.149316 -1.961571 0.360480
v 0.076120 1.961571 0.382683
v 0.149316 1.847759 0.750661
v 0.216773 1.662939 1.089790
v 0.275899 1.414214 1.387040
v 0.324423 1.111140 1.630986
v 0.360480 0.765367 1.812255
v 0.382683 0.390181 1.923880
v 0.390180 0.000000 1.961570
v 0.382683 -0.390181 1.923880
v 0.360480 -0.765367 1.812255
v 0.324423 -1.111140 1.630986
v 0.275899 -1.414214 1.387040
v 0.216773 -1.662939 1.089790
v 0.149316 -1.847759 0.750661
v 0.076120 -1.961571 0.382683
v -0.000000 1.961571 0.390181
v -0.000000 1.847759 0.765367
v -0.000000 1.662939 1.111140
v -0.000000 1.414214 1.414214
v -0.000000 1.111140 1.662939
v 0.000000 0.765367 1.847759
v -0.000000 0.390181 1.961571
v -0.000001 0.000000 1.999999
v -0.000000 -0.390181 1.961571
v 0.000000 -0.765367 1.847759
v -0.000000 -1.111140 1.662939
v -0.000000 -1.414214 1.414214
v -0.000000 -1.662939 1.111140
v -0.000000 -1.847759 0.765367
v -0.000000 -1.961571 0.390181
v -0.076120 1.961571 0.382683
v -0.149316 1.847759 0.750661
v -0.216773 1.662939 1.089790
v -0.275900 1.414214 1.387040
v -0.324424 1.111140 1.630986
v -0.360480 0.765367 1.812255
v -0.382684 0.390181 1.923880
v -0.390181 0.000000 1.961570
v -0.382684 -0.390181 1.923880
v -0.360480 -0.765367 1.812255
v -0.324424 -1.111140 1.630986
v -0.275900 -1.414214 1.387040
v -0.216773 -1.662939 1.089790
v -0.149316 -1.847759 0.750661
v -0.076120 -1.961571 0.382683
v -0.149316 1.961571 0.360480
v -0.292893 1.847759 0.707107
v -0.425215 1.662939 1.026560
v -0.541196 1.414214 1.306563
v -0.636380 1.111140 1.536355
v -0.707107 0.765367 1.707107
v -0.750661 0.390181 1.812255
v -0.765367 0.000000 1.847758
v -0.750661 -0.390181 1.812255
v -0.707107 -0.765367 1.707107
v -0.636380 -1.111140 1.536355
v -0.541196 -1.414214 1.306563
v -0.425215 -1.662939 1.026560
v -0.292893 -1.847759 0.707107
v -0.149316 -1.961571 0.360480
v -0.216773 1.961571 0.324423
v -0.425215 1.847759 0.636379
v -0.617317 1.662939 0.923879
v -0.785695 1.414214 1.175876
v -0.923880 1.111140 1.382683
v -1.026560 0.765367 1.536356
v -1.089791 0.390181 1.630986
v -1.111141 0.000000 1.662938
v -1.089791 -0.390181 1.630986
v -1.026560 -0.765367 1.536356
v -0.923880 -1.111140 1.382683
v -0.785695 -1.414214 1.175876
v -0.617317 -1.662939 0.923879
v -0.425215 -1.847759 0.636379
v -0.216773 -1.961571 0.324423
v -0.275899 1.961571 0.275899
v -0.541196 1.847759 0.541196
v -0.785695 1.662939 0.785695
v -1.000000 1.414214 1.000000
v -1.175876 1.111140 1.175875
v -1.306563 0.765367 1.306563
v -1.387040 0.390181 1.387040
v -1.414214 0.000000 1.414212
v -1.387040 -0.390181 1.387040
v -1.306563 -0.765367 1.306563
v -1.175876 -1.111140 1.175875
v -1.000000 -1.414214 1.000000
v -0.785695 -1.662939 0.785695
v -0.541196 -1.847759 0.541196
v -0.275899 -1.961571 0.275899
v 0.000000 -2.000000 0.000000
v -0.324423 1.961571 0.216773
v -0.636379 1.847759 0.425215
v -0.923880 1.662939 0.617316
v -1.175876 1.414214 0.785695
v -1.382684 1.111140 0.923879
v -1.536356 0.765367 1.026560
v -1.630987 0.390181 1.089790
v -1.662939 0.000000 1.111139
v -1.630987 -0.390181 1.089790
v -1.536356 -0.765367 1.026560
v -1.382684 -1.111140 0.923879
v -1.175876 -1.414214 0.785695
v -0.923880 -1.662939 0.617316
v -0.636379 -1.847759 0.425215
v -0.324423 -1.961571 0.216773
v -0.360480 1.961571 0.149316
v -0.707107 1.847759 0.292893
v -1.026560 1.662939 0.425215
v -1.306563 1.414214 0.541196
v -1.536356 1.111140 0.636379
v -1.707107 0.765367 0.707107
v -1.812255 0.390181 0.750660
v -1.847759 0.000000 0.765366
v -1.812255 -0.390181 0.750660
v -1.707107 -0.765367 0.707107
v -1.536356 -1.111140 0.636379
v -1.306563 -1.414214 0.541196
v -1.026560 -1.662939 0.425215
v -0.707107 -1.847759 0.292893
v -0.360480 -1.961571 0.149316
v -0.382683 1.961571 0.076120
v -0.750661 1.847759 0.149316
v -1.089790 1.662939 0.216772
v -1.387040 1.414214 0.275899
v -1.630986 1.111140 0.324423
v -1.812255 0.765367 0.360480
v -1.923880 0.390181 0.382683
v -1.961570 0.000000 0.390180
v -1.923880 -0.390181 0.382683
v -1.812255 -0.765367 0.360480
v -1.630986 -1.111140 0.324423
v -1.387040 -1.414214 0.275899
v -1.089790 -1.662939 0.216772
v -0.750661 -1.847759 0.149316
v -0.382683 -1.961571 0.076120
v -0.390181 1.961571 -0.000000
v -0.765367 1.847759 -0.000000
v -1.111140 1.662939 -0.000000
v -1.414214 1.414214 -0.000000
v -1.662939 1.111140 -0.000000
v -1.847759 0.765367 -0.000000
v -1.961571 0.390181 -0.000001
v -1.999999 0.000000 -0.000001
v -1.961571 -0.390181 -0.000001
v -1.847759 -0.765367 -0.000000
v -1.662939 -1.111140 -0.000000
v -1.414214 -1.414214 -0.000000
v -1.111140 -1.662939 -0.000000
v -0.765367 -1.847759 -0.000000
v -0.390181 -1.961571 -0.000000
v -0.382683 1.961571 -0.076120
v -0.750661 1.847759 -0.149316
v -1.089790 1.662939 -0.216773
v -1.387040 1.414214 -0.275899
v -1.630986 1.111140 -0.324424
v -1.812255 0.765367 -0.360480
v -1.923880 0.390181 -0.382684
v -1.961570 0.000000 -0.390181
v -1.923880 -0.390181 -0.382684
v -1.812255 -0.765367 -0.360480
v -1.630986 -1.111140 -0.324424
v -1.387040 -1.414214 -0.275899
v -1.089790 -1.662939 -0.216773
v -0.750661 -1.847759 -0.149316
v -0.382683 -1.961571 -0.076120
v -0.360480 1.961571 -0.149316
v -0.707107 1.847759 -0.292893
v -1.026559 1.662939 -0.425215
v -1.306563 1.414214 -0.541196
v -1.536355 1.111140 -0.636379
v -1.707107 0.765367 -0.707107
v -1.812255 0.390181 -0.750661
v -1.847758 0.000000 -0.765367
v -1.812255 -0.390181 -0.750661
v -1.707107 -0.765367 -0.707107
v -1.536355 -1.111140 -0.636379
v -1.306563 -1.414214 -0.541196
v -1.026559 -1.662939 -0.425215
v -0.707107 -1.847759 -0.292893
v -0.360480 -1.961571 -0.149316
v -0.324423 1.961571 -0.216773
v -0.636379 1.847759 -0.425215
v -0.923879 1.662939 -0.617317
v -1.175876 1.414214 -0.785695
v -1.382683 1.111140 -0.923880
v -1.536356 0.765367 -1.026560
v -1.630986 0.390181 -1.089790
v -1.662938 0.000000 -1.111140
v -1.630986 -0.390181 -1.089790
v -1.536356 -0.765367 -1.026560
v -1.382683 -1.111140 -0.923880
v -1.175876 -1.414214 -0.785695
v -0.923879 -1.662939 -0.617317
v -0.636379 -1.847759 -0.425215
v -0.324423 -1.961571 -0.216773
v -0.275899 1.961571 -0.275899
v -0.541196 1.847759 -0.541196
v -0.785694 1.662939 -0.785695
v -1.000000 1.414214 -1.000000
v -1.175875 1.111140 -1.175876
v -1.306563 0.765367 -1.306563
v -1.387040 0.390181 -1.387040
v -1.414212 0.000000 -1.414213
v -1.387040 -0.390181 -1.387040
v -1.306563 -0.765367 -1.306563
v -1.175875 -1.111140 -1.175876
v -1.000000 -1.414214 -1.000000
v -0.785694 -1.662939 -0.785695
v -0.541196 -1.847759 -0.541196
v -0.275899 -1.961571 -0.275899
v -0.216773 1.961571 -0.324423
v -0.425215 1.847759 -0.636379
v -0.617316 1.662939 -0.923879
v -0.785695 1.414214 -1.175876
v -0.923879 1.111140 -1.382683
v -1.026560 0.765367 -1.536355
v -1.089790 0.390181 -1.630986
v -1.111139 0.000000 -1.662938
v -1.089790 -0.390181 -1.630986
v -1.026560 -0.765367 -1.536355
v -0.923879 -1.111140 -1.382683
v -0.785695 -1.414214 -1.175876
v -0.617316 -1.662939 -0.923879
v -0.425215 -1.847759 -0.636379
v -0.216773 -1.961571 -0.324423
v -0.149316 1.961571 -0.360480
v -0.292893 1.847759 -0.707107
v -0.425214 1.662939 -1.026559
v -0.541196 1.414214 -1.306563
v -0.636379 1.111140 -1.536355
v -0.707107 0.765367 -1.707107
v -0.750660 0.390181 -1.812255
v -0.765366 0.000000 -1.847758
v -0.750660 -0.390181 -1.812255
v -0.707107 -0.765367 -1.707107
v -0.636379 -1.111140 -1.536355
v -0.541196 -1.414214 -1.306563
v -0.425214 -1.662939 -1.026559
v -0.292893 -1.847759 -0.707107
v -0.149316 -1.961571 -0.360480
v -0.076120 1.961571 -0.382683
v -0.149316 1.847759 -0.750660
v -0.216772 1.662939 -1.089789
v -0.275899 1.414214 -1.387040
v -0.324423 1.111140 -1.630986
v -0.360480 0.765367 -1.812255
v -0.382683 0.390181 -1.923879
v -0.390179 0.000000 -1.961569
v -0.382683 -0.390181 -1.923879
v -0.360480 -0.765367 -1.812255
v -0.324423 -1.111140 -1.630986
v -0.275899 -1.414214 -1.387040
v -0.216772 -1.662939 -1.089789
v -0.149316 -1.847759 -0.750660
v -0.076120 -1.961571 -0.382683
v 0.000000 1.961571 -0.390180
v 0.000000 1.847759 -0.765367
v 0.000000 1.414214 -1.414214
v 0.000000 0.765367 -1.847759
v 0.000000 -0.765367 -1.847759
v 0.000000 -1.414214 -1.414214
v 0.000000 -1.662939 -1.111139
v 0.000000 -1.847759 -0.765367
v 0.000000 -1.961571 -0.390180
vn -0.0000 0.8286 -0.5598
vn -0.0000 0.5528 -0.8333
vn -0.0000 0.1939 -0.9810
vn -0.0000 -0.0000 -1.0000
vn -0.0000 -0.1939 -0.9810
vn -0.0000 -0.5528 -0.8333
vn 0.0392 0.9796 -0.1971
vn 0.0757 0.9217 -0.3804
vn 0.1092 0.8286 -0.5490
vn 0.1385 0.7041 -0.6965
vn 0.1626 0.5528 -0.8173
vn 0.1804 0.3805 -0.9070
vn 0.1914 0.1939 -0.9622
vn 0.1951 -0.0000 -0.9808
vn 0.1914 -0.1939 -0.9622
vn 0.1804 -0.3805 -0.9070
vn 0.1626 -0.5528 -0.8173
vn 0.1385 -0.7041 -0.6965
vn 0.1092 -0.8286 -0.5490
vn 0.0757 -0.9217 -0.3804
vn 0.0392 -0.9796 -0.1971
vn 0.0769 0.9796 -0.1857
vn 0.1484 0.9217 -0.3584
vn 0.2142 0.8286 -0.5172
vn 0.2718 0.7041 -0.6561
vn 0.3189 0.5528 -0.7699
vn 0.3539 0.3805 -0.8544
vn 0.3754 0.1939 -0.9063
vn 0.3827 -0.0000 -0.9239
vn 0.3754 -0.1939 -0.9063
vn 0.3539 -0.3805 -0.8544
vn 0.3189 -0.5528 -0.7699
vn 0.2718 -0.7041 -0.6561
vn 0.2142 -0.8286 -0.5172
vn 0.1484 -0.9217 -0.3584
vn 0.0769 -0.9796 -0.1857
vn 0.1117 0.9796 -0.1671
vn 0.2155 0.9217 -0.3225
vn 0.3110 0.8286 -0.4654
vn 0.3945 0.7041 -0.5905
vn 0.4630 0.5528 -0.6929
vn 0.5138 0.3805 -0.7689
vn 0.5450 0.1939 -0.8157
vn 0.5556 -0.0000 -0.8315
vn 0.5450 -0.1939 -0.8157
vn 0.5138 -0.3805 -0.7689
vn 0.4630 -0.5528 -0.6929
vn 0.3945 -0.7041 -0.5905
vn 0.3110 -0.8286 -0.4654
vn 0.2155 -0.9217 -0.3225
vn 0.1117 -0.9796 -0.1671
vn 0.1421 0.9796 -0.1421
vn 0.2743 0.9217 -0.2743
vn 0.3958 0.8286 -0.3958
vn 0.5021 0.7041 -0.5021
vn 0.5893 0.5528 -0.5893
vn 0.6539 0.3805 -0.6539
vn 0.6937 0.1939 -0.6937
vn 0.7071 -0.0000 -0.7071
vn 0.6937 -0.1939 -0.6937
vn 0.6539 -0.3805 -0.6539
vn 0.5893 -0.5528 -0.5893
vn 0.5021 -0.7041 -0.5021
vn 0.3958 -0.8286 -0.3958
vn 0.2743 -0.9217 -0.2743
vn 0.1421 -0.9796 -0.1421
vn 0.1671 0.9796 -0.1117
vn 0.3225 0.9217 -0.2155
vn 0.4654 0.8286 -0.3110
vn 0.5905 0.7041 -0.3945
vn 0.6929 0.5528 -0.4630
vn 0.7689 0.3805 -0.5138
vn 0.8157 0.1939 -0.5450
vn 0.8315 -0.0000 -0.5556
vn 0.8157 -0.1939 -0.5450
vn 0.7689 -0.3805 -0.5138
vn 0.6929 -0.5528 -0.4630
vn 0.5905 -0.7041 -0.3945
vn 0.4654 -0.8286 -0.3110
vn 0.3225 -0.9217 -0.2155
vn 0.1671 -0.9796 -0.1117
vn -0.0000 1.0000 -0.0000
vn 0.1857 0.9796 -0.0769
vn 0.3584 0.9217 -0.1484
vn 0.5172 0.8286 -0.2142
vn 0.6561 0.7041 -0.2718
vn 0.7699 0.5528 -0.3189
vn 0.8544 0.3805 -0.3539
vn 0.9063 0.1939 -0.3754
vn 0.9239 -0.0000 -0.3827
vn 0.9063 -0.1939 -0.3754
vn 0.8544 -0.3805 -0.3539
vn 0.7699 -0.5528 -0.3189
vn 0.6561 -0.7041 -0.2718
vn 0.5172 -0.8286 -0.2142
vn 0.3584 -0.9217 -0.1484
vn 0.1857 -0.9796 -0.0769
vn 0.1971 0.9796 -0.0392
vn 0.3804 0.9217 -0.0757
vn 0.5490 0.8286 -0.1092
vn 0.6965 0.7041 -0.1385
vn 0.8173 0.5528 -0.1626
vn 0.9070 0.3805 -0.1804
vn 0.9622 0.1939 -0.1914
vn 0.9808 -0.0000 -0.1951
vn 0.9622 -0.1939 -0.1914
vn 0.9070 -0.3805 -0.1804
vn 0.8173 -0.5528 -0.1626
vn 0.6965 -0.7041 -0.1385
vn 0.5490 -0.8286 -0.1092
vn 0.3804 -0.9217 -0.0757
vn 0.1971 -0.9796 -0.0392
vn 0.2010 0.9796 -0.0000
vn 0.3879 0.9217 -0.0000
vn 0.5598 0.8286 -0.0000
vn 0.7101 0.7041 -0.0000
vn 0.8333 0.5528 -0.0000
vn 0.9248 0.3805 -0.0000
vn 0.9810 0.1939 -0.0000
vn 1.0000 -0.0000 -0.0000
vn 0.9810 -0.1939 -0.0000
vn 0.9248 -0.3805 -0.0000
vn 0.8333 -0.5528 -0.0000
vn 0.7101 -0.7041 -0.0000
vn 0.5598 -0.8286 -0.0000
vn 0.3879 -0.9217 -0.0000
vn 0.2010 -0.9796 -0.0000
vn 0.1971 0.9796 0.0392
vn 0.3804 0.9217 0.0757
vn 0.5490 0.8286 0.1092
vn 0.6965 0.7041 0.1385
vn 0.8173 0.5528 0.1626
vn 0.9070 0.3805 0.1804
vn 0.9622 0.1939 0.1914
vn 0.9808 -0.0000 0.1951
vn 0.9622 -0.1939 0.1914
vn 0.9070 -0.3805 0.1804
vn 0.8173 -0.5528 0.1626
vn 0.6965 -0.7041 0.1385
vn 0.5490 -0.8286 0.1092
vn 0.3804 -0.9217 0.0757
vn 0.1971 -0.9796 0.0392
vn 0.1857 0.9796 0.0769
vn 0.3584 0.9217 0.1484
vn 0.5172 0.8286 0.2142
vn 0.6561 0.7041 0.2718
vn 0.7699 0.5528 0.3189
vn 0.8544 0.3805 0.3539
vn 0.9063 0.1939 0.3754
vn 0.9239 -0.0000 0.3827
vn 0.9063 -0.1939 0.3754
vn 0.8544 -0.3805 0.3539
vn 0.7699 -0.5528 0.3189
vn 0.6561 -0.7041 0.2718
vn 0.5172 -0.8286 0.2142
vn 0.3584 -0.9217 0.1484
vn 0.1857 -0.9796 0.0769
vn 0.1671 0.9796 0.1117
vn 0.3225 0.9217 0.2155
vn 0.4654 0.8286 0.3110
vn 0.5905 0.7041 0.3945
vn 0.6929 0.5528 0.4630
vn 0.7689 0.3805 0.5138
vn 0.8157 0.1939 0.5450
vn 0.8315 -0.0000 0.5556
vn 0.8157 -0.1939 0.5450
vn 0.7689 -0.3805 0.5138
vn 0.6929 -0.5528 0.4630
vn 0.5905 -0.7041 0.3945
vn 0.4654 -0.8286 0.3110
vn 0.3225 -0.9217 0.2155
vn 0.1671 -0.9796 0.1117
vn 0.1421 0.9796 0.1421
vn 0.2743 0.9217 0.2743
vn 0.3958 0.8286 0.3958
vn 0.5021 0.7041 0.5021
vn 0.5893 0.5528 0.5893
vn 0.6539 0.3805 0.6539
vn 0.6937 0.1939 0.6937
vn 0.7071 -0.0000 0.7071
vn 0.6937 -0.1939 0.6937
vn 0.6539 -0.3805 0.6539
vn 0.5893 -0.5528 0.5893
vn 0.5021 -0.7041 0.5021
vn 0.3958 -0.8286 0.3958
vn 0.2743 -0.9217 0.2743
vn 0.1421 -0.9796 0.1421
vn 0.1117 0.9796 0.1671
vn 0.2155 0.9217 0.3225
vn 0.3110 0.8286 0.4654
vn 0.3945 0.7041 0.5905
vn 0.4630 0.5528 0.6929
vn 0.5138 0.3805 0.7689
vn 0.5450 0.1939 0.8157
vn 0.5556 -0.0000 0.8315
vn 0.5450 -0.1939 0.8157
vn 0.5138 -0.3805 0.7689
vn 0.4630 -0.5528 0.6929
vn 0.3945 -0.7041 0.5905
vn 0.3110 -0.8286 0.4654
vn 0.2155 -0.9217 0.3225
vn 0.1117 -0.9796 0.1671
vn 0.0769 0.9796 0.1857
vn 0.1484 0.9217 0.3584
vn 0.2142 0.8286 0.5172
vn 0.2718 0.7041 0.6561
vn 0.3189 0.5528 0.7699
vn 0.3539 0.3805 0.8544
vn 0.3754 0.1939 0.9063
vn 0.3827 -0.0000 0.9239
vn 0.3754 -0.1939 0.9063
vn 0.3539 -0.3805 0.8544
vn 0.3189 -0.5528 0.7699
vn 0.2718 -0.7041 0.6561
vn 0.2142 -0.8286 0.5172
vn 0.1484 -0.9217 0.3584
vn 0.0769 -0.9796 0.1857
vn 0.0392 0.9796 0.1971
vn 0.0757 0.9217 0.3804
vn 0.1092 0.8286 0.5490
vn 0.1385 0.7041 0.6965
vn 0.1626 0.5528 0.8173
vn 0.1804 0.3805 0.9070
vn 0.1914 0.1939 0.9622
vn 0.1951 -0.0000 0.9808
vn 0.1914 -0.1939 0.9622
vn 0.1804 -0.3805 0.9070
vn 0.1626 -0.5528 0.8173
vn 0.1385 -0.7041 0.6965
vn 0.1092 -0.8286 0.5490
vn 0.0757 -0.9217 0.3804
vn 0.0392 -0.9796 0.1971
vn -0.0000 0.9796 0.2010
vn -0.0000 0.9217 0.3879
vn -0.0000 0.8286 0.5598
vn -0.0000 0.7041 0.7101
vn -0.0000 0.5528 0.8333
vn -0.0000 0.3805 0.9248
vn -0.0000 0.1939 0.9810
vn -0.0000 -0.0000 1.0000
vn -0.0000 -0.1939 0.9810
vn -0.0000 -0.3805 0.9248
vn -0.0000 -0.5528 0.8333
vn -0.0000 -0.7041 0.7101
vn -0.0000 -0.8286 0.5598
vn -0.0000 -0.9217 0.3879
vn -0.0000 -0.9796 0.2010
vn -0.0392 0.9796 0.1971
vn -0.0757 0.9217 0.3804
vn -0.1092 0.8286 0.5490
vn -0.1385 0.7041 0.6965
vn -0.1626 0.5528 0.8173
vn -0.1804 0.3805 0.9070
vn -0.1914 0.1939 0.9622
vn -0.1951 -0.0000 0.9808
vn -0.1914 -0.1939 0.9622
vn -0.1804 -0.3805 0.9070
vn -0.1626 -0.5528 0.8173
vn -0.1385 -0.7041 0.6965
vn -0.1092 -0.8286 0.5490
vn -0.0757 -0.9217 0.3804
vn -0.0392 -0.9796 0.1971
vn -0.0769 0.9796 0.1857
vn -0.1484 0.9217 0.3584
vn -0.2142 0.8286 0.5172
vn -0.2718 0.7041 0.6561
vn -0.3189 0.5528 0.7699
vn -0.3539 0.3805 0.8544
vn -0.3754 0.1939 0.9063
vn -0.3827 -0.0000 0.9239
vn -0.3754 -0.1939 0.9063
vn -0.3539 -0.3805 0.8544
vn -0.3189 -0.5528 0.7699
vn -0.2718 -0.7041 0.6561
vn -0.2142 -0.8286 0.5172
vn -0.1484 -0.9217 0.3584
vn -0.0769 -0.9796 0.1857
vn -0.1117 0.9796 0.1671
vn -0.2155 0.9217 0.3225
vn -0.3110 0.8286 0.4654
vn -0.3945 0.7041 0.5905
vn -0.4630 0.5528 0.6929
vn -0.5138 0.3805 0.7689
vn -0.5450 0.1939 0.8157
vn -0.5556 -0.0000 0.8315
vn -0.5450 -0.1939 0.8157
vn -0.5138 -0.3805 0.7689
vn -0.4630 -0.5528 0.6929
vn -0.3945 -0.7041 0.5905
vn -0.3110 -0.8286 0.4654
vn -0.2155 -0.9217 0.3225
vn -0.1117 -0.9796 0.1671
vn -0.1421 0.9796 0.1421
vn -0.2743 0.9217 0.2743
vn -0.3958 0.8286 0.3958
vn -0.5021 0.7041 0.5021
vn -0.5893 0.5528 0.5893
vn -0.6539 0.3805 0.6539
vn -0.6937 0.1939 0.6937
vn -0.7071 -0.0000 0.7071
vn -0.6937 -0.1939 0.6937
vn -0.6539 -0.3805 0.6539
vn -0.5893 -0.5528 0.5893
vn -0.5021 -0.7041 0.5021
vn -0.3958 -0.8286 0.3958
vn -0.2743 -0.9217 0.2743
vn -0.1421 -0.9796 0.1421
vn -0.0000 -1.0000 -0.0000
vn -0.1671 0.9796 0.1117
vn -0.3225 0.9217 0.2155
vn -0.4654 0.8286 0.3110
vn -0.5905 0.7041 0.3945
vn -0.6929 0.5528 0.4630
vn -0.7689 0.3805 0.5138
vn -0.8157 0.1939 0.5450
vn -0.8315 -0.0000 0.5556
vn -0.8157 -0.1939 0.5450
vn -0.7689 -0.3805 0.5138
vn -0.6929 -0.5528 0.4630
vn -0.5905 -0.7041 0.3945
vn -0.4654 -0.8286 0.3110
vn -0.3225 -0.9217 0.2155
vn -0.1671 -0.9796 0.1117
vn -0.1857 0.9796 0.0769
vn -0.3584 0.9217 0.1484
vn -0.5172 0.8286 0.2142
vn -0.6561 0.7041 0.2718
vn -0.7699 0.5528 0.3189
vn -0.8544 0.3805 0.3539
vn -0.9063 0.1939 0.3754
vn -0.9239 -0.0000 0.3827
vn -0.9063 -0.1939 0.3754
vn -0.8544 -0.3805 0.3539
vn -0.7699 -0.5528 0.3189
vn -0.6561 -0.7041 0.2718
vn -0.5172 -0.8286 0.2142
vn -0.3584 -0.9217 0.1484
vn -0.1857 -0.9796 0.0769
vn -0.1971 0.9796 0.0392
vn -0.3804 0.9217 0.0757
vn -0.5490 0.8286 0.1092
vn -0.6965 0.7041 0.1385
vn -0.8173 0.5528 0.1626
vn -0.9070 0.3805 0.1804
vn -0.9622 0.1939 0.1914
vn -0.9808 -0.0000 0.1951
vn -0.9622 -0.1939 0.1914
vn -0.9070 -0.3805 0.1804
vn -0.8173 -0.5528 0.1626
vn -0.6965 -0.7041 0.1385
vn -0.5490 -0.8286 0.1092
vn -0.3804 -0.9217 0.0757
vn -0.1971 -0.9796 0.0392
vn -0.2010 0.9796 -0.0000
vn -0.3879 0.9217 -0.0000
vn -0.5598 0.8286 -0.0000
vn -0.7101 0.7041 -0.0000
vn -0.8333 0.5528 -0.0000
vn -0.9248 0.3805 -0.0000
vn -0.9810 0.1939 -0.0000
vn -1.0000 -0.0000 -0.0000
vn -0.9810 -0.1939 -0.0000
vn -0.9248 -0.3805 -0.0000
vn -0.8333 -0.5528 -0.0000
vn -0.7101 -0.7041 -0.0000
vn -0.5598 -0.8286 -0.0000
vn -0.3879 -0.9217 -0.0000
vn -0.2010 -0.9796 -0.0000
vn -0.1971 0.9796 -0.0392
vn -0.3804 0.9217 -0.0757
vn -0.5490 0.8286 -0.1092
vn -0.6965 0.7041 -0.1385
vn -0.8173 0.5528 -0.1626
vn -0.9070 0.3805 -0.1804
vn -0.9622 0.1939 -0.1914
vn -0.9808 -0.0000 -0.1951
vn -0.9622 -0.1939 -0.1914
vn -0.9070 -0.3805 -0.1804
vn -0.8173 -0.5528 -0.1626
vn -0.6965 -0.7041 -0.1385
vn -0.5490 -0.8286 -0.1092
vn -0.3804 -0.9217 -0.0757
vn -0.1971 -0.9796 -0.0392
vn -0.1857 0.9796 -0.0769
vn -0.3584 0.9217 -0.1484
vn -0.5172 0.8286 -0.2142
vn -0.6561 0.7041 -0.2718
vn -0.7699 0.5528 -0.3189
vn -0.8544 0.3805 -0.3539
vn -0.9063 0.1939 -0.3754
vn -0.9239 -0.0000 -0.3827
vn -0.9063 -0.1939 -0.3754
vn -0.8544 -0.3805 -0.3539
vn -0.7699 -0.5528 -0.3189
vn -0.6561 -0.7041 -0.2718
vn -0.5172 -0.8286 -0.2142
vn -0.3584 -0.9217 -0.1484
vn -0.1857 -0.9796 -0.0769
vn -0.1671 0.9796 -0.1117
vn -0.3225 0.9217 -0.2155
vn -0.4654 0.8286 -0.3110
vn -0.5905 0.7041 -0.3945
vn -0.6929 0.5528 -0.4630
vn -0.7689 0.3805 -0.5138
vn -0.8157 0.1939 -0.5450
vn -0.8315 -0.0000 -0.5556
vn -0.8157 -0.1939 -0.5450
vn -0.7689 -0.3805 -0.5138
vn -0.6929 -0.5528 -0.4630
vn -0.5905 -0.7041 -0.3945
vn -0.4654 -0.8286 -0.3110
vn -0.3225 -0.9217 -0.2155
vn -0.1671 -0.9796 -0.1117
vn -0.1421 0.9796 -0.1421
vn -0.2743 0.9217 -0.2743
vn -0.3958 0.8286 -0.3958
vn -0.5021 0.7041 -0.5021
vn -0.5893 0.5528 -0.5893
vn -0.6539 0.3805 -0.6539
vn -0.6937 0.1939 -0.6937
vn -0.7071 -0.0000 -0.7071
vn -0.6937 -0.1939 -0.6937
vn -0.6539 -0.3805 -0.6539
vn -0.5893 -0.5528 -0.5893
vn -0.5021 -0.7041 -0.5021
vn -0.3958 -0.8286 -0.3958
vn -0.2743 -0.9217 -0.2743
vn -0.1421 -0.9796 -0.1421
vn -0.1117 0.9796 -0.1671
vn -0.2155 0.9217 -0.3225
vn -0.3110 0.8286 -0.4654
vn -0.3945 0.7041 -0.5905
vn -0.4630 0.5528 -0.6929
vn -0.5138 0.3805 -0.7689
vn -0.5450 0.1939 -0.8157
vn -0.5556 -0.0000 -0.8315
vn -0.5450 -0.1939 -0.8157
vn -0.5138 -0.3805 -0.7689
vn -0.4630 -0.5528 -0.6929
vn -0.3945 -0.7041 -0.5905
vn -0.3110 -0.8286 -0.4654
vn -0.2155 -0.9217 -0.3225
vn -0.1117 -0.9796 -0.1671
vn -0.0769 0.9796 -0.1857
vn -0.1484 0.9217 -0.3584
vn -0.2142 0.8286 -0.5172
vn -0.2718 0.7041 -0.6561
vn -0.3189 0.5528 -0.7699
vn -0.3539 0.3805 -0.8544
vn -0.3754 0.1939 -0.9063
vn -0.3827 -0.0000 -0.9239
vn -0.3754 -0.1939 -0.9063
vn -0.3539 -0.3805 -0.8544
vn -0.3189 -0.5528 -0.7699
vn -0.2718 -0.7041 -0.6561
vn -0.2142 -0.8286 -0.5172
vn -0.1484 -0.9217 -0.3584
vn -0.0769 -0.9796 -0.1857
vn -0.0392 0.9796 -0.1971
vn -0.0757 0.9217 -0.3804
vn -0.1092 0.8286 -0.5490
vn -0.1385 0.7041 -0.6965
vn -0.1626 0.5528 -0.8173
vn -0.1804 0.3805 -0.9070
vn -0.1914 0.1939 -0.9622
vn -0.1951 -0.0000 -0.9808
vn -0.1914 -0.1939 -0.9622
vn -0.1804 -0.3805 -0.9070
vn -0.1626 -0.5528 -0.8173
vn -0.1385 -0.7041 -0.6965
vn -0.1092 -0.8286 -0.5490
vn -0.0757 -0.9217 -0.3804
vn -0.0392 -0.9796 -0.1971
vn -0.0000 0.9796 -0.2010
vn -0.0000 0.9217 -0.3879
vn -0.0000 0.7041 -0.7101
vn -0.0000 0.3805 -0.9248
vn -0.0000 -0.3805 -0.9248
vn -0.0000 -0.7041 -0.7101
vn -0.0000 -0.8286 -0.5598
vn -0.0000 -0.9217 -0.3879
vn -0.0000 -0.9796 -0.2010
vt 0.190594 0.252475
vt 0.128713 0.283416
vt 0.128713 0.252475
vt 0.561881 0.252475
vt 0.623762 0.283416
vt 0.561881 0.283416
vt 0.066832 0.283416
vt 0.066832 0.252475
vt 0.500000 0.283416
vt 0.500000 0.252475
vt 0.933168 0.252475
vt 0.995050 0.267946
vt 0.933168 0.283416
vt 0.004951 0.267946
vt 0.438119 0.252475
vt 0.438119 0.283416
vt 0.871287 0.252475
vt 0.871287 0.283416
vt 0.376238 0.283416
vt 0.376238 0.252475
vt 0.809406 0.252475
vt 0.809406 0.283416
vt 0.314356 0.283416
vt 0.314357 0.252475
vt 0.747525 0.252475
vt 0.747525 0.283416
vt 0.252475 0.283416
vt 0.252475 0.252475
vt 0.685643 0.283416
vt 0.685644 0.252475
vt 0.190594 0.283416
vt 0.623762 0.252475
vt 0.685643 0.314356
vt 0.252475 0.314356
vt 0.190594 0.314356
vt 0.623762 0.314356
vt 0.128713 0.314356
vt 0.561881 0.314356
vt 0.066832 0.314356
vt 0.500000 0.314356
vt 0.995050 0.298886
vt 0.933168 0.314356
vt 0.004951 0.298886
vt 0.438119 0.314356
vt 0.871287 0.314356
vt 0.376238 0.314356
vt 0.809406 0.314356
vt 0.314356 0.314356
vt 0.747525 0.314356
vt 0.438119 0.345297
vt 0.933168 0.345297
vt 0.871287 0.345297
vt 0.376238 0.345297
vt 0.809406 0.345297
vt 0.314356 0.345297
vt 0.747525 0.345297
vt 0.252475 0.345297
vt 0.685644 0.345297
vt 0.190594 0.345297
vt 0.623762 0.345297
vt 0.128713 0.345297
vt 0.561881 0.345297
vt 0.066832 0.345297
vt 0.500000 0.345297
vt 0.995050 0.329827
vt 0.004951 0.329827
vt 0.252475 0.376238
vt 0.190594 0.376238
vt 0.623762 0.376238
vt 0.128713 0.376238
vt 0.561881 0.376238
vt 0.066832 0.376238
vt 0.500000 0.376238
vt 0.995050 0.360767
vt 0.933168 0.376238
vt 0.004951 0.360767
vt 0.438119 0.376238
vt 0.871287 0.376238
vt 0.376238 0.376238
vt 0.809406 0.376238
vt 0.314356 0.376238
vt 0.747525 0.376238
vt 0.685644 0.376238
vt 0.376238 0.407178
vt 0.871287 0.407178
vt 0.809406 0.407178
vt 0.314356 0.407178
vt 0.747525 0.407178
vt 0.252475 0.407178
vt 0.685644 0.407178
vt 0.190594 0.407178
vt 0.623762 0.407178
vt 0.128713 0.407178
vt 0.561881 0.407178
vt 0.066832 0.407178
vt 0.500000 0.407178
vt 0.995050 0.391708
vt 0.933168 0.407178
vt 0.004951 0.391708
vt 0.438119 0.407178
vt 0.128713 0.438119
vt 0.623762 0.438119
vt 0.561881 0.438119
vt 0.066832 0.438119
vt 0.500000 0.438119
vt 0.995050 0.422648
vt 0.933168 0.438119
vt 0.004951 0.422649
vt 0.438119 0.438119
vt 0.871287 0.438119
vt 0.376238 0.438119
vt 0.809406 0.438119
vt 0.314356 0.438119
vt 0.747525 0.438119
vt 0.252475 0.438119
vt 0.685644 0.438119
vt 0.190594 0.438119
vt 0.871287 0.469059
vt 0.809406 0.469059
vt 0.376238 0.469059
vt 0.314356 0.469059
vt 0.747525 0.469059
vt 0.252475 0.469059
vt 0.685644 0.469059
vt 0.190594 0.469059
vt 0.623762 0.469059
vt 0.128713 0.469059
vt 0.561881 0.469059
vt 0.066832 0.469059
vt 0.500000 0.469059
vt 0.995050 0.453589
vt 0.933168 0.469059
vt 0.004951 0.453589
vt 0.438119 0.469059
vt 0.623762 0.500000
vt 0.561881 0.500000
vt 0.066832 0.500000
vt 0.500000 0.500000
vt 0.995050 0.484530
vt 0.933168 0.500000
vt 0.004951 0.484530
vt 0.438119 0.500000
vt 0.871287 0.500000
vt 0.376238 0.500000
vt 0.809406 0.500000
vt 0.314356 0.500000
vt 0.747525 0.500000
vt 0.252475 0.500000
vt 0.685644 0.500000
vt 0.190594 0.500000
vt 0.128713 0.500000
vt 0.376238 0.530941
vt 0.314356 0.530941
vt 0.747525 0.530941
vt 0.252475 0.530941
vt 0.685644 0.530941
vt 0.190594 0.530941
vt 0.623762 0.530941
vt 0.128713 0.530941
vt 0.561881 0.530941
vt 0.066832 0.530941
vt 0.500000 0.530941
vt 0.995050 0.515470
vt 0.933168 0.530941
vt 0.004951 0.515470
vt 0.438119 0.530941
vt 0.871287 0.530941
vt 0.809406 0.530941
vt 0.128713 0.561881
vt 0.066832 0.561881
vt 0.561881 0.561881
vt 0.500000 0.561881
vt 0.995050 0.546411
vt 0.933168 0.561881
vt 0.004951 0.546411
vt 0.438119 0.561881
vt 0.871287 0.561881
vt 0.376238 0.561881
vt 0.809406 0.561881
vt 0.314356 0.561881
vt 0.747525 0.561881
vt 0.252475 0.561881
vt 0.685644 0.561881
vt 0.190594 0.561881
vt 0.623762 0.561881
vt 0.747525 0.592822
vt 0.252475 0.592822
vt 0.685644 0.592822
vt 0.190594 0.592822
vt 0.623762 0.592822
vt 0.128713 0.592822
vt 0.561881 0.592822
vt 0.066832 0.592822
vt 0.500000 0.592822
vt 0.995050 0.577351
vt 0.933168 0.592822
vt 0.004951 0.577352
vt 0.438119 0.592822
vt 0.871287 0.592822
vt 0.376238 0.592822
vt 0.809406 0.592822
vt 0.314356 0.592822
vt 0.561881 0.623762
vt 0.500000 0.623762
vt 0.995050 0.608292
vt 0.933168 0.623762
vt 0.004951 0.608292
vt 0.066832 0.623762
vt 0.438119 0.623762
vt 0.871287 0.623762
vt 0.376238 0.623762
vt 0.809406 0.623762
vt 0.314356 0.623762
vt 0.747525 0.623762
vt 0.252475 0.623762
vt 0.685644 0.623762
vt 0.190594 0.623762
vt 0.623762 0.623762
vt 0.128713 0.623762
vt 0.252475 0.654703
vt 0.747525 0.654703
vt 0.685644 0.654703
vt 0.190594 0.654703
vt 0.623762 0.654703
vt 0.128713 0.654703
vt 0.561881 0.654703
vt 0.066832 0.654703
vt 0.500000 0.654703
vt 0.995050 0.639233
vt 0.933168 0.654703
vt 0.004951 0.639233
vt 0.438119 0.654703
vt 0.871287 0.654703
vt 0.376238 0.654703
vt 0.809406 0.654703
vt 0.314356 0.654703
vt 0.004951 0.670173
vt 0.066832 0.685644
vt 0.438119 0.685644
vt 0.871287 0.685643
vt 0.376238 0.685644
vt 0.809406 0.685643
vt 0.314356 0.685644
vt 0.747525 0.685643
vt 0.252475 0.685644
vt 0.685644 0.685644
vt 0.190594 0.685644
vt 0.623762 0.685644
vt 0.128713 0.685643
vt 0.561881 0.685644
vt 0.500000 0.685644
vt 0.995050 0.670173
vt 0.933168 0.685643
vt 0.252475 0.716584
vt 0.190594 0.716584
vt 0.623762 0.716584
vt 0.128713 0.716584
vt 0.561881 0.716584
vt 0.066832 0.716584
vt 0.500000 0.716584
vt 0.995050 0.701114
vt 0.933168 0.716584
vt 0.004951 0.701114
vt 0.438119 0.716584
vt 0.871287 0.716584
vt 0.376238 0.716584
vt 0.809406 0.716584
vt 0.314356 0.716584
vt 0.747525 0.716584
vt 0.685644 0.716584
vt 0.933168 0.747525
vt 0.871287 0.747525
vt 0.376238 0.747525
vt 0.809406 0.747525
vt 0.314356 0.747525
vt 0.747525 0.747525
vt 0.252475 0.747525
vt 0.685644 0.747525
vt 0.190594 0.747525
vt 0.623762 0.747525
vt 0.128713 0.747525
vt 0.561881 0.747525
vt 0.066832 0.747525
vt 0.500000 0.747525
vt 0.995050 0.732054
vt 0.004951 0.732054
vt 0.438119 0.747525
vt 0.623762 0.778465
vt 0.128713 0.778465
vt 0.561881 0.778465
vt 0.066832 0.778465
vt 0.500000 0.778465
vt 0.995050 0.762995
vt 0.933168 0.778465
vt 0.004951 0.762995
vt 0.438119 0.778465
vt 0.871287 0.778465
vt 0.376238 0.778465
vt 0.809406 0.778465
vt 0.314356 0.778465
vt 0.747525 0.778465
vt 0.252475 0.778465
vt 0.685644 0.778465
vt 0.190594 0.778465
vt 0.376238 0.809406
vt 0.871287 0.809406
vt 0.809406 0.809406
vt 0.314356 0.809406
vt 0.747525 0.809406
vt 0.252475 0.809406
vt 0.685644 0.809406
vt 0.190594 0.809406
vt 0.623762 0.809406
vt 0.128713 0.809406
vt 0.561881 0.809406
vt 0.066832 0.809406
vt 0.500000 0.809406
vt 0.995050 0.793936
vt 0.933168 0.809406
vt 0.004951 0.793936
vt 0.438119 0.809406
vt 0.128713 0.840347
vt 0.623762 0.840347
vt 0.561881 0.840347
vt 0.066832 0.840346
vt 0.500000 0.840347
vt 0.995050 0.824876
vt 0.933168 0.840347
vt 0.004951 0.824876
vt 0.438119 0.840347
vt 0.871287 0.840347
vt 0.376238 0.840347
vt 0.809406 0.840346
vt 0.314356 0.840347
vt 0.747525 0.840347
vt 0.252475 0.840347
vt 0.685644 0.840347
vt 0.190594 0.840347
vt 0.871287 0.871287
vt 0.809406 0.871287
vt 0.376238 0.871287
vt 0.314356 0.871287
vt 0.747525 0.871287
vt 0.252475 0.871287
vt 0.685644 0.871287
vt 0.190594 0.871287
vt 0.623762 0.871287
vt 0.128713 0.871287
vt 0.561881 0.871287
vt 0.066832 0.871287
vt 0.500000 0.871287
vt 0.995050 0.855817
vt 0.933168 0.871287
vt 0.004951 0.855817
vt 0.438119 0.871287
vt 0.623762 0.902228
vt 0.561881 0.902228
vt 0.066832 0.902228
vt 0.500000 0.902228
vt 0.995050 0.886757
vt 0.933168 0.902228
vt 0.004951 0.886757
vt 0.438119 0.902228
vt 0.871287 0.902228
vt 0.376238 0.902228
vt 0.809406 0.902228
vt 0.314356 0.902228
vt 0.747525 0.902228
vt 0.252475 0.902228
vt 0.685644 0.902228
vt 0.190594 0.902228
vt 0.128713 0.902228
vt 0.376238 0.933168
vt 0.314356 0.933168
vt 0.747525 0.933168
vt 0.252475 0.933168
vt 0.685644 0.933168
vt 0.190594 0.933168
vt 0.623762 0.933168
vt 0.128713 0.933168
vt 0.561881 0.933168
vt 0.066832 0.933168
vt 0.500000 0.933168
vt 0.995050 0.917698
vt 0.933168 0.933168
vt 0.004951 0.917698
vt 0.438119 0.933168
vt 0.871287 0.933168
vt 0.809406 0.933168
vt 0.066832 0.964109
vt 0.561881 0.964109
vt 0.500000 0.964109
vt 0.995050 0.948639
vt 0.933168 0.964109
vt 0.004951 0.948639
vt 0.438119 0.964109
vt 0.871287 0.964109
vt 0.376238 0.964109
vt 0.809406 0.964109
vt 0.314356 0.964109
vt 0.747525 0.964109
vt 0.252475 0.964109
vt 0.685644 0.964109
vt 0.190594 0.964109
vt 0.623762 0.964109
vt 0.128713 0.964109
vt 0.252475 0.995049
vt 0.747525 0.995049
vt 0.685644 0.995049
vt 0.190594 0.995050
vt 0.623762 0.995049
vt 0.128713 0.995050
vt 0.561881 0.995050
vt 0.066832 0.995050
vt 0.500000 0.995049
vt 0.995050 0.979579
vt 0.933168 0.995049
vt 0.004951 0.979579
vt 0.438119 0.995050
vt 0.871287 0.995049
vt 0.376238 0.995049
vt 0.809406 0.995049
vt 0.314356 0.995049
vt 0.933168 0.004950
vt 0.995049 0.020421
vt 0.933168 0.035891
vt 0.004951 0.020421
vt 0.066832 0.004951
vt 0.066832 0.035891
vt 0.500000 0.004950
vt 0.438119 0.035891
vt 0.438119 0.004950
vt 0.871287 0.035891
vt 0.871287 0.004950
vt 0.376238 0.035891
vt 0.376238 0.004951
vt 0.809406 0.004950
vt 0.809406 0.035891
vt 0.314356 0.004951
vt 0.314356 0.035891
vt 0.747525 0.035891
vt 0.747525 0.004950
vt 0.252475 0.035891
vt 0.252475 0.004951
vt 0.685644 0.004950
vt 0.685644 0.035891
vt 0.190594 0.004951
vt 0.190594 0.035891
vt 0.623762 0.035891
vt 0.623762 0.004950
vt 0.128713 0.035891
vt 0.128713 0.004951
vt 0.561881 0.004950
vt 0.561881 0.035891
vt 0.500000 0.035891
vt 0.747525 0.066832
vt 0.685644 0.066832
vt 0.252475 0.066832
vt 0.190594 0.066832
vt 0.623762 0.066832
vt 0.128713 0.066832
vt 0.561881 0.066832
vt 0.066832 0.066832
vt 0.500000 0.066832
vt 0.995049 0.051361
vt 0.933168 0.066832
vt 0.004951 0.051361
vt 0.438119 0.066832
vt 0.871287 0.066832
vt 0.376238 0.066832
vt 0.809406 0.066832
vt 0.314356 0.066832
vt 0.438119 0.097772
vt 0.871287 0.097772
vt 0.376238 0.097772
vt 0.809406 0.097772
vt 0.314356 0.097772
vt 0.747525 0.097772
vt 0.252475 0.097772
vt 0.685644 0.097772
vt 0.190594 0.097772
vt 0.623762 0.097772
vt 0.128713 0.097772
vt 0.561881 0.097772
vt 0.066832 0.097772
vt 0.500000 0.097772
vt 0.995049 0.082302
vt 0.933168 0.097772
vt 0.004951 0.082302
vt 0.252475 0.128713
vt 0.190594 0.128713
vt 0.623762 0.128713
vt 0.128713 0.128713
vt 0.561881 0.128713
vt 0.066832 0.128713
vt 0.500000 0.128713
vt 0.995050 0.113243
vt 0.933168 0.128713
vt 0.004951 0.113243
vt 0.438119 0.128713
vt 0.871287 0.128713
vt 0.376238 0.128713
vt 0.809406 0.128713
vt 0.314356 0.128713
vt 0.747525 0.128713
vt 0.685644 0.128713
vt 0.871287 0.159653
vt 0.376238 0.159653
vt 0.809406 0.159653
vt 0.314356 0.159654
vt 0.747525 0.159653
vt 0.252475 0.159653
vt 0.685644 0.159654
vt 0.190594 0.159654
vt 0.623762 0.159653
vt 0.128713 0.159653
vt 0.561881 0.159654
vt 0.066832 0.159653
vt 0.500000 0.159654
vt 0.995050 0.144183
vt 0.933168 0.159653
vt 0.004951 0.144183
vt 0.438119 0.159654
vt 0.623762 0.190594
vt 0.128713 0.190594
vt 0.561881 0.190594
vt 0.066832 0.190594
vt 0.500000 0.190594
vt 0.995050 0.175124
vt 0.933168 0.190594
vt 0.004951 0.175124
vt 0.438119 0.190594
vt 0.871287 0.190594
vt 0.376238 0.190594
vt 0.809406 0.190594
vt 0.314356 0.190594
vt 0.747525 0.190594
vt 0.252475 0.190594
vt 0.685644 0.190594
vt 0.190594 0.190594
vt 0.376238 0.221535
vt 0.871287 0.221535
vt 0.809406 0.221535
vt 0.314356 0.221535
vt 0.747525 0.221535
vt 0.252475 0.221535
vt 0.685644 0.221535
vt 0.190594 0.221535
vt 0.623762 0.221535
vt 0.128713 0.221535
vt 0.561881 0.221535
vt 0.066832 0.221535
vt 0.500000 0.221535
vt 0.995050 0.206064
vt 0.933168 0.221535
vt 0.004951 0.206064
vt 0.438119 0.221535
vt 0.995050 0.237005
vt 0.004951 0.237005
s 1
usemtl マテリアル
f 480/1/480 20/2/20 481/3/481
f 3/4/3 12/5/12 13/6/13
f 481/3/481 21/7/21 482/8/482
f 3/4/3 14/9/14 4/10/4
f 474/11/474 82/12/82 7/13/7
f 308/14/308 482/8/482 21/7/21
f 5/15/5 14/9/14 15/16/15
f 475/17/475 7/13/7 8/18/8
f 5/15/5 16/19/16 478/20/478
f 1/21/1 8/18/8 9/22/9
f 478/20/478 17/23/17 6/24/6
f 476/25/476 9/22/9 10/26/10
f 6/24/6 18/27/18 479/28/479
f 476/25/476 11/29/11 2/30/2
f 479/28/479 19/31/19 480/1/480
f 477/32/477 11/29/11 12/5/12
f 10/26/10 26/33/26 11/29/11
f 19/31/19 33/34/33 34/35/34
f 11/29/11 27/36/27 12/5/12
f 20/2/20 34/35/34 35/37/35
f 13/6/13 27/36/27 28/38/28
f 21/7/21 35/37/35 36/39/36
f 13/6/13 29/40/29 14/9/14
f 7/13/7 82/41/82 22/42/22
f 308/43/308 21/7/21 36/39/36
f 15/16/15 29/40/29 30/44/30
f 7/13/7 23/45/23 8/18/8
f 15/16/15 31/46/31 16/19/16
f 8/18/8 24/47/24 9/22/9
f 17/23/17 31/46/31 32/48/32
f 9/22/9 25/49/25 10/26/10
f 18/27/18 32/48/32 33/34/33
f 29/40/29 45/50/45 30/44/30
f 23/45/23 37/51/37 38/52/38
f 30/44/30 46/53/46 31/46/31
f 24/47/24 38/52/38 39/54/39
f 32/48/32 46/53/46 47/55/47
f 25/49/25 39/54/39 40/56/40
f 32/48/32 48/57/48 33/34/33
f 26/33/26 40/56/40 41/58/41
f 33/34/33 49/59/49 34/35/34
f 26/33/26 42/60/42 27/36/27
f 34/35/34 50/61/50 35/37/35
f 28/38/28 42/60/42 43/62/43
f 35/37/35 51/63/51 36/39/36
f 29/40/29 43/62/43 44/64/44
f 22/42/22 82/65/82 37/51/37
f 308/66/308 36/39/36 51/63/51
f 49/59/49 63/67/63 64/68/64
f 41/58/41 57/69/57 42/60/42
f 50/61/50 64/68/64 65/70/65
f 43/62/43 57/69/57 58/71/58
f 51/63/51 65/70/65 66/72/66
f 44/64/44 58/71/58 59/73/59
f 37/51/37 82/74/82 52/75/52
f 308/76/308 51/63/51 66/72/66
f 44/64/44 60/77/60 45/50/45
f 37/51/37 53/78/53 38/52/38
f 45/50/45 61/79/61 46/53/46
f 38/52/38 54/80/54 39/54/39
f 47/55/47 61/79/61 62/81/62
f 39/54/39 55/82/55 40/56/40
f 47/55/47 63/67/63 48/57/48
f 41/58/41 55/82/55 56/83/56
f 60/77/60 76/84/76 61/79/61
f 54/80/54 68/85/68 69/86/69
f 62/81/62 76/84/76 77/87/77
f 54/80/54 70/88/70 55/82/55
f 62/81/62 78/89/78 63/67/63
f 56/83/56 70/88/70 71/90/71
f 64/68/64 78/89/78 79/91/79
f 56/83/56 72/92/72 57/69/57
f 64/68/64 80/93/80 65/70/65
f 58/71/58 72/92/72 73/94/73
f 65/70/65 81/95/81 66/72/66
f 59/73/59 73/94/73 74/96/74
f 52/75/52 82/97/82 67/98/67
f 308/99/308 66/72/66 81/95/81
f 59/73/59 75/100/75 60/77/60
f 53/78/53 67/98/67 68/85/68
f 79/91/79 96/101/96 80/93/80
f 73/94/73 88/102/88 89/103/89
f 81/95/81 96/101/96 97/104/97
f 74/96/74 89/103/89 90/105/90
f 67/98/67 82/106/82 83/107/83
f 308/108/308 81/95/81 97/104/97
f 74/96/74 91/109/91 75/100/75
f 67/98/67 84/110/84 68/85/68
f 75/100/75 92/111/92 76/84/76
f 69/86/69 84/110/84 85/112/85
f 77/87/77 92/111/92 93/113/93
f 69/86/69 86/114/86 70/88/70
f 77/87/77 94/115/94 78/89/78
f 71/90/71 86/114/86 87/116/87
f 79/91/79 94/115/94 95/117/95
f 71/90/71 88/102/88 72/92/72
f 85/112/85 99/118/99 100/119/100
f 93/113/93 107/120/107 108/121/108
f 85/112/85 101/122/101 86/114/86
f 93/113/93 109/123/109 94/115/94
f 87/116/87 101/122/101 102/124/102
f 95/117/95 109/123/109 110/125/110
f 87/116/87 103/126/103 88/102/88
f 95/117/95 111/127/111 96/101/96
f 89/103/89 103/126/103 104/128/104
f 96/101/96 112/129/112 97/104/97
f 90/105/90 104/128/104 105/130/105
f 83/107/83 82/131/82 98/132/98
f 308/133/308 97/104/97 112/129/112
f 90/105/90 106/134/106 91/109/91
f 84/110/84 98/132/98 99/118/99
f 91/109/91 107/120/107 92/111/92
f 104/128/104 118/135/118 119/136/119
f 111/127/111 127/137/127 112/129/112
f 105/130/105 119/136/119 120/138/120
f 98/132/98 82/139/82 113/140/113
f 308/141/308 112/129/112 127/137/127
f 105/130/105 121/142/121 106/134/106
f 98/132/98 114/143/114 99/118/99
f 106/134/106 122/144/122 107/120/107
f 100/119/100 114/143/114 115/145/115
f 108/121/108 122/144/122 123/146/123
f 100/119/100 116/147/116 101/122/101
f 108/121/108 124/148/124 109/123/109
f 102/124/102 116/147/116 117/149/117
f 110/125/110 124/148/124 125/150/125
f 102/124/102 118/135/118 103/126/103
f 110/125/110 126/151/126 111/127/111
f 123/146/123 137/152/137 138/153/138
f 115/145/115 131/154/131 116/147/116
f 123/146/123 139/155/139 124/148/124
f 117/149/117 131/154/131 132/156/132
f 125/150/125 139/155/139 140/157/140
f 117/149/117 133/158/133 118/135/118
f 126/151/126 140/157/140 141/159/141
f 119/136/119 133/158/133 134/160/134
f 126/151/126 142/161/142 127/137/127
f 120/138/120 134/160/134 135/162/135
f 113/140/113 82/163/82 128/164/128
f 308/165/308 127/137/127 142/161/142
f 120/138/120 136/166/136 121/142/121
f 113/140/113 129/167/129 114/143/114
f 121/142/121 137/152/137 122/144/122
f 114/143/114 130/168/130 115/145/115
f 142/161/142 156/169/156 157/170/157
f 135/162/135 149/171/149 150/172/150
f 128/164/128 82/173/82 143/174/143
f 308/175/308 142/161/142 157/170/157
f 135/162/135 151/176/151 136/166/136
f 128/164/128 144/177/144 129/167/129
f 136/166/136 152/178/152 137/152/137
f 129/167/129 145/179/145 130/168/130
f 138/153/138 152/178/152 153/180/153
f 130/168/130 146/181/146 131/154/131
f 138/153/138 154/182/154 139/155/139
f 132/156/132 146/181/146 147/183/147
f 140/157/140 154/182/154 155/184/155
f 132/156/132 148/185/148 133/158/133
f 141/159/141 155/184/155 156/169/156
f 134/160/134 148/185/148 149/171/149
f 145/179/145 161/186/161 146/181/146
f 153/180/153 169/187/169 154/182/154
f 147/183/147 161/186/161 162/188/162
f 155/184/155 169/187/169 170/189/170
f 147/183/147 163/190/163 148/185/148
f 156/169/156 170/189/170 171/191/171
f 149/171/149 163/190/163 164/192/164
f 157/170/157 171/191/171 172/193/172
f 150/172/150 164/192/164 165/194/165
f 143/174/143 82/195/82 158/196/158
f 308/197/308 157/170/157 172/193/172
f 150/172/150 166/198/166 151/176/151
f 143/174/143 159/199/159 144/177/144
f 151/176/151 167/200/167 152/178/152
f 144/177/144 160/201/160 145/179/145
f 153/180/153 167/200/167 168/202/168
f 165/194/165 179/203/179 180/204/180
f 158/196/158 82/205/82 173/206/173
f 308/207/308 172/193/172 187/208/187
f 165/194/165 181/209/181 166/198/166
f 158/196/158 174/210/174 159/199/159
f 166/198/166 182/211/182 167/200/167
f 159/199/159 175/212/175 160/201/160
f 168/202/168 182/211/182 183/213/183
f 160/201/160 176/214/176 161/186/161
f 168/202/168 184/215/184 169/187/169
f 162/188/162 176/214/176 177/216/177
f 170/189/170 184/215/184 185/217/185
f 162/188/162 178/218/178 163/190/163
f 171/191/171 185/217/185 186/219/186
f 164/192/164 178/218/178 179/203/179
f 172/193/172 186/219/186 187/208/187
f 183/213/183 199/220/199 184/215/184
f 177/216/177 191/221/191 192/222/192
f 185/217/185 199/220/199 200/223/200
f 177/216/177 193/224/193 178/218/178
f 185/217/185 201/225/201 186/219/186
f 179/203/179 193/224/193 194/226/194
f 186/219/186 202/227/202 187/208/187
f 180/204/180 194/226/194 195/228/195
f 173/206/173 82/229/82 188/230/188
f 308/231/308 187/208/187 202/227/202
f 180/204/180 196/232/196 181/209/181
f 174/210/174 188/230/188 189/233/189
f 181/209/181 197/234/197 182/211/182
f 175/212/175 189/233/189 190/235/190
f 183/213/183 197/234/197 198/236/198
f 175/212/175 191/221/191 176/214/176
f 308/237/308 202/227/202 217/238/217
f 195/228/195 211/239/211 196/232/196
f 188/230/188 204/240/204 189/233/189
f 196/232/196 212/241/212 197/234/197
f 189/233/189 205/242/205 190/235/190
f 198/236/198 212/241/212 213/243/213
f 190/235/190 206/244/206 191/221/191
f 198/236/198 214/245/214 199/220/199
f 192/222/192 206/244/206 207/246/207
f 200/223/200 214/245/214 215/247/215
f 192/222/192 208/248/208 193/224/193
f 201/225/201 215/247/215 216/249/216
f 194/226/194 208/248/208 209/250/209
f 202/227/202 216/249/216 217/238/217
f 195/228/195 209/250/209 210/251/210
f 188/230/188 82/252/82 203/253/203
f 215/247/215 229/254/229 230/255/230
f 207/246/207 223/256/223 208/248/208
f 216/249/216 230/255/230 231/257/231
f 209/250/209 223/256/223 224/258/224
f 216/249/216 232/259/232 217/238/217
f 210/251/210 224/258/224 225/260/225
f 203/253/203 82/261/82 218/262/218
f 308/263/308 217/238/217 232/259/232
f 210/251/210 226/264/226 211/239/211
f 203/253/203 219/265/219 204/240/204
f 211/239/211 227/266/227 212/241/212
f 204/240/204 220/267/220 205/242/205
f 213/243/213 227/266/227 228/268/228
f 205/242/205 221/269/221 206/244/206
f 213/243/213 229/254/229 214/245/214
f 207/246/207 221/269/221 222/270/222
f 219/265/219 233/271/233 234/272/234
f 226/264/226 242/273/242 227/266/227
f 219/265/219 235/274/235 220/267/220
f 228/268/228 242/273/242 243/275/243
f 220/267/220 236/276/236 221/269/221
f 228/268/228 244/277/244 229/254/229
f 222/270/222 236/276/236 237/278/237
f 230/255/230 244/277/244 245/279/245
f 222/270/222 238/280/238 223/256/223
f 231/257/231 245/279/245 246/281/246
f 224/258/224 238/280/238 239/282/239
f 231/257/231 247/283/247 232/259/232
f 225/260/225 239/282/239 240/284/240
f 218/262/218 82/285/82 233/271/233
f 308/286/308 232/259/232 247/283/247
f 225/260/225 241/287/241 226/264/226
f 237/278/237 253/288/253 238/280/238
f 245/279/245 261/289/261 246/281/246
f 239/282/239 253/288/253 254/290/254
f 246/281/246 262/291/262 247/283/247
f 240/284/240 254/290/254 255/292/255
f 233/271/233 82/293/82 248/294/248
f 308/295/308 247/283/247 262/291/262
f 240/284/240 256/296/256 241/287/241
f 234/272/234 248/294/248 249/297/249
f 241/287/241 257/298/257 242/273/242
f 235/274/235 249/297/249 250/299/250
f 243/275/243 257/298/257 258/300/258
f 235/274/235 251/301/251 236/276/236
f 243/275/243 259/302/259 244/277/244
f 237/278/237 251/301/251 252/303/252
f 245/279/245 259/302/259 260/304/260
f 256/296/256 272/305/272 257/298/257
f 250/299/250 264/306/264 265/307/265
f 258/300/258 272/305/272 273/308/273
f 250/299/250 266/309/266 251/301/251
f 258/300/258 274/310/274 259/302/259
f 252/303/252 266/309/266 267/311/267
f 260/304/260 274/310/274 275/312/275
f 252/303/252 268/313/268 253/288/253
f 260/304/260 276/314/276 261/289/261
f 254/290/254 268/313/268 269/315/269
f 261/289/261 277/316/277 262/291/262
f 255/292/255 269/315/269 270/317/270
f 248/294/248 82/318/82 263/319/263
f 308/320/308 262/291/262 277/316/277
f 255/292/255 271/321/271 256/296/256
f 248/294/248 264/306/264 249/297/249
f 275/312/275 291/322/291 276/314/276
f 269/315/269 283/323/283 284/324/284
f 276/314/276 292/325/292 277/316/277
f 270/317/270 284/324/284 285/326/285
f 263/319/263 82/327/82 278/328/278
f 308/329/308 277/316/277 292/325/292
f 270/317/270 286/330/286 271/321/271
f 264/306/264 278/328/278 279/331/279
f 271/321/271 287/332/287 272/305/272
f 265/307/265 279/331/279 280/333/280
f 273/308/273 287/332/287 288/334/288
f 265/307/265 281/335/281 266/309/266
f 273/308/273 289/336/289 274/310/274
f 267/311/267 281/335/281 282/337/282
f 275/312/275 289/336/289 290/338/290
f 267/311/267 283/323/283 268/313/268
f 280/333/280 294/339/294 295/340/295
f 288/334/288 302/341/302 303/342/303
f 280/333/280 296/343/296 281/335/281
f 288/334/288 304/344/304 289/336/289
f 282/337/282 296/343/296 297/345/297
f 290/338/290 304/344/304 305/346/305
f 282/337/282 298/347/298 283/323/283
f 290/338/290 306/348/306 291/322/291
f 284/324/284 298/347/298 299/349/299
f 292/325/292 306/348/306 307/350/307
f 285/326/285 299/349/299 300/351/300
f 278/328/278 82/352/82 293/353/293
f 308/354/308 292/325/292 307/350/307
f 285/326/285 301/355/301 286/330/286
f 278/328/278 294/339/294 279/331/279
f 286/330/286 302/341/302 287/332/287
f 299/349/299 314/356/314 315/357/315
f 306/348/306 323/358/323 307/350/307
f 300/351/300 315/357/315 316/359/316
f 293/353/293 82/360/82 309/361/309
f 308/362/308 307/350/307 323/358/323
f 300/351/300 317/363/317 301/355/301
f 294/339/294 309/361/309 310/364/310
f 301/355/301 318/365/318 302/341/302
f 295/340/295 310/364/310 311/366/311
f 303/342/303 318/365/318 319/367/319
f 295/340/295 312/368/312 296/343/296
f 303/342/303 320/369/320 304/344/304
f 297/345/297 312/368/312 313/370/313
f 305/346/305 320/369/320 321/371/321
f 297/345/297 314/356/314 298/347/298
f 305/346/305 322/372/322 306/348/306
f 319/367/319 333/373/333 334/374/334
f 311/366/311 327/375/327 312/368/312
f 319/367/319 335/376/335 320/369/320
f 313/370/313 327/375/327 328/377/328
f 321/371/321 335/376/335 336/378/336
f 313/370/313 329/379/329 314/356/314
f 321/371/321 337/380/337 322/372/322
f 315/357/315 329/379/329 330/381/330
f 322/372/322 338/382/338 323/358/323
f 316/359/316 330/381/330 331/383/331
f 309/361/309 82/384/82 324/385/324
f 308/386/308 323/358/323 338/382/338
f 316/359/316 332/387/332 317/363/317
f 310/364/310 324/385/324 325/388/325
f 317/363/317 333/373/333 318/365/318
f 311/366/311 325/388/325 326/389/326
f 337/380/337 353/390/353 338/382/338
f 331/383/331 345/391/345 346/392/346
f 324/385/324 82/393/82 339/394/339
f 308/395/308 338/382/338 353/390/353
f 331/383/331 347/396/347 332/387/332
f 325/388/325 339/394/339 340/397/340
f 332/387/332 348/398/348 333/373/333
f 326/389/326 340/397/340 341/399/341
f 334/374/334 348/398/348 349/400/349
f 326/389/326 342/401/342 327/375/327
f 334/374/334 350/402/350 335/376/335
f 328/377/328 342/401/342 343/403/343
f 336/378/336 350/402/350 351/404/351
f 328/377/328 344/405/344 329/379/329
f 336/378/336 352/406/352 337/380/337
f 330/381/330 344/405/344 345/391/345
f 349/400/349 365/407/365 350/402/350
f 343/403/343 357/408/357 358/409/358
f 351/404/351 365/407/365 366/410/366
f 343/403/343 359/411/359 344/405/344
f 351/404/351 367/412/367 352/406/352
f 345/391/345 359/411/359 360/413/360
f 353/390/353 367/412/367 368/414/368
f 346/392/346 360/413/360 361/415/361
f 339/394/339 82/416/82 354/417/354
f 308/418/308 353/390/353 368/414/368
f 346/392/346 362/419/362 347/396/347
f 339/394/339 355/420/355 340/397/340
f 347/396/347 363/421/363 348/398/348
f 341/399/341 355/420/355 356/422/356
f 349/400/349 363/421/363 364/423/364
f 341/399/341 357/408/357 342/401/342
f 354/424/354 82/425/82 369/426/369
f 308/427/308 368/428/368 383/429/383
f 361/430/361 377/431/377 362/432/362
f 354/424/354 370/433/370 355/434/355
f 362/432/362 378/435/378 363/436/363
f 356/437/356 370/433/370 371/438/371
f 364/439/364 378/435/378 379/440/379
f 356/437/356 372/441/372 357/442/357
f 364/439/364 380/443/380 365/444/365
f 358/445/358 372/441/372 373/446/373
f 366/447/366 380/443/380 381/448/381
f 358/445/358 374/449/374 359/450/359
f 366/447/366 382/451/382 367/452/367
f 360/453/360 374/449/374 375/454/375
f 368/428/368 382/451/382 383/429/383
f 361/430/361 375/454/375 376/455/376
f 373/446/373 387/456/387 388/457/388
f 381/448/381 395/458/395 396/459/396
f 373/446/373 389/460/389 374/449/374
f 381/448/381 397/461/397 382/451/382
f 375/454/375 389/460/389 390/462/390
f 383/429/383 397/461/397 398/463/398
f 376/455/376 390/462/390 391/464/391
f 369/426/369 82/465/82 384/466/384
f 308/467/308 383/429/383 398/463/398
f 376/455/376 392/468/392 377/431/377
f 369/426/369 385/469/385 370/433/370
f 377/431/377 393/470/393 378/435/378
f 370/433/370 386/471/386 371/438/371
f 379/440/379 393/470/393 394/472/394
f 371/438/371 387/456/387 372/441/372
f 379/440/379 395/458/395 380/443/380
f 391/464/391 407/473/407 392/468/392
f 384/466/384 400/474/400 385/469/385
f 392/468/392 408/475/408 393/470/393
f 385/469/385 401/476/401 386/471/386
f 394/472/394 408/475/408 409/477/409
f 386/471/386 402/478/402 387/456/387
f 394/472/394 410/479/410 395/458/395
f 388/457/388 402/478/402 403/480/403
f 396/459/396 410/479/410 411/481/411
f 388/457/388 404/482/404 389/460/389
f 397/461/397 411/481/411 412/483/412
f 390/462/390 404/482/404 405/484/405
f 398/463/398 412/483/412 413/485/413
f 391/464/391 405/484/405 406/486/406
f 384/466/384 82/487/82 399/488/399
f 308/489/308 398/463/398 413/485/413
f 411/481/411 425/490/425 426/491/426
f 403/480/403 419/492/419 404/482/404
f 411/481/411 427/493/427 412/483/412
f 405/484/405 419/492/419 420/494/420
f 413/485/413 427/493/427 428/495/428
f 406/486/406 420/494/420 421/496/421
f 399/488/399 82/497/82 414/498/414
f 308/499/308 413/485/413 428/495/428
f 406/486/406 422/500/422 407/473/407
f 399/488/399 415/501/415 400/474/400
f 407/473/407 423/502/423 408/475/408
f 401/476/401 415/501/415 416/503/416
f 409/477/409 423/502/423 424/504/424
f 401/476/401 417/505/417 402/478/402
f 409/477/409 425/490/425 410/479/410
f 403/480/403 417/505/417 418/506/418
f 414/498/414 430/507/430 415/501/415
f 422/500/422 438/508/438 423/502/423
f 416/503/416 430/507/430 431/509/431
f 424/504/424 438/508/438 439/510/439
f 416/503/416 432/511/432 417/505/417
f 424/504/424 440/512/440 425/490/425
f 418/506/418 432/511/432 433/513/433
f 426/491/426 440/512/440 441/514/441
f 418/506/418 434/515/434 419/492/419
f 426/491/426 442/516/442 427/493/427
f 420/494/420 434/515/434 435/517/435
f 428/495/428 442/516/442 443/518/443
f 421/496/421 435/517/435 436/519/436
f 414/498/414 82/520/82 429/521/429
f 308/522/308 428/495/428 443/518/443
f 421/496/421 437/523/437 422/500/422
f 433/513/433 449/524/449 434/515/434
f 441/514/441 457/525/457 442/516/442
f 435/517/435 449/524/449 450/526/450
f 443/518/443 457/525/457 458/527/458
f 436/519/436 450/526/450 451/528/451
f 429/521/429 82/529/82 444/530/444
f 308/531/308 443/518/443 458/527/458
f 436/519/436 452/532/452 437/523/437
f 429/521/429 445/533/445 430/507/430
f 437/523/437 453/534/453 438/508/438
f 431/509/431 445/533/445 446/535/446
f 439/510/439 453/534/453 454/536/454
f 431/509/431 447/537/447 432/511/432
f 439/510/439 455/538/455 440/512/440
f 433/513/433 447/537/447 448/539/448
f 441/514/441 455/538/455 456/540/456
f 452/532/452 468/541/468 453/534/453
f 446/535/446 460/542/460 461/543/461
f 454/536/454 468/541/468 469/544/469
f 446/535/446 462/545/462 447/537/447
f 454/536/454 470/546/470 455/538/455
f 448/539/448 462/545/462 463/547/463
f 456/540/456 470/546/470 471/548/471
f 448/539/448 464/549/464 449/524/449
f 456/540/456 472/550/472 457/525/457
f 450/526/450 464/549/464 465/551/465
f 457/525/457 473/552/473 458/527/458
f 451/528/451 465/551/465 466/553/466
f 444/530/444 82/554/82 459/555/459
f 308/556/308 458/527/458 473/552/473
f 451/528/451 467/557/467 452/532/452
f 445/533/445 459/555/459 460/542/460
f 471/548/471 481/3/481 472/550/472
f 465/551/465 477/32/477 3/4/3
f 473/552/473 481/3/481 482/8/482
f 466/553/466 3/4/3 4/10/4
f 459/555/459 82/558/82 474/11/474
f 308/559/308 473/552/473 482/8/482
f 466/553/466 5/15/5 467/557/467
f 459/555/459 475/17/475 460/542/460
f 467/557/467 478/20/478 468/541/468
f 461/543/461 475/17/475 1/21/1
f 468/541/468 6/24/6 469/544/469
f 462/545/462 1/21/1 476/25/476
f 469/544/469 479/28/479 470/546/470
f 463/547/463 476/25/476 2/30/2
f 471/548/471 479/28/479 480/1/480
f 464/549/464 2/30/2 477/32/477
f 480/1/480 19/31/19 20/2/20
f 3/4/3 477/32/477 12/5/12
f 481/3/481 20/2/20 21/7/21
f 3/4/3 13/6/13 14/9/14
f 5/15/5 4/10/4 14/9/14
f 475/17/475 474/11/474 7/13/7
f 5/15/5 15/16/15 16/19/16
f 1/21/1 475/17/475 8/18/8
f 478/20/478 16/19/16 17/23/17
f 476/25/476 1/21/1 9/22/9
f 6/24/6 17/23/17 18/27/18
f 476/25/476 10/26/10 11/29/11
f 479/28/479 18/27/18 19/31/19
f 477/32/477 2/30/2 11/29/11
f 10/26/10 25/49/25 26/33/26
f 19/31/19 18/27/18 33/34/33
f 11/29/11 26/33/26 27/36/27
f 20/2/20 19/31/19 34/35/34
f 13/6/13 12/5/12 27/36/27
f 21/7/21 20/2/20 35/37/35
f 13/6/13 28/38/28 29/40/29
f 15/16/15 14/9/14 29/40/29
f 7/13/7 22/42/22 23/45/23
f 15/16/15 30/44/30 31/46/31
f 8/18/8 23/45/23 24/47/24
f 17/23/17 16/19/16 31/46/31
f 9/22/9 24/47/24 25/49/25
f 18/27/18 17/23/17 32/48/32
f 29/40/29 44/64/44 45/50/45
f 23/45/23 22/42/22 37/51/37
f 30/44/30 45/50/45 46/53/46
f 24/47/24 23/45/23 38/52/38
f 32/48/32 31/46/31 46/53/46
f 25/49/25 24/47/24 39/54/39
f 32/48/32 47/55/47 48/57/48
f 26/33/26 25/49/25 40/56/40
f 33/34/33 48/57/48 49/59/49
f 26/33/26 41/58/41 42/60/42
f 34/35/34 49/59/49 50/61/50
f 28/38/28 27/36/27 42/60/42
f 35/37/35 50/61/50 51/63/51
f 29/40/29 28/38/28 43/62/43
f 49/59/49 48/57/48 63/67/63
f 41/58/41 56/83/56 57/69/57
f 50/61/50 49/59/49 64/68/64
f 43/62/43 42/60/42 57/69/57
f 51/63/51 50/61/50 65/70/65
f 44/64/44 43/62/43 58/71/58
f 44/64/44 59/73/59 60/77/60
f 37/51/37 52/75/52 53/78/53
f 45/50/45 60/77/60 61/79/61
f 38/52/38 53/78/53 54/80/54
f 47/55/47 46/53/46 61/79/61
f 39/54/39 54/80/54 55/82/55
f 47/55/47 62/81/62 63/67/63
f 41/58/41 40/56/40 55/82/55
f 60/77/60 75/100/75 76/84/76
f 54/80/54 53/78/53 68/85/68
f 62/81/62 61/79/61 76/84/76
f 54/80/54 69/86/69 70/88/70
f 62/81/62 77/87/77 78/89/78
f 56/83/56 55/82/55 70/88/70
f 64/68/64 63/67/63 78/89/78
f 56/83/56 71/90/71 72/92/72
f 64/68/64 79/91/79 80/93/80
f 58/71/58 57/69/57 72/92/72
f 65/70/65 80/93/80 81/95/81
f 59/73/59 58/71/58 73/94/73
f 59/73/59 74/96/74 75/100/75
f 53/78/53 52/75/52 67/98/67
f 79/91/79 95/117/95 96/101/96
f 73/94/73 72/92/72 88/102/88
f 81/95/81 80/93/80 96/101/96
f 74/96/74 73/94/73 89/103/89
f 74/96/74 90/105/90 91/109/91
f 67/98/67 83/107/83 84/110/84
f 75/100/75 91/109/91 92/111/92
f 69/86/69 68/85/68 84/110/84
f 77/87/77 76/84/76 92/111/92
f 69/86/69 85/112/85 86/114/86
f 77/87/77 93/113/93 94/115/94
f 71/90/71 70/88/70 86/114/86
f 79/91/79 78/89/78 94/115/94
f 71/90/71 87/116/87 88/102/88
f 85/112/85 84/110/84 99/118/99
f 93/113/93 92/111/92 107/120/107
f 85/112/85 100/119/100 101/122/101
f 93/113/93 108/121/108 109/123/109
f 87/116/87 86/114/86 101/122/101
f 95/117/95 94/115/94 109/123/109
f 87/116/87 102/124/102 103/126/103
f 95/117/95 110/125/110 111/127/111
f 89/103/89 88/102/88 103/126/103
f 96/101/96 111/127/111 112/129/112
f 90/105/90 89/103/89 104/128/104
f 90/105/90 105/130/105 106/134/106
f 84/110/84 83/107/83 98/132/98
f 91/109/91 106/134/106 107/120/107
f 104/128/104 103/126/103 118/135/118
f 111/127/111 126/151/126 127/137/127
f 105/130/105 104/128/104 119/136/119
f 105/130/105 120/138/120 121/142/121
f 98/132/98 113/140/113 114/143/114
f 106/134/106 121/142/121 122/144/122
f 100/119/100 99/118/99 114/143/114
f 108/121/108 107/120/107 122/144/122
f 100/119/100 115/145/115 116/147/116
f 108/121/108 123/146/123 124/148/124
f 102/124/102 101/122/101 116/147/116
f 110/125/110 109/123/109 124/148/124
f 102/124/102 117/149/117 118/135/118
f 110/125/110 125/150/125 126/151/126
f 123/146/123 122/144/122 137/152/137
f 115/145/115 130/168/130 131/154/131
f 123/146/123 138/153/138 139/155/139
f 117/149/117 116/147/116 131/154/131
f 125/150/125 124/148/124 139/155/139
f 117/149/117 132/156/132 133/158/133
f 126/151/126 125/150/125 140/157/140
f 119/136/119 118/135/118 133/158/133
f 126/151/126 141/159/141 142/161/142
f 120/138/120 119/136/119 134/160/134
f 120/138/120 135/162/135 136/166/136
f 113/140/113 128/164/128 129/167/129
f 121/142/121 136/166/136 137/152/137
f 114/143/114 129/167/129 130/168/130
f 142/161/142 141/159/141 156/169/156
f 135/162/135 134/160/134 149/171/149
f 135/162/135 150/172/150 151/176/151
f 128/164/128 143/174/143 144/177/144
f 136/166/136 151/176/151 152/178/152
f 129/167/129 144/177/144 145/179/145
f 138/153/138 137/152/137 152/178/152
f 130/168/130 145/179/145 146/181/146
f 138/153/138 153/180/153 154/182/154
f 132/156/132 131/154/131 146/181/146
f 140/157/140 139/155/139 154/182/154
f 132/156/132 147/183/147 148/185/148
f 141/159/141 140/157/140 155/184/155
f 134/160/134 133/158/133 148/185/148
f 145/179/145 160/201/160 161/186/161
f 153/180/153 168/202/168 169/187/169
f 147/183/147 146/181/146 161/186/161
f 155/184/155 154/182/154 169/187/169
f 147/183/147 162/188/162 163/190/163
f 156/169/156 155/184/155 170/189/170
f 149/171/149 148/185/148 163/190/163
f 157/170/157 156/169/156 171/191/171
f 150/172/150 149/171/149 164/192/164
f 150/172/150 165/194/165 166/198/166
f 143/174/143 158/196/158 159/199/159
f 151/176/151 166/198/166 167/200/167
f 144/177/144 159/199/159 160/201/160
f 153/180/153 152/178/152 167/200/167
f 165/194/165 164/192/164 179/203/179
f 165/194/165 180/204/180 181/209/181
f 158/196/158 173/206/173 174/210/174
f 166/198/166 181/209/181 182/211/182
f 159/199/159 174/210/174 175/212/175
f 168/202/168 167/200/167 182/211/182
f 160/201/160 175/212/175 176/214/176
f 168/202/168 183/213/183 184/215/184
f 162/188/162 161/186/161 176/214/176
f 170/189/170 169/187/169 184/215/184
f 162/188/162 177/216/177 178/218/178
f 171/191/171 170/189/170 185/217/185
f 164/192/164 163/190/163 178/218/178
f 172/193/172 171/191/171 186/219/186
f 183/213/183 198/236/198 199/220/199
f 177/216/177 176/214/176 191/221/191
f 185/217/185 184/215/184 199/220/199
f 177/216/177 192/222/192 193/224/193
f 185/217/185 200/223/200 201/225/201
f 179/203/179 178/218/178 193/224/193
f 186/219/186 201/225/201 202/227/202
f 180/204/180 179/203/179 194/226/194
f 180/204/180 195/228/195 196/232/196
f 174/210/174 173/206/173 188/230/188
f 181/209/181 196/232/196 197/234/197
f 175/212/175 174/210/174 189/233/189
f 183/213/183 182/211/182 197/234/197
f 175/212/175 190/235/190 191/221/191
f 195/228/195 210/251/210 211/239/211
f 188/230/188 203/253/203 204/240/204
f 196/232/196 211/239/211 212/241/212
f 189/233/189 204/240/204 205/242/205
f 198/236/198 197/234/197 212/241/212
f 190/235/190 205/242/205 206/244/206
f 198/236/198 213/243/213 214/245/214
f 192/222/192 191/221/191 206/244/206
f 200/223/200 199/220/199 214/245/214
f 192/222/192 207/246/207 208/248/208
f 201/225/201 200/223/200 215/247/215
f 194/226/194 193/224/193 208/248/208
f 202/227/202 201/225/201 216/249/216
f 195/228/195 194/226/194 209/250/209
f 215/247/215 214/245/214 229/254/229
f 207/246/207 222/270/222 223/256/223
f 216/249/216 215/247/215 230/255/230
f 209/250/209 208/248/208 223/256/223
f 216/249/216 231/257/231 232/259/232
f 210/251/210 209/250/209 224/258/224
f 210/251/210 225/260/225 226/264/226
f 203/253/203 218/262/218 219/265/219
f 211/239/211 226/264/226 227/266/227
f 204/240/204 219/265/219 220/267/220
f 213/243/213 212/241/212 227/266/227
f 205/242/205 220/267/220 221/269/221
f 213/243/213 228/268/228 229/254/229
f 207/246/207 206/244/206 221/269/221
f 219/265/219 218/262/218 233/271/233
f 226/264/226 241/287/241 242/273/242
f 219/265/219 234/272/234 235/274/235
f 228/268/228 227/266/227 242/273/242
f 220/267/220 235/274/235 236/276/236
f 228/268/228 243/275/243 244/277/244
f 222/270/222 221/269/221 236/276/236
f 230/255/230 229/254/229 244/277/244
f 222/270/222 237/278/237 238/280/238
f 231/257/231 230/255/230 245/279/245
f 224/258/224 223/256/223 238/280/238
f 231/257/231 246/281/246 247/283/247
f 225/260/225 224/258/224 239/282/239
f 225/260/225 240/284/240 241/287/241
f 237/278/237 252/303/252 253/288/253
f 245/279/245 260/304/260 261/289/261
f 239/282/239 238/280/238 253/288/253
f 246/281/246 261/289/261 262/291/262
f 240/284/240 239/282/239 254/290/254
f 240/284/240 255/292/255 256/296/256
f 234/272/234 233/271/233 248/294/248
f 241/287/241 256/296/256 257/298/257
f 235/274/235 234/272/234 249/297/249
f 243/275/243 242/273/242 257/298/257
f 235/274/235 250/299/250 251/301/251
f 243/275/243 258/300/258 259/302/259
f 237/278/237 236/276/236 251/301/251
f 245/279/245 244/277/244 259/302/259
f 256/296/256 271/321/271 272/305/272
f 250/299/250 249/297/249 264/306/264
f 258/300/258 257/298/257 272/305/272
f 250/299/250 265/307/265 266/309/266
f 258/300/258 273/308/273 274/310/274
f 252/303/252 251/301/251 266/309/266
f 260/304/260 259/302/259 274/310/274
f 252/303/252 267/311/267 268/313/268
f 260/304/260 275/312/275 276/314/276
f 254/290/254 253/288/253 268/313/268
f 261/289/261 276/314/276 277/316/277
f 255/292/255 254/290/254 269/315/269
f 255/292/255 270/317/270 271/321/271
f 248/294/248 263/319/263 264/306/264
f 275/312/275 290/338/290 291/322/291
f 269/315/269 268/313/268 283/323/283
f 276/314/276 291/322/291 292/325/292
f 270/317/270 269/315/269 284/324/284
f 270/317/270 285/326/285 286/330/286
f 264/306/264 263/319/263 278/328/278
f 271/321/271 286/330/286 287/332/287
f 265/307/265 264/306/264 279/331/279
f 273/308/273 272/305/272 287/332/287
f 265/307/265 280/333/280 281/335/281
f 273/308/273 288/334/288 289/336/289
f 267/311/267 266/309/266 281/335/281
f 275/312/275 274/310/274 289/336/289
f 267/311/267 282/337/282 283/323/283
f 280/333/280 279/331/279 294/339/294
f 288/334/288 287/332/287 302/341/302
f 280/333/280 295/340/295 296/343/296
f 288/334/288 303/342/303 304/344/304
f 282/337/282 281/335/281 296/343/296
f 290/338/290 289/336/289 304/344/304
f 282/337/282 297/345/297 298/347/298
f 290/338/290 305/346/305 306/348/306
f 284/324/284 283/323/283 298/347/298
f 292/325/292 291/322/291 306/348/306
f 285/326/285 284/324/284 299/349/299
f 285/326/285 300/351/300 301/355/301
f 278/328/278 293/353/293 294/339/294
f 286/330/286 301/355/301 302/341/302
f 299/349/299 298/347/298 314/356/314
f 306/348/306 322/372/322 323/358/323
f 300/351/300 299/349/299 315/357/315
f 300/351/300 316/359/316 317/363/317
f 294/339/294 293/353/293 309/361/309
f 301/355/301 317/363/317 318/365/318
f 295/340/295 294/339/294 310/364/310
f 303/342/303 302/341/302 318/365/318
f 295/340/295 311/366/311 312/368/312
f 303/342/303 319/367/319 320/369/320
f 297/345/297 296/343/296 312/368/312
f 305/346/305 304/344/304 320/369/320
f 297/345/297 313/370/313 314/356/314
f 305/346/305 321/371/321 322/372/322
f 319/367/319 318/365/318 333/373/333
f 311/366/311 326/389/326 327/375/327
f 319/367/319 334/374/334 335/376/335
f 313/370/313 312/368/312 327/375/327
f 321/371/321 320/369/320 335/376/335
f 313/370/313 328/377/328 329/379/329
f 321/371/321 336/378/336 337/380/337
f 315/357/315 314/356/314 329/379/329
f 322/372/322 337/380/337 338/382/338
f 316/359/316 315/357/315 330/381/330
f 316/359/316 331/383/331 332/387/332
f 310/364/310 309/361/309 324/385/324
f 317/363/317 332/387/332 333/373/333
f 311/366/311 310/364/310 325/388/325
f 337/380/337 352/406/352 353/390/353
f 331/383/331 330/381/330 345/391/345
f 331/383/331 346/392/346 347/396/347
f 325/388/325 324/385/324 339/394/339
f 332/387/332 347/396/347 348/398/348
f 326/389/326 325/388/325 340/397/340
f 334/374/334 333/373/333 348/398/348
f 326/389/326 341/399/341 342/401/342
f 334/374/334 349/400/349 350/402/350
f 328/377/328 327/375/327 342/401/342
f 336/378/336 335/376/335 350/402/350
f 328/377/328 343/403/343 344/405/344
f 336/378/336 351/404/351 352/406/352
f 330/381/330 329/379/329 344/405/344
f 349/400/349 364/423/364 365/407/365
f 343/403/343 342/401/342 357/408/357
f 351/404/351 350/402/350 365/407/365
f 343/403/343 358/409/358 359/411/359
f 351/404/351 366/410/366 367/412/367
f 345/391/345 344/405/344 359/411/359
f 353/390/353 352/406/352 367/412/367
f 346/392/346 345/391/345 360/413/360
f 346/392/346 361/415/361 362/419/362
f 339/394/339 354/417/354 355/420/355
f 347/396/347 362/419/362 363/421/363
f 341/399/341 340/397/340 355/420/355
f 349/400/349 348/398/348 363/421/363
f 341/399/341 356/422/356 357/408/357
f 361/430/361 376/455/376 377/431/377
f 354/424/354 369/426/369 370/433/370
f 362/432/362 377/431/377 378/435/378
f 356/437/356 355/434/355 370/433/370
f 364/439/364 363/436/363 378/435/378
f 356/437/356 371/438/371 372/441/372
f 364/439/364 379/440/379 380/443/380
f 358/445/358 357/442/357 372/441/372
f 366/447/366 365/444/365 380/443/380
f 358/445/358 373/446/373 374/449/374
f 366/447/366 381/448/381 382/451/382
f 360/453/360 359/450/359 374/449/374
f 368/428/368 367/452/367 382/451/382
f 361/430/361 360/453/360 375/454/375
f 373/446/373 372/441/372 387/456/387
f 381/448/381 380/443/380 395/458/395
f 373/446/373 388/457/388 389/460/389
f 381/448/381 396/459/396 397/461/397
f 375/454/375 374/449/374 389/460/389
f 383/429/383 382/451/382 397/461/397
f 376/455/376 375/454/375 390/462/390
f 376/455/376 391/464/391 392/468/392
f 369/426/369 384/466/384 385/469/385
f 377/431/377 392/468/392 393/470/393
f 370/433/370 385/469/385 386/471/386
f 379/440/379 378/435/378 393/470/393
f 371/438/371 386/471/386 387/456/387
f 379/440/379 394/472/394 395/458/395
f 391/464/391 406/486/406 407/473/407
f 384/466/384 399/488/399 400/474/400
f 392/468/392 407/473/407 408/475/408
f 385/469/385 400/474/400 401/476/401
f 394/472/394 393/470/393 408/475/408
f 386/471/386 401/476/401 402/478/402
f 394/472/394 409/477/409 410/479/410
f 388/457/388 387/456/387 402/478/402
f 396/459/396 395/458/395 410/479/410
f 388/457/388 403/480/403 404/482/404
f 397/461/397 396/459/396 411/481/411
f 390/462/390 389/460/389 404/482/404
f 398/463/398 397/461/397 412/483/412
f 391/464/391 390/462/390 405/484/405
f 411/481/411 410/479/410 425/490/425
f 403/480/403 418/506/418 419/492/419
f 411/481/411 426/491/426 427/493/427
f 405/484/405 404/482/404 419/492/419
f 413/485/413 412/483/412 427/493/427
f 406/486/406 405/484/405 420/494/420
f 406/486/406 421/496/421 422/500/422
f 399/488/399 414/498/414 415/501/415
f 407/473/407 422/500/422 423/502/423
f 401/476/401 400/474/400 415/501/415
f 409/477/409 408/475/408 423/502/423
f 401/476/401 416/503/416 417/505/417
f 409/477/409 424/504/424 425/490/425
f 403/480/403 402/478/402 417/505/417
f 414/498/414 429/521/429 430/507/430
f 422/500/422 437/523/437 438/508/438
f 416/503/416 415/501/415 430/507/430
f 424/504/424 423/502/423 438/508/438
f 416/503/416 431/509/431 432/511/432
f 424/504/424 439/510/439 440/512/440
f 418/506/418 417/505/417 432/511/432
f 426/491/426 425/490/425 440/512/440
f 418/506/418 433/513/433 434/515/434
f 426/491/426 441/514/441 442/516/442
f 420/494/420 419/492/419 434/515/434
f 428/495/428 427/493/427 442/516/442
f 421/496/421 420/494/420 435/517/435
f 421/496/421 436/519/436 437/523/437
f 433/513/433 448/539/448 449/524/449
f 441/514/441 456/540/456 457/525/457
f 435/517/435 434/515/434 449/524/449
f 443/518/443 442/516/442 457/525/457
f 436/519/436 435/517/435 450/526/450
f 436/519/436 451/528/451 452/532/452
f 429/521/429 444/530/444 445/533/445
f 437/523/437 452/532/452 453/534/453
f 431/509/431 430/507/430 445/533/445
f 439/510/439 438/508/438 453/534/453
f 431/509/431 446/535/446 447/537/447
f 439/510/439 454/536/454 455/538/455
f 433/513/433 432/511/432 447/537/447
f 441/514/441 440/512/440 455/538/455
f 452/532/452 467/557/467 468/541/468
f 446/535/446 445/533/445 460/542/460
f 454/536/454 453/534/453 468/541/468
f 446/535/446 461/543/461 462/545/462
f 454/536/454 469/544/469 470/546/470
f 448/539/448 447/537/447 462/545/462
f 456/540/456 455/538/455 470/546/470
f 448/539/448 463/547/463 464/549/464
f 456/540/456 471/548/471 472/550/472
f 450/526/450 449/524/449 464/549/464
f 457/525/457 472/550/472 473/552/473
f 451/528/451 450/526/450 465/551/465
f 451/528/451 466/553/466 467/557/467
f 445/533/445 444/530/444 459/555/459
f 471/548/471 480/1/480 481/3/481
f 465/551/465 464/549/464 477/32/477
f 473/552/473 472/550/472 481/3/481
f 466/553/466 465/551/465 3/4/3
f 466/553/466 4/10/4 5/15/5
f 459/555/459 474/11/474 475/17/475
f 467/557/467 5/15/5 478/20/478
f 461/543/461 460/542/460 475/17/475
f 468/541/468 478/20/478 6/24/6
f 462/545/462 461/543/461 1/21/1
f 469/544/469 6/24/6 479/28/479
f 463/547/463 462/545/462 476/25/476
f 471/548/471 470/546/470 479/28/479
f 464/549/464 463/547/463 2/30/2
