# Blender 4.4.1
# www.blender.org
mtllib LeftArm.mtl
o 平面
v 1.499400 -0.335556 -1.376110
v 1.499400 0.403470 -1.376110
v 1.129887 0.033957 -1.376110
v 1.868913 0.033957 -1.376110
v 1.499400 0.033957 -1.376110
v 1.081091 -0.184727 -1.321007
v 1.209681 -0.248318 3.148964
v 1.081091 0.309728 -1.321007
v 1.209681 0.266042 3.222687
v 1.938357 -0.273311 -1.321007
v 1.809767 -0.248318 3.387820
v 1.938357 0.337146 -1.321007
v 1.809767 0.266042 3.238267
v 1.136431 -0.249971 1.090053
v 1.136431 0.252808 1.090053
v 1.884115 0.293942 1.090053
v 1.884115 -0.292018 1.090053
v 1.509724 0.437495 -1.321007
v 1.509724 0.266042 3.501112
v 1.509724 -0.419771 -1.321007
v 1.509724 -0.248318 3.547915
v 1.509724 -0.419771 1.090053
v 1.509724 0.437495 1.090053
v 1.204157 -0.249971 2.295583
v 1.204157 0.252808 2.295583
v 1.876736 0.293942 2.295583
v 1.876736 -0.292018 2.295583
v 1.509724 -0.419771 2.295583
v 1.509724 0.437495 2.295583
v 1.129944 0.309728 -0.115477
v 1.906434 0.337146 -0.115477
v 1.906434 -0.273311 -0.115477
v 1.129944 -0.184727 -0.115477
v 1.509724 0.437495 -0.115477
v 1.509724 -0.419771 -0.115477
v 1.092972 -0.411141 -1.400321
v 1.932978 -0.411141 -1.400321
v 1.092972 0.428865 -1.400321
v 1.932978 0.428865 -1.400321
v 1.512975 -0.411141 -1.400321
v 1.512975 0.428865 -1.400321
v 1.722976 -0.411141 -1.400321
v 1.722976 0.428865 -1.400321
v 1.302974 0.428865 -1.400321
v 1.302974 -0.411141 -1.400321
v 1.092972 0.008862 -1.400321
v 1.932978 0.008862 -1.400321
v 1.512975 0.008862 -1.488895
v 1.722976 0.008862 -1.400321
v 1.302974 0.008862 -1.861723
v 1.932978 0.218863 -1.400321
v 1.512975 0.218863 -1.400321
v 1.722976 0.218863 -1.400321
v 1.302974 0.218863 -1.400321
v 1.092972 0.218863 -1.400321
v 1.092972 -0.201139 -1.400321
v 1.932978 -0.201139 -1.400321
v 1.512975 -0.201139 -1.400321
v 1.722976 -0.201139 -1.400321
v 1.302974 -0.201139 -1.400321
v 1.827977 -0.411141 -1.400321
v 1.827977 0.428865 -1.400321
v 1.827977 0.008862 -1.400321
v 1.827977 0.218863 -1.400321
v 1.827977 -0.201139 -1.400321
v 1.617976 0.428865 -1.478611
v 1.617976 -0.411141 -1.400321
v 1.617976 0.008862 -1.400321
v 1.617976 0.218863 -1.654406
v 1.617976 -0.201139 -1.400321
v 1.407974 -0.411141 -1.602981
v 1.407974 0.428865 -1.400321
v 1.407974 0.008862 -1.400321
v 1.407974 0.218863 -1.400321
v 1.407974 -0.201139 -1.829803
v 1.932978 0.323864 -1.400321
v 1.512975 0.323864 -1.400321
v 1.722976 0.323864 -1.400321
v 1.302974 0.323864 -1.400321
v 1.092972 0.323864 -1.400321
v 1.827977 0.323864 -1.666381
v 1.617976 0.323864 -1.400321
v 1.407974 0.323864 -1.652306
v 1.197973 0.428865 -1.673342
v 1.197973 -0.411141 -1.400321
v 1.197973 0.008862 -1.513664
v 1.182517 0.218863 -1.530167
v 1.197973 -0.201139 -1.588419
v 1.197973 0.323864 -1.400321
v 1.092972 0.113863 -1.400321
v 1.932978 0.113863 -1.578877
v 1.512975 0.113863 -1.400321
v 1.722976 0.113863 -1.976784
v 1.302974 0.113863 -1.400321
v 1.827977 0.113863 -1.400321
v 1.617976 0.113863 -1.400321
v 1.407974 0.113863 -1.623976
v 1.197973 0.113863 -1.400321
v 1.932978 -0.096139 -1.400321
v 1.512975 -0.096139 -1.400321
v 1.722976 -0.096139 -1.400321
v 1.302974 -0.096139 -1.400321
v 1.092972 -0.096139 -1.400321
v 1.827977 -0.096139 -1.567624
v 1.617976 -0.096139 -1.746337
v 1.407974 -0.096139 -1.400321
v 1.197973 -0.096139 -1.400321
v 1.092972 -0.306140 -1.400321
v 1.932978 -0.306140 -1.400321
v 1.512975 -0.306140 -1.400321
v 1.722976 -0.306140 -1.400321
v 1.302974 -0.306140 -1.400321
v 1.827977 -0.306140 -2.024786
v 1.617976 -0.306140 -1.710783
v 1.407974 -0.306140 -1.400321
v 1.197973 -0.306140 -1.923573
vn -0.0000 -0.0000 -1.0000
vn 1.0000 -0.0000 -0.0065
vn -0.3637 -0.9300 -0.0534
vn -0.9975 -0.0000 -0.0709
vn 0.4823 0.8679 -0.1188
vn -0.0000 -0.0000 1.0000
vn 0.6787 -0.0666 -0.7314
vn 0.5258 0.8495 0.0431
vn -0.9998 -0.0000 -0.0185
vn -0.2450 -0.9687 -0.0393
vn 1.0000 -0.0000 -0.0054
vn 0.3185 -0.9468 -0.0464
vn -0.3463 0.9381 0.0081
vn -0.6437 -0.2137 -0.7348
vn -0.3282 0.9428 -0.0578
vn 0.5135 -0.8496 -0.1208
vn 0.4434 -0.8963 -0.0000
vn -0.3229 0.9464 -0.0020
vn 0.4140 0.9103 -0.0000
vn -1.0000 -0.0000 -0.0061
vn -0.3580 -0.9337 -0.0022
vn 0.9984 -0.0000 -0.0561
vn -0.3233 0.9463 -0.0000
vn 0.2856 -0.9583 -0.0116
vn 0.9992 -0.0000 -0.0405
vn -0.2279 -0.9737 -0.0000
vn -0.9996 -0.0000 -0.0265
vn 0.4807 0.8767 -0.0195
vn -0.6811 -0.6811 0.2688
vn -0.6783 -0.6783 0.2826
vn -0.5131 0.5131 0.6881
vn -0.6823 0.6823 0.2624
vn -0.0000 0.7336 0.6796
vn -0.6914 -0.6914 0.2098
vn -0.6463 -0.6463 0.4056
vn -0.5913 0.5912 0.5485
vn -0.6787 0.6787 0.2805
vn -0.6711 -0.6711 0.3151
vn -0.7022 -0.7022 0.1181
vn -0.6968 0.6968 0.1703
vn -0.6877 -0.6877 0.2326
vn -0.8303 -0.5318 0.1666
vn -0.7013 -0.7013 0.1277
vn -0.5419 0.5419 0.6424
vn -0.6981 0.6981 0.1589
vn -0.5913 -0.5912 0.5485
vn -0.6787 -0.6787 0.2805
vn -0.6783 0.6783 0.2826
vn -0.6811 0.6811 0.2688
vn 0.8732 -0.0000 0.4874
vn -0.6981 -0.6981 0.1589
vn -0.5419 -0.5419 0.6424
vn -0.7013 0.7013 0.1277
vn -0.6711 0.6711 0.3151
vn -0.0000 -0.7336 0.6796
vn -0.6463 0.6463 0.4056
vn -0.6968 -0.6968 0.1703
vn -0.6914 0.6914 0.2098
vn -0.6577 -0.6577 0.3672
vn -0.7001 0.7001 0.1405
vn -0.6877 0.6877 0.2326
vn -0.6640 -0.6640 0.3440
vn -0.7022 0.7022 0.1181
vn 1.0000 0.0009 -0.0060
vn -0.1224 -0.9826 -0.1397
vn -0.9980 -0.0176 -0.0605
vn 0.0026 1.0000 -0.0020
vn 0.7963 0.0858 -0.5988
vn -0.3580 -0.9337 -0.0000
vn -0.3229 0.9464 -0.0000
vn -0.4692 -0.0800 -0.8794
vn -0.0722 0.9882 -0.1353
vn -0.0133 -0.9998 0.0144
vn 0.5170 -0.8555 -0.0290
vn -0.3287 0.9444 -0.0000
vn 0.4855 0.8738 -0.0273
vn -0.3643 -0.9313 -0.0000
vn -0.3463 0.9381 -0.0092
vn 0.3189 -0.9478 -0.0000
vn -0.2452 -0.9694 -0.0065
vn 0.5263 0.8503 -0.0000
vn 0.5925 0.7855 0.1787
vn 0.5419 0.5419 0.6424
vn 0.7013 -0.7013 0.1277
vn 0.6529 -0.6529 0.3839
vn -0.8732 -0.0000 0.4874
vn 0.7022 -0.7022 0.1181
vn 0.6463 -0.6463 0.4056
vn 0.6811 -0.6811 0.2688
vn 0.6877 -0.6877 0.2326
vn 0.6787 0.6787 0.2805
vn 0.6914 -0.6914 0.2098
vn 0.5131 0.5131 0.6881
vn 0.6968 0.6968 0.1703
vn 0.6711 -0.6711 0.3151
vn 0.6783 -0.6783 0.2826
vn 0.6783 0.6783 0.2826
vn 0.6787 -0.6787 0.2805
vn 0.6811 0.6811 0.2688
vn 0.6356 -0.6356 0.4383
vn 0.8303 -0.5318 0.1666
vn 0.6356 0.6356 0.4383
vn 0.5915 0.5915 0.5480
vn 0.6823 0.6823 0.2624
vn 0.5915 -0.5915 0.5480
vn 0.6711 0.6711 0.3151
vn 0.6529 0.6529 0.3839
vn 0.5419 -0.5419 0.6424
vn 0.7013 0.7013 0.1277
vn 0.5925 -0.7855 0.1787
vn 0.6577 -0.6577 0.3672
vn 0.6968 -0.6968 0.1703
vn 0.6914 0.6914 0.2098
vn 0.6463 0.6463 0.4056
vn 0.7001 0.7001 0.1405
vn 0.6640 -0.6640 0.3440
vn 0.6877 0.6877 0.2326
vn 0.7022 0.7022 0.1181
vt 0.114558 0.549595
vt 0.054156 0.609997
vt 0.174960 0.609997
vt 0.054156 0.489193
vt 0.174960 0.489193
vt 0.052142 0.215809
vt 0.052142 0.256659
vt 0.215545 0.256659
vt 0.297246 0.256659
vt 0.378947 0.256659
vt 0.378947 0.215809
vt 0.542350 0.256659
vt 0.624051 0.215809
vt 0.624051 0.256659
vt 0.705753 0.256659
vt 0.378947 0.379211
vt 0.378947 0.460912
vt 0.542350 0.460912
vt 0.378947 0.052406
vt 0.378947 0.134107
vt 0.542350 0.134107
vt 0.624051 0.338361
vt 0.705753 0.338361
vt 0.705752 0.297510
vt 0.378947 0.297510
vt 0.378947 0.338361
vt 0.542350 0.338361
vt 0.297246 0.338361
vt 0.052142 0.297510
vt 0.052142 0.338361
vt 0.215545 0.338361
vt 0.215545 0.297510
vt 0.542350 0.297510
vt 0.542350 0.215809
vt 0.378947 0.542614
vt 0.542350 0.542614
vt 0.297246 0.215809
vt 0.297246 0.297510
vt 0.624051 0.297510
vt 0.542350 0.379211
vt 0.624051 0.379211
vt 0.215545 0.379211
vt 0.297246 0.379211
vt 0.052142 0.379211
vt 0.705752 0.379211
vt 0.870441 0.921930
vt 0.832801 0.936623
vt 0.843446 0.910744
vt 0.756091 0.875762
vt 0.719934 0.895808
vt 0.724440 0.869912
vt 0.786904 0.886587
vt 0.807505 0.926673
vt 0.772976 0.923875
vt 0.659132 0.862902
vt 0.693294 0.894031
vt 0.630072 0.948097
vt 0.710628 0.728112
vt 0.693533 0.770003
vt 0.681749 0.732478
vt 0.840357 0.763757
vt 0.802018 0.794178
vt 0.797626 0.757405
vt 0.769956 0.734436
vt 0.744451 0.752106
vt 0.744017 0.729068
vt 0.908290 0.775454
vt 0.870395 0.806801
vt 0.876076 0.770166
vt 0.676557 0.802523
vt 0.697586 0.835265
vt 0.667988 0.828067
vt 0.794323 0.818080
vt 0.827537 0.876077
vt 0.811680 0.844568
vt 0.769581 0.813362
vt 0.730273 0.836092
vt 0.728656 0.782272
vt 0.867673 0.845394
vt 0.882272 0.896211
vt 0.854969 0.882705
vt 0.924507 0.714098
vt 0.881942 0.736841
vt 0.890871 0.704724
vt 0.752265 0.658874
vt 0.781332 0.705850
vt 0.747309 0.701432
vt 0.858286 0.695695
vt 0.814592 0.718878
vt 0.826224 0.684655
vt 0.711602 0.667621
vt 0.671721 0.691394
vt 0.670183 0.685597
vt 0.848996 0.728690
vt 0.815691 0.842216
vt 0.835479 0.800494
vt 0.816590 0.899795
vt 0.790107 0.672181
vt 0.763303 0.844386
vt 0.769099 0.773067
vt 0.745553 0.903209
vt 0.710836 0.697203
vt 0.699349 0.810217
vt 0.718138 0.773728
vt 0.693245 0.864859
vt 0.642765 0.819952
vt 0.630675 0.844934
vt 0.628243 0.690117
vt 0.640988 0.713732
vt 0.650222 0.794770
vt 0.657196 0.768244
vt 0.651146 0.741088
vt 0.613234 0.866628
vt 0.904819 0.807554
vt 0.659328 0.643778
vt 0.620616 0.651405
vt 0.698543 0.631011
vt 0.837875 0.651149
vt 0.805409 0.638565
vt 0.900470 0.670103
vt 0.868583 0.662032
vt 0.757169 0.569012
vt 0.215545 0.215809
vt 0.705752 0.215809
vt 0.542350 0.052406
vt 0.858967 0.948096
vt 0.938639 0.863365
vt 0.914859 0.745064
vt 0.934486 0.680081
s 0
usemtl マテリアル
f 5/1/1 2/2/1 4/3/1
f 3/4/1 2/2/1 5/1/1
f 3/4/1 5/1/1 1/5/1
f 4/3/1 1/5/1 5/1/1
f 7/6/2 24/7/2 25/8/2
f 29/9/3 26/10/3 13/11/3
f 13/11/4 26/10/4 27/12/4
f 21/13/5 28/14/5 24/15/5
f 12/16/6 18/17/6 20/18/6
f 9/19/7 19/20/7 21/21/7
f 35/22/8 33/23/8 14/24/8
f 16/25/9 31/26/9 32/27/9
f 34/28/10 31/26/10 16/25/10
f 14/29/11 33/30/11 30/31/11
f 15/32/12 30/31/12 34/28/12
f 17/33/13 32/27/13 35/22/13
f 19/20/14 13/11/14 11/34/14
f 18/17/6 8/35/6 6/36/6
f 11/34/15 27/12/15 28/14/15
f 25/8/16 29/9/16 19/37/16
f 15/32/17 23/38/17 29/9/17
f 27/12/18 17/33/18 22/39/18
f 28/14/19 22/39/19 14/24/19
f 26/10/20 16/25/20 17/33/20
f 23/38/21 16/25/21 26/10/21
f 24/7/22 14/29/22 15/32/22
f 10/40/23 20/41/23 35/22/23
f 30/31/24 8/42/24 18/43/24
f 33/30/25 6/44/25 8/42/25
f 34/28/26 18/43/26 12/16/26
f 31/26/27 12/16/27 10/40/27
f 20/41/28 6/45/28 33/23/28
f 76/46/29 62/47/29 81/48/29
f 77/49/30 72/50/30 83/51/30
f 82/52/31 43/53/31 66/54/31
f 89/55/32 44/56/32 84/57/32
f 102/58/33 86/59/33 107/60/33
f 101/61/34 68/62/34 105/63/34
f 100/64/6 73/65/6 106/66/6
f 99/67/35 63/68/35 104/69/35
f 98/70/36 54/71/36 87/72/36
f 96/73/37 53/74/37 69/75/37
f 92/76/38 74/77/38 97/78/38
f 95/79/6 51/80/6 64/81/6
f 109/82/39 65/83/39 113/84/39
f 115/85/40 58/86/40 75/87/40
f 111/88/41 70/89/41 114/90/41
f 112/91/42 88/92/42 116/93/42
f 111/88/6 65/83/6 59/94/6
f 95/79/43 53/74/43 93/95/43
f 101/61/6 63/68/6 49/96/6
f 78/97/6 62/47/6 43/53/6
f 110/98/6 70/89/6 58/86/6
f 96/73/6 52/99/6 92/76/6
f 100/64/44 68/62/44 48/100/44
f 82/52/6 41/101/6 77/49/6
f 115/85/6 60/102/6 112/91/6
f 94/103/6 74/77/6 54/71/6
f 102/58/45 73/65/45 50/104/45
f 79/105/6 72/50/6 44/56/6
f 74/77/6 79/105/6 54/71/6
f 52/99/6 82/52/6 77/49/6
f 64/81/6 78/97/6 53/74/6
f 54/71/46 89/55/46 87/72/46
f 53/74/47 82/52/47 69/75/47
f 74/77/48 77/49/48 83/51/48
f 64/81/49 76/46/49 81/48/49
f 55/106/6 89/55/6 80/107/6
f 108/108/50 88/92/50 56/109/50
f 98/70/6 55/106/6 90/110/6
f 107/60/6 46/111/6 103/112/6
f 89/55/6 38/113/6 80/107/6
f 46/111/6 98/70/6 90/110/6
f 73/65/51 94/103/51 50/104/51
f 68/62/52 92/76/52 48/100/52
f 49/96/53 95/79/53 93/95/53
f 47/114/6 95/79/6 63/68/6
f 73/65/54 92/76/54 97/78/54
f 49/96/6 96/73/6 68/62/6
f 86/59/55 94/103/55 98/70/55
f 56/109/6 107/60/6 103/112/6
f 60/102/6 106/66/6 102/58/6
f 70/89/6 100/64/6 58/86/6
f 65/83/6 101/61/6 59/94/6
f 65/83/56 99/67/56 104/69/56
f 58/86/57 106/66/57 75/87/57
f 70/89/58 101/61/58 105/63/58
f 60/102/59 107/60/59 88/92/59
f 85/115/6 108/108/6 36/116/6
f 45/117/6 115/85/6 112/91/6
f 67/118/6 110/98/6 40/119/6
f 61/120/6 111/88/6 42/121/6
f 85/115/60 112/91/60 116/93/60
f 67/118/61 111/88/61 114/90/61
f 40/119/62 115/85/62 71/122/62
f 61/120/63 109/82/63 113/84/63
f 7/6/64 25/8/64 9/123/64
f 29/9/65 13/11/65 19/37/65
f 13/11/66 27/12/66 11/34/66
f 21/13/67 24/15/67 7/124/67
f 12/16/6 20/18/6 10/40/6
f 9/19/68 21/21/68 7/125/68
f 35/22/19 14/24/19 22/39/19
f 16/25/9 32/27/9 17/33/9
f 34/28/69 16/25/69 23/38/69
f 14/29/11 30/31/11 15/32/11
f 15/32/17 34/28/17 23/38/17
f 17/33/70 35/22/70 22/39/70
f 19/20/71 11/34/71 21/21/71
f 18/17/6 6/36/6 20/18/6
f 11/34/72 28/14/72 21/13/72
f 25/8/73 19/37/73 9/123/73
f 15/32/74 29/9/74 25/8/74
f 27/12/75 22/39/75 28/14/75
f 28/14/76 14/24/76 24/15/76
f 26/10/20 17/33/20 27/12/20
f 23/38/77 26/10/77 29/9/77
f 24/7/22 15/32/22 25/8/22
f 10/40/78 35/22/78 32/27/78
f 30/31/79 18/43/79 34/28/79
f 33/30/25 8/42/25 30/31/25
f 34/28/80 12/16/80 31/26/80
f 31/26/27 10/40/27 32/27/27
f 20/41/81 33/23/81 35/22/81
f 76/46/6 39/126/6 62/47/6
f 77/49/6 41/101/6 72/50/6
f 82/52/6 78/97/6 43/53/6
f 89/55/6 79/105/6 44/56/6
f 102/58/82 50/104/82 86/59/82
f 101/61/6 49/96/6 68/62/6
f 100/64/83 48/100/83 73/65/83
f 99/67/6 47/114/6 63/68/6
f 98/70/6 94/103/6 54/71/6
f 96/73/84 93/95/84 53/74/84
f 92/76/6 52/99/6 74/77/6
f 95/79/85 91/127/85 51/80/85
f 109/82/6 57/128/6 65/83/6
f 115/85/6 110/98/6 58/86/6
f 111/88/6 59/94/6 70/89/6
f 112/91/86 60/102/86 88/92/86
f 111/88/87 113/84/87 65/83/87
f 95/79/6 64/81/6 53/74/6
f 101/61/88 104/69/88 63/68/88
f 78/97/89 81/48/89 62/47/89
f 110/98/90 114/90/90 70/89/90
f 96/73/91 69/75/91 52/99/91
f 100/64/92 105/63/92 68/62/92
f 82/52/93 66/54/93 41/101/93
f 115/85/94 75/87/94 60/102/94
f 94/103/95 97/78/95 74/77/95
f 102/58/6 106/66/6 73/65/6
f 79/105/96 83/51/96 72/50/96
f 74/77/97 83/51/97 79/105/97
f 52/99/98 69/75/98 82/52/98
f 64/81/99 81/48/99 78/97/99
f 54/71/6 79/105/6 89/55/6
f 53/74/6 78/97/6 82/52/6
f 74/77/6 52/99/6 77/49/6
f 64/81/6 51/80/6 76/46/6
f 55/106/100 87/72/100 89/55/100
f 108/108/101 116/93/101 88/92/101
f 98/70/102 87/72/102 55/106/102
f 107/60/103 86/59/103 46/111/103
f 89/55/104 84/57/104 38/113/104
f 46/111/105 86/59/105 98/70/105
f 73/65/106 97/78/106 94/103/106
f 68/62/6 96/73/6 92/76/6
f 49/96/6 63/68/6 95/79/6
f 47/114/107 91/127/107 95/79/107
f 73/65/108 48/100/108 92/76/108
f 49/96/109 93/95/109 96/73/109
f 86/59/110 50/104/110 94/103/110
f 56/109/111 88/92/111 107/60/111
f 60/102/112 75/87/112 106/66/112
f 70/89/113 105/63/113 100/64/113
f 65/83/114 104/69/114 101/61/114
f 65/83/6 57/128/6 99/67/6
f 58/86/6 100/64/6 106/66/6
f 70/89/6 59/94/6 101/61/6
f 60/102/6 102/58/6 107/60/6
f 85/115/115 116/93/115 108/108/115
f 45/117/116 71/122/116 115/85/116
f 67/118/117 114/90/117 110/98/117
f 61/120/118 113/84/118 111/88/118
f 85/115/6 45/117/6 112/91/6
f 67/118/6 42/121/6 111/88/6
f 40/119/6 110/98/6 115/85/6
f 61/120/6 37/129/6 109/82/6
