# Blender 4.4.1
# www.blender.org
mtllib missile.mtl
o 立方体.001
v -0.300000 -0.300000 -1.500000
v -0.300000 -0.300000 0.750000
v -0.300000 0.300000 -1.500000
v -0.300000 0.300000 0.750000
v 0.300000 -0.300000 -1.500000
v 0.300000 -0.300000 0.750000
v 0.300000 0.300000 -1.500000
v 0.300000 0.300000 0.750000
v -0.300000 -0.300000 -0.000000
v -0.300000 0.300000 0.000000
v 0.300000 0.300000 0.000000
v 0.300000 -0.300000 -0.000000
v -0.300000 0.300000 -0.750000
v 0.300000 0.300000 -0.750000
v 0.300000 -0.300000 -0.750000
v -0.300000 -0.300000 -0.750000
v 0.000000 0.750000 -1.500000
v 0.000000 0.300000 1.050000
v 0.000000 -0.750000 -1.500000
v 0.000000 -0.300000 1.050000
v 0.000000 -0.300000 -0.000000
v 0.000000 0.300000 0.000000
v 0.000000 0.300000 -0.750000
v 0.000000 -0.300000 -0.750000
v -0.300000 -0.300000 0.750000
v -0.300000 0.300000 0.750000
v 0.300000 0.300000 0.750000
v 0.300000 -0.300000 0.750000
v 0.000000 -0.300000 0.750000
v 0.000000 0.300000 0.750000
v -0.750000 0.000000 -1.500000
v -0.300000 -0.000000 1.050000
v 0.750000 0.000000 -1.500000
v 0.300000 -0.000000 1.050000
v 0.300000 0.000000 0.000000
v -0.300000 0.000000 0.000000
v -0.300000 0.000000 -0.750000
v 0.300000 0.000000 -0.750000
v 0.000000 -0.000000 1.500000
v 0.000000 0.000000 -0.914958
v 0.300000 -0.000000 0.750000
v -0.300000 -0.000000 0.750000
vn -1.0000 -0.0000 -0.0000
vn -0.0000 1.0000 -0.0000
vn 1.0000 -0.0000 -0.0000
vn -0.0000 -1.0000 -0.0000
vn -0.5724 0.5724 -0.5871
vn -0.6155 -0.6155 0.4924
vn -0.7779 0.5834 0.2334
vn 0.5834 0.7779 0.2334
vn 0.7779 -0.5834 0.2334
vn -0.5834 -0.7779 0.2334
vn 0.5834 -0.7779 0.2334
vn -0.5834 0.7779 0.2334
vn 0.6155 -0.6155 0.4924
vn 0.5724 0.5724 -0.5871
vn 0.5724 -0.5724 -0.5871
vn 0.6155 0.6155 0.4924
vn 0.7779 0.5834 0.2334
vn -0.7779 -0.5834 0.2334
vn -0.6155 0.6155 0.4924
vn -0.5724 -0.5724 -0.5871
vt 0.330495 0.159856
vt 0.351523 0.164015
vt 0.308768 0.259112
vt 0.308732 0.259260
vt 0.366326 0.349163
vt 0.390087 0.339236
vt 0.402392 0.448695
vt 0.402269 0.448614
vt 0.490790 0.510073
vt 0.505598 0.491695
vt 0.588951 0.589606
vt 0.588850 0.589701
vt 0.692046 0.687470
vt 0.711158 0.665976
vt 0.804813 0.780790
vt 0.804698 0.780883
vt 0.246627 0.755091
vt 0.357957 0.646044
vt 0.439211 0.733454
vt 0.503913 0.977272
vt 0.573133 0.400370
vt 0.648163 0.292666
vt 0.762663 0.371003
vt 0.679980 0.482405
vt 0.590655 0.805202
vt 0.641437 0.744837
vt 0.758994 0.837103
vt 0.715210 0.894056
vt 0.407861 0.597498
vt 0.447894 0.556497
vt 0.539783 0.642988
vt 0.490281 0.691075
vt 0.239886 0.405398
vt 0.302896 0.376155
vt 0.360798 0.478605
vt 0.316458 0.516222
vt 0.205644 0.144550
vt 0.270416 0.151368
vt 0.262444 0.263479
vt 0.207705 0.270712
vt 0.004453 0.117048
vt 0.149088 0.278380
vt 0.035445 0.493125
vt 0.269721 0.560375
vt 0.431291 0.982614
vt 0.678930 0.949400
vt 0.004453 0.995547
vt 0.253481 0.949525
vt 0.294855 0.036022
vt 0.351534 0.048188
vt 0.051478 0.747005
vt 0.024554 0.494199
vt 0.464911 0.332198
vt 0.187632 0.004453
vt 0.240887 0.022303
vt 0.535995 0.217211
vt 0.351645 0.048209
s 0
usemtl マテリアル
f 42/1/1 32/2/1 4/3/1 26/4/1
f 30/5/2 18/6/2 8/7/2 27/8/2
f 41/9/3 34/10/3 6/11/3 28/12/3
f 29/13/4 20/14/4 2/15/4 25/16/4
f 40/17/5 33/18/5 5/19/5 19/20/5
f 39/21/6 32/22/6 2/23/6 20/24/6
f 24/25/4 21/26/4 9/27/4 16/28/4
f 38/29/3 35/30/3 12/31/3 15/32/3
f 23/33/2 22/34/2 11/35/2 14/36/2
f 37/37/1 36/38/1 10/39/1 13/40/1
f 31/41/7 37/37/7 13/40/7 3/42/7
f 17/43/8 23/33/8 14/36/8 7/44/8
f 33/18/9 38/29/9 15/32/9 5/19/9
f 19/45/10 24/25/10 16/28/10 1/46/10
f 5/19/11 15/32/11 24/25/11 19/45/11
f 3/42/12 13/40/12 23/33/12 17/43/12
f 13/40/2 10/39/2 22/34/2 23/33/2
f 15/32/4 12/31/4 21/26/4 24/25/4
f 34/10/13 39/21/13 20/24/13 6/11/13
f 31/47/14 40/17/14 19/20/14 1/48/14
f 28/12/4 6/11/4 20/14/4 29/13/4
f 26/4/2 4/3/2 18/6/2 30/5/2
f 10/39/2 26/4/2 30/5/2 22/34/2
f 12/31/4 28/12/4 29/13/4 21/26/4
f 21/26/4 29/13/4 25/16/4 9/27/4
f 35/30/3 41/9/3 28/12/3 12/31/3
f 22/34/2 30/5/2 27/8/2 11/35/2
f 36/38/1 42/1/1 26/4/1 10/39/1
f 9/49/1 25/50/1 42/1/1 36/38/1
f 11/35/3 27/8/3 41/9/3 35/30/3
f 3/51/15 17/52/15 40/17/15 31/47/15
f 8/7/16 18/53/16 39/21/16 34/10/16
f 7/44/17 14/36/17 38/29/17 33/18/17
f 1/54/18 16/55/18 37/37/18 31/41/18
f 16/55/1 9/49/1 36/38/1 37/37/1
f 14/36/3 11/35/3 35/30/3 38/29/3
f 18/53/19 4/56/19 32/22/19 39/21/19
f 17/52/20 7/44/20 33/18/20 40/17/20
f 27/8/3 8/7/3 34/10/3 41/9/3
f 25/50/1 2/57/1 32/2/1 42/1/1
