# Blender 4.4.1
# www.blender.org
mtllib shockwave.mtl
o 円柱
v 0.000000 -0.200000 -1.000000
v 0.000000 0.000000 -1.000000
v 0.195090 0.000000 -0.980785
v 0.195090 0.200000 -0.980785
v 0.382683 -0.200000 -0.923880
v 0.382683 0.000000 -0.923880
v 0.555570 0.000000 -0.831470
v 0.555570 0.200000 -0.831470
v 0.707107 -0.200000 -0.707107
v 0.707107 0.000000 -0.707107
v 0.831470 0.000000 -0.555570
v 0.831470 0.200000 -0.555570
v 0.923880 -0.200000 -0.382683
v 0.923880 0.000000 -0.382683
v 0.980785 0.000000 -0.195090
v 0.980785 0.200000 -0.195090
v 1.000000 -0.200000 0.000000
v 1.000000 0.000000 0.000000
v 0.980785 0.000000 0.195090
v 0.980785 0.200000 0.195090
v 0.923880 -0.200000 0.382683
v 0.923880 0.000000 0.382683
v 0.831470 0.000000 0.555570
v 0.831470 0.200000 0.555570
v 0.707107 -0.200000 0.707107
v 0.707107 0.000000 0.707107
v 0.555570 0.000000 0.831470
v 0.555570 0.200000 0.831470
v 0.382683 -0.200000 0.923880
v 0.382683 0.000000 0.923880
v 0.195090 0.000000 0.980785
v 0.195090 0.200000 0.980785
v 0.000000 -0.200000 1.000000
v 0.000000 0.000000 1.000000
v -0.195090 0.000000 0.980785
v -0.195090 0.200000 0.980785
v -0.382683 -0.200000 0.923880
v -0.382683 0.000000 0.923880
v -0.555570 0.000000 0.831470
v -0.555570 0.200000 0.831470
v -0.707107 -0.200000 0.707107
v -0.707107 0.000000 0.707107
v -0.831470 0.000000 0.555570
v -0.831470 0.200000 0.555570
v -0.923880 -0.200000 0.382683
v -0.923880 0.000000 0.382683
v -0.980785 0.000000 0.195090
v -0.980785 0.200000 0.195090
v -1.000000 -0.200000 0.000000
v -1.000000 0.000000 0.000000
v -0.980785 0.000000 -0.195090
v -0.980785 0.200000 -0.195090
v -0.923880 -0.200000 -0.382683
v -0.923880 0.000000 -0.382683
v -0.831470 0.000000 -0.555570
v -0.831470 0.200000 -0.555570
v -0.707107 -0.200000 -0.707107
v -0.707107 0.000000 -0.707107
v -0.555570 0.000000 -0.831470
v -0.555570 0.200000 -0.831470
v -0.382683 -0.200000 -0.923880
v -0.382683 0.000000 -0.923880
v -0.195090 0.000000 -0.980785
v -0.195090 0.200000 -0.980785
v -0.000000 -0.200000 -0.950000
v -0.000000 0.000000 -0.950000
v 0.185336 0.000000 -0.931746
v 0.185336 0.200000 -0.931746
v 0.363549 -0.200000 -0.877686
v 0.363549 0.000000 -0.877686
v 0.527792 0.000000 -0.789896
v 0.527792 0.200000 -0.789896
v 0.671751 -0.200000 -0.671751
v 0.671751 0.000000 -0.671751
v 0.789896 0.000000 -0.527792
v 0.789896 0.200000 -0.527792
v 0.877686 -0.200000 -0.363549
v 0.877686 0.000000 -0.363549
v 0.931746 0.000000 -0.185336
v 0.931746 0.200000 -0.185336
v 0.950000 -0.200000 0.000000
v 0.950000 0.000000 0.000000
v 0.931746 0.000000 0.185336
v 0.931746 0.200000 0.185336
v 0.877686 -0.200000 0.363549
v 0.877686 0.000000 0.363549
v 0.789896 0.000000 0.527792
v 0.789896 0.200000 0.527792
v 0.671751 -0.200000 0.671751
v 0.671751 0.000000 0.671751
v 0.527792 0.000000 0.789896
v 0.527792 0.200000 0.789896
v 0.363549 -0.200000 0.877686
v 0.363549 0.000000 0.877686
v 0.185336 0.000000 0.931746
v 0.185336 0.200000 0.931746
v 0.000000 -0.200000 0.950000
v 0.000000 0.000000 0.950000
v -0.185336 0.000000 0.931746
v -0.185336 0.200000 0.931746
v -0.363549 -0.200000 0.877686
v -0.363549 0.000000 0.877686
v -0.527792 0.000000 0.789896
v -0.527792 0.200000 0.789896
v -0.671751 -0.200000 0.671751
v -0.671751 0.000000 0.671751
v -0.789896 0.000000 0.527792
v -0.789896 0.200000 0.527792
v -0.877686 -0.200000 0.363549
v -0.877686 0.000000 0.363549
v -0.931746 0.000000 0.185336
v -0.931746 0.200000 0.185336
v -0.950000 -0.200000 -0.000000
v -0.950000 0.000000 -0.000000
v -0.931746 0.000000 -0.185336
v -0.931746 0.200000 -0.185336
v -0.877686 -0.200000 -0.363549
v -0.877686 0.000000 -0.363549
v -0.789896 0.000000 -0.527792
v -0.789896 0.200000 -0.527792
v -0.671751 -0.200000 -0.671751
v -0.671751 0.000000 -0.671751
v -0.527792 0.000000 -0.789896
v -0.527792 0.200000 -0.789896
v -0.363549 -0.200000 -0.877686
v -0.363549 0.000000 -0.877686
v -0.185336 0.000000 -0.931746
v -0.185336 0.200000 -0.931746
vn 0.0980 -0.0000 -0.9952
vn 0.2903 -0.0000 -0.9569
vn 0.4714 -0.0000 -0.8819
vn 0.6344 -0.0000 -0.7730
vn 0.7730 -0.0000 -0.6344
vn 0.8819 -0.0000 -0.4714
vn 0.9569 -0.0000 -0.2903
vn 0.9952 -0.0000 -0.0980
vn 0.9952 -0.0000 0.0980
vn 0.9569 -0.0000 0.2903
vn 0.8819 -0.0000 0.4714
vn 0.7730 -0.0000 0.6344
vn 0.6344 -0.0000 0.7730
vn 0.4714 -0.0000 0.8819
vn 0.2903 -0.0000 0.9569
vn 0.0980 -0.0000 0.9952
vn -0.0980 -0.0000 0.9952
vn -0.2903 -0.0000 0.9569
vn -0.4714 -0.0000 0.8819
vn -0.6344 -0.0000 0.7730
vn -0.7730 -0.0000 0.6344
vn -0.8819 -0.0000 0.4714
vn -0.9569 -0.0000 0.2903
vn -0.9952 -0.0000 0.0980
vn -0.9952 -0.0000 -0.0980
vn -0.9569 -0.0000 -0.2903
vn -0.8819 -0.0000 -0.4714
vn -0.7730 -0.0000 -0.6344
vn -0.6344 -0.0000 -0.7730
vn -0.4714 -0.0000 -0.8819
vn -0.2903 -0.0000 -0.9569
vn -0.0980 -0.0000 -0.9952
vn 0.7158 -0.6983 -0.0000
vn -0.7021 0.6983 -0.1397
vn -0.7021 -0.6983 -0.1397
vn 0.6613 0.6983 0.2739
vn 0.6613 -0.6983 0.2739
vn -0.5952 0.6983 -0.3977
vn -0.5952 -0.6983 -0.3977
vn 0.5062 0.6983 0.5062
vn 0.5062 -0.6983 0.5062
vn -0.3977 0.6983 -0.5952
vn -0.3977 -0.6983 -0.5952
vn 0.2739 0.6983 0.6613
vn 0.2739 -0.6983 0.6613
vn -0.1397 0.6983 -0.7021
vn -0.1397 -0.6983 -0.7021
vn -0.0000 0.6983 0.7158
vn -0.0000 -0.6983 0.7158
vn 0.1431 0.6797 -0.7194
vn 0.1397 -0.6983 -0.7021
vn -0.2739 0.6983 0.6613
vn -0.2739 -0.6983 0.6613
vn 0.3977 0.6983 -0.5952
vn 0.3977 -0.6983 -0.5952
vn -0.5062 0.6983 0.5062
vn -0.5062 -0.6983 0.5062
vn 0.5952 0.6983 -0.3977
vn 0.5952 -0.6983 -0.3977
vn -0.6613 0.6983 0.2739
vn -0.6613 -0.6983 0.2739
vn 0.7021 0.6983 -0.1397
vn 0.7021 -0.6983 -0.1397
vn -0.7158 0.6983 -0.0000
vn -0.7158 -0.6983 -0.0000
vn 0.7021 0.6983 0.1397
vn 0.7021 -0.6983 0.1397
vn -0.6613 0.6983 -0.2739
vn -0.6613 -0.6983 -0.2739
vn 0.5952 0.6983 0.3977
vn 0.5952 -0.6983 0.3977
vn -0.5062 0.6983 -0.5062
vn -0.5062 -0.6983 -0.5062
vn 0.3977 0.6983 0.5952
vn 0.3977 -0.6983 0.5952
vn -0.2739 0.6983 -0.6613
vn -0.2739 -0.6983 -0.6613
vn 0.1397 0.6983 0.7021
vn 0.1397 -0.6983 0.7021
vn -0.0000 0.6983 -0.7158
vn -0.0000 -0.6983 -0.7158
vn -0.1431 0.6797 0.7194
vn -0.1397 -0.6983 0.7021
vn 0.2739 0.6983 -0.6613
vn 0.2739 -0.6983 -0.6613
vn -0.3977 0.6983 0.5952
vn -0.3977 -0.6983 0.5952
vn 0.5062 0.6983 -0.5062
vn 0.5062 -0.6983 -0.5062
vn -0.5952 0.6983 0.3977
vn -0.5952 -0.6983 0.3977
vn 0.6613 0.6983 -0.2739
vn 0.6613 -0.6983 -0.2739
vn -0.7021 0.6983 0.1397
vn -0.7021 -0.6983 0.1397
vn 0.7158 0.6983 -0.0000
vn 0.7194 -0.6797 0.1431
vn -0.7335 0.6797 -0.0000
vn -0.6777 -0.6797 -0.2807
vn 0.7194 0.6797 0.1431
vn 0.6099 -0.6797 0.4075
vn -0.6777 0.6797 -0.2807
vn -0.5187 -0.6797 -0.5187
vn 0.6099 0.6797 0.4075
vn 0.4075 -0.6797 0.6099
vn -0.5187 0.6797 -0.5187
vn -0.2807 -0.6797 -0.6777
vn 0.4075 0.6797 0.6099
vn 0.1431 -0.6797 0.7194
vn -0.2807 0.6797 -0.6777
vn -0.0000 -0.6797 -0.7335
vn 0.1431 0.6797 0.7194
vn -0.1431 -0.6797 0.7194
vn 0.2807 -0.6797 -0.6777
vn -0.4075 -0.6797 0.6099
vn 0.2807 0.6797 -0.6777
vn 0.5187 -0.6797 -0.5187
vn -0.4075 0.6797 0.6099
vn -0.6099 -0.6797 0.4075
vn 0.5187 0.6797 -0.5187
vn 0.6777 -0.6797 -0.2807
vn -0.6099 0.6797 0.4075
vn -0.7194 -0.6797 0.1431
vn 0.6777 0.6797 -0.2807
vn 0.7335 -0.6797 -0.0000
vn -0.7194 0.6797 0.1431
vn -0.7194 -0.6797 -0.1431
vn 0.7335 0.6797 -0.0000
vn 0.6777 -0.6797 0.2807
vn -0.7194 0.6797 -0.1431
vn -0.6099 -0.6797 -0.4075
vn 0.6777 0.6797 0.2807
vn 0.5187 -0.6797 0.5187
vn -0.6099 0.6797 -0.4075
vn -0.4075 -0.6797 -0.6099
vn 0.5187 0.6797 0.5187
vn 0.2807 -0.6797 0.6777
vn -0.4075 0.6797 -0.6099
vn -0.1431 -0.6797 -0.7194
vn 0.2807 0.6797 0.6777
vn -0.0000 -0.6797 0.7335
vn -0.1431 0.6797 -0.7194
vn 0.1431 -0.6797 -0.7194
vn -0.2807 -0.6797 0.6777
vn 0.4075 -0.6797 -0.6099
vn -0.2807 0.6797 0.6777
vn -0.5187 -0.6797 0.5187
vn 0.4075 0.6797 -0.6099
vn 0.6099 -0.6797 -0.4075
vn -0.5187 0.6797 0.5187
vn -0.6777 -0.6797 0.2807
vn 0.6099 0.6797 -0.4075
vn 0.7194 -0.6797 -0.1431
vn -0.6777 0.6797 0.2807
vn -0.7335 -0.6797 -0.0000
vn 0.7194 0.6797 -0.1431
vt 0.671630 0.172779
vt 0.640870 0.178809
vt 0.640870 0.015870
vt 0.984130 0.178809
vt 0.953370 0.172779
vt 0.984130 0.015870
vt 0.234130 0.524368
vt 0.203370 0.530398
vt 0.203370 0.367459
vt 0.296630 0.530398
vt 0.265870 0.524368
vt 0.296630 0.367459
vt 0.359130 0.524368
vt 0.328370 0.530398
vt 0.328370 0.367459
vt 0.921630 0.178809
vt 0.890870 0.172779
vt 0.921630 0.015870
vt 0.421630 0.524368
vt 0.390870 0.530398
vt 0.390870 0.367459
vt 0.171630 0.178809
vt 0.140870 0.172779
vt 0.171630 0.015870
vt 0.484130 0.524368
vt 0.453370 0.530398
vt 0.453370 0.367459
vt 0.046630 0.530398
vt 0.015870 0.524368
vt 0.046630 0.367459
vt 0.046630 0.172779
vt 0.015870 0.178809
vt 0.015870 0.015870
vt 0.421630 0.178809
vt 0.390870 0.172779
vt 0.421630 0.015870
vt 0.546630 0.524368
vt 0.515870 0.530398
vt 0.515870 0.367459
vt 0.921629 0.530398
vt 0.890870 0.524368
vt 0.921629 0.367459
vt 0.609130 0.524368
vt 0.578370 0.530398
vt 0.578370 0.367459
vt 0.234130 0.178809
vt 0.203370 0.172779
vt 0.234130 0.015870
vt 0.671630 0.524368
vt 0.640870 0.530398
vt 0.640870 0.367459
vt 0.109130 0.530398
vt 0.078370 0.524368
vt 0.109130 0.367459
vt 0.109130 0.172779
vt 0.078370 0.178809
vt 0.078370 0.015870
vt 0.484130 0.178809
vt 0.453370 0.172779
vt 0.484130 0.015870
vt 0.546630 0.172779
vt 0.515870 0.178809
vt 0.515870 0.015870
vt 0.734130 0.178809
vt 0.703370 0.172779
vt 0.734130 0.015870
vt 0.296630 0.172779
vt 0.265870 0.178809
vt 0.265870 0.015870
vt 0.734129 0.530398
vt 0.703370 0.524368
vt 0.734129 0.367459
vt 0.171630 0.524368
vt 0.140870 0.530398
vt 0.140870 0.367459
vt 0.984129 0.530398
vt 0.953370 0.524368
vt 0.984129 0.367459
vt 0.796630 0.172779
vt 0.765870 0.178809
vt 0.765870 0.015870
vt 0.796629 0.530398
vt 0.765870 0.524368
vt 0.796629 0.367459
vt 0.609130 0.172779
vt 0.578370 0.178809
vt 0.578370 0.015870
vt 0.859130 0.178809
vt 0.828370 0.172779
vt 0.859130 0.015870
vt 0.359130 0.172779
vt 0.328370 0.178809
vt 0.328370 0.015870
vt 0.859129 0.530398
vt 0.828370 0.524368
vt 0.859129 0.367459
vt 0.953370 0.335719
vt 0.265870 0.687307
vt 0.890870 0.335719
vt 0.140870 0.335719
vt 0.015870 0.687307
vt 0.390870 0.335719
vt 0.890870 0.687307
vt 0.203370 0.335719
vt 0.078370 0.687307
vt 0.453370 0.335719
vt 0.703370 0.335719
vt 0.703370 0.687307
vt 0.953370 0.687307
vt 0.765870 0.687307
vt 0.828370 0.335719
vt 0.828370 0.687307
vt 0.671630 0.335719
vt 0.234130 0.687307
vt 0.359130 0.687307
vt 0.421630 0.687307
vt 0.484130 0.687307
vt 0.046630 0.335719
vt 0.546630 0.687307
vt 0.609130 0.687307
vt 0.671630 0.687307
vt 0.109130 0.335719
vt 0.546630 0.335719
vt 0.296630 0.335719
vt 0.171630 0.687307
vt 0.796630 0.335719
vt 0.609130 0.335719
vt 0.359130 0.335719
s 0
usemtl マテリアル
f 2/1/1 3/2/1 1/3/1
f 3/4/2 6/5/2 5/6/2
f 6/7/3 7/8/3 5/9/3
f 7/10/4 10/11/4 9/12/4
f 10/13/5 11/14/5 9/15/5
f 11/16/6 14/17/6 13/18/6
f 14/19/7 15/20/7 13/21/7
f 15/22/8 18/23/8 17/24/8
f 18/25/9 19/26/9 17/27/9
f 19/28/10 22/29/10 21/30/10
f 22/31/11 23/32/11 21/33/11
f 23/34/12 26/35/12 25/36/12
f 26/37/13 27/38/13 25/39/13
f 27/40/14 30/41/14 29/42/14
f 30/43/15 31/44/15 29/45/15
f 31/46/16 34/47/16 33/48/16
f 34/49/17 35/50/17 33/51/17
f 35/52/18 38/53/18 37/54/18
f 38/55/19 39/56/19 37/57/19
f 39/58/20 42/59/20 41/60/20
f 42/61/21 43/62/21 41/63/21
f 43/64/22 46/65/22 45/66/22
f 46/67/23 47/68/23 45/69/23
f 47/70/24 50/71/24 49/72/24
f 50/73/25 51/74/25 49/75/25
f 51/76/26 54/77/26 53/78/26
f 54/79/27 55/80/27 53/81/27
f 55/82/28 58/83/28 57/84/28
f 58/85/29 59/86/29 57/87/29
f 59/88/30 62/89/30 61/90/30
f 62/91/31 63/92/31 61/93/31
f 63/94/32 2/95/32 1/96/32
f 67/2/17 66/1/17 65/3/17
f 67/4/18 70/5/18 68/97/18
f 71/8/19 70/7/19 69/9/19
f 71/10/20 74/11/20 72/98/20
f 75/14/21 74/13/21 73/15/21
f 75/16/22 78/17/22 76/99/22
f 79/20/23 78/19/23 77/21/23
f 79/22/24 82/23/24 80/100/24
f 83/26/25 82/25/25 81/27/25
f 83/28/26 86/29/26 84/101/26
f 87/32/27 86/31/27 85/33/27
f 87/34/28 90/35/28 88/102/28
f 91/38/29 90/37/29 89/39/29
f 91/40/30 94/41/30 92/103/30
f 95/44/31 94/43/31 93/45/31
f 95/46/32 98/47/32 96/104/32
f 99/50/1 98/49/1 97/51/1
f 99/52/2 102/53/2 100/105/2
f 103/56/3 102/55/3 101/57/3
f 103/58/4 106/59/4 104/106/4
f 107/62/5 106/61/5 105/63/5
f 107/64/6 110/65/6 108/107/6
f 111/68/7 110/67/7 109/69/7
f 111/70/8 114/71/8 112/108/8
f 115/74/9 114/73/9 113/75/9
f 115/76/10 118/77/10 116/109/10
f 119/80/11 118/79/11 117/81/11
f 119/82/12 122/83/12 120/110/12
f 123/86/13 122/85/13 121/87/13
f 123/88/14 126/89/14 124/111/14
f 127/92/15 126/91/15 125/93/15
f 127/94/16 66/95/16 128/112/16
f 3/2/33 65/3/33 1/3/33
f 2/1/34 68/113/34 4/113/34
f 5/6/35 67/4/35 3/4/35
f 4/97/36 70/5/36 6/5/36
f 7/8/37 69/9/37 5/9/37
f 6/7/38 72/114/38 8/114/38
f 9/12/39 71/10/39 7/10/39
f 8/98/40 74/11/40 10/11/40
f 11/14/41 73/15/41 9/15/41
f 10/13/42 76/115/42 12/115/42
f 13/18/43 75/16/43 11/16/43
f 12/99/44 78/17/44 14/17/44
f 15/20/45 77/21/45 13/21/45
f 14/19/46 80/116/46 16/116/46
f 17/24/47 79/22/47 15/22/47
f 16/100/48 82/23/48 18/23/48
f 19/26/49 81/27/49 17/27/49
f 20/117/50 82/25/50 84/117/50
f 21/30/51 83/28/51 19/28/51
f 20/101/52 86/29/52 22/29/52
f 23/32/53 85/33/53 21/33/53
f 22/31/54 88/118/54 24/118/54
f 25/36/55 87/34/55 23/34/55
f 24/102/56 90/35/56 26/35/56
f 27/38/57 89/39/57 25/39/57
f 26/37/58 92/119/58 28/119/58
f 29/42/59 91/40/59 27/40/59
f 28/103/60 94/41/60 30/41/60
f 31/44/61 93/45/61 29/45/61
f 30/43/62 96/120/62 32/120/62
f 33/48/63 95/46/63 31/46/63
f 32/104/64 98/47/64 34/47/64
f 35/50/65 97/51/65 33/51/65
f 34/49/66 100/121/66 36/121/66
f 37/54/67 99/52/67 35/52/67
f 36/105/68 102/53/68 38/53/68
f 39/56/69 101/57/69 37/57/69
f 38/55/70 104/122/70 40/122/70
f 41/60/71 103/58/71 39/58/71
f 40/106/72 106/59/72 42/59/72
f 43/62/73 105/63/73 41/63/73
f 42/61/74 108/123/74 44/123/74
f 45/66/75 107/64/75 43/64/75
f 44/107/76 110/65/76 46/65/76
f 47/68/77 109/69/77 45/69/77
f 46/67/78 112/124/78 48/124/78
f 49/72/79 111/70/79 47/70/79
f 48/108/80 114/71/80 50/71/80
f 51/74/81 113/75/81 49/75/81
f 52/125/82 114/73/82 116/125/82
f 53/78/83 115/76/83 51/76/83
f 52/109/84 118/77/84 54/77/84
f 55/80/85 117/81/85 53/81/85
f 54/79/86 120/126/86 56/126/86
f 57/84/87 119/82/87 55/82/87
f 56/110/88 122/83/88 58/83/88
f 59/86/89 121/87/89 57/87/89
f 58/85/90 124/127/90 60/127/90
f 61/90/91 123/88/91 59/88/91
f 60/111/92 126/89/92 62/89/92
f 63/92/93 125/93/93 61/93/93
f 62/91/94 128/128/94 64/128/94
f 1/96/95 127/94/95 63/94/95
f 64/112/96 66/95/96 2/95/96
f 2/1/1 4/113/1 3/2/1
f 3/4/2 4/97/2 6/5/2
f 6/7/3 8/114/3 7/8/3
f 7/10/4 8/98/4 10/11/4
f 10/13/5 12/115/5 11/14/5
f 11/16/6 12/99/6 14/17/6
f 14/19/7 16/116/7 15/20/7
f 15/22/8 16/100/8 18/23/8
f 18/25/9 20/117/9 19/26/9
f 19/28/10 20/101/10 22/29/10
f 22/31/11 24/118/11 23/32/11
f 23/34/12 24/102/12 26/35/12
f 26/37/13 28/119/13 27/38/13
f 27/40/14 28/103/14 30/41/14
f 30/43/15 32/120/15 31/44/15
f 31/46/16 32/104/16 34/47/16
f 34/49/17 36/121/17 35/50/17
f 35/52/18 36/105/18 38/53/18
f 38/55/19 40/122/19 39/56/19
f 39/58/20 40/106/20 42/59/20
f 42/61/21 44/123/21 43/62/21
f 43/64/22 44/107/22 46/65/22
f 46/67/23 48/124/23 47/68/23
f 47/70/24 48/108/24 50/71/24
f 50/73/25 52/125/25 51/74/25
f 51/76/26 52/109/26 54/77/26
f 54/79/27 56/126/27 55/80/27
f 55/82/28 56/110/28 58/83/28
f 58/85/29 60/127/29 59/86/29
f 59/88/30 60/111/30 62/89/30
f 62/91/31 64/128/31 63/92/31
f 63/94/32 64/112/32 2/95/32
f 67/2/17 68/113/17 66/1/17
f 67/4/18 69/6/18 70/5/18
f 71/8/19 72/114/19 70/7/19
f 71/10/20 73/12/20 74/11/20
f 75/14/21 76/115/21 74/13/21
f 75/16/22 77/18/22 78/17/22
f 79/20/23 80/116/23 78/19/23
f 79/22/24 81/24/24 82/23/24
f 83/26/25 84/117/25 82/25/25
f 83/28/26 85/30/26 86/29/26
f 87/32/27 88/118/27 86/31/27
f 87/34/28 89/36/28 90/35/28
f 91/38/29 92/119/29 90/37/29
f 91/40/30 93/42/30 94/41/30
f 95/44/31 96/120/31 94/43/31
f 95/46/32 97/48/32 98/47/32
f 99/50/1 100/121/1 98/49/1
f 99/52/2 101/54/2 102/53/2
f 103/56/3 104/122/3 102/55/3
f 103/58/4 105/60/4 106/59/4
f 107/62/5 108/123/5 106/61/5
f 107/64/6 109/66/6 110/65/6
f 111/68/7 112/124/7 110/67/7
f 111/70/8 113/72/8 114/71/8
f 115/74/9 116/125/9 114/73/9
f 115/76/10 117/78/10 118/77/10
f 119/80/11 120/126/11 118/79/11
f 119/82/12 121/84/12 122/83/12
f 123/86/13 124/127/13 122/85/13
f 123/88/14 125/90/14 126/89/14
f 127/92/15 128/128/15 126/91/15
f 127/94/16 65/96/16 66/95/16
f 3/2/97 67/2/97 65/3/97
f 2/1/98 66/1/98 68/113/98
f 5/6/99 69/6/99 67/4/99
f 4/97/100 68/97/100 70/5/100
f 7/8/101 71/8/101 69/9/101
f 6/7/102 70/7/102 72/114/102
f 9/12/103 73/12/103 71/10/103
f 8/98/104 72/98/104 74/11/104
f 11/14/105 75/14/105 73/15/105
f 10/13/106 74/13/106 76/115/106
f 13/18/107 77/18/107 75/16/107
f 12/99/108 76/99/108 78/17/108
f 15/20/109 79/20/109 77/21/109
f 14/19/110 78/19/110 80/116/110
f 17/24/111 81/24/111 79/22/111
f 16/100/112 80/100/112 82/23/112
f 19/26/113 83/26/113 81/27/113
f 20/117/80 18/25/80 82/25/80
f 21/30/114 85/30/114 83/28/114
f 20/101/82 84/101/82 86/29/82
f 23/32/115 87/32/115 85/33/115
f 22/31/116 86/31/116 88/118/116
f 25/36/117 89/36/117 87/34/117
f 24/102/118 88/102/118 90/35/118
f 27/38/119 91/38/119 89/39/119
f 26/37/120 90/37/120 92/119/120
f 29/42/121 93/42/121 91/40/121
f 28/103/122 92/103/122 94/41/122
f 31/44/123 95/44/123 93/45/123
f 30/43/124 94/43/124 96/120/124
f 33/48/125 97/48/125 95/46/125
f 32/104/126 96/104/126 98/47/126
f 35/50/127 99/50/127 97/51/127
f 34/49/128 98/49/128 100/121/128
f 37/54/129 101/54/129 99/52/129
f 36/105/130 100/105/130 102/53/130
f 39/56/131 103/56/131 101/57/131
f 38/55/132 102/55/132 104/122/132
f 41/60/133 105/60/133 103/58/133
f 40/106/134 104/106/134 106/59/134
f 43/62/135 107/62/135 105/63/135
f 42/61/136 106/61/136 108/123/136
f 45/66/137 109/66/137 107/64/137
f 44/107/138 108/107/138 110/65/138
f 47/68/139 111/68/139 109/69/139
f 46/67/140 110/67/140 112/124/140
f 49/72/141 113/72/141 111/70/141
f 48/108/142 112/108/142 114/71/142
f 51/74/143 115/74/143 113/75/143
f 52/125/48 50/73/48 114/73/48
f 53/78/144 117/78/144 115/76/144
f 52/109/50 116/109/50 118/77/50
f 55/80/145 119/80/145 117/81/145
f 54/79/146 118/79/146 120/126/146
f 57/84/147 121/84/147 119/82/147
f 56/110/148 120/110/148 122/83/148
f 59/86/149 123/86/149 121/87/149
f 58/85/150 122/85/150 124/127/150
f 61/90/151 125/90/151 123/88/151
f 60/111/152 124/111/152 126/89/152
f 63/92/153 127/92/153 125/93/153
f 62/91/154 126/91/154 128/128/154
f 1/96/155 65/96/155 127/94/155
f 64/112/156 128/112/156 66/95/156
