# Blender 4.4.1
# www.blender.org
mtllib skydome.mtl
o 球
v 0.000000 20.786736 -13.889264
v 0.000000 13.889248 -20.786753
v 0.000000 4.877261 -24.519638
v 0.000000 -0.000002 -25.000011
v 0.000000 -4.877264 -24.519638
v 0.000000 -13.889252 -20.786749
v 0.951513 24.519638 -4.783552
v 1.866450 23.096987 -9.383265
v 2.709663 20.786736 -13.622390
v 3.448751 17.677673 -17.338001
v 4.055301 13.889248 -20.387341
v 4.506001 9.567085 -22.653189
v 4.783551 4.877261 -24.048500
v 4.877264 -0.000002 -24.519638
v 4.783551 -4.877264 -24.048500
v 4.506001 -9.567089 -22.653189
v 4.055301 -13.889252 -20.387337
v 3.448751 -17.677677 -17.337997
v 2.709663 -20.786739 -13.622386
v 1.866450 -23.096987 -9.383261
v 0.951513 -24.519638 -4.783548
v 1.866450 24.519638 -4.506002
v 3.661163 23.096987 -8.838840
v 5.315189 20.786736 -12.832002
v 6.764951 17.677673 -16.332039
v 7.954752 13.889248 -19.204451
v 8.838840 9.567085 -21.338837
v 9.383265 4.877261 -22.653189
v 9.567089 -0.000002 -23.097000
v 9.383265 -4.877264 -22.653189
v 8.838840 -9.567089 -21.338837
v 7.954752 -13.889252 -19.204447
v 6.764951 -17.677677 -16.332035
v 5.315189 -20.786739 -12.831998
v 3.661163 -23.096987 -8.838836
v 1.866450 -24.519638 -4.505998
v 2.709663 24.519638 -4.055289
v 5.315189 23.096987 -7.954752
v 7.716465 20.786737 -11.548502
v 9.821190 17.677673 -14.698451
v 11.548502 13.889249 -17.283552
v 12.832003 9.567085 -19.204449
v 13.622392 4.877261 -20.387339
v 13.889265 -0.000002 -20.786751
v 13.622392 -4.877264 -20.387339
v 12.832003 -9.567089 -19.204449
v 11.548502 -13.889251 -17.283548
v 9.821190 -17.677677 -14.698449
v 7.716465 -20.786737 -11.548498
v 5.315189 -23.096987 -7.954748
v 2.709663 -24.519638 -4.055285
v 3.448751 24.519638 -3.448739
v 6.764951 23.096987 -6.764952
v 9.821190 20.786737 -9.821190
v 12.500015 17.677675 -12.500001
v 14.698454 13.889249 -14.698451
v 16.332054 9.567086 -16.332037
v 17.338017 4.877261 -17.337999
v 17.677679 -0.000001 -17.677675
v 17.338017 -4.877264 -17.337999
v 16.332054 -9.567088 -16.332037
v 14.698454 -13.889251 -14.698449
v 12.500015 -17.677675 -12.499999
v 9.821190 -20.786737 -9.821186
v 6.764951 -23.096987 -6.764948
v 3.448751 -24.519638 -3.448735
v 4.055288 24.519638 -2.709664
v 7.954752 23.096987 -5.315189
v 11.548502 20.786737 -7.716464
v 14.698454 17.677675 -9.821189
v 17.283554 13.889249 -11.548501
v 19.204454 9.567086 -12.832001
v 20.387342 4.877262 -13.622375
v 20.786755 -0.000001 -13.889250
v 20.387342 -4.877264 -13.622375
v 19.204454 -9.567088 -12.831999
v 17.283554 -13.889251 -11.548499
v 14.698454 -17.677675 -9.821187
v 11.548502 -20.786737 -7.716461
v 7.954752 -23.096987 -5.315186
v 4.055288 -24.519638 -2.709661
v 0.000000 25.000000 -0.000002
v 4.506001 24.519638 -1.866452
v 8.838840 23.096987 -3.661164
v 12.832003 20.786737 -5.315189
v 16.332054 17.677675 -6.764951
v 19.204454 13.889249 -7.954739
v 21.338856 9.567086 -8.838839
v 22.653204 4.877262 -9.383263
v 23.097004 -0.000001 -9.567087
v 22.653204 -4.877263 -9.383263
v 21.338856 -9.567088 -8.838837
v 19.204454 -13.889251 -7.954737
v 16.332054 -17.677675 -6.764948
v 12.832003 -20.786737 -5.315186
v 8.838840 -23.096987 -3.661161
v 4.506001 -24.519638 -1.866448
v 4.783551 24.519638 -0.951502
v 9.383265 23.096987 -1.866452
v 13.622392 20.786737 -2.709664
v 17.338017 17.677675 -3.448739
v 20.387342 13.889250 -4.055288
v 22.653204 9.567087 -4.506001
v 24.048506 4.877262 -4.783538
v 24.519644 -0.000000 -4.877250
v 24.048506 -4.877263 -4.783537
v 22.653204 -9.567087 -4.505999
v 20.387342 -13.889250 -4.055286
v 17.338017 -17.677675 -3.448736
v 13.622392 -20.786737 -2.709661
v 9.383265 -23.096987 -1.866448
v 4.783551 -24.519638 -0.951498
v 4.877264 24.519638 -0.000002
v 9.567089 23.096987 -0.000002
v 13.889265 20.786737 -0.000002
v 17.677679 17.677675 -0.000001
v 20.786755 13.889250 -0.000001
v 23.097004 9.567087 -0.000001
v 24.519644 4.877263 -0.000000
v 25.000006 0.000000 0.000000
v 24.519644 -4.877263 0.000000
v 23.097004 -9.567087 0.000001
v 20.786755 -13.889250 0.000001
v 17.677679 -17.677675 0.000001
v 13.889265 -20.786737 0.000002
v 9.567089 -23.096987 0.000002
v 4.877264 -24.519638 0.000002
v 4.783551 24.519638 0.951498
v 9.383265 23.096987 1.866448
v 13.622392 20.786737 2.709661
v 17.338005 17.677675 3.448736
v 20.387342 13.889250 4.055299
v 22.653204 9.567087 4.505999
v 24.048506 4.877263 4.783549
v 24.519644 0.000000 4.877263
v 24.048506 -4.877262 4.783550
v 22.653204 -9.567087 4.506001
v 20.387342 -13.889250 4.055301
v 17.338005 -17.677675 3.448739
v 13.622392 -20.786737 2.709664
v 9.383265 -23.096987 1.866452
v 4.783551 -24.519638 0.951502
v 4.506001 24.519638 1.866448
v 8.838840 23.096987 3.661161
v 12.832003 20.786737 5.315186
v 16.332054 17.677675 6.764948
v 19.204454 13.889251 7.954749
v 21.338856 9.567088 8.838837
v 22.653204 4.877263 9.383263
v 23.096992 0.000001 9.567087
v 22.653204 -4.877262 9.383263
v 21.338856 -9.567086 8.838839
v 19.204454 -13.889249 7.954751
v 16.332054 -17.677675 6.764951
v 12.832003 -20.786737 5.315189
v 8.838840 -23.096987 3.661164
v 4.506001 -24.519638 1.866452
v 4.055288 24.519638 2.709661
v 7.954752 23.096987 5.315186
v 11.548502 20.786737 7.716461
v 14.698454 17.677675 9.821187
v 17.283554 13.889251 11.548499
v 19.204454 9.567088 12.831999
v 20.387342 4.877264 13.622375
v 20.786741 0.000001 13.889262
v 20.387342 -4.877262 13.622375
v 19.204454 -9.567086 12.832001
v 17.283554 -13.889249 11.548501
v 14.698454 -17.677675 9.821189
v 11.548502 -20.786737 7.716464
v 7.954752 -23.096987 5.315189
v 4.055288 -24.519638 2.709664
v 3.448738 24.519638 3.448735
v 6.764951 23.096987 6.764948
v 9.821190 20.786737 9.821186
v 12.500003 17.677675 12.499999
v 14.698454 13.889251 14.698449
v 16.332054 9.567088 16.332037
v 17.338005 4.877264 17.337999
v 17.677666 0.000001 17.677675
v 17.338005 -4.877261 17.337999
v 16.332054 -9.567086 16.332037
v 14.698454 -13.889249 14.698451
v 12.500003 -17.677675 12.500001
v 9.821190 -20.786737 9.821190
v 6.764951 -23.096987 6.764952
v 3.448738 -24.519638 3.448739
v 2.709663 24.519638 4.055285
v 5.315189 23.096987 7.954736
v 7.716465 20.786737 11.548498
v 9.821190 17.677677 14.698449
v 11.548502 13.889251 17.283548
v 12.832003 9.567089 19.204449
v 13.622378 4.877264 20.387339
v 13.889254 0.000002 20.786737
v 13.622378 -4.877261 20.387339
v 12.832003 -9.567085 19.204449
v 11.548502 -13.889249 17.283552
v 9.821190 -17.677673 14.698451
v 7.716465 -20.786737 11.548502
v 5.315189 -23.096987 7.954740
v 2.709663 -24.519638 4.055289
v 1.866450 24.519638 4.505998
v 3.661163 23.096987 8.838836
v 5.315189 20.786739 12.831998
v 6.764951 17.677677 16.332035
v 7.954740 13.889252 19.204447
v 8.838840 9.567089 21.338837
v 9.383265 4.877264 22.653189
v 9.567078 0.000002 23.096987
v 9.383265 -4.877261 22.653189
v 8.838840 -9.567085 21.338837
v 7.954740 -13.889248 19.204451
v 6.764951 -17.677673 16.332039
v 5.315189 -20.786736 12.832002
v 3.661163 -23.096987 8.838840
v 1.866450 -24.519638 4.506002
v 0.951500 24.519638 4.783535
v 1.866450 23.096987 9.383261
v 2.709663 20.786739 13.622373
v 3.448738 17.677677 17.337997
v 4.055288 13.889252 20.387323
v 4.506001 9.567089 22.653189
v 4.783539 4.877264 24.048500
v 4.877251 0.000002 24.519625
v 4.783539 -4.877261 24.048500
v 4.506001 -9.567085 22.653189
v 4.055288 -13.889248 20.387327
v 3.448738 -17.677673 17.338001
v 2.709663 -20.786736 13.622376
v 1.866450 -23.096987 9.383265
v 0.951500 -24.519638 4.783539
v 0.000000 24.519638 4.877261
v 0.000000 23.096987 9.567085
v 0.000000 20.786739 13.889248
v 0.000000 17.677677 17.677673
v 0.000000 13.889252 20.786736
v 0.000000 9.567089 23.096987
v 0.000000 4.877264 24.519638
v -0.000013 0.000002 24.999989
v 0.000000 -4.877261 24.519638
v 0.000000 -9.567085 23.096987
v 0.000000 -13.889248 20.786739
v 0.000000 -17.677673 17.677677
v 0.000000 -20.786736 13.889252
v 0.000000 -23.096987 9.567089
v 0.000000 -24.519638 4.877264
v -0.951500 24.519638 4.783535
v -1.866450 23.096987 9.383261
v -2.709663 20.786739 13.622373
v -3.448751 17.677677 17.337997
v -4.055301 13.889252 20.387323
v -4.506001 9.567089 22.653189
v -4.783551 4.877264 24.048500
v -4.877264 0.000002 24.519625
v -4.783551 -4.877261 24.048500
v -4.506001 -9.567085 22.653189
v -4.055301 -13.889248 20.387327
v -3.448751 -17.677673 17.338001
v -2.709663 -20.786736 13.622376
v -1.866450 -23.096987 9.383265
v -0.951500 -24.519638 4.783539
v -1.866450 24.519638 4.505998
v -3.661163 23.096987 8.838836
v -5.315189 20.786739 12.831998
v -6.764951 17.677677 16.332035
v -7.954752 13.889252 19.204435
v -8.838840 9.567089 21.338837
v -9.383265 4.877264 22.653189
v -9.567089 0.000002 23.096975
v -9.383265 -4.877261 22.653189
v -8.838840 -9.567085 21.338837
v -7.954752 -13.889248 19.204439
v -6.764951 -17.677673 16.332039
v -5.315189 -20.786736 12.832002
v -3.661163 -23.096987 8.838840
v -1.866450 -24.519638 4.506002
v -2.709663 24.519638 4.055285
v -5.315189 23.096987 7.954736
v -7.716465 20.786737 11.548486
v -9.821190 17.677677 14.698449
v -11.548502 13.889251 17.283537
v -12.832003 9.567089 19.204449
v -13.622392 4.877264 20.387325
v -13.889265 0.000002 20.786724
v -13.622392 -4.877261 20.387325
v -12.832003 -9.567085 19.204449
v -11.548502 -13.889249 17.283541
v -9.821190 -17.677673 14.698451
v -7.716465 -20.786737 11.548490
v -5.315189 -23.096987 7.954740
v -2.709663 -24.519638 4.055289
v -3.448738 24.519638 3.448735
v -6.764951 23.096987 6.764948
v -9.821190 20.786737 9.821186
v -12.500003 17.677675 12.499999
v -14.698454 13.889251 14.698436
v -16.332041 9.567088 16.332037
v -17.338005 4.877264 17.337999
v -17.677679 0.000001 17.677650
v -17.338005 -4.877261 17.337999
v -16.332041 -9.567086 16.332037
v -14.698454 -13.889249 14.698438
v -12.500003 -17.677675 12.500001
v -9.821190 -20.786737 9.821190
v -6.764951 -23.096987 6.764952
v -3.448738 -24.519638 3.448739
v 0.000000 -25.000000 0.000002
v -4.055288 24.519638 2.709661
v -7.954740 23.096987 5.315186
v -11.548502 20.786737 7.716449
v -14.698454 17.677675 9.821187
v -17.283554 13.889251 11.548487
v -19.204454 9.567088 12.831999
v -20.387342 4.877264 13.622375
v -20.786741 0.000001 13.889238
v -20.387342 -4.877262 13.622375
v -19.204454 -9.567086 12.832001
v -17.283554 -13.889249 11.548489
v -14.698454 -17.677675 9.821189
v -11.548502 -20.786737 7.716452
v -7.954740 -23.096987 5.315189
v -4.055288 -24.519638 2.709664
v -4.506001 24.519638 1.866448
v -8.838840 23.096987 3.661161
v -12.832003 20.786737 5.315186
v -16.332041 17.677675 6.764948
v -19.204454 13.889251 7.954737
v -21.338842 9.567088 8.838837
v -22.653193 4.877263 9.383250
v -23.096992 0.000001 9.567075
v -22.653193 -4.877262 9.383250
v -21.338842 -9.567086 8.838839
v -19.204454 -13.889249 7.954739
v -16.332041 -17.677675 6.764951
v -12.832003 -20.786737 5.315189
v -8.838840 -23.096987 3.661164
v -4.506001 -24.519638 1.866452
v -4.783539 24.519638 0.951498
v -9.383265 23.096987 1.866448
v -13.622378 20.786737 2.709648
v -17.338005 17.677675 3.448736
v -20.387329 13.889250 4.055286
v -22.653193 9.567087 4.505999
v -24.048506 4.877263 4.783537
v -24.519630 0.000000 4.877250
v -24.048506 -4.877262 4.783538
v -22.653193 -9.567087 4.506001
v -20.387329 -13.889250 4.055288
v -17.338005 -17.677675 3.448739
v -13.622378 -20.786737 2.709652
v -9.383265 -23.096987 1.866452
v -4.783539 -24.519638 0.951502
v -4.877264 24.519638 -0.000002
v -9.567089 23.096987 -0.000002
v -13.889254 20.786737 -0.000002
v -17.677679 17.677675 -0.000001
v -20.786741 13.889250 -0.000001
v -23.096992 9.567087 -0.000001
v -24.519644 4.877263 -0.000013
v -24.999994 -0.000000 -0.000012
v -24.519644 -4.877263 -0.000012
v -23.096992 -9.567087 0.000001
v -20.786741 -13.889250 0.000001
v -17.677679 -17.677675 0.000001
v -13.889254 -20.786737 0.000002
v -9.567089 -23.096987 0.000002
v -4.877264 -24.519638 0.000002
v -4.783539 24.519638 -0.951502
v -9.383265 23.096987 -1.866452
v -13.622378 20.786737 -2.709664
v -17.338005 17.677675 -3.448739
v -20.387329 13.889250 -4.055301
v -22.653193 9.567087 -4.506001
v -24.048506 4.877262 -4.783550
v -24.519630 -0.000000 -4.877263
v -24.048506 -4.877263 -4.783549
v -22.653193 -9.567087 -4.505999
v -20.387329 -13.889250 -4.055299
v -17.338005 -17.677675 -3.448736
v -13.622378 -20.786737 -2.709661
v -9.383265 -23.096987 -1.866448
v -4.783539 -24.519638 -0.951498
v -4.506001 24.519638 -1.866452
v -8.838840 23.096987 -3.661164
v -12.831990 20.786737 -5.315189
v -16.332041 17.677675 -6.764951
v -19.204443 13.889249 -7.954739
v -21.338842 9.567086 -8.838839
v -22.653193 4.877262 -9.383263
v -23.096981 -0.000001 -9.567087
v -22.653193 -4.877263 -9.383263
v -21.338842 -9.567088 -8.838837
v -19.204443 -13.889251 -7.954737
v -16.332041 -17.677675 -6.764948
v -12.831990 -20.786737 -5.315186
v -8.838840 -23.096987 -3.661161
v -4.506001 -24.519638 -1.866448
v -4.055288 24.519638 -2.709664
v -7.954740 23.096987 -5.315189
v -11.548491 20.786737 -7.716464
v -14.698454 17.677675 -9.821189
v -17.283543 13.889249 -11.548501
v -19.204454 9.567086 -12.832001
v -20.387329 4.877262 -13.622375
v -20.786730 -0.000001 -13.889250
v -20.387329 -4.877264 -13.622375
v -19.204454 -9.567088 -12.831999
v -17.283543 -13.889251 -11.548499
v -14.698454 -17.677675 -9.821187
v -11.548491 -20.786737 -7.716461
v -7.954740 -23.096987 -5.315186
v -4.055288 -24.519638 -2.709661
v -3.448738 24.519638 -3.448739
v -6.764951 23.096987 -6.764952
v -9.821177 20.786737 -9.821190
v -12.500003 17.677675 -12.500001
v -14.698441 13.889249 -14.698451
v -16.332041 9.567086 -16.332037
v -17.338005 4.877261 -17.337999
v -17.677654 -0.000001 -17.677662
v -17.338005 -4.877264 -17.337999
v -16.332041 -9.567088 -16.332037
v -14.698441 -13.889251 -14.698449
v -12.500003 -17.677675 -12.499999
v -9.821177 -20.786737 -9.821186
v -6.764951 -23.096987 -6.764948
v -3.448738 -24.519638 -3.448735
v -2.709663 24.519638 -4.055289
v -5.315189 23.096987 -7.954740
v -7.716452 20.786737 -11.548490
v -9.821190 17.677673 -14.698451
v -11.548491 13.889249 -17.283541
v -12.832003 9.567085 -19.204437
v -13.622378 4.877261 -20.387325
v -13.889241 -0.000002 -20.786724
v -13.622378 -4.877264 -20.387325
v -12.832003 -9.567089 -19.204437
v -11.548491 -13.889251 -17.283537
v -9.821190 -17.677677 -14.698449
v -7.716452 -20.786737 -11.548486
v -5.315189 -23.096987 -7.954736
v -2.709663 -24.519638 -4.055285
v -1.866450 24.519638 -4.506002
v -3.661163 23.096987 -8.838840
v -5.315176 20.786736 -12.831989
v -6.764951 17.677673 -16.332039
v -7.954740 13.889248 -19.204439
v -8.838840 9.567085 -21.338837
v -9.383252 4.877261 -22.653189
v -9.567078 -0.000002 -23.096975
v -9.383252 -4.877264 -22.653189
v -8.838840 -9.567089 -21.338837
v -7.954740 -13.889252 -19.204435
v -6.764951 -17.677677 -16.332035
v -5.315176 -20.786739 -12.831985
v -3.661163 -23.096987 -8.838836
v -1.866450 -24.519638 -4.505998
v -0.951500 24.519638 -4.783539
v -1.866450 23.096987 -9.383252
v -2.709651 20.786736 -13.622365
v -3.448738 17.677673 -17.338001
v -4.055288 13.889248 -20.387327
v -4.506001 9.567085 -22.653189
v -4.783539 4.877261 -24.048489
v -4.877239 -0.000002 -24.519611
v -4.783539 -4.877264 -24.048489
v -4.506001 -9.567089 -22.653189
v -4.055288 -13.889252 -20.387323
v -3.448738 -17.677677 -17.337997
v -2.709651 -20.786739 -13.622361
v -1.866450 -23.096987 -9.383248
v -0.951500 -24.519638 -4.783535
v 0.000000 24.519638 -4.877252
v 0.000000 23.096987 -9.567089
v 0.000000 17.677673 -17.677677
v 0.000000 9.567085 -23.096987
v 0.000000 -9.567089 -23.096987
v 0.000000 -17.677677 -17.677673
v 0.000000 -20.786739 -13.889236
v 0.000000 -23.096987 -9.567085
v 0.000000 -24.519638 -4.877248
vn -0.0000 -0.8286 -0.5598
vn 0.0757 -0.9217 -0.3804
vn -0.0000 -0.9217 -0.3879
vn -0.0000 0.1939 -0.9810
vn 0.1804 0.3805 -0.9070
vn 0.1914 0.1939 -0.9622
vn 0.0392 -0.9796 -0.1971
vn -0.0000 -0.9796 -0.2010
vn 0.1951 -0.0000 -0.9808
vn -0.0000 -0.0000 -1.0000
vn -0.0000 0.9796 -0.2010
vn -0.0000 1.0000 -0.0000
vn 0.0392 0.9796 -0.1971
vn -0.0000 -1.0000 -0.0000
vn -0.0000 -0.1939 -0.9810
vn 0.1914 -0.1939 -0.9622
vn -0.0000 0.9217 -0.3879
vn 0.0757 0.9217 -0.3804
vn 0.1804 -0.3805 -0.9070
vn -0.0000 -0.3805 -0.9248
vn -0.0000 0.8286 -0.5598
vn 0.1092 0.8286 -0.5490
vn 0.1626 -0.5528 -0.8173
vn -0.0000 -0.5528 -0.8333
vn -0.0000 0.7041 -0.7101
vn 0.1385 0.7041 -0.6965
vn 0.1385 -0.7041 -0.6965
vn -0.0000 -0.7041 -0.7101
vn 0.1626 0.5528 -0.8173
vn -0.0000 0.5528 -0.8333
vn 0.1092 -0.8286 -0.5490
vn -0.0000 0.3805 -0.9248
vn 0.3189 0.5528 -0.7699
vn 0.2718 -0.7041 -0.6561
vn 0.2142 -0.8286 -0.5172
vn 0.3539 0.3805 -0.8544
vn 0.1484 -0.9217 -0.3584
vn 0.3754 0.1939 -0.9063
vn 0.0769 -0.9796 -0.1857
vn 0.3827 -0.0000 -0.9239
vn 0.0769 0.9796 -0.1857
vn 0.3754 -0.1939 -0.9063
vn 0.1484 0.9217 -0.3584
vn 0.3539 -0.3805 -0.8544
vn 0.2142 0.8286 -0.5172
vn 0.3189 -0.5528 -0.7699
vn 0.2718 0.7041 -0.6561
vn 0.5450 -0.1939 -0.8157
vn 0.1117 0.9796 -0.1671
vn 0.2155 0.9217 -0.3225
vn 0.5138 -0.3805 -0.7689
vn 0.3110 0.8286 -0.4654
vn 0.4630 -0.5528 -0.6929
vn 0.3945 0.7041 -0.5905
vn 0.3945 -0.7041 -0.5905
vn 0.4630 0.5528 -0.6929
vn 0.3110 -0.8286 -0.4654
vn 0.5138 0.3805 -0.7689
vn 0.2155 -0.9217 -0.3225
vn 0.5450 0.1939 -0.8157
vn 0.1117 -0.9796 -0.1671
vn 0.5556 -0.0000 -0.8315
vn 0.5021 -0.7041 -0.5021
vn 0.3958 -0.8286 -0.3958
vn 0.6539 0.3805 -0.6539
vn 0.2743 -0.9217 -0.2743
vn 0.6937 0.1939 -0.6937
vn 0.1421 -0.9796 -0.1421
vn 0.7071 -0.0000 -0.7071
vn 0.1421 0.9796 -0.1421
vn 0.6937 -0.1939 -0.6937
vn 0.2743 0.9217 -0.2743
vn 0.6539 -0.3805 -0.6539
vn 0.3958 0.8286 -0.3958
vn 0.5893 -0.5528 -0.5893
vn 0.5021 0.7041 -0.5021
vn 0.5893 0.5528 -0.5893
vn 0.7689 -0.3805 -0.5138
vn 0.3225 0.9217 -0.2155
vn 0.4654 0.8286 -0.3110
vn 0.6929 -0.5528 -0.4630
vn 0.5905 0.7041 -0.3945
vn 0.5905 -0.7041 -0.3945
vn 0.6929 0.5528 -0.4630
vn 0.4654 -0.8286 -0.3110
vn 0.7689 0.3805 -0.5138
vn 0.3225 -0.9217 -0.2155
vn 0.8157 0.1939 -0.5450
vn 0.1671 -0.9796 -0.1117
vn 0.8315 -0.0000 -0.5556
vn 0.1671 0.9796 -0.1117
vn 0.8157 -0.1939 -0.5450
vn 0.3584 -0.9217 -0.1484
vn 0.8544 0.3805 -0.3539
vn 0.9063 0.1939 -0.3754
vn 0.1857 -0.9796 -0.0769
vn 0.9239 -0.0000 -0.3827
vn 0.1857 0.9796 -0.0769
vn 0.9063 -0.1939 -0.3754
vn 0.3584 0.9217 -0.1484
vn 0.8544 -0.3805 -0.3539
vn 0.5172 0.8286 -0.2142
vn 0.7699 -0.5528 -0.3189
vn 0.6561 0.7041 -0.2718
vn 0.6561 -0.7041 -0.2718
vn 0.7699 0.5528 -0.3189
vn 0.5172 -0.8286 -0.2142
vn 0.3804 0.9217 -0.0757
vn 0.5490 0.8286 -0.1092
vn 0.9070 -0.3805 -0.1804
vn 0.8173 -0.5528 -0.1626
vn 0.6965 0.7041 -0.1385
vn 0.6965 -0.7041 -0.1385
vn 0.8173 0.5528 -0.1626
vn 0.5490 -0.8286 -0.1092
vn 0.9070 0.3805 -0.1804
vn 0.3804 -0.9217 -0.0757
vn 0.9622 0.1939 -0.1914
vn 0.1971 -0.9796 -0.0392
vn 0.9808 -0.0000 -0.1951
vn 0.1971 0.9796 -0.0392
vn 0.9622 -0.1939 -0.1914
vn 0.9248 0.3805 -0.0000
vn 0.9810 0.1939 -0.0000
vn 0.2010 -0.9796 -0.0000
vn 1.0000 -0.0000 -0.0000
vn 0.2010 0.9796 -0.0000
vn 0.9810 -0.1939 -0.0000
vn 0.3879 0.9217 -0.0000
vn 0.9248 -0.3805 -0.0000
vn 0.5598 0.8286 -0.0000
vn 0.8333 -0.5528 -0.0000
vn 0.7101 0.7041 -0.0000
vn 0.7101 -0.7041 -0.0000
vn 0.8333 0.5528 -0.0000
vn 0.5598 -0.8286 -0.0000
vn 0.3879 -0.9217 -0.0000
vn 0.9070 -0.3805 0.1804
vn 0.8173 -0.5528 0.1626
vn 0.6965 0.7041 0.1385
vn 0.6965 -0.7041 0.1385
vn 0.8173 0.5528 0.1626
vn 0.5490 -0.8286 0.1092
vn 0.9070 0.3805 0.1804
vn 0.3804 -0.9217 0.0757
vn 0.9622 0.1939 0.1914
vn 0.1971 -0.9796 0.0392
vn 0.9808 -0.0000 0.1951
vn 0.1971 0.9796 0.0392
vn 0.9622 -0.1939 0.1914
vn 0.3804 0.9217 0.0757
vn 0.5490 0.8286 0.1092
vn 0.3584 -0.9217 0.1484
vn 0.1857 -0.9796 0.0769
vn 0.9063 0.1939 0.3754
vn 0.9239 -0.0000 0.3827
vn 0.1857 0.9796 0.0769
vn 0.9063 -0.1939 0.3754
vn 0.3584 0.9217 0.1484
vn 0.8544 -0.3805 0.3539
vn 0.5172 0.8286 0.2142
vn 0.7699 -0.5528 0.3189
vn 0.6561 0.7041 0.2718
vn 0.6561 -0.7041 0.2718
vn 0.7699 0.5528 0.3189
vn 0.5172 -0.8286 0.2142
vn 0.8544 0.3805 0.3539
vn 0.5905 0.7041 0.3945
vn 0.5905 -0.7041 0.3945
vn 0.6929 0.5528 0.4630
vn 0.4654 -0.8286 0.3110
vn 0.7689 0.3805 0.5138
vn 0.3225 -0.9217 0.2155
vn 0.8157 0.1939 0.5450
vn 0.1671 -0.9796 0.1117
vn 0.8315 -0.0000 0.5556
vn 0.1671 0.9796 0.1117
vn 0.8157 -0.1939 0.5450
vn 0.3225 0.9217 0.2155
vn 0.7689 -0.3805 0.5138
vn 0.4654 0.8286 0.3110
vn 0.6929 -0.5528 0.4630
vn 0.6937 0.1939 0.6937
vn 0.7071 -0.0000 0.7071
vn 0.1421 0.9796 0.1421
vn 0.1421 -0.9796 0.1421
vn 0.6937 -0.1939 0.6937
vn 0.2743 0.9217 0.2743
vn 0.6539 -0.3805 0.6539
vn 0.3958 0.8286 0.3958
vn 0.5893 -0.5528 0.5893
vn 0.5021 0.7041 0.5021
vn 0.5021 -0.7041 0.5021
vn 0.5893 0.5528 0.5893
vn 0.3958 -0.8286 0.3958
vn 0.6539 0.3805 0.6539
vn 0.2743 -0.9217 0.2743
vn 0.3945 -0.7041 0.5905
vn 0.3945 0.7041 0.5905
vn 0.4630 0.5528 0.6929
vn 0.3110 -0.8286 0.4654
vn 0.5138 0.3805 0.7689
vn 0.2155 -0.9217 0.3225
vn 0.5450 0.1939 0.8157
vn 0.1117 -0.9796 0.1671
vn 0.5556 -0.0000 0.8315
vn 0.1117 0.9796 0.1671
vn 0.5450 -0.1939 0.8157
vn 0.2155 0.9217 0.3225
vn 0.5138 -0.3805 0.7689
vn 0.3110 0.8286 0.4654
vn 0.4630 -0.5528 0.6929
vn 0.0769 -0.9796 0.1857
vn 0.3754 -0.1939 0.9063
vn 0.1484 0.9217 0.3584
vn 0.3539 -0.3805 0.8544
vn 0.2142 0.8286 0.5172
vn 0.3189 -0.5528 0.7699
vn 0.2718 0.7041 0.6561
vn 0.2718 -0.7041 0.6561
vn 0.3189 0.5528 0.7699
vn 0.2142 -0.8286 0.5172
vn 0.3539 0.3805 0.8544
vn 0.1484 -0.9217 0.3584
vn 0.3754 0.1939 0.9063
vn 0.3827 -0.0000 0.9239
vn 0.0769 0.9796 0.1857
vn 0.1385 -0.7041 0.6965
vn 0.1092 -0.8286 0.5490
vn 0.1804 0.3805 0.9070
vn 0.0757 -0.9217 0.3804
vn 0.1914 0.1939 0.9622
vn 0.0392 -0.9796 0.1971
vn 0.1951 -0.0000 0.9808
vn 0.0392 0.9796 0.1971
vn 0.1914 -0.1939 0.9622
vn 0.0757 0.9217 0.3804
vn 0.1804 -0.3805 0.9070
vn 0.1092 0.8286 0.5490
vn 0.1626 -0.5528 0.8173
vn 0.1385 0.7041 0.6965
vn 0.1626 0.5528 0.8173
vn -0.0000 0.9796 0.2010
vn -0.0000 0.9217 0.3879
vn -0.0000 -0.3805 0.9248
vn -0.0000 0.8286 0.5598
vn -0.0000 -0.5528 0.8333
vn -0.0000 0.7041 0.7101
vn -0.0000 -0.7041 0.7101
vn -0.0000 0.5528 0.8333
vn -0.0000 -0.8286 0.5598
vn -0.0000 0.3805 0.9248
vn -0.0000 -0.9217 0.3879
vn -0.0000 0.1939 0.9810
vn -0.0000 -0.9796 0.2010
vn -0.0000 -0.0000 1.0000
vn -0.0000 -0.1939 0.9810
vn -0.1804 0.3805 0.9070
vn -0.0757 -0.9217 0.3804
vn -0.1914 0.1939 0.9622
vn -0.0392 -0.9796 0.1971
vn -0.1951 -0.0000 0.9808
vn -0.0392 0.9796 0.1971
vn -0.1914 -0.1939 0.9622
vn -0.0757 0.9217 0.3804
vn -0.1804 -0.3805 0.9070
vn -0.1092 0.8286 0.5490
vn -0.1626 -0.5528 0.8173
vn -0.1385 0.7041 0.6965
vn -0.1385 -0.7041 0.6965
vn -0.1626 0.5528 0.8173
vn -0.1092 -0.8286 0.5490
vn -0.3539 -0.3805 0.8544
vn -0.1484 0.9217 0.3584
vn -0.2142 0.8286 0.5172
vn -0.3189 -0.5528 0.7699
vn -0.2718 0.7041 0.6561
vn -0.2718 -0.7041 0.6561
vn -0.3189 0.5528 0.7699
vn -0.2142 -0.8286 0.5172
vn -0.3539 0.3805 0.8544
vn -0.1484 -0.9217 0.3584
vn -0.3754 0.1939 0.9063
vn -0.0769 -0.9796 0.1857
vn -0.3827 -0.0000 0.9239
vn -0.0769 0.9796 0.1857
vn -0.3754 -0.1939 0.9063
vn -0.2155 -0.9217 0.3225
vn -0.5138 0.3805 0.7689
vn -0.5450 0.1939 0.8157
vn -0.1117 -0.9796 0.1671
vn -0.5556 -0.0000 0.8315
vn -0.1117 0.9796 0.1671
vn -0.5450 -0.1939 0.8157
vn -0.2155 0.9217 0.3225
vn -0.5138 -0.3805 0.7689
vn -0.3110 0.8286 0.4654
vn -0.4630 -0.5528 0.6929
vn -0.3945 0.7041 0.5905
vn -0.3945 -0.7041 0.5905
vn -0.4630 0.5528 0.6929
vn -0.3110 -0.8286 0.4654
vn -0.2743 0.9217 0.2743
vn -0.3958 0.8286 0.3958
vn -0.6539 -0.3805 0.6539
vn -0.5893 -0.5528 0.5893
vn -0.5021 0.7041 0.5021
vn -0.5021 -0.7041 0.5021
vn -0.5893 0.5528 0.5893
vn -0.3958 -0.8286 0.3958
vn -0.6539 0.3805 0.6539
vn -0.2743 -0.9217 0.2743
vn -0.6937 0.1939 0.6937
vn -0.1421 -0.9796 0.1421
vn -0.7071 -0.0000 0.7071
vn -0.1421 0.9796 0.1421
vn -0.6937 -0.1939 0.6937
vn -0.7689 0.3805 0.5138
vn -0.8157 0.1939 0.5450
vn -0.1671 -0.9796 0.1117
vn -0.8315 -0.0000 0.5556
vn -0.1671 0.9796 0.1117
vn -0.8157 -0.1939 0.5450
vn -0.3225 0.9217 0.2155
vn -0.7689 -0.3805 0.5138
vn -0.4654 0.8286 0.3110
vn -0.6929 -0.5528 0.4630
vn -0.5905 0.7041 0.3945
vn -0.5905 -0.7041 0.3945
vn -0.6929 0.5528 0.4630
vn -0.4654 -0.8286 0.3110
vn -0.3225 -0.9217 0.2155
vn -0.8544 -0.3805 0.3539
vn -0.7699 -0.5528 0.3189
vn -0.6561 0.7041 0.2718
vn -0.6561 -0.7041 0.2718
vn -0.7699 0.5528 0.3189
vn -0.5172 -0.8286 0.2142
vn -0.8544 0.3805 0.3539
vn -0.3584 -0.9217 0.1484
vn -0.9063 0.1939 0.3754
vn -0.1857 -0.9796 0.0769
vn -0.9239 -0.0000 0.3827
vn -0.1857 0.9796 0.0769
vn -0.9063 -0.1939 0.3754
vn -0.3584 0.9217 0.1484
vn -0.5172 0.8286 0.2142
vn -0.1971 -0.9796 0.0392
vn -0.9622 0.1939 0.1914
vn -0.9808 -0.0000 0.1951
vn -0.1971 0.9796 0.0392
vn -0.9622 -0.1939 0.1914
vn -0.3804 0.9217 0.0757
vn -0.9070 -0.3805 0.1804
vn -0.5490 0.8286 0.1092
vn -0.8173 -0.5528 0.1626
vn -0.6965 0.7041 0.1385
vn -0.6965 -0.7041 0.1385
vn -0.8173 0.5528 0.1626
vn -0.5490 -0.8286 0.1092
vn -0.9070 0.3805 0.1804
vn -0.3804 -0.9217 0.0757
vn -0.7101 -0.7041 -0.0000
vn -0.7101 0.7041 -0.0000
vn -0.8333 0.5528 -0.0000
vn -0.5598 -0.8286 -0.0000
vn -0.9248 0.3805 -0.0000
vn -0.3879 -0.9217 -0.0000
vn -0.9810 0.1939 -0.0000
vn -0.2010 -0.9796 -0.0000
vn -1.0000 -0.0000 -0.0000
vn -0.2010 0.9796 -0.0000
vn -0.9810 -0.1939 -0.0000
vn -0.3879 0.9217 -0.0000
vn -0.9248 -0.3805 -0.0000
vn -0.5598 0.8286 -0.0000
vn -0.8333 -0.5528 -0.0000
vn -0.1971 0.9796 -0.0392
vn -0.1971 -0.9796 -0.0392
vn -0.9622 -0.1939 -0.1914
vn -0.3804 0.9217 -0.0757
vn -0.9070 -0.3805 -0.1804
vn -0.5490 0.8286 -0.1092
vn -0.8173 -0.5528 -0.1626
vn -0.6965 0.7041 -0.1385
vn -0.6965 -0.7041 -0.1385
vn -0.8173 0.5528 -0.1626
vn -0.5490 -0.8286 -0.1092
vn -0.9070 0.3805 -0.1804
vn -0.3804 -0.9217 -0.0757
vn -0.9622 0.1939 -0.1914
vn -0.9808 -0.0000 -0.1951
vn -0.6561 0.7041 -0.2718
vn -0.7699 0.5528 -0.3189
vn -0.6561 -0.7041 -0.2718
vn -0.5172 -0.8286 -0.2142
vn -0.8544 0.3805 -0.3539
vn -0.3584 -0.9217 -0.1484
vn -0.9063 0.1939 -0.3754
vn -0.1857 -0.9796 -0.0769
vn -0.9239 -0.0000 -0.3827
vn -0.1857 0.9796 -0.0769
vn -0.9063 -0.1939 -0.3754
vn -0.3584 0.9217 -0.1484
vn -0.8544 -0.3805 -0.3539
vn -0.5172 0.8286 -0.2142
vn -0.7699 -0.5528 -0.3189
vn -0.8157 -0.1939 -0.5450
vn -0.3225 0.9217 -0.2155
vn -0.7689 -0.3805 -0.5138
vn -0.4654 0.8286 -0.3110
vn -0.6929 -0.5528 -0.4630
vn -0.5905 0.7041 -0.3945
vn -0.5905 -0.7041 -0.3945
vn -0.6929 0.5528 -0.4630
vn -0.4654 -0.8286 -0.3110
vn -0.7689 0.3805 -0.5138
vn -0.3225 -0.9217 -0.2155
vn -0.8157 0.1939 -0.5450
vn -0.1671 -0.9796 -0.1117
vn -0.8315 -0.0000 -0.5556
vn -0.1671 0.9796 -0.1117
vn -0.5021 -0.7041 -0.5021
vn -0.3958 -0.8286 -0.3958
vn -0.6539 0.3805 -0.6539
vn -0.2743 -0.9217 -0.2743
vn -0.6937 0.1939 -0.6937
vn -0.1421 -0.9796 -0.1421
vn -0.7071 -0.0000 -0.7071
vn -0.1421 0.9796 -0.1421
vn -0.6937 -0.1939 -0.6937
vn -0.2743 0.9217 -0.2743
vn -0.6539 -0.3805 -0.6539
vn -0.3958 0.8286 -0.3958
vn -0.5893 -0.5528 -0.5893
vn -0.5021 0.7041 -0.5021
vn -0.5893 0.5528 -0.5893
vn -0.2155 0.9217 -0.3225
vn -0.5138 -0.3805 -0.7689
vn -0.3110 0.8286 -0.4654
vn -0.4630 -0.5528 -0.6929
vn -0.3945 0.7041 -0.5905
vn -0.3945 -0.7041 -0.5905
vn -0.4630 0.5528 -0.6929
vn -0.3110 -0.8286 -0.4654
vn -0.5138 0.3805 -0.7689
vn -0.2155 -0.9217 -0.3225
vn -0.5450 0.1939 -0.8157
vn -0.1117 -0.9796 -0.1671
vn -0.5556 -0.0000 -0.8315
vn -0.1117 0.9796 -0.1671
vn -0.5450 -0.1939 -0.8157
vn -0.3539 0.3805 -0.8544
vn -0.1484 -0.9217 -0.3584
vn -0.3754 0.1939 -0.9063
vn -0.0769 -0.9796 -0.1857
vn -0.3827 -0.0000 -0.9239
vn -0.0769 0.9796 -0.1857
vn -0.3754 -0.1939 -0.9063
vn -0.1484 0.9217 -0.3584
vn -0.3539 -0.3805 -0.8544
vn -0.2142 0.8286 -0.5172
vn -0.3189 -0.5528 -0.7699
vn -0.2718 0.7041 -0.6561
vn -0.2718 -0.7041 -0.6561
vn -0.3189 0.5528 -0.7699
vn -0.2142 -0.8286 -0.5172
vn -0.1804 -0.3805 -0.9070
vn -0.0757 0.9217 -0.3804
vn -0.1092 0.8286 -0.5490
vn -0.1626 -0.5528 -0.8173
vn -0.1385 0.7041 -0.6965
vn -0.1385 -0.7041 -0.6965
vn -0.1626 0.5528 -0.8173
vn -0.1092 -0.8286 -0.5490
vn -0.1804 0.3805 -0.9070
vn -0.0757 -0.9217 -0.3804
vn -0.1914 0.1939 -0.9622
vn -0.0392 -0.9796 -0.1971
vn -0.1951 -0.0000 -0.9808
vn -0.0392 0.9796 -0.1971
vn -0.1914 -0.1939 -0.9622
vt 0.190594 0.252475
vt 0.128713 0.283416
vt 0.128713 0.252475
vt 0.561881 0.252475
vt 0.623762 0.283416
vt 0.561881 0.283416
vt 0.066832 0.283416
vt 0.066832 0.252475
vt 0.500000 0.283416
vt 0.500000 0.252475
vt 0.933168 0.252475
vt 0.995050 0.267946
vt 0.933168 0.283416
vt 0.004951 0.267946
vt 0.438119 0.252475
vt 0.438119 0.283416
vt 0.871287 0.252475
vt 0.871287 0.283416
vt 0.376238 0.283416
vt 0.376238 0.252475
vt 0.809406 0.252475
vt 0.809406 0.283416
vt 0.314356 0.283416
vt 0.314357 0.252475
vt 0.747525 0.252475
vt 0.747525 0.283416
vt 0.252475 0.283416
vt 0.252475 0.252475
vt 0.685643 0.283416
vt 0.685644 0.252475
vt 0.190594 0.283416
vt 0.623762 0.252475
vt 0.685643 0.314356
vt 0.252475 0.314356
vt 0.190594 0.314356
vt 0.623762 0.314356
vt 0.128713 0.314356
vt 0.561881 0.314356
vt 0.066832 0.314356
vt 0.500000 0.314356
vt 0.995050 0.298886
vt 0.933168 0.314356
vt 0.004951 0.298886
vt 0.438119 0.314356
vt 0.871287 0.314356
vt 0.376238 0.314356
vt 0.809406 0.314356
vt 0.314356 0.314356
vt 0.747525 0.314356
vt 0.438119 0.345297
vt 0.933168 0.345297
vt 0.871287 0.345297
vt 0.376238 0.345297
vt 0.809406 0.345297
vt 0.314356 0.345297
vt 0.747525 0.345297
vt 0.252475 0.345297
vt 0.685644 0.345297
vt 0.190594 0.345297
vt 0.623762 0.345297
vt 0.128713 0.345297
vt 0.561881 0.345297
vt 0.066832 0.345297
vt 0.500000 0.345297
vt 0.995050 0.329827
vt 0.004951 0.329827
vt 0.252475 0.376238
vt 0.190594 0.376238
vt 0.623762 0.376238
vt 0.128713 0.376238
vt 0.561881 0.376238
vt 0.066832 0.376238
vt 0.500000 0.376238
vt 0.995050 0.360767
vt 0.933168 0.376238
vt 0.004951 0.360767
vt 0.438119 0.376238
vt 0.871287 0.376238
vt 0.376238 0.376238
vt 0.809406 0.376238
vt 0.314356 0.376238
vt 0.747525 0.376238
vt 0.685644 0.376238
vt 0.376238 0.407178
vt 0.871287 0.407178
vt 0.809406 0.407178
vt 0.314356 0.407178
vt 0.747525 0.407178
vt 0.252475 0.407178
vt 0.685644 0.407178
vt 0.190594 0.407178
vt 0.623762 0.407178
vt 0.128713 0.407178
vt 0.561881 0.407178
vt 0.066832 0.407178
vt 0.500000 0.407178
vt 0.995050 0.391708
vt 0.933168 0.407178
vt 0.004951 0.391708
vt 0.438119 0.407178
vt 0.128713 0.438119
vt 0.623762 0.438119
vt 0.561881 0.438119
vt 0.066832 0.438119
vt 0.500000 0.438119
vt 0.995050 0.422648
vt 0.933168 0.438119
vt 0.004951 0.422649
vt 0.438119 0.438119
vt 0.871287 0.438119
vt 0.376238 0.438119
vt 0.809406 0.438119
vt 0.314356 0.438119
vt 0.747525 0.438119
vt 0.252475 0.438119
vt 0.685644 0.438119
vt 0.190594 0.438119
vt 0.871287 0.469059
vt 0.809406 0.469059
vt 0.376238 0.469059
vt 0.314356 0.469059
vt 0.747525 0.469059
vt 0.252475 0.469059
vt 0.685644 0.469059
vt 0.190594 0.469059
vt 0.623762 0.469059
vt 0.128713 0.469059
vt 0.561881 0.469059
vt 0.066832 0.469059
vt 0.500000 0.469059
vt 0.995050 0.453589
vt 0.933168 0.469059
vt 0.004951 0.453589
vt 0.438119 0.469059
vt 0.623762 0.500000
vt 0.561881 0.500000
vt 0.066832 0.500000
vt 0.500000 0.500000
vt 0.995050 0.484530
vt 0.933168 0.500000
vt 0.004951 0.484530
vt 0.438119 0.500000
vt 0.871287 0.500000
vt 0.376238 0.500000
vt 0.809406 0.500000
vt 0.314356 0.500000
vt 0.747525 0.500000
vt 0.252475 0.500000
vt 0.685644 0.500000
vt 0.190594 0.500000
vt 0.128713 0.500000
vt 0.376238 0.530941
vt 0.314356 0.530941
vt 0.747525 0.530941
vt 0.252475 0.530941
vt 0.685644 0.530941
vt 0.190594 0.530941
vt 0.623762 0.530941
vt 0.128713 0.530941
vt 0.561881 0.530941
vt 0.066832 0.530941
vt 0.500000 0.530941
vt 0.995050 0.515470
vt 0.933168 0.530941
vt 0.004951 0.515470
vt 0.438119 0.530941
vt 0.871287 0.530941
vt 0.809406 0.530941
vt 0.128713 0.561881
vt 0.066832 0.561881
vt 0.561881 0.561881
vt 0.500000 0.561881
vt 0.995050 0.546411
vt 0.933168 0.561881
vt 0.004951 0.546411
vt 0.438119 0.561881
vt 0.871287 0.561881
vt 0.376238 0.561881
vt 0.809406 0.561881
vt 0.314356 0.561881
vt 0.747525 0.561881
vt 0.252475 0.561881
vt 0.685644 0.561881
vt 0.190594 0.561881
vt 0.623762 0.561881
vt 0.747525 0.592822
vt 0.252475 0.592822
vt 0.685644 0.592822
vt 0.190594 0.592822
vt 0.623762 0.592822
vt 0.128713 0.592822
vt 0.561881 0.592822
vt 0.066832 0.592822
vt 0.500000 0.592822
vt 0.995050 0.577351
vt 0.933168 0.592822
vt 0.004951 0.577352
vt 0.438119 0.592822
vt 0.871287 0.592822
vt 0.376238 0.592822
vt 0.809406 0.592822
vt 0.314356 0.592822
vt 0.561881 0.623762
vt 0.500000 0.623762
vt 0.995050 0.608292
vt 0.933168 0.623762
vt 0.004951 0.608292
vt 0.066832 0.623762
vt 0.438119 0.623762
vt 0.871287 0.623762
vt 0.376238 0.623762
vt 0.809406 0.623762
vt 0.314356 0.623762
vt 0.747525 0.623762
vt 0.252475 0.623762
vt 0.685644 0.623762
vt 0.190594 0.623762
vt 0.623762 0.623762
vt 0.128713 0.623762
vt 0.252475 0.654703
vt 0.747525 0.654703
vt 0.685644 0.654703
vt 0.190594 0.654703
vt 0.623762 0.654703
vt 0.128713 0.654703
vt 0.561881 0.654703
vt 0.066832 0.654703
vt 0.500000 0.654703
vt 0.995050 0.639233
vt 0.933168 0.654703
vt 0.004951 0.639233
vt 0.438119 0.654703
vt 0.871287 0.654703
vt 0.376238 0.654703
vt 0.809406 0.654703
vt 0.314356 0.654703
vt 0.004951 0.670173
vt 0.066832 0.685644
vt 0.438119 0.685644
vt 0.871287 0.685643
vt 0.376238 0.685644
vt 0.809406 0.685643
vt 0.314356 0.685644
vt 0.747525 0.685643
vt 0.252475 0.685644
vt 0.685644 0.685644
vt 0.190594 0.685644
vt 0.623762 0.685644
vt 0.128713 0.685643
vt 0.561881 0.685644
vt 0.500000 0.685644
vt 0.995050 0.670173
vt 0.933168 0.685643
vt 0.252475 0.716584
vt 0.190594 0.716584
vt 0.623762 0.716584
vt 0.128713 0.716584
vt 0.561881 0.716584
vt 0.066832 0.716584
vt 0.500000 0.716584
vt 0.995050 0.701114
vt 0.933168 0.716584
vt 0.004951 0.701114
vt 0.438119 0.716584
vt 0.871287 0.716584
vt 0.376238 0.716584
vt 0.809406 0.716584
vt 0.314356 0.716584
vt 0.747525 0.716584
vt 0.685644 0.716584
vt 0.933168 0.747525
vt 0.871287 0.747525
vt 0.376238 0.747525
vt 0.809406 0.747525
vt 0.314356 0.747525
vt 0.747525 0.747525
vt 0.252475 0.747525
vt 0.685644 0.747525
vt 0.190594 0.747525
vt 0.623762 0.747525
vt 0.128713 0.747525
vt 0.561881 0.747525
vt 0.066832 0.747525
vt 0.500000 0.747525
vt 0.995050 0.732054
vt 0.004951 0.732054
vt 0.438119 0.747525
vt 0.623762 0.778465
vt 0.128713 0.778465
vt 0.561881 0.778465
vt 0.066832 0.778465
vt 0.500000 0.778465
vt 0.995050 0.762995
vt 0.933168 0.778465
vt 0.004951 0.762995
vt 0.438119 0.778465
vt 0.871287 0.778465
vt 0.376238 0.778465
vt 0.809406 0.778465
vt 0.314356 0.778465
vt 0.747525 0.778465
vt 0.252475 0.778465
vt 0.685644 0.778465
vt 0.190594 0.778465
vt 0.376238 0.809406
vt 0.871287 0.809406
vt 0.809406 0.809406
vt 0.314356 0.809406
vt 0.747525 0.809406
vt 0.252475 0.809406
vt 0.685644 0.809406
vt 0.190594 0.809406
vt 0.623762 0.809406
vt 0.128713 0.809406
vt 0.561881 0.809406
vt 0.066832 0.809406
vt 0.500000 0.809406
vt 0.995050 0.793936
vt 0.933168 0.809406
vt 0.004951 0.793936
vt 0.438119 0.809406
vt 0.128713 0.840347
vt 0.623762 0.840347
vt 0.561881 0.840347
vt 0.066832 0.840346
vt 0.500000 0.840347
vt 0.995050 0.824876
vt 0.933168 0.840347
vt 0.004951 0.824876
vt 0.438119 0.840347
vt 0.871287 0.840347
vt 0.376238 0.840347
vt 0.809406 0.840346
vt 0.314356 0.840347
vt 0.747525 0.840347
vt 0.252475 0.840347
vt 0.685644 0.840347
vt 0.190594 0.840347
vt 0.871287 0.871287
vt 0.809406 0.871287
vt 0.376238 0.871287
vt 0.314356 0.871287
vt 0.747525 0.871287
vt 0.252475 0.871287
vt 0.685644 0.871287
vt 0.190594 0.871287
vt 0.623762 0.871287
vt 0.128713 0.871287
vt 0.561881 0.871287
vt 0.066832 0.871287
vt 0.500000 0.871287
vt 0.995050 0.855817
vt 0.933168 0.871287
vt 0.004951 0.855817
vt 0.438119 0.871287
vt 0.623762 0.902228
vt 0.561881 0.902228
vt 0.066832 0.902228
vt 0.500000 0.902228
vt 0.995050 0.886757
vt 0.933168 0.902228
vt 0.004951 0.886757
vt 0.438119 0.902228
vt 0.871287 0.902228
vt 0.376238 0.902228
vt 0.809406 0.902228
vt 0.314356 0.902228
vt 0.747525 0.902228
vt 0.252475 0.902228
vt 0.685644 0.902228
vt 0.190594 0.902228
vt 0.128713 0.902228
vt 0.376238 0.933168
vt 0.314356 0.933168
vt 0.747525 0.933168
vt 0.252475 0.933168
vt 0.685644 0.933168
vt 0.190594 0.933168
vt 0.623762 0.933168
vt 0.128713 0.933168
vt 0.561881 0.933168
vt 0.066832 0.933168
vt 0.500000 0.933168
vt 0.995050 0.917698
vt 0.933168 0.933168
vt 0.004951 0.917698
vt 0.438119 0.933168
vt 0.871287 0.933168
vt 0.809406 0.933168
vt 0.066832 0.964109
vt 0.561881 0.964109
vt 0.500000 0.964109
vt 0.995050 0.948639
vt 0.933168 0.964109
vt 0.004951 0.948639
vt 0.438119 0.964109
vt 0.871287 0.964109
vt 0.376238 0.964109
vt 0.809406 0.964109
vt 0.314356 0.964109
vt 0.747525 0.964109
vt 0.252475 0.964109
vt 0.685644 0.964109
vt 0.190594 0.964109
vt 0.623762 0.964109
vt 0.128713 0.964109
vt 0.252475 0.995049
vt 0.747525 0.995049
vt 0.685644 0.995049
vt 0.190594 0.995050
vt 0.623762 0.995049
vt 0.128713 0.995050
vt 0.561881 0.995050
vt 0.066832 0.995050
vt 0.500000 0.995049
vt 0.995050 0.979579
vt 0.933168 0.995049
vt 0.004951 0.979579
vt 0.438119 0.995050
vt 0.871287 0.995049
vt 0.376238 0.995049
vt 0.809406 0.995049
vt 0.314356 0.995049
vt 0.933168 0.004950
vt 0.995049 0.020421
vt 0.933168 0.035891
vt 0.004951 0.020421
vt 0.066832 0.004951
vt 0.066832 0.035891
vt 0.500000 0.004950
vt 0.438119 0.035891
vt 0.438119 0.004950
vt 0.871287 0.035891
vt 0.871287 0.004950
vt 0.376238 0.035891
vt 0.376238 0.004951
vt 0.809406 0.004950
vt 0.809406 0.035891
vt 0.314356 0.004951
vt 0.314356 0.035891
vt 0.747525 0.035891
vt 0.747525 0.004950
vt 0.252475 0.035891
vt 0.252475 0.004951
vt 0.685644 0.004950
vt 0.685644 0.035891
vt 0.190594 0.004951
vt 0.190594 0.035891
vt 0.623762 0.035891
vt 0.623762 0.004950
vt 0.128713 0.035891
vt 0.128713 0.004951
vt 0.561881 0.004950
vt 0.561881 0.035891
vt 0.500000 0.035891
vt 0.747525 0.066832
vt 0.685644 0.066832
vt 0.252475 0.066832
vt 0.190594 0.066832
vt 0.623762 0.066832
vt 0.128713 0.066832
vt 0.561881 0.066832
vt 0.066832 0.066832
vt 0.500000 0.066832
vt 0.995049 0.051361
vt 0.933168 0.066832
vt 0.004951 0.051361
vt 0.438119 0.066832
vt 0.871287 0.066832
vt 0.376238 0.066832
vt 0.809406 0.066832
vt 0.314356 0.066832
vt 0.438119 0.097772
vt 0.871287 0.097772
vt 0.376238 0.097772
vt 0.809406 0.097772
vt 0.314356 0.097772
vt 0.747525 0.097772
vt 0.252475 0.097772
vt 0.685644 0.097772
vt 0.190594 0.097772
vt 0.623762 0.097772
vt 0.128713 0.097772
vt 0.561881 0.097772
vt 0.066832 0.097772
vt 0.500000 0.097772
vt 0.995049 0.082302
vt 0.933168 0.097772
vt 0.004951 0.082302
vt 0.252475 0.128713
vt 0.190594 0.128713
vt 0.623762 0.128713
vt 0.128713 0.128713
vt 0.561881 0.128713
vt 0.066832 0.128713
vt 0.500000 0.128713
vt 0.995050 0.113243
vt 0.933168 0.128713
vt 0.004951 0.113243
vt 0.438119 0.128713
vt 0.871287 0.128713
vt 0.376238 0.128713
vt 0.809406 0.128713
vt 0.314356 0.128713
vt 0.747525 0.128713
vt 0.685644 0.128713
vt 0.871287 0.159653
vt 0.376238 0.159653
vt 0.809406 0.159653
vt 0.314356 0.159654
vt 0.747525 0.159653
vt 0.252475 0.159653
vt 0.685644 0.159654
vt 0.190594 0.159654
vt 0.623762 0.159653
vt 0.128713 0.159653
vt 0.561881 0.159654
vt 0.066832 0.159653
vt 0.500000 0.159654
vt 0.995050 0.144183
vt 0.933168 0.159653
vt 0.004951 0.144183
vt 0.438119 0.159654
vt 0.623762 0.190594
vt 0.128713 0.190594
vt 0.561881 0.190594
vt 0.066832 0.190594
vt 0.500000 0.190594
vt 0.995050 0.175124
vt 0.933168 0.190594
vt 0.004951 0.175124
vt 0.438119 0.190594
vt 0.871287 0.190594
vt 0.376238 0.190594
vt 0.809406 0.190594
vt 0.314356 0.190594
vt 0.747525 0.190594
vt 0.252475 0.190594
vt 0.685644 0.190594
vt 0.190594 0.190594
vt 0.376238 0.221535
vt 0.871287 0.221535
vt 0.809406 0.221535
vt 0.314356 0.221535
vt 0.747525 0.221535
vt 0.252475 0.221535
vt 0.685644 0.221535
vt 0.190594 0.221535
vt 0.623762 0.221535
vt 0.128713 0.221535
vt 0.561881 0.221535
vt 0.066832 0.221535
vt 0.500000 0.221535
vt 0.995050 0.206064
vt 0.933168 0.221535
vt 0.004951 0.206064
vt 0.438119 0.221535
vt 0.995050 0.237005
vt 0.004951 0.237005
s 1
usemtl マテリアル
f 480/1/1 20/2/2 481/3/3
f 3/4/4 12/5/5 13/6/6
f 481/3/3 21/7/7 482/8/8
f 3/4/4 14/9/9 4/10/10
f 474/11/11 82/12/12 7/13/13
f 308/14/14 482/8/8 21/7/7
f 5/15/15 14/9/9 15/16/16
f 475/17/17 7/13/13 8/18/18
f 5/15/15 16/19/19 478/20/20
f 1/21/21 8/18/18 9/22/22
f 478/20/20 17/23/23 6/24/24
f 476/25/25 9/22/22 10/26/26
f 6/24/24 18/27/27 479/28/28
f 476/25/25 11/29/29 2/30/30
f 479/28/28 19/31/31 480/1/1
f 477/32/32 11/29/29 12/5/5
f 10/26/26 26/33/33 11/29/29
f 19/31/31 33/34/34 34/35/35
f 11/29/29 27/36/36 12/5/5
f 20/2/2 34/35/35 35/37/37
f 13/6/6 27/36/36 28/38/38
f 21/7/7 35/37/37 36/39/39
f 13/6/6 29/40/40 14/9/9
f 7/13/13 82/41/12 22/42/41
f 308/43/14 21/7/7 36/39/39
f 15/16/16 29/40/40 30/44/42
f 7/13/13 23/45/43 8/18/18
f 15/16/16 31/46/44 16/19/19
f 8/18/18 24/47/45 9/22/22
f 17/23/23 31/46/44 32/48/46
f 9/22/22 25/49/47 10/26/26
f 18/27/27 32/48/46 33/34/34
f 29/40/40 45/50/48 30/44/42
f 23/45/43 37/51/49 38/52/50
f 30/44/42 46/53/51 31/46/44
f 24/47/45 38/52/50 39/54/52
f 32/48/46 46/53/51 47/55/53
f 25/49/47 39/54/52 40/56/54
f 32/48/46 48/57/55 33/34/34
f 26/33/33 40/56/54 41/58/56
f 33/34/34 49/59/57 34/35/35
f 26/33/33 42/60/58 27/36/36
f 34/35/35 50/61/59 35/37/37
f 28/38/38 42/60/58 43/62/60
f 35/37/37 51/63/61 36/39/39
f 29/40/40 43/62/60 44/64/62
f 22/42/41 82/65/12 37/51/49
f 308/66/14 36/39/39 51/63/61
f 49/59/57 63/67/63 64/68/64
f 41/58/56 57/69/65 42/60/58
f 50/61/59 64/68/64 65/70/66
f 43/62/60 57/69/65 58/71/67
f 51/63/61 65/70/66 66/72/68
f 44/64/62 58/71/67 59/73/69
f 37/51/49 82/74/12 52/75/70
f 308/76/14 51/63/61 66/72/68
f 44/64/62 60/77/71 45/50/48
f 37/51/49 53/78/72 38/52/50
f 45/50/48 61/79/73 46/53/51
f 38/52/50 54/80/74 39/54/52
f 47/55/53 61/79/73 62/81/75
f 39/54/52 55/82/76 40/56/54
f 47/55/53 63/67/63 48/57/55
f 41/58/56 55/82/76 56/83/77
f 60/77/71 76/84/78 61/79/73
f 54/80/74 68/85/79 69/86/80
f 62/81/75 76/84/78 77/87/81
f 54/80/74 70/88/82 55/82/76
f 62/81/75 78/89/83 63/67/63
f 56/83/77 70/88/82 71/90/84
f 64/68/64 78/89/83 79/91/85
f 56/83/77 72/92/86 57/69/65
f 64/68/64 80/93/87 65/70/66
f 58/71/67 72/92/86 73/94/88
f 65/70/66 81/95/89 66/72/68
f 59/73/69 73/94/88 74/96/90
f 52/75/70 82/97/12 67/98/91
f 308/99/14 66/72/68 81/95/89
f 59/73/69 75/100/92 60/77/71
f 53/78/72 67/98/91 68/85/79
f 79/91/85 96/101/93 80/93/87
f 73/94/88 88/102/94 89/103/95
f 81/95/89 96/101/93 97/104/96
f 74/96/90 89/103/95 90/105/97
f 67/98/91 82/106/12 83/107/98
f 308/108/14 81/95/89 97/104/96
f 74/96/90 91/109/99 75/100/92
f 67/98/91 84/110/100 68/85/79
f 75/100/92 92/111/101 76/84/78
f 69/86/80 84/110/100 85/112/102
f 77/87/81 92/111/101 93/113/103
f 69/86/80 86/114/104 70/88/82
f 77/87/81 94/115/105 78/89/83
f 71/90/84 86/114/104 87/116/106
f 79/91/85 94/115/105 95/117/107
f 71/90/84 88/102/94 72/92/86
f 85/112/102 99/118/108 100/119/109
f 93/113/103 107/120/110 108/121/111
f 85/112/102 101/122/112 86/114/104
f 93/113/103 109/123/113 94/115/105
f 87/116/106 101/122/112 102/124/114
f 95/117/107 109/123/113 110/125/115
f 87/116/106 103/126/116 88/102/94
f 95/117/107 111/127/117 96/101/93
f 89/103/95 103/126/116 104/128/118
f 96/101/93 112/129/119 97/104/96
f 90/105/97 104/128/118 105/130/120
f 83/107/98 82/131/12 98/132/121
f 308/133/14 97/104/96 112/129/119
f 90/105/97 106/134/122 91/109/99
f 84/110/100 98/132/121 99/118/108
f 91/109/99 107/120/110 92/111/101
f 104/128/118 118/135/123 119/136/124
f 111/127/117 127/137/125 112/129/119
f 105/130/120 119/136/124 120/138/126
f 98/132/121 82/139/12 113/140/127
f 308/141/14 112/129/119 127/137/125
f 105/130/120 121/142/128 106/134/122
f 98/132/121 114/143/129 99/118/108
f 106/134/122 122/144/130 107/120/110
f 100/119/109 114/143/129 115/145/131
f 108/121/111 122/144/130 123/146/132
f 100/119/109 116/147/133 101/122/112
f 108/121/111 124/148/134 109/123/113
f 102/124/114 116/147/133 117/149/135
f 110/125/115 124/148/134 125/150/136
f 102/124/114 118/135/123 103/126/116
f 110/125/115 126/151/137 111/127/117
f 123/146/132 137/152/138 138/153/139
f 115/145/131 131/154/140 116/147/133
f 123/146/132 139/155/141 124/148/134
f 117/149/135 131/154/140 132/156/142
f 125/150/136 139/155/141 140/157/143
f 117/149/135 133/158/144 118/135/123
f 126/151/137 140/157/143 141/159/145
f 119/136/124 133/158/144 134/160/146
f 126/151/137 142/161/147 127/137/125
f 120/138/126 134/160/146 135/162/148
f 113/140/127 82/163/12 128/164/149
f 308/165/14 127/137/125 142/161/147
f 120/138/126 136/166/150 121/142/128
f 113/140/127 129/167/151 114/143/129
f 121/142/128 137/152/138 122/144/130
f 114/143/129 130/168/152 115/145/131
f 142/161/147 156/169/153 157/170/154
f 135/162/148 149/171/155 150/172/156
f 128/164/149 82/173/12 143/174/157
f 308/175/14 142/161/147 157/170/154
f 135/162/148 151/176/158 136/166/150
f 128/164/149 144/177/159 129/167/151
f 136/166/150 152/178/160 137/152/138
f 129/167/151 145/179/161 130/168/152
f 138/153/139 152/178/160 153/180/162
f 130/168/152 146/181/163 131/154/140
f 138/153/139 154/182/164 139/155/141
f 132/156/142 146/181/163 147/183/165
f 140/157/143 154/182/164 155/184/166
f 132/156/142 148/185/167 133/158/144
f 141/159/145 155/184/166 156/169/153
f 134/160/146 148/185/167 149/171/155
f 145/179/161 161/186/168 146/181/163
f 153/180/162 169/187/169 154/182/164
f 147/183/165 161/186/168 162/188/170
f 155/184/166 169/187/169 170/189/171
f 147/183/165 163/190/172 148/185/167
f 156/169/153 170/189/171 171/191/173
f 149/171/155 163/190/172 164/192/174
f 157/170/154 171/191/173 172/193/175
f 150/172/156 164/192/174 165/194/176
f 143/174/157 82/195/12 158/196/177
f 308/197/14 157/170/154 172/193/175
f 150/172/156 166/198/178 151/176/158
f 143/174/157 159/199/179 144/177/159
f 151/176/158 167/200/180 152/178/160
f 144/177/159 160/201/181 145/179/161
f 153/180/162 167/200/180 168/202/182
f 165/194/176 179/203/183 180/204/184
f 158/196/177 82/205/12 173/206/185
f 308/207/14 172/193/175 187/208/186
f 165/194/176 181/209/187 166/198/178
f 158/196/177 174/210/188 159/199/179
f 166/198/178 182/211/189 167/200/180
f 159/199/179 175/212/190 160/201/181
f 168/202/182 182/211/189 183/213/191
f 160/201/181 176/214/192 161/186/168
f 168/202/182 184/215/193 169/187/169
f 162/188/170 176/214/192 177/216/194
f 170/189/171 184/215/193 185/217/195
f 162/188/170 178/218/196 163/190/172
f 171/191/173 185/217/195 186/219/197
f 164/192/174 178/218/196 179/203/183
f 172/193/175 186/219/197 187/208/186
f 183/213/191 199/220/198 184/215/193
f 177/216/194 191/221/199 192/222/200
f 185/217/195 199/220/198 200/223/201
f 177/216/194 193/224/202 178/218/196
f 185/217/195 201/225/203 186/219/197
f 179/203/183 193/224/202 194/226/204
f 186/219/197 202/227/205 187/208/186
f 180/204/184 194/226/204 195/228/206
f 173/206/185 82/229/12 188/230/207
f 308/231/14 187/208/186 202/227/205
f 180/204/184 196/232/208 181/209/187
f 174/210/188 188/230/207 189/233/209
f 181/209/187 197/234/210 182/211/189
f 175/212/190 189/233/209 190/235/211
f 183/213/191 197/234/210 198/236/212
f 175/212/190 191/221/199 176/214/192
f 308/237/14 202/227/205 217/238/213
f 195/228/206 211/239/214 196/232/208
f 188/230/207 204/240/215 189/233/209
f 196/232/208 212/241/216 197/234/210
f 189/233/209 205/242/217 190/235/211
f 198/236/212 212/241/216 213/243/218
f 190/235/211 206/244/219 191/221/199
f 198/236/212 214/245/220 199/220/198
f 192/222/200 206/244/219 207/246/221
f 200/223/201 214/245/220 215/247/222
f 192/222/200 208/248/223 193/224/202
f 201/225/203 215/247/222 216/249/224
f 194/226/204 208/248/223 209/250/225
f 202/227/205 216/249/224 217/238/213
f 195/228/206 209/250/225 210/251/226
f 188/230/207 82/252/12 203/253/227
f 215/247/222 229/254/228 230/255/229
f 207/246/221 223/256/230 208/248/223
f 216/249/224 230/255/229 231/257/231
f 209/250/225 223/256/230 224/258/232
f 216/249/224 232/259/233 217/238/213
f 210/251/226 224/258/232 225/260/234
f 203/253/227 82/261/12 218/262/235
f 308/263/14 217/238/213 232/259/233
f 210/251/226 226/264/236 211/239/214
f 203/253/227 219/265/237 204/240/215
f 211/239/214 227/266/238 212/241/216
f 204/240/215 220/267/239 205/242/217
f 213/243/218 227/266/238 228/268/240
f 205/242/217 221/269/241 206/244/219
f 213/243/218 229/254/228 214/245/220
f 207/246/221 221/269/241 222/270/242
f 219/265/237 233/271/243 234/272/244
f 226/264/236 242/273/245 227/266/238
f 219/265/237 235/274/246 220/267/239
f 228/268/240 242/273/245 243/275/247
f 220/267/239 236/276/248 221/269/241
f 228/268/240 244/277/249 229/254/228
f 222/270/242 236/276/248 237/278/250
f 230/255/229 244/277/249 245/279/251
f 222/270/242 238/280/252 223/256/230
f 231/257/231 245/279/251 246/281/253
f 224/258/232 238/280/252 239/282/254
f 231/257/231 247/283/255 232/259/233
f 225/260/234 239/282/254 240/284/256
f 218/262/235 82/285/12 233/271/243
f 308/286/14 232/259/233 247/283/255
f 225/260/234 241/287/257 226/264/236
f 237/278/250 253/288/258 238/280/252
f 245/279/251 261/289/259 246/281/253
f 239/282/254 253/288/258 254/290/260
f 246/281/253 262/291/261 247/283/255
f 240/284/256 254/290/260 255/292/262
f 233/271/243 82/293/12 248/294/263
f 308/295/14 247/283/255 262/291/261
f 240/284/256 256/296/264 241/287/257
f 234/272/244 248/294/263 249/297/265
f 241/287/257 257/298/266 242/273/245
f 235/274/246 249/297/265 250/299/267
f 243/275/247 257/298/266 258/300/268
f 235/274/246 251/301/269 236/276/248
f 243/275/247 259/302/270 244/277/249
f 237/278/250 251/301/269 252/303/271
f 245/279/251 259/302/270 260/304/272
f 256/296/264 272/305/273 257/298/266
f 250/299/267 264/306/274 265/307/275
f 258/300/268 272/305/273 273/308/276
f 250/299/267 266/309/277 251/301/269
f 258/300/268 274/310/278 259/302/270
f 252/303/271 266/309/277 267/311/279
f 260/304/272 274/310/278 275/312/280
f 252/303/271 268/313/281 253/288/258
f 260/304/272 276/314/282 261/289/259
f 254/290/260 268/313/281 269/315/283
f 261/289/259 277/316/284 262/291/261
f 255/292/262 269/315/283 270/317/285
f 248/294/263 82/318/12 263/319/286
f 308/320/14 262/291/261 277/316/284
f 255/292/262 271/321/287 256/296/264
f 248/294/263 264/306/274 249/297/265
f 275/312/280 291/322/288 276/314/282
f 269/315/283 283/323/289 284/324/290
f 276/314/282 292/325/291 277/316/284
f 270/317/285 284/324/290 285/326/292
f 263/319/286 82/327/12 278/328/293
f 308/329/14 277/316/284 292/325/291
f 270/317/285 286/330/294 271/321/287
f 264/306/274 278/328/293 279/331/295
f 271/321/287 287/332/296 272/305/273
f 265/307/275 279/331/295 280/333/297
f 273/308/276 287/332/296 288/334/298
f 265/307/275 281/335/299 266/309/277
f 273/308/276 289/336/300 274/310/278
f 267/311/279 281/335/299 282/337/301
f 275/312/280 289/336/300 290/338/302
f 267/311/279 283/323/289 268/313/281
f 280/333/297 294/339/303 295/340/304
f 288/334/298 302/341/305 303/342/306
f 280/333/297 296/343/307 281/335/299
f 288/334/298 304/344/308 289/336/300
f 282/337/301 296/343/307 297/345/309
f 290/338/302 304/344/308 305/346/310
f 282/337/301 298/347/311 283/323/289
f 290/338/302 306/348/312 291/322/288
f 284/324/290 298/347/311 299/349/313
f 292/325/291 306/348/312 307/350/314
f 285/326/292 299/349/313 300/351/315
f 278/328/293 82/352/12 293/353/316
f 308/354/14 292/325/291 307/350/314
f 285/326/292 301/355/317 286/330/294
f 278/328/293 294/339/303 279/331/295
f 286/330/294 302/341/305 287/332/296
f 299/349/313 314/356/318 315/357/319
f 306/348/312 323/358/320 307/350/314
f 300/351/315 315/357/319 316/359/321
f 293/353/316 82/360/12 309/361/322
f 308/362/14 307/350/314 323/358/320
f 300/351/315 317/363/323 301/355/317
f 294/339/303 309/361/322 310/364/324
f 301/355/317 318/365/325 302/341/305
f 295/340/304 310/364/324 311/366/326
f 303/342/306 318/365/325 319/367/327
f 295/340/304 312/368/328 296/343/307
f 303/342/306 320/369/329 304/344/308
f 297/345/309 312/368/328 313/370/330
f 305/346/310 320/369/329 321/371/331
f 297/345/309 314/356/318 298/347/311
f 305/346/310 322/372/332 306/348/312
f 319/367/327 333/373/333 334/374/334
f 311/366/326 327/375/335 312/368/328
f 319/367/327 335/376/336 320/369/329
f 313/370/330 327/375/335 328/377/337
f 321/371/331 335/376/336 336/378/338
f 313/370/330 329/379/339 314/356/318
f 321/371/331 337/380/340 322/372/332
f 315/357/319 329/379/339 330/381/341
f 322/372/332 338/382/342 323/358/320
f 316/359/321 330/381/341 331/383/343
f 309/361/322 82/384/12 324/385/344
f 308/386/14 323/358/320 338/382/342
f 316/359/321 332/387/345 317/363/323
f 310/364/324 324/385/344 325/388/346
f 317/363/323 333/373/333 318/365/325
f 311/366/326 325/388/346 326/389/347
f 337/380/340 353/390/348 338/382/342
f 331/383/343 345/391/349 346/392/350
f 324/385/344 82/393/12 339/394/351
f 308/395/14 338/382/342 353/390/348
f 331/383/343 347/396/352 332/387/345
f 325/388/346 339/394/351 340/397/353
f 332/387/345 348/398/354 333/373/333
f 326/389/347 340/397/353 341/399/355
f 334/374/334 348/398/354 349/400/356
f 326/389/347 342/401/357 327/375/335
f 334/374/334 350/402/358 335/376/336
f 328/377/337 342/401/357 343/403/359
f 336/378/338 350/402/358 351/404/360
f 328/377/337 344/405/361 329/379/339
f 336/378/338 352/406/362 337/380/340
f 330/381/341 344/405/361 345/391/349
f 349/400/356 365/407/363 350/402/358
f 343/403/359 357/408/364 358/409/365
f 351/404/360 365/407/363 366/410/366
f 343/403/359 359/411/367 344/405/361
f 351/404/360 367/412/368 352/406/362
f 345/391/349 359/411/367 360/413/369
f 353/390/348 367/412/368 368/414/370
f 346/392/350 360/413/369 361/415/371
f 339/394/351 82/416/12 354/417/372
f 308/418/14 353/390/348 368/414/370
f 346/392/350 362/419/373 347/396/352
f 339/394/351 355/420/374 340/397/353
f 347/396/352 363/421/375 348/398/354
f 341/399/355 355/420/374 356/422/376
f 349/400/356 363/421/375 364/423/377
f 341/399/355 357/408/364 342/401/357
f 354/424/372 82/425/12 369/426/378
f 308/427/14 368/428/370 383/429/379
f 361/430/371 377/431/380 362/432/373
f 354/424/372 370/433/381 355/434/374
f 362/432/373 378/435/382 363/436/375
f 356/437/376 370/433/381 371/438/383
f 364/439/377 378/435/382 379/440/384
f 356/437/376 372/441/385 357/442/364
f 364/439/377 380/443/386 365/444/363
f 358/445/365 372/441/385 373/446/387
f 366/447/366 380/443/386 381/448/388
f 358/445/365 374/449/389 359/450/367
f 366/447/366 382/451/390 367/452/368
f 360/453/369 374/449/389 375/454/391
f 368/428/370 382/451/390 383/429/379
f 361/430/371 375/454/391 376/455/392
f 373/446/387 387/456/393 388/457/394
f 381/448/388 395/458/395 396/459/396
f 373/446/387 389/460/397 374/449/389
f 381/448/388 397/461/398 382/451/390
f 375/454/391 389/460/397 390/462/399
f 383/429/379 397/461/398 398/463/400
f 376/455/392 390/462/399 391/464/401
f 369/426/378 82/465/12 384/466/402
f 308/467/14 383/429/379 398/463/400
f 376/455/392 392/468/403 377/431/380
f 369/426/378 385/469/404 370/433/381
f 377/431/380 393/470/405 378/435/382
f 370/433/381 386/471/406 371/438/383
f 379/440/384 393/470/405 394/472/407
f 371/438/383 387/456/393 372/441/385
f 379/440/384 395/458/395 380/443/386
f 391/464/401 407/473/408 392/468/403
f 384/466/402 400/474/409 385/469/404
f 392/468/403 408/475/410 393/470/405
f 385/469/404 401/476/411 386/471/406
f 394/472/407 408/475/410 409/477/412
f 386/471/406 402/478/413 387/456/393
f 394/472/407 410/479/414 395/458/395
f 388/457/394 402/478/413 403/480/415
f 396/459/396 410/479/414 411/481/416
f 388/457/394 404/482/417 389/460/397
f 397/461/398 411/481/416 412/483/418
f 390/462/399 404/482/417 405/484/419
f 398/463/400 412/483/418 413/485/420
f 391/464/401 405/484/419 406/486/421
f 384/466/402 82/487/12 399/488/422
f 308/489/14 398/463/400 413/485/420
f 411/481/416 425/490/423 426/491/424
f 403/480/415 419/492/425 404/482/417
f 411/481/416 427/493/426 412/483/418
f 405/484/419 419/492/425 420/494/427
f 413/485/420 427/493/426 428/495/428
f 406/486/421 420/494/427 421/496/429
f 399/488/422 82/497/12 414/498/430
f 308/499/14 413/485/420 428/495/428
f 406/486/421 422/500/431 407/473/408
f 399/488/422 415/501/432 400/474/409
f 407/473/408 423/502/433 408/475/410
f 401/476/411 415/501/432 416/503/434
f 409/477/412 423/502/433 424/504/435
f 401/476/411 417/505/436 402/478/413
f 409/477/412 425/490/423 410/479/414
f 403/480/415 417/505/436 418/506/437
f 414/498/430 430/507/438 415/501/432
f 422/500/431 438/508/439 423/502/433
f 416/503/434 430/507/438 431/509/440
f 424/504/435 438/508/439 439/510/441
f 416/503/434 432/511/442 417/505/436
f 424/504/435 440/512/443 425/490/423
f 418/506/437 432/511/442 433/513/444
f 426/491/424 440/512/443 441/514/445
f 418/506/437 434/515/446 419/492/425
f 426/491/424 442/516/447 427/493/426
f 420/494/427 434/515/446 435/517/448
f 428/495/428 442/516/447 443/518/449
f 421/496/429 435/517/448 436/519/450
f 414/498/430 82/520/12 429/521/451
f 308/522/14 428/495/428 443/518/449
f 421/496/429 437/523/452 422/500/431
f 433/513/444 449/524/453 434/515/446
f 441/514/445 457/525/454 442/516/447
f 435/517/448 449/524/453 450/526/455
f 443/518/449 457/525/454 458/527/456
f 436/519/450 450/526/455 451/528/457
f 429/521/451 82/529/12 444/530/458
f 308/531/14 443/518/449 458/527/456
f 436/519/450 452/532/459 437/523/452
f 429/521/451 445/533/460 430/507/438
f 437/523/452 453/534/461 438/508/439
f 431/509/440 445/533/460 446/535/462
f 439/510/441 453/534/461 454/536/463
f 431/509/440 447/537/464 432/511/442
f 439/510/441 455/538/465 440/512/443
f 433/513/444 447/537/464 448/539/466
f 441/514/445 455/538/465 456/540/467
f 452/532/459 468/541/468 453/534/461
f 446/535/462 460/542/469 461/543/470
f 454/536/463 468/541/468 469/544/471
f 446/535/462 462/545/472 447/537/464
f 454/536/463 470/546/473 455/538/465
f 448/539/466 462/545/472 463/547/474
f 456/540/467 470/546/473 471/548/475
f 448/539/466 464/549/476 449/524/453
f 456/540/467 472/550/477 457/525/454
f 450/526/455 464/549/476 465/551/478
f 457/525/454 473/552/479 458/527/456
f 451/528/457 465/551/478 466/553/480
f 444/530/458 82/554/12 459/555/481
f 308/556/14 458/527/456 473/552/479
f 451/528/457 467/557/482 452/532/459
f 445/533/460 459/555/481 460/542/469
f 471/548/475 481/3/3 472/550/477
f 465/551/478 477/32/32 3/4/4
f 473/552/479 481/3/3 482/8/8
f 466/553/480 3/4/4 4/10/10
f 459/555/481 82/558/12 474/11/11
f 308/559/14 473/552/479 482/8/8
f 466/553/480 5/15/15 467/557/482
f 459/555/481 475/17/17 460/542/469
f 467/557/482 478/20/20 468/541/468
f 461/543/470 475/17/17 1/21/21
f 468/541/468 6/24/24 469/544/471
f 462/545/472 1/21/21 476/25/25
f 469/544/471 479/28/28 470/546/473
f 463/547/474 476/25/25 2/30/30
f 471/548/475 479/28/28 480/1/1
f 464/549/476 2/30/30 477/32/32
f 480/1/1 19/31/31 20/2/2
f 3/4/4 477/32/32 12/5/5
f 481/3/3 20/2/2 21/7/7
f 3/4/4 13/6/6 14/9/9
f 5/15/15 4/10/10 14/9/9
f 475/17/17 474/11/11 7/13/13
f 5/15/15 15/16/16 16/19/19
f 1/21/21 475/17/17 8/18/18
f 478/20/20 16/19/19 17/23/23
f 476/25/25 1/21/21 9/22/22
f 6/24/24 17/23/23 18/27/27
f 476/25/25 10/26/26 11/29/29
f 479/28/28 18/27/27 19/31/31
f 477/32/32 2/30/30 11/29/29
f 10/26/26 25/49/47 26/33/33
f 19/31/31 18/27/27 33/34/34
f 11/29/29 26/33/33 27/36/36
f 20/2/2 19/31/31 34/35/35
f 13/6/6 12/5/5 27/36/36
f 21/7/7 20/2/2 35/37/37
f 13/6/6 28/38/38 29/40/40
f 15/16/16 14/9/9 29/40/40
f 7/13/13 22/42/41 23/45/43
f 15/16/16 30/44/42 31/46/44
f 8/18/18 23/45/43 24/47/45
f 17/23/23 16/19/19 31/46/44
f 9/22/22 24/47/45 25/49/47
f 18/27/27 17/23/23 32/48/46
f 29/40/40 44/64/62 45/50/48
f 23/45/43 22/42/41 37/51/49
f 30/44/42 45/50/48 46/53/51
f 24/47/45 23/45/43 38/52/50
f 32/48/46 31/46/44 46/53/51
f 25/49/47 24/47/45 39/54/52
f 32/48/46 47/55/53 48/57/55
f 26/33/33 25/49/47 40/56/54
f 33/34/34 48/57/55 49/59/57
f 26/33/33 41/58/56 42/60/58
f 34/35/35 49/59/57 50/61/59
f 28/38/38 27/36/36 42/60/58
f 35/37/37 50/61/59 51/63/61
f 29/40/40 28/38/38 43/62/60
f 49/59/57 48/57/55 63/67/63
f 41/58/56 56/83/77 57/69/65
f 50/61/59 49/59/57 64/68/64
f 43/62/60 42/60/58 57/69/65
f 51/63/61 50/61/59 65/70/66
f 44/64/62 43/62/60 58/71/67
f 44/64/62 59/73/69 60/77/71
f 37/51/49 52/75/70 53/78/72
f 45/50/48 60/77/71 61/79/73
f 38/52/50 53/78/72 54/80/74
f 47/55/53 46/53/51 61/79/73
f 39/54/52 54/80/74 55/82/76
f 47/55/53 62/81/75 63/67/63
f 41/58/56 40/56/54 55/82/76
f 60/77/71 75/100/92 76/84/78
f 54/80/74 53/78/72 68/85/79
f 62/81/75 61/79/73 76/84/78
f 54/80/74 69/86/80 70/88/82
f 62/81/75 77/87/81 78/89/83
f 56/83/77 55/82/76 70/88/82
f 64/68/64 63/67/63 78/89/83
f 56/83/77 71/90/84 72/92/86
f 64/68/64 79/91/85 80/93/87
f 58/71/67 57/69/65 72/92/86
f 65/70/66 80/93/87 81/95/89
f 59/73/69 58/71/67 73/94/88
f 59/73/69 74/96/90 75/100/92
f 53/78/72 52/75/70 67/98/91
f 79/91/85 95/117/107 96/101/93
f 73/94/88 72/92/86 88/102/94
f 81/95/89 80/93/87 96/101/93
f 74/96/90 73/94/88 89/103/95
f 74/96/90 90/105/97 91/109/99
f 67/98/91 83/107/98 84/110/100
f 75/100/92 91/109/99 92/111/101
f 69/86/80 68/85/79 84/110/100
f 77/87/81 76/84/78 92/111/101
f 69/86/80 85/112/102 86/114/104
f 77/87/81 93/113/103 94/115/105
f 71/90/84 70/88/82 86/114/104
f 79/91/85 78/89/83 94/115/105
f 71/90/84 87/116/106 88/102/94
f 85/112/102 84/110/100 99/118/108
f 93/113/103 92/111/101 107/120/110
f 85/112/102 100/119/109 101/122/112
f 93/113/103 108/121/111 109/123/113
f 87/116/106 86/114/104 101/122/112
f 95/117/107 94/115/105 109/123/113
f 87/116/106 102/124/114 103/126/116
f 95/117/107 110/125/115 111/127/117
f 89/103/95 88/102/94 103/126/116
f 96/101/93 111/127/117 112/129/119
f 90/105/97 89/103/95 104/128/118
f 90/105/97 105/130/120 106/134/122
f 84/110/100 83/107/98 98/132/121
f 91/109/99 106/134/122 107/120/110
f 104/128/118 103/126/116 118/135/123
f 111/127/117 126/151/137 127/137/125
f 105/130/120 104/128/118 119/136/124
f 105/130/120 120/138/126 121/142/128
f 98/132/121 113/140/127 114/143/129
f 106/134/122 121/142/128 122/144/130
f 100/119/109 99/118/108 114/143/129
f 108/121/111 107/120/110 122/144/130
f 100/119/109 115/145/131 116/147/133
f 108/121/111 123/146/132 124/148/134
f 102/124/114 101/122/112 116/147/133
f 110/125/115 109/123/113 124/148/134
f 102/124/114 117/149/135 118/135/123
f 110/125/115 125/150/136 126/151/137
f 123/146/132 122/144/130 137/152/138
f 115/145/131 130/168/152 131/154/140
f 123/146/132 138/153/139 139/155/141
f 117/149/135 116/147/133 131/154/140
f 125/150/136 124/148/134 139/155/141
f 117/149/135 132/156/142 133/158/144
f 126/151/137 125/150/136 140/157/143
f 119/136/124 118/135/123 133/158/144
f 126/151/137 141/159/145 142/161/147
f 120/138/126 119/136/124 134/160/146
f 120/138/126 135/162/148 136/166/150
f 113/140/127 128/164/149 129/167/151
f 121/142/128 136/166/150 137/152/138
f 114/143/129 129/167/151 130/168/152
f 142/161/147 141/159/145 156/169/153
f 135/162/148 134/160/146 149/171/155
f 135/162/148 150/172/156 151/176/158
f 128/164/149 143/174/157 144/177/159
f 136/166/150 151/176/158 152/178/160
f 129/167/151 144/177/159 145/179/161
f 138/153/139 137/152/138 152/178/160
f 130/168/152 145/179/161 146/181/163
f 138/153/139 153/180/162 154/182/164
f 132/156/142 131/154/140 146/181/163
f 140/157/143 139/155/141 154/182/164
f 132/156/142 147/183/165 148/185/167
f 141/159/145 140/157/143 155/184/166
f 134/160/146 133/158/144 148/185/167
f 145/179/161 160/201/181 161/186/168
f 153/180/162 168/202/182 169/187/169
f 147/183/165 146/181/163 161/186/168
f 155/184/166 154/182/164 169/187/169
f 147/183/165 162/188/170 163/190/172
f 156/169/153 155/184/166 170/189/171
f 149/171/155 148/185/167 163/190/172
f 157/170/154 156/169/153 171/191/173
f 150/172/156 149/171/155 164/192/174
f 150/172/156 165/194/176 166/198/178
f 143/174/157 158/196/177 159/199/179
f 151/176/158 166/198/178 167/200/180
f 144/177/159 159/199/179 160/201/181
f 153/180/162 152/178/160 167/200/180
f 165/194/176 164/192/174 179/203/183
f 165/194/176 180/204/184 181/209/187
f 158/196/177 173/206/185 174/210/188
f 166/198/178 181/209/187 182/211/189
f 159/199/179 174/210/188 175/212/190
f 168/202/182 167/200/180 182/211/189
f 160/201/181 175/212/190 176/214/192
f 168/202/182 183/213/191 184/215/193
f 162/188/170 161/186/168 176/214/192
f 170/189/171 169/187/169 184/215/193
f 162/188/170 177/216/194 178/218/196
f 171/191/173 170/189/171 185/217/195
f 164/192/174 163/190/172 178/218/196
f 172/193/175 171/191/173 186/219/197
f 183/213/191 198/236/212 199/220/198
f 177/216/194 176/214/192 191/221/199
f 185/217/195 184/215/193 199/220/198
f 177/216/194 192/222/200 193/224/202
f 185/217/195 200/223/201 201/225/203
f 179/203/183 178/218/196 193/224/202
f 186/219/197 201/225/203 202/227/205
f 180/204/184 179/203/183 194/226/204
f 180/204/184 195/228/206 196/232/208
f 174/210/188 173/206/185 188/230/207
f 181/209/187 196/232/208 197/234/210
f 175/212/190 174/210/188 189/233/209
f 183/213/191 182/211/189 197/234/210
f 175/212/190 190/235/211 191/221/199
f 195/228/206 210/251/226 211/239/214
f 188/230/207 203/253/227 204/240/215
f 196/232/208 211/239/214 212/241/216
f 189/233/209 204/240/215 205/242/217
f 198/236/212 197/234/210 212/241/216
f 190/235/211 205/242/217 206/244/219
f 198/236/212 213/243/218 214/245/220
f 192/222/200 191/221/199 206/244/219
f 200/223/201 199/220/198 214/245/220
f 192/222/200 207/246/221 208/248/223
f 201/225/203 200/223/201 215/247/222
f 194/226/204 193/224/202 208/248/223
f 202/227/205 201/225/203 216/249/224
f 195/228/206 194/226/204 209/250/225
f 215/247/222 214/245/220 229/254/228
f 207/246/221 222/270/242 223/256/230
f 216/249/224 215/247/222 230/255/229
f 209/250/225 208/248/223 223/256/230
f 216/249/224 231/257/231 232/259/233
f 210/251/226 209/250/225 224/258/232
f 210/251/226 225/260/234 226/264/236
f 203/253/227 218/262/235 219/265/237
f 211/239/214 226/264/236 227/266/238
f 204/240/215 219/265/237 220/267/239
f 213/243/218 212/241/216 227/266/238
f 205/242/217 220/267/239 221/269/241
f 213/243/218 228/268/240 229/254/228
f 207/246/221 206/244/219 221/269/241
f 219/265/237 218/262/235 233/271/243
f 226/264/236 241/287/257 242/273/245
f 219/265/237 234/272/244 235/274/246
f 228/268/240 227/266/238 242/273/245
f 220/267/239 235/274/246 236/276/248
f 228/268/240 243/275/247 244/277/249
f 222/270/242 221/269/241 236/276/248
f 230/255/229 229/254/228 244/277/249
f 222/270/242 237/278/250 238/280/252
f 231/257/231 230/255/229 245/279/251
f 224/258/232 223/256/230 238/280/252
f 231/257/231 246/281/253 247/283/255
f 225/260/234 224/258/232 239/282/254
f 225/260/234 240/284/256 241/287/257
f 237/278/250 252/303/271 253/288/258
f 245/279/251 260/304/272 261/289/259
f 239/282/254 238/280/252 253/288/258
f 246/281/253 261/289/259 262/291/261
f 240/284/256 239/282/254 254/290/260
f 240/284/256 255/292/262 256/296/264
f 234/272/244 233/271/243 248/294/263
f 241/287/257 256/296/264 257/298/266
f 235/274/246 234/272/244 249/297/265
f 243/275/247 242/273/245 257/298/266
f 235/274/246 250/299/267 251/301/269
f 243/275/247 258/300/268 259/302/270
f 237/278/250 236/276/248 251/301/269
f 245/279/251 244/277/249 259/302/270
f 256/296/264 271/321/287 272/305/273
f 250/299/267 249/297/265 264/306/274
f 258/300/268 257/298/266 272/305/273
f 250/299/267 265/307/275 266/309/277
f 258/300/268 273/308/276 274/310/278
f 252/303/271 251/301/269 266/309/277
f 260/304/272 259/302/270 274/310/278
f 252/303/271 267/311/279 268/313/281
f 260/304/272 275/312/280 276/314/282
f 254/290/260 253/288/258 268/313/281
f 261/289/259 276/314/282 277/316/284
f 255/292/262 254/290/260 269/315/283
f 255/292/262 270/317/285 271/321/287
f 248/294/263 263/319/286 264/306/274
f 275/312/280 290/338/302 291/322/288
f 269/315/283 268/313/281 283/323/289
f 276/314/282 291/322/288 292/325/291
f 270/317/285 269/315/283 284/324/290
f 270/317/285 285/326/292 286/330/294
f 264/306/274 263/319/286 278/328/293
f 271/321/287 286/330/294 287/332/296
f 265/307/275 264/306/274 279/331/295
f 273/308/276 272/305/273 287/332/296
f 265/307/275 280/333/297 281/335/299
f 273/308/276 288/334/298 289/336/300
f 267/311/279 266/309/277 281/335/299
f 275/312/280 274/310/278 289/336/300
f 267/311/279 282/337/301 283/323/289
f 280/333/297 279/331/295 294/339/303
f 288/334/298 287/332/296 302/341/305
f 280/333/297 295/340/304 296/343/307
f 288/334/298 303/342/306 304/344/308
f 282/337/301 281/335/299 296/343/307
f 290/338/302 289/336/300 304/344/308
f 282/337/301 297/345/309 298/347/311
f 290/338/302 305/346/310 306/348/312
f 284/324/290 283/323/289 298/347/311
f 292/325/291 291/322/288 306/348/312
f 285/326/292 284/324/290 299/349/313
f 285/326/292 300/351/315 301/355/317
f 278/328/293 293/353/316 294/339/303
f 286/330/294 301/355/317 302/341/305
f 299/349/313 298/347/311 314/356/318
f 306/348/312 322/372/332 323/358/320
f 300/351/315 299/349/313 315/357/319
f 300/351/315 316/359/321 317/363/323
f 294/339/303 293/353/316 309/361/322
f 301/355/317 317/363/323 318/365/325
f 295/340/304 294/339/303 310/364/324
f 303/342/306 302/341/305 318/365/325
f 295/340/304 311/366/326 312/368/328
f 303/342/306 319/367/327 320/369/329
f 297/345/309 296/343/307 312/368/328
f 305/346/310 304/344/308 320/369/329
f 297/345/309 313/370/330 314/356/318
f 305/346/310 321/371/331 322/372/332
f 319/367/327 318/365/325 333/373/333
f 311/366/326 326/389/347 327/375/335
f 319/367/327 334/374/334 335/376/336
f 313/370/330 312/368/328 327/375/335
f 321/371/331 320/369/329 335/376/336
f 313/370/330 328/377/337 329/379/339
f 321/371/331 336/378/338 337/380/340
f 315/357/319 314/356/318 329/379/339
f 322/372/332 337/380/340 338/382/342
f 316/359/321 315/357/319 330/381/341
f 316/359/321 331/383/343 332/387/345
f 310/364/324 309/361/322 324/385/344
f 317/363/323 332/387/345 333/373/333
f 311/366/326 310/364/324 325/388/346
f 337/380/340 352/406/362 353/390/348
f 331/383/343 330/381/341 345/391/349
f 331/383/343 346/392/350 347/396/352
f 325/388/346 324/385/344 339/394/351
f 332/387/345 347/396/352 348/398/354
f 326/389/347 325/388/346 340/397/353
f 334/374/334 333/373/333 348/398/354
f 326/389/347 341/399/355 342/401/357
f 334/374/334 349/400/356 350/402/358
f 328/377/337 327/375/335 342/401/357
f 336/378/338 335/376/336 350/402/358
f 328/377/337 343/403/359 344/405/361
f 336/378/338 351/404/360 352/406/362
f 330/381/341 329/379/339 344/405/361
f 349/400/356 364/423/377 365/407/363
f 343/403/359 342/401/357 357/408/364
f 351/404/360 350/402/358 365/407/363
f 343/403/359 358/409/365 359/411/367
f 351/404/360 366/410/366 367/412/368
f 345/391/349 344/405/361 359/411/367
f 353/390/348 352/406/362 367/412/368
f 346/392/350 345/391/349 360/413/369
f 346/392/350 361/415/371 362/419/373
f 339/394/351 354/417/372 355/420/374
f 347/396/352 362/419/373 363/421/375
f 341/399/355 340/397/353 355/420/374
f 349/400/356 348/398/354 363/421/375
f 341/399/355 356/422/376 357/408/364
f 361/430/371 376/455/392 377/431/380
f 354/424/372 369/426/378 370/433/381
f 362/432/373 377/431/380 378/435/382
f 356/437/376 355/434/374 370/433/381
f 364/439/377 363/436/375 378/435/382
f 356/437/376 371/438/383 372/441/385
f 364/439/377 379/440/384 380/443/386
f 358/445/365 357/442/364 372/441/385
f 366/447/366 365/444/363 380/443/386
f 358/445/365 373/446/387 374/449/389
f 366/447/366 381/448/388 382/451/390
f 360/453/369 359/450/367 374/449/389
f 368/428/370 367/452/368 382/451/390
f 361/430/371 360/453/369 375/454/391
f 373/446/387 372/441/385 387/456/393
f 381/448/388 380/443/386 395/458/395
f 373/446/387 388/457/394 389/460/397
f 381/448/388 396/459/396 397/461/398
f 375/454/391 374/449/389 389/460/397
f 383/429/379 382/451/390 397/461/398
f 376/455/392 375/454/391 390/462/399
f 376/455/392 391/464/401 392/468/403
f 369/426/378 384/466/402 385/469/404
f 377/431/380 392/468/403 393/470/405
f 370/433/381 385/469/404 386/471/406
f 379/440/384 378/435/382 393/470/405
f 371/438/383 386/471/406 387/456/393
f 379/440/384 394/472/407 395/458/395
f 391/464/401 406/486/421 407/473/408
f 384/466/402 399/488/422 400/474/409
f 392/468/403 407/473/408 408/475/410
f 385/469/404 400/474/409 401/476/411
f 394/472/407 393/470/405 408/475/410
f 386/471/406 401/476/411 402/478/413
f 394/472/407 409/477/412 410/479/414
f 388/457/394 387/456/393 402/478/413
f 396/459/396 395/458/395 410/479/414
f 388/457/394 403/480/415 404/482/417
f 397/461/398 396/459/396 411/481/416
f 390/462/399 389/460/397 404/482/417
f 398/463/400 397/461/398 412/483/418
f 391/464/401 390/462/399 405/484/419
f 411/481/416 410/479/414 425/490/423
f 403/480/415 418/506/437 419/492/425
f 411/481/416 426/491/424 427/493/426
f 405/484/419 404/482/417 419/492/425
f 413/485/420 412/483/418 427/493/426
f 406/486/421 405/484/419 420/494/427
f 406/486/421 421/496/429 422/500/431
f 399/488/422 414/498/430 415/501/432
f 407/473/408 422/500/431 423/502/433
f 401/476/411 400/474/409 415/501/432
f 409/477/412 408/475/410 423/502/433
f 401/476/411 416/503/434 417/505/436
f 409/477/412 424/504/435 425/490/423
f 403/480/415 402/478/413 417/505/436
f 414/498/430 429/521/451 430/507/438
f 422/500/431 437/523/452 438/508/439
f 416/503/434 415/501/432 430/507/438
f 424/504/435 423/502/433 438/508/439
f 416/503/434 431/509/440 432/511/442
f 424/504/435 439/510/441 440/512/443
f 418/506/437 417/505/436 432/511/442
f 426/491/424 425/490/423 440/512/443
f 418/506/437 433/513/444 434/515/446
f 426/491/424 441/514/445 442/516/447
f 420/494/427 419/492/425 434/515/446
f 428/495/428 427/493/426 442/516/447
f 421/496/429 420/494/427 435/517/448
f 421/496/429 436/519/450 437/523/452
f 433/513/444 448/539/466 449/524/453
f 441/514/445 456/540/467 457/525/454
f 435/517/448 434/515/446 449/524/453
f 443/518/449 442/516/447 457/525/454
f 436/519/450 435/517/448 450/526/455
f 436/519/450 451/528/457 452/532/459
f 429/521/451 444/530/458 445/533/460
f 437/523/452 452/532/459 453/534/461
f 431/509/440 430/507/438 445/533/460
f 439/510/441 438/508/439 453/534/461
f 431/509/440 446/535/462 447/537/464
f 439/510/441 454/536/463 455/538/465
f 433/513/444 432/511/442 447/537/464
f 441/514/445 440/512/443 455/538/465
f 452/532/459 467/557/482 468/541/468
f 446/535/462 445/533/460 460/542/469
f 454/536/463 453/534/461 468/541/468
f 446/535/462 461/543/470 462/545/472
f 454/536/463 469/544/471 470/546/473
f 448/539/466 447/537/464 462/545/472
f 456/540/467 455/538/465 470/546/473
f 448/539/466 463/547/474 464/549/476
f 456/540/467 471/548/475 472/550/477
f 450/526/455 449/524/453 464/549/476
f 457/525/454 472/550/477 473/552/479
f 451/528/457 450/526/455 465/551/478
f 451/528/457 466/553/480 467/557/482
f 445/533/460 444/530/458 459/555/481
f 471/548/475 480/1/1 481/3/3
f 465/551/478 464/549/476 477/32/32
f 473/552/479 472/550/477 481/3/3
f 466/553/480 465/551/478 3/4/4
f 466/553/480 4/10/10 5/15/15
f 459/555/481 474/11/11 475/17/17
f 467/557/482 5/15/15 478/20/20
f 461/543/470 460/542/469 475/17/17
f 468/541/468 478/20/20 6/24/24
f 462/545/472 461/543/470 1/21/21
f 469/544/471 6/24/24 479/28/28
f 463/547/474 462/545/472 476/25/25
f 471/548/475 470/546/473 479/28/28
f 464/549/476 463/547/474 2/30/30
